<svg xmlns="http://www.w3.org/2000/svg" width="36.473" height="44.252" viewBox="0 0 36.473 44.252">
    <defs>
        <style>
            .cls-1{fill:#7e0cf5;stroke:#7e0cf5}
        </style>
    </defs>
    <g id="anju" transform="translate(.255 11.864)">
        <path id="Path_7719" d="M35.715 16.343c-.073 3.444-2.582 5.858-5.119 4.722-.036.084-.373 1.17-.5 1.442a13.71 13.71 0 0 1-5.463 5.959 10.047 10.047 0 0 1 1.471 1.546c.175.229-.652.863-.827.635A8.76 8.76 0 0 0 23.635 29a13.174 13.174 0 0 1-11.4 0 8.931 8.931 0 0 0-2.106 2.307A7.817 7.817 0 0 0 8.92 35h3.14v-2.37a.521.521 0 0 1 1.043 0V35h9.663v-2.37a.521.521 0 0 1 1.043 0V35h3.14a7.747 7.747 0 0 0-.669-2.69 6.158 6.158 0 0 0-1-1.667l.827-.635a7.5 7.5 0 0 1 1.125 1.875 16.389 16.389 0 0 1 .778 3.639.521.521 0 0 1-.521.521H8.382a.521.521 0 0 1-.521-.521 8.835 8.835 0 0 1 1.387-4.774 10.025 10.025 0 0 1 1.986-2.287 14.049 14.049 0 0 1-5.484-6c-.005-.007-.389-1.039-.473-1.233-.823.981-2.993.147-3.919-1.017A4.1 4.1 0 0 1 .75 15.3a2.619 2.619 0 0 1 3.522-1.018c.578-2.387.316-5.575 1.943-7.46a15.907 15.907 0 0 1 4.281-3.5 15.124 15.124 0 0 1 14.877 0 19.766 19.766 0 0 1 4.281 3.5 15.537 15.537 0 0 1 3.351 6.5c.368-.207 2.795-.067 2.71 3.021zm-2.068 2.966c1.389-1.746 1.306-3.473.716-4.332-1.26-1.4-2.486.33-3.027 1.153a10.605 10.605 0 0 1-.226 2.82c-.075.459-.207 1.274.427 1.364a2.349 2.349 0 0 0 2.11-1.005zM31.1 14.766a7.587 7.587 0 0 1 .97-.85 14.418 14.418 0 0 0-24.907-6.6 14.683 14.683 0 0 0-2.522 3.948 14.278 14.278 0 0 0-.841 2.652 7.586 7.586 0 0 1 .97.85 14.144 14.144 0 0 1 1.682-4.23c.1-.153.885.55.885.55a12.215 12.215 0 0 0-1.783 6.2 12.52 12.52 0 0 0 12.712 11.963 12.529 12.529 0 0 0 12.061-12.387v-.009a12.319 12.319 0 0 0-2.413-6.653 14.146 14.146 0 0 0-9.948-3.97c-4.825.181-7.94 1.822-9.438 3.327a14.035 14.035 0 0 0-1.195 1.524.522.522 0 1 1-.885-.55 13.138 13.138 0 0 1 1.341-1.705 15.42 15.42 0 0 1 10.177-3.773 15.789 15.789 0 0 1 10.216 3.862 12.2 12.2 0 0 1 2.918 5.851zm-26.415 4.3a11.468 11.468 0 0 1-.155-2.935c.124-.98-1.807-1.683-2.7-.415-.59.858-1.049 2.1.34 3.848a3.713 3.713 0 0 0 1.3 1.005c1.137.419 1.361-.727 1.218-1.504z" class="cls-1" transform="translate(0 -4.159)"/>
        <path id="Path_7721" d="M230.182 242.935a.521.521 0 0 1 .05.735 2.575 2.575 0 0 1-3.885 0 .521.521 0 1 1 .785-.685 1.534 1.534 0 0 0 2.314 0 .521.521 0 0 1 .736-.05z" class="cls-1" transform="translate(-210.411 -229.629)"/>
        <rect id="Rectangle_1168" width="1" height="2" class="cls-1" rx=".5" transform="translate(10.718 11.136)"/>
        <rect id="Rectangle_1169" width="1" height="2" class="cls-1" rx=".5" transform="translate(23.717 11.136)"/>
        <path id="Union_27" fill="#fff" stroke="#7e0cf5" stroke-linejoin="round" stroke-width="2px" d="M1.32 16.333a1.67 1.67 0 0 1 .267-.909 2.335 2.335 0 0 1-.112-.248 2.345 2.345 0 0 1-.522-4.064A3.692 3.692 0 0 1 2.64 6.4v-.066a2.983 2.983 0 0 1 2.967-3 2.935 2.935 0 0 1 1.024.183A3.309 3.309 0 0 1 9.895.668a3.262 3.262 0 0 1 2.082.749 3.6 3.6 0 0 1 5.727 0 3.263 3.263 0 0 1 2.083-.749 3.31 3.31 0 0 1 3.263 2.85 2.934 2.934 0 0 1 1.024-.183 2.984 2.984 0 0 1 2.968 3 3.068 3.068 0 0 1-.018.333h.018a2.673 2.673 0 0 1 2.239 4.077 2.343 2.343 0 0 1 .385 4.372 1.7 1.7 0 0 1 .014.218 1.648 1.648 0 0 1-3.29.165 2 2 0 0 1-.668-1.5v-.024a2.309 2.309 0 0 1-2.638-2.31 2.369 2.369 0 0 1 .039-.427 2.629 2.629 0 0 1-3.156-1.6 3.257 3.257 0 0 1-1.5.364A3.3 3.3 0 0 1 15.4 7.891a2.95 2.95 0 0 1-4.191.934 2.65 2.65 0 0 1-2.633 2.508 2.615 2.615 0 0 1-.7-.094 2.37 2.37 0 0 1 .039.427 2.326 2.326 0 0 1-2 2.314 2.375 2.375 0 0 1 .026.353 2.336 2.336 0 0 1-1.323 2.111 1.648 1.648 0 0 1-3.294-.111z" transform="translate(2.717 -4.864)"/>
        <g id="Ellipse_348" fill="none" stroke="#7e0cf5" stroke-width="2px" transform="translate(6.717 -11.864)">
            <ellipse cx="11" cy="2.5" stroke="none" rx="11" ry="2.5"/>
            <ellipse cx="11" cy="2.5" rx="10" ry="1.5"/>
        </g>
    </g>
</svg>
