<?xml version="1.0" standalone="no"?>
<!DOCTYPE svg PUBLIC "-//W3C//DTD SVG 20010904//EN"
 "http://www.w3.org/TR/2001/REC-SVG-20010904/DTD/svg10.dtd">
<svg version="1.0" xmlns="http://www.w3.org/2000/svg"
 width="449.000000pt" height="388.000000pt" viewBox="0 0 449.000000 388.000000"
 preserveAspectRatio="xMidYMid meet">

<g transform="translate(0.000000,388.000000) scale(0.100000,-0.100000)"
fill="#ffffff" stroke="none">
<path d="M3939 3856 c-20 -7 -49 -22 -65 -34 -16 -11 -437 -429 -936 -929
l-907 -908 -57 -160 c-30 -88 -72 -205 -92 -260 -40 -112 -45 -159 -19 -198
34 -52 62 -48 355 53 l267 93 923 921 c542 541 932 938 945 961 17 31 22 57
22 115 0 96 -22 136 -137 246 -113 108 -197 137 -299 100z m217 -209 l84 -83
0 -53 0 -54 -90 -91 -90 -91 -137 138 -138 137 91 90 91 90 52 0 c53 0 53 0
137 -83z m-327 -333 l134 -135 -49 -50 -48 -49 -133 132 c-73 73 -133 137
-133 142 0 11 80 96 90 96 3 0 65 -61 139 -136z m-691 -961 l-633 -633 -137
137 -138 138 632 632 633 633 137 -137 138 -138 -632 -632z m-746 -725 c-4 -4
-91 -36 -194 -72 -124 -42 -188 -60 -188 -52 0 10 74 231 126 375 3 10 47 -27
134 -114 71 -71 126 -133 122 -137z"/>
<path d="M399 3759 c-157 -23 -289 -136 -357 -306 l-27 -68 -3 -1109 c-2
-1080 -2 -1112 17 -1188 40 -155 147 -281 291 -339 29 -12 186 -15 905 -19
l870 -5 0 -210 0 -210 -385 -5 -385 -5 -1 -141 -1 -141 461 -5 c254 -2 669 -2
924 0 l462 4 0 144 0 144 -387 2 -388 3 0 210 0 210 875 5 875 5 69 34 c82 40
160 115 203 197 64 120 63 104 63 907 l0 728 -36 -35 c-64 -62 -152 -61 -216
4 l-38 38 0 -712 c0 -465 -4 -724 -11 -749 -12 -45 -58 -100 -96 -116 -21 -8
-507 -11 -1848 -9 l-1820 3 -32 23 c-17 12 -42 43 -55 70 l-23 47 0 1080 0
1081 26 49 c14 28 40 60 59 73 l33 22 1211 0 c1175 0 1210 1 1183 18 -86 57
-97 170 -25 239 18 17 40 33 48 36 25 9 -2380 5 -2441 -4z"/>
<path d="M2910 3665 c0 -56 3 -123 6 -148 6 -44 7 -45 33 -36 70 27 111 106
91 178 -11 43 -65 96 -106 104 l-24 4 0 -102z"/>
<path d="M560 3081 c-5 -11 -10 -43 -10 -71 0 -28 5 -60 10 -71 10 -19 33 -19
1090 -19 l1079 0 12 22 c14 26 17 90 6 131 l-7 27 -1085 0 c-1062 0 -1085 0
-1095 -19z"/>
<path d="M4263 2800 c-38 -23 -60 -55 -69 -98 l-6 -32 99 0 c55 0 121 3 147 6
41 6 46 10 46 32 0 16 -15 40 -44 68 -39 40 -48 44 -92 44 -31 0 -61 -7 -81
-20z"/>
<path d="M560 2581 c-11 -21 -14 -129 -4 -155 6 -14 82 -16 760 -16 860 0 774
-11 774 95 0 106 85 95 -770 95 -731 0 -750 0 -760 -19z"/>
</g>
</svg>
