<svg xmlns="http://www.w3.org/2000/svg" xmlns:xlink="http://www.w3.org/1999/xlink" width="50.972" height="76" viewBox="0 0 50.972 76"><defs><style>.a{fill:#090057;}.b{fill:#7e0cf5;}.c{filter:url(#c);}.d{filter:url(#a);}</style><filter id="a" x="0" y="0" width="50.972" height="76" filterUnits="userSpaceOnUse"><feOffset input="SourceAlpha"/><feGaussianBlur stdDeviation="2" result="b"/><feFlood flood-opacity="0.161"/><feComposite operator="in" in2="b"/><feComposite in="SourceGraphic"/></filter><filter id="c" x="9.807" y="10.106" width="31.364" height="58.11" filterUnits="userSpaceOnUse"><feOffset input="SourceAlpha"/><feGaussianBlur stdDeviation="2" result="d"/><feFlood flood-opacity="0.302"/><feComposite operator="in" in2="d"/><feComposite in="SourceGraphic"/></filter></defs><g transform="translate(-262 -655)"><g class="d" transform="matrix(1, 0, 0, 1, 262, 655)"><path class="a" d="M737.369,134.237c1.584-2.386,4.069-3.753,7.7-3.832,3.614.079,6.1,1.446,7.7,3.832h8.5a3.318,3.318,0,0,0,3.319-3.319V90.606q-.182-9.82-5.89-15.119a19.2,19.2,0,0,0-13.62-5.25,18.928,18.928,0,0,0-13.385,5.242q-5.992,5.287-6.077,15.095v40.344a3.319,3.319,0,0,0,3.319,3.319Z" transform="translate(-719.61 -64.24)"/></g><g class="c" transform="matrix(1, 0, 0, 1, 262, 655)"><path class="b" d="M753.141,109.476q.194-10.671,9.658-10.865,9.419.207,9.707,10.865v25.563a9.682,9.682,0,0,1-19.364,0Z" transform="translate(-737.33 -82.5)"/></g></g></svg>