<?xml version="1.0" standalone="no"?>
<!DOCTYPE svg PUBLIC "-//W3C//DTD SVG 20010904//EN"
 "http://www.w3.org/TR/2001/REC-SVG-20010904/DTD/svg10.dtd">
<svg version="1.0" xmlns="http://www.w3.org/2000/svg"
 width="1200.000000pt" height="1177.000000pt" viewBox="0 0 1200.000000 1177.000000"
 preserveAspectRatio="xMidYMid meet">

<g transform="translate(0.000000,1177.000000) scale(0.100000,-0.100000)"
fill="#ffffff" stroke="none">
<path d="M5845 11209 c-27 -5 -84 -9 -125 -8 -69 1 -117 -2 -270 -17 -30 -3
-71 -6 -90 -8 -19 -1 -42 -5 -50 -9 -8 -3 -26 -6 -40 -6 -14 0 -43 -3 -65 -6
-22 -3 -51 -7 -65 -8 -14 -1 -31 -6 -38 -10 -7 -5 -21 -6 -31 -2 -11 3 -22 1
-26 -4 -3 -6 -16 -11 -28 -11 -41 0 -72 -5 -84 -13 -7 -5 -18 -5 -23 -2 -6 4
-17 1 -25 -5 -8 -6 -19 -9 -25 -5 -6 4 -17 1 -25 -5 -8 -6 -19 -9 -24 -6 -5 4
-13 1 -16 -5 -4 -5 -14 -8 -22 -5 -9 4 -22 1 -29 -5 -7 -6 -18 -8 -23 -5 -5 4
-13 1 -16 -5 -4 -5 -13 -8 -21 -5 -7 3 -16 1 -20 -5 -3 -6 -12 -8 -20 -5 -7 3
-16 1 -20 -5 -3 -6 -12 -8 -20 -5 -7 3 -16 1 -20 -5 -3 -6 -12 -8 -20 -5 -8 3
-14 1 -14 -5 0 -6 -7 -9 -15 -6 -8 4 -17 2 -21 -4 -3 -6 -12 -8 -20 -5 -7 3
-16 1 -19 -5 -4 -5 -10 -7 -15 -4 -5 3 -12 0 -15 -6 -4 -5 -13 -8 -20 -5 -7 2
-16 2 -20 -2 -4 -4 -11 -8 -16 -8 -5 -1 -11 -3 -14 -4 -3 -1 -8 -3 -12 -5 -5
-1 -21 -7 -36 -13 -16 -7 -33 -10 -38 -6 -5 3 -9 0 -9 -6 0 -7 -7 -10 -15 -6
-8 3 -15 1 -15 -5 0 -6 -7 -9 -15 -5 -8 3 -15 1 -15 -5 0 -6 -4 -8 -9 -4 -5 3
-12 1 -16 -5 -4 -6 -10 -8 -15 -5 -5 3 -11 1 -15 -4 -3 -6 -12 -8 -20 -4 -8 3
-15 0 -15 -7 0 -6 -4 -8 -10 -5 -5 3 -10 1 -10 -5 0 -7 -7 -10 -15 -6 -8 3
-15 1 -15 -5 0 -6 -7 -9 -15 -5 -8 3 -15 1 -15 -4 0 -5 -7 -6 -17 -3 -12 5
-14 3 -8 -7 6 -10 4 -12 -8 -7 -10 3 -17 2 -17 -3 0 -5 -7 -6 -17 -3 -12 5
-14 3 -8 -7 6 -10 4 -12 -8 -7 -10 3 -17 2 -17 -3 0 -5 -7 -7 -15 -4 -8 4 -15
1 -15 -6 0 -6 -4 -8 -10 -5 -5 3 -10 2 -10 -4 0 -6 -7 -7 -17 -4 -12 5 -14 3
-8 -7 6 -10 4 -12 -8 -7 -12 4 -17 1 -17 -9 0 -11 -6 -15 -20 -11 -11 3 -23 1
-26 -4 -3 -5 -10 -7 -15 -4 -5 4 -9 1 -9 -5 0 -6 -4 -8 -10 -5 -5 3 -10 1 -10
-5 0 -6 -4 -8 -10 -5 -5 3 -10 2 -10 -4 0 -6 -7 -7 -17 -4 -11 4 -14 3 -9 -5
6 -11 -12 -17 -36 -13 -5 0 -8 -4 -8 -10 0 -5 -4 -7 -10 -4 -5 3 -10 1 -10 -5
0 -6 -4 -8 -10 -5 -5 3 -10 1 -10 -5 0 -6 -4 -8 -10 -5 -5 3 -10 1 -10 -5 0
-6 -4 -8 -10 -5 -5 3 -10 1 -10 -5 0 -6 -4 -8 -10 -5 -5 3 -10 1 -10 -5 0 -6
-4 -8 -10 -5 -5 3 -10 1 -10 -5 0 -6 -4 -8 -10 -5 -5 3 -10 1 -10 -5 0 -6 -4
-8 -10 -5 -5 3 -10 1 -10 -5 0 -6 -5 -8 -10 -5 -5 3 -10 1 -10 -5 0 -6 -4 -8
-10 -5 -5 3 -10 1 -10 -5 0 -6 -4 -8 -10 -5 -5 3 -10 1 -10 -5 0 -6 -4 -8 -10
-5 -5 3 -10 1 -10 -6 0 -7 -3 -10 -6 -6 -7 7 -34 -15 -28 -24 2 -3 -3 -6 -11
-7 -8 -1 -22 -3 -30 -4 -8 -1 -15 -5 -15 -10 0 -5 -4 -6 -10 -3 -5 3 -10 1
-10 -5 0 -6 -4 -8 -10 -5 -5 3 -10 1 -10 -4 0 -6 -7 -11 -15 -11 -8 0 -15 -5
-15 -11 0 -5 -4 -7 -10 -4 -5 3 -10 1 -10 -5 0 -6 -4 -9 -9 -6 -5 3 -12 -1
-15 -10 -3 -8 -10 -12 -16 -9 -5 3 -10 1 -10 -5 0 -6 -4 -9 -9 -6 -5 3 -12 -1
-15 -10 -4 -9 -9 -14 -12 -11 -3 3 -14 -3 -25 -14 -11 -11 -24 -17 -29 -14 -6
4 -10 1 -10 -5 0 -6 -4 -9 -9 -6 -5 3 -12 -1 -15 -10 -3 -8 -10 -13 -15 -10
-5 3 -12 -1 -15 -10 -3 -8 -10 -13 -15 -10 -5 3 -12 -1 -15 -10 -3 -8 -10 -12
-16 -9 -5 3 -10 1 -10 -4 0 -6 -7 -11 -15 -11 -8 0 -15 -4 -15 -10 0 -5 -6
-10 -14 -10 -8 0 -17 -7 -20 -16 -3 -8 -10 -12 -16 -9 -5 3 -10 1 -10 -4 0 -6
-6 -11 -14 -11 -8 0 -17 -7 -20 -16 -3 -8 -10 -13 -15 -10 -5 3 -11 -1 -15 -9
-3 -8 -12 -15 -20 -15 -7 0 -17 -7 -20 -16 -3 -8 -10 -13 -15 -10 -5 3 -11 -1
-15 -9 -3 -8 -12 -15 -20 -15 -7 0 -16 -7 -20 -15 -3 -8 -11 -15 -18 -15 -7 0
-19 -9 -26 -20 -7 -12 -17 -18 -21 -15 -5 2 -11 -2 -15 -10 -3 -8 -10 -15 -17
-15 -6 0 -20 -11 -31 -25 -11 -14 -23 -23 -28 -20 -4 3 -15 -7 -24 -20 -9 -14
-21 -23 -26 -20 -5 3 -14 -4 -20 -15 -6 -11 -15 -18 -21 -15 -5 4 -8 1 -7 -6
2 -7 -2 -13 -8 -14 -6 0 -23 -15 -38 -32 -15 -18 -31 -32 -35 -30 -4 1 -29
-20 -56 -48 -26 -27 -41 -41 -34 -29 8 11 -14 -9 -48 -45 -34 -36 -67 -65 -73
-63 -7 1 -9 -1 -6 -6 7 -12 -38 -54 -49 -45 -4 5 -5 3 -2 -4 4 -6 -33 -49 -90
-104 -54 -50 -91 -89 -83 -85 8 4 -10 -16 -40 -46 -31 -29 -49 -48 -40 -43 9
6 0 -5 -19 -23 -20 -19 -35 -38 -34 -42 2 -5 -10 -19 -25 -30 -15 -12 -27 -26
-27 -31 0 -4 -16 -23 -35 -40 -19 -17 -28 -27 -20 -23 9 5 7 1 -5 -10 -11 -10
-20 -23 -20 -28 0 -5 -8 -15 -17 -22 -10 -7 -18 -18 -18 -25 0 -6 -7 -14 -15
-17 -8 -4 -15 -13 -15 -20 0 -8 -7 -17 -15 -20 -8 -4 -13 -10 -10 -14 3 -5 -4
-15 -15 -23 -11 -7 -17 -16 -14 -20 3 -3 -4 -10 -15 -17 -12 -6 -19 -15 -16
-21 4 -5 -1 -12 -9 -15 -9 -3 -13 -10 -10 -15 3 -5 -2 -12 -10 -15 -9 -3 -13
-10 -10 -15 3 -5 -2 -12 -10 -15 -9 -3 -13 -10 -10 -15 3 -5 -2 -12 -10 -15
-9 -3 -16 -12 -16 -20 0 -8 -5 -14 -11 -14 -5 0 -7 -5 -4 -10 3 -6 -1 -13 -9
-16 -9 -3 -16 -12 -16 -20 0 -8 -5 -14 -11 -14 -5 0 -7 -5 -4 -10 3 -6 -1 -13
-9 -16 -9 -3 -13 -10 -10 -15 3 -5 0 -9 -5 -9 -6 0 -11 -7 -11 -15 0 -8 -5
-15 -11 -15 -5 0 -7 -5 -4 -10 3 -6 -1 -13 -9 -16 -9 -3 -13 -10 -10 -15 3 -5
0 -9 -6 -9 -6 0 -8 -5 -5 -10 3 -6 -1 -13 -9 -16 -9 -3 -13 -10 -10 -15 3 -5
0 -9 -6 -9 -6 0 -9 -4 -6 -8 3 -5 -3 -18 -14 -29 -10 -12 -16 -24 -13 -27 4
-3 1 -6 -6 -6 -7 0 -10 -4 -6 -10 3 -5 -3 -18 -14 -29 -11 -11 -17 -22 -14
-25 4 -3 1 -6 -6 -6 -7 0 -9 -4 -6 -10 3 -5 1 -10 -5 -10 -6 0 -8 -4 -5 -10 3
-5 1 -10 -5 -10 -6 0 -8 -4 -5 -10 3 -5 1 -10 -4 -10 -6 0 -10 -3 -9 -7 2 -9
-87 -192 -101 -209 -5 -7 -7 -15 -4 -18 4 -3 1 -6 -6 -6 -7 0 -9 -4 -6 -10 3
-5 1 -10 -5 -10 -6 0 -8 -4 -5 -10 3 -5 1 -10 -5 -10 -6 0 -8 -4 -5 -10 3 -5
1 -10 -5 -10 -6 0 -8 -4 -5 -10 3 -5 2 -10 -4 -10 -6 0 -7 -7 -4 -17 5 -12 3
-14 -7 -8 -10 6 -12 4 -7 -8 3 -10 2 -17 -4 -17 -6 0 -7 -4 -4 -10 3 -5 2 -10
-4 -10 -6 0 -8 -7 -5 -15 4 -8 1 -15 -6 -15 -6 0 -8 -4 -5 -10 3 -5 1 -10 -5
-10 -6 0 -8 -4 -5 -10 3 -5 1 -10 -5 -10 -7 0 -10 -7 -6 -15 3 -8 1 -15 -5
-15 -6 0 -7 -4 -4 -10 3 -5 1 -10 -5 -10 -7 0 -10 -7 -6 -15 3 -8 1 -15 -5
-15 -6 0 -7 -4 -4 -10 3 -5 1 -10 -5 -10 -7 0 -10 -7 -6 -15 3 -8 1 -15 -4
-15 -5 0 -7 -7 -4 -15 4 -8 1 -15 -6 -15 -6 0 -8 -4 -5 -10 3 -5 1 -10 -5 -10
-7 0 -10 -7 -6 -15 3 -8 1 -15 -4 -15 -5 0 -7 -7 -4 -15 4 -8 1 -15 -5 -15 -6
0 -8 -7 -5 -15 4 -8 1 -15 -5 -15 -6 0 -8 -7 -5 -15 4 -8 1 -15 -5 -15 -6 0
-8 -7 -5 -15 4 -8 1 -15 -6 -15 -6 0 -9 -4 -5 -9 3 -5 1 -12 -4 -16 -6 -3 -8
-12 -4 -20 3 -8 0 -15 -6 -15 -6 0 -8 -7 -4 -17 5 -11 3 -14 -6 -8 -10 5 -11
2 -6 -14 4 -12 2 -21 -4 -21 -6 0 -8 -7 -5 -15 4 -8 1 -15 -6 -15 -7 0 -10 -7
-7 -15 4 -8 2 -17 -3 -20 -5 -3 -7 -12 -3 -20 3 -8 0 -15 -7 -15 -7 0 -9 -8
-5 -20 4 -11 2 -20 -4 -20 -6 0 -8 -7 -5 -15 4 -8 1 -15 -6 -15 -7 0 -9 -8 -5
-20 4 -12 2 -20 -5 -20 -7 0 -9 -8 -5 -20 4 -12 2 -20 -5 -20 -7 0 -9 -8 -5
-20 4 -12 2 -20 -5 -20 -7 0 -9 -8 -5 -20 4 -12 2 -20 -5 -20 -7 0 -9 -8 -5
-19 3 -11 2 -22 -4 -25 -5 -3 -7 -15 -4 -25 3 -10 0 -22 -6 -25 -5 -4 -8 -13
-5 -20 3 -8 1 -17 -4 -20 -6 -3 -8 -15 -5 -25 3 -10 0 -22 -6 -25 -5 -4 -8
-13 -4 -21 3 -9 0 -21 -6 -29 -6 -7 -9 -21 -5 -29 3 -9 2 -22 -2 -29 -4 -6 -9
-21 -10 -32 -1 -12 -5 -37 -8 -56 -4 -19 -6 -49 -6 -67 0 -17 -4 -34 -10 -38
-5 -3 -7 -17 -4 -30 3 -13 2 -30 -2 -37 -5 -7 -9 -29 -10 -48 -2 -19 -5 -57
-8 -85 -11 -115 -28 -418 -29 -525 0 -87 18 -425 30 -535 3 -27 5 -69 5 -92 0
-24 5 -43 11 -43 5 0 7 -13 4 -30 -4 -16 -2 -32 4 -36 6 -3 9 -18 8 -32 -2
-15 0 -32 4 -39 4 -6 7 -22 7 -34 0 -39 6 -74 14 -87 4 -7 4 -21 1 -32 -4 -12
-2 -20 5 -20 6 0 10 -10 9 -22 -1 -13 1 -31 5 -40 4 -9 5 -21 2 -27 -4 -5 -2
-13 4 -16 6 -4 8 -15 5 -26 -4 -11 -2 -19 5 -19 7 0 10 -8 7 -20 -3 -11 -1
-23 5 -26 5 -3 7 -12 4 -20 -3 -7 -1 -16 5 -20 5 -3 7 -14 4 -25 -4 -11 -2
-19 5 -19 7 0 9 -8 5 -20 -4 -12 -2 -20 5 -20 7 0 9 -8 5 -20 -4 -12 -2 -20 5
-20 7 0 9 -8 5 -20 -4 -12 -2 -20 5 -20 7 0 9 -8 5 -21 -5 -16 -4 -19 6 -14 9
6 11 2 7 -13 -4 -12 -2 -22 4 -22 6 0 8 -7 4 -15 -3 -8 -1 -15 5 -15 6 0 8 -9
4 -20 -4 -12 -2 -20 5 -20 7 0 10 -7 6 -15 -3 -8 -1 -15 5 -15 6 0 9 -7 5 -15
-3 -8 -1 -15 5 -15 6 0 9 -7 5 -15 -3 -8 -1 -15 5 -15 6 0 9 -7 6 -15 -4 -8
-2 -17 4 -20 5 -4 7 -11 4 -16 -4 -5 -1 -9 5 -9 7 0 10 -7 6 -15 -3 -8 -1 -15
5 -15 6 0 9 -7 5 -15 -3 -8 -1 -15 5 -15 6 0 9 -6 6 -14 -3 -8 -2 -16 3 -18 5
-2 11 -12 13 -23 1 -11 6 -26 10 -32 5 -7 5 -13 0 -13 -4 0 -2 -4 5 -9 7 -4
14 -18 15 -29 1 -12 5 -22 10 -22 5 0 7 -6 4 -14 -3 -8 -2 -16 3 -18 4 -2 10
-12 12 -23 1 -11 7 -23 11 -26 4 -3 9 -16 10 -27 1 -12 5 -22 10 -22 4 0 6 -4
3 -9 -4 -5 -1 -11 4 -13 6 -2 12 -13 13 -26 0 -12 5 -22 10 -22 4 0 5 -4 2
-10 -3 -5 -2 -10 3 -10 9 0 27 -47 24 -62 -1 -5 3 -8 9 -8 5 0 7 -4 4 -10 -3
-5 -1 -10 5 -10 6 0 9 -4 6 -9 -4 -5 -3 -11 2 -13 10 -4 137 -260 134 -270 -1
-5 3 -8 9 -8 5 0 7 -4 4 -10 -3 -5 -1 -10 6 -10 7 0 10 -3 6 -6 -3 -3 3 -15
13 -27 11 -11 17 -24 14 -29 -3 -4 0 -8 7 -8 7 0 9 -3 6 -7 -4 -3 0 -11 8 -17
7 -6 15 -17 17 -25 2 -8 9 -22 16 -30 7 -9 12 -20 11 -24 0 -5 6 -14 15 -20 8
-7 16 -19 18 -27 2 -8 11 -23 20 -34 10 -10 15 -22 13 -26 -3 -5 2 -11 11 -14
8 -3 13 -10 10 -15 -3 -5 1 -12 10 -15 8 -3 13 -10 10 -15 -3 -5 1 -12 10 -15
9 -4 14 -9 11 -12 -2 -3 6 -17 19 -31 13 -14 21 -29 19 -33 -3 -4 2 -11 11
-14 8 -3 13 -10 10 -15 -3 -5 1 -12 10 -15 8 -3 13 -10 10 -15 -3 -5 1 -12 10
-15 8 -3 13 -10 9 -15 -3 -6 4 -15 16 -21 11 -7 18 -14 15 -17 -3 -3 5 -14 17
-24 12 -10 18 -18 13 -19 -4 0 2 -9 15 -21 13 -11 17 -17 9 -14 -8 4 -1 -4 15
-19 17 -14 26 -25 21 -26 -4 0 2 -9 15 -20 13 -10 20 -19 15 -20 -5 0 3 -10
18 -21 15 -12 25 -24 22 -26 -3 -3 6 -14 19 -25 14 -11 23 -23 20 -27 -2 -4 9
-18 25 -30 17 -12 29 -25 27 -29 -1 -4 14 -23 33 -41 19 -18 28 -30 20 -26 -8
4 9 -14 37 -39 29 -26 52 -50 51 -54 -1 -4 81 -90 183 -191 101 -101 175 -173
165 -160 -11 13 3 2 30 -26 27 -27 52 -49 56 -48 4 2 21 -14 39 -35 17 -20 28
-30 24 -22 -4 8 8 -1 26 -20 18 -19 37 -34 41 -33 4 2 16 -8 26 -22 11 -13 22
-22 25 -19 3 3 13 -6 22 -20 10 -14 21 -24 25 -21 5 3 16 -5 24 -17 9 -12 16
-18 16 -13 1 6 9 0 19 -12 10 -12 21 -20 24 -17 3 3 12 -3 19 -15 7 -12 19
-21 26 -21 7 0 15 -7 18 -15 4 -8 10 -12 15 -9 5 3 12 -2 15 -10 3 -9 13 -16
20 -16 8 0 17 -7 20 -15 4 -8 10 -12 15 -9 5 3 12 -2 15 -10 3 -9 10 -13 15
-10 5 3 12 -2 15 -10 3 -9 12 -16 20 -16 8 0 14 -4 14 -10 0 -5 7 -10 15 -10
8 0 15 -4 15 -10 0 -5 7 -10 15 -10 8 0 15 -5 15 -11 0 -5 5 -7 10 -4 6 3 13
-1 16 -9 3 -9 10 -13 15 -10 5 3 12 -2 15 -10 3 -9 10 -13 15 -10 5 3 12 -2
15 -10 3 -9 10 -13 15 -10 5 3 9 0 9 -6 0 -6 5 -8 10 -5 6 3 13 -1 16 -9 3 -9
10 -13 15 -10 5 3 9 0 9 -5 0 -6 7 -11 15 -11 8 0 15 -5 15 -11 0 -5 5 -7 10
-4 6 3 10 1 10 -5 0 -6 5 -8 10 -5 6 3 13 -1 16 -9 3 -9 10 -13 15 -10 5 3 9
0 9 -6 0 -6 4 -8 10 -5 5 3 10 1 10 -5 0 -6 5 -8 10 -5 6 3 13 -1 16 -9 3 -9
10 -13 15 -10 5 3 9 0 9 -6 0 -6 4 -8 10 -5 5 3 10 1 10 -6 0 -7 3 -9 6 -6 8
8 64 -24 64 -36 0 -4 5 -5 10 -2 6 3 10 1 10 -5 0 -6 5 -8 10 -5 6 3 10 1 10
-5 0 -6 5 -8 10 -5 5 3 10 1 10 -5 0 -6 5 -8 10 -5 6 3 10 1 10 -5 0 -6 4 -8
10 -5 5 3 10 1 10 -5 0 -6 5 -8 10 -5 6 3 10 1 10 -5 0 -6 4 -8 10 -5 5 3 10
1 10 -5 0 -6 5 -8 10 -5 6 3 10 1 10 -5 0 -6 5 -8 10 -5 6 3 10 1 10 -5 0 -6
4 -8 10 -5 6 3 10 1 10 -5 0 -6 5 -8 10 -5 6 3 10 1 10 -5 0 -6 5 -8 10 -5 6
3 10 1 10 -6 0 -7 3 -10 6 -6 8 8 64 -13 64 -25 0 -5 4 -6 10 -3 5 3 10 1 10
-5 0 -6 5 -8 10 -5 6 3 10 1 10 -5 0 -6 5 -8 10 -5 6 3 10 2 10 -4 0 -6 8 -7
17 -4 13 5 15 2 10 -12 -6 -15 -5 -16 8 -5 11 9 15 9 15 1 0 -7 4 -10 9 -7 14
9 42 -5 34 -17 -4 -6 0 -8 10 -4 10 3 17 2 17 -4 0 -6 5 -7 10 -4 6 3 10 1 10
-5 0 -7 7 -10 15 -6 8 3 15 1 15 -5 0 -6 5 -7 10 -4 6 3 10 1 10 -5 0 -7 7
-10 15 -6 8 3 15 1 15 -4 0 -5 7 -7 15 -4 8 4 15 1 15 -6 0 -6 4 -9 9 -5 5 3
12 1 16 -5 4 -6 11 -8 16 -5 5 4 9 2 9 -4 0 -6 7 -8 15 -5 8 4 15 1 15 -6 0
-6 4 -8 10 -5 6 3 10 1 10 -5 0 -7 6 -10 14 -7 8 3 17 3 20 -1 4 -3 17 -7 29
-9 12 -2 23 -8 25 -13 2 -5 10 -6 18 -3 8 3 14 1 14 -3 0 -5 10 -10 23 -11 12
0 36 -7 52 -14 17 -7 36 -11 43 -10 6 1 12 -3 12 -8 0 -6 7 -8 15 -5 8 4 15 1
15 -5 0 -6 7 -8 15 -5 8 4 15 1 15 -6 0 -7 7 -10 15 -6 8 3 15 1 15 -5 0 -6 9
-8 19 -4 11 3 22 1 25 -4 4 -6 13 -8 21 -4 8 3 15 0 15 -7 0 -7 7 -10 15 -7 8
4 17 2 20 -3 3 -5 12 -7 19 -4 8 3 17 1 20 -5 4 -6 13 -8 20 -5 8 3 17 1 20
-4 3 -6 15 -8 26 -5 11 3 20 0 20 -6 0 -5 6 -8 14 -5 8 3 17 0 21 -6 4 -6 15
-8 25 -5 10 3 21 1 24 -4 4 -6 13 -8 20 -5 8 3 17 0 21 -6 4 -6 15 -8 25 -5
10 3 21 1 25 -5 4 -6 15 -8 25 -5 10 3 21 1 25 -5 4 -6 15 -8 25 -5 10 3 21 1
25 -5 3 -5 17 -7 30 -4 12 3 26 1 30 -5 3 -6 17 -8 30 -5 12 3 26 1 30 -6 4
-6 15 -8 26 -5 10 4 24 3 31 -2 7 -4 27 -9 43 -10 17 -1 48 -5 70 -8 179 -25
525 -48 730 -48 144 -1 419 13 555 28 30 3 71 8 90 10 19 2 55 6 80 10 25 3
59 8 75 10 28 4 44 6 125 20 17 3 42 7 58 9 15 3 38 7 52 10 14 3 36 7 50 10
25 5 55 11 100 22 14 3 32 6 40 6 8 0 21 5 28 11 7 5 15 7 18 4 3 -3 20 -1 37
4 30 9 48 14 87 24 8 2 17 4 20 6 3 1 10 3 15 4 6 2 12 4 15 5 3 1 14 4 25 6
34 8 50 12 50 14 0 2 16 6 50 14 11 2 22 5 25 6 3 1 8 2 13 1 4 0 7 4 7 10 0
6 6 9 14 6 7 -3 19 0 25 6 6 6 11 8 11 5 0 -4 16 0 35 8 19 8 37 14 40 14 8 0
23 4 48 13 9 4 25 10 35 14 9 3 20 7 25 8 4 2 9 4 12 5 3 1 8 3 13 4 4 1 13 5
20 9 6 5 12 5 12 1 0 -3 11 1 25 10 14 9 25 14 25 10 0 -4 7 -1 15 6 8 7 15 9
15 5 0 -4 11 0 25 9 14 9 25 14 25 11 0 -3 10 0 23 7 12 6 28 13 35 14 8 1 22
10 32 19 10 9 23 14 29 11 5 -3 16 1 24 9 9 8 24 16 34 18 45 9 72 20 68 27
-6 10 24 22 36 14 5 -3 9 0 9 6 0 6 5 8 10 5 6 -3 10 -1 10 6 0 7 3 10 6 6 8
-7 206 91 216 107 4 6 8 7 8 3 0 -4 10 1 22 13 12 11 30 20 39 20 10 0 25 7
33 16 9 8 16 12 16 7 0 -4 4 -2 9 6 5 8 18 16 28 17 9 2 19 8 21 14 2 5 8 8
13 4 5 -3 9 0 9 5 0 6 6 11 14 11 8 0 21 6 28 14 8 7 24 17 36 20 12 4 22 12
22 17 0 5 7 9 15 9 8 0 15 5 15 11 0 5 5 7 10 4 6 -3 10 -1 10 4 0 6 7 11 15
11 8 0 15 5 15 10 0 6 7 10 15 10 8 0 15 5 15 10 0 6 7 10 15 10 8 0 15 5 15
10 0 6 7 10 15 10 8 0 15 5 15 10 0 6 7 10 15 10 8 0 15 5 15 10 0 6 7 10 15
10 8 0 15 5 15 10 0 6 7 10 15 10 8 0 15 5 15 10 0 6 6 10 13 10 7 0 19 9 27
19 7 11 17 18 22 15 4 -3 8 0 8 5 0 6 6 11 14 11 8 0 16 7 20 15 3 8 11 15 18
15 7 0 19 9 26 21 7 12 16 18 19 15 3 -3 14 4 24 16 11 11 19 17 19 12 0 -5 5
-1 11 9 5 9 16 17 24 17 8 0 19 9 25 20 6 11 16 20 23 20 7 0 20 8 29 17 10
10 31 29 48 43 105 87 199 172 287 262 47 48 89 85 93 83 5 -3 12 0 16 6 5 8
3 9 -6 4 -9 -5 -11 -4 -6 3 4 7 13 12 20 12 8 0 20 8 27 18 13 16 12 16 -6 3
-11 -7 14 20 55 61 41 42 93 97 115 122 22 26 53 60 69 77 15 16 25 29 21 29
-4 0 8 15 27 34 47 49 63 70 61 78 -2 4 8 15 22 24 14 9 23 20 20 24 -3 5 4
15 15 23 11 7 17 16 14 20 -3 3 6 13 20 22 14 10 23 21 20 26 -3 5 2 12 10 15
9 3 14 10 11 14 -3 5 4 15 15 23 11 7 17 17 14 20 -4 4 1 9 10 13 9 3 16 13
16 20 0 8 7 17 15 20 8 4 12 10 9 15 -3 5 2 12 10 15 9 3 13 10 10 15 -3 5 2
12 10 15 9 3 16 12 16 20 0 8 5 14 11 14 5 0 7 5 4 10 -3 6 1 13 9 16 9 3 13
10 10 15 -3 5 2 12 10 15 9 3 13 10 10 15 -3 5 2 12 10 15 9 3 13 10 10 15 -3
5 2 12 10 15 9 3 13 10 10 15 -3 5 0 9 5 9 6 0 11 7 11 15 0 8 5 15 11 15 5 0
7 5 4 10 -3 6 1 13 9 16 9 3 13 10 10 15 -3 5 0 9 6 9 6 0 8 5 5 10 -3 6 1 13
9 16 9 3 13 10 10 15 -3 5 0 9 6 9 6 0 9 4 5 10 -3 5 3 18 14 29 11 11 17 22
14 25 -4 3 -1 6 6 6 7 0 10 4 7 8 -3 5 3 18 14 29 10 12 16 24 13 27 -4 3 -1
6 6 6 7 0 9 5 6 10 -3 6 -1 10 5 10 6 0 8 5 5 10 -3 6 -1 10 5 10 6 0 8 5 5
10 -3 6 -1 10 4 10 6 0 11 4 11 10 0 14 93 205 102 208 5 2 6 8 2 13 -3 5 0 9
6 9 6 0 8 5 5 10 -3 6 -1 10 5 10 6 0 8 4 5 10 -3 5 -1 10 6 10 7 0 9 3 6 6
-3 4 -1 16 5 28 7 11 11 24 10 29 -1 4 3 7 9 7 5 0 7 4 4 10 -3 5 -2 10 2 10
5 0 10 10 10 22 1 13 7 24 13 26 5 2 8 8 4 13 -3 5 0 9 6 9 6 0 9 4 5 9 -3 5
-1 12 5 16 6 4 8 11 5 16 -4 5 -1 9 5 9 6 0 9 4 5 9 -3 5 -1 12 5 16 6 4 8 11
5 16 -4 5 -1 9 5 9 6 0 9 4 5 9 -3 5 -1 12 5 16 6 4 8 11 5 16 -4 5 -2 9 4 9
6 0 8 7 5 15 -4 8 -1 15 5 15 6 0 10 3 10 8 -1 4 -1 9 1 12 1 3 4 16 6 30 3
14 9 26 14 28 5 2 6 10 3 18 -3 8 0 14 6 14 6 0 8 7 5 15 -4 8 -1 15 5 15 6 0
8 7 5 15 -4 8 -1 15 6 15 6 0 9 4 5 9 -3 5 -1 12 4 16 6 3 8 12 4 20 -3 8 0
15 6 15 6 0 8 7 5 15 -4 8 -1 15 5 15 6 0 8 6 5 14 -3 8 0 17 5 21 6 3 9 10 6
15 -3 5 -1 11 4 15 6 3 8 12 4 20 -3 8 0 15 6 15 6 0 8 6 5 14 -3 8 -1 17 5
20 6 4 8 13 4 21 -3 8 0 15 6 15 6 0 8 6 5 14 -3 8 -1 17 5 20 6 4 8 13 5 20
-3 8 -1 17 5 20 6 4 8 13 5 20 -3 8 -1 17 4 20 6 3 8 15 5 25 -3 10 1 30 8 42
7 13 12 29 11 36 -1 6 2 14 7 18 6 3 8 12 4 20 -3 9 0 21 6 29 6 7 8 16 4 19
-3 4 -1 13 6 20 6 8 9 21 5 30 -3 8 -1 18 5 22 6 3 8 17 5 31 -4 15 -2 24 6
24 7 0 9 8 5 20 -3 11 -3 25 2 32 8 14 13 46 14 90 0 15 4 30 9 33 6 4 7 17 4
30 -3 13 -2 30 2 37 5 7 9 27 11 43 1 17 4 50 7 75 18 145 39 488 39 620 0 95
-18 419 -29 525 -2 28 -6 66 -7 85 -1 19 -6 41 -10 48 -5 7 -6 24 -3 37 3 13
2 27 -4 30 -5 3 -10 20 -9 38 0 18 -3 48 -6 67 -3 19 -7 44 -8 55 -1 11 -6 26
-10 33 -5 7 -6 21 -2 31 3 11 1 22 -5 26 -6 4 -8 15 -5 25 3 10 1 21 -5 25 -6
4 -8 15 -5 25 3 10 1 21 -5 25 -6 4 -9 13 -6 21 3 7 1 16 -5 20 -5 3 -7 14 -4
24 3 10 1 21 -5 25 -6 4 -9 13 -6 21 3 7 1 16 -5 20 -6 3 -8 12 -5 20 3 7 1
16 -5 20 -6 3 -8 12 -5 20 3 7 1 16 -5 20 -6 3 -8 12 -5 20 3 7 1 16 -5 20 -6
3 -8 12 -5 20 3 7 1 16 -5 20 -6 3 -8 12 -5 20 3 8 1 14 -5 14 -6 0 -9 7 -6
15 4 8 2 17 -4 21 -6 3 -8 12 -5 19 2 7 -1 18 -7 24 -6 6 -7 11 -3 11 5 0 3 7
-4 15 -7 8 -9 15 -5 15 4 0 2 7 -5 15 -6 8 -9 19 -5 25 3 5 1 10 -5 10 -7 0
-10 7 -6 15 3 8 1 15 -5 15 -6 0 -9 7 -5 15 3 8 1 15 -5 15 -6 0 -9 7 -5 15 3
8 1 15 -5 15 -6 0 -9 7 -5 15 3 8 1 15 -5 15 -6 0 -9 7 -5 15 3 8 1 15 -5 15
-6 0 -9 6 -6 14 3 8 2 16 -3 18 -5 2 -11 14 -14 28 -2 14 -5 27 -6 30 -2 3 -2
8 -1 13 0 4 -4 7 -10 7 -6 0 -9 7 -5 15 3 8 1 15 -5 15 -6 0 -8 4 -4 9 3 5 1
12 -5 16 -6 4 -8 11 -5 16 4 5 1 9 -5 9 -6 0 -9 4 -5 9 3 5 1 12 -5 16 -6 4
-8 11 -5 16 4 5 1 9 -5 9 -6 0 -9 4 -5 9 3 5 1 12 -5 16 -6 4 -8 11 -5 16 4 5
1 9 -5 9 -6 0 -9 4 -6 9 4 5 1 11 -4 13 -6 2 -12 13 -13 26 0 12 -5 22 -10 22
-4 0 -5 5 -2 10 3 6 1 10 -5 10 -6 0 -9 4 -5 9 3 5 1 12 -5 16 -6 4 -8 11 -5
16 4 5 1 9 -5 9 -6 0 -8 5 -5 10 3 6 1 10 -5 10 -6 0 -8 5 -5 10 3 6 1 10 -5
10 -6 0 -8 5 -5 10 3 6 1 10 -5 10 -6 0 -9 4 -6 9 4 5 3 11 -1 13 -10 4 -107
200 -105 211 1 4 -3 7 -9 7 -5 0 -7 5 -4 10 3 6 1 10 -5 10 -6 0 -8 5 -5 10 3
6 1 10 -5 10 -6 0 -8 5 -5 10 3 6 1 10 -6 10 -7 0 -10 3 -6 6 3 3 -3 14 -14
25 -11 11 -17 24 -14 29 4 6 1 10 -6 10 -7 0 -10 3 -6 6 3 3 -3 15 -13 27 -11
11 -17 24 -14 29 3 4 0 8 -6 8 -6 0 -9 4 -6 9 3 5 -1 12 -10 15 -8 3 -12 10
-9 16 3 5 1 10 -5 10 -6 0 -9 4 -6 9 3 5 -1 12 -10 15 -8 3 -12 10 -9 16 3 5
1 10 -4 10 -6 0 -11 7 -11 15 0 8 -5 15 -11 15 -5 0 -8 4 -5 9 3 5 -1 12 -10
15 -8 3 -12 10 -9 16 3 5 1 10 -4 10 -6 0 -11 6 -11 14 0 8 -7 17 -16 20 -8 3
-12 10 -9 16 3 5 1 10 -4 10 -6 0 -11 7 -11 15 0 8 -4 15 -10 15 -5 0 -10 6
-10 14 0 8 -7 17 -16 20 -8 3 -13 10 -10 15 3 5 -1 12 -10 15 -8 3 -13 10 -10
15 3 5 -1 12 -10 15 -8 3 -13 10 -9 15 3 6 -4 15 -16 21 -11 7 -18 14 -15 17
3 4 -3 13 -14 20 -11 8 -18 18 -15 23 3 4 -2 11 -11 14 -8 3 -13 10 -9 15 3 6
-4 15 -15 21 -11 6 -19 14 -17 19 1 5 -9 18 -23 30 -14 13 -18 19 -10 16 8 -4
-1 8 -21 27 -19 18 -28 29 -19 23 9 -5 -3 8 -26 30 -50 49 -77 83 -54 70 24
-14 -16 33 -94 109 -39 38 -60 61 -46 51 14 -10 -11 16 -55 58 -44 41 -80 81
-80 89 -1 7 -6 12 -11 11 -6 -1 -29 17 -50 40 -21 22 -30 35 -19 27 18 -14 19
-14 7 2 -8 10 -18 16 -23 15 -5 -1 -42 32 -81 74 -40 42 -66 66 -58 54 8 -12
-12 6 -44 39 -32 34 -53 52 -46 41 7 -11 -9 3 -35 30 -26 28 -42 41 -35 30 7
-11 -4 -2 -25 20 -20 22 -34 33 -30 25 4 -8 -8 1 -25 20 -17 19 -29 28 -25 20
4 -8 -8 1 -25 20 -17 19 -29 28 -25 20 3 -8 -6 -1 -20 15 -15 17 -24 23 -20
15 3 -8 -3 -4 -15 10 -12 14 -26 25 -31 25 -4 0 -15 9 -24 20 -9 11 -14 13
-10 5 4 -8 -6 -1 -20 15 -15 17 -24 23 -20 15 4 -8 -5 -1 -20 15 -14 17 -23
23 -20 15 4 -8 -3 -4 -15 10 -12 14 -19 18 -15 10 4 -8 -3 -4 -14 10 -11 14
-21 21 -21 16 0 -6 -7 -1 -16 10 -8 10 -13 12 -9 4 4 -8 -3 -4 -14 10 -11 14
-21 21 -21 16 0 -6 -7 -1 -15 10 -8 10 -15 15 -15 10 0 -6 -7 -1 -16 10 -8 10
-13 12 -9 4 4 -8 -3 -4 -15 10 -12 14 -19 18 -15 10 4 -8 -1 -6 -9 4 -9 11
-16 16 -16 10 0 -5 -7 0 -15 10 -8 11 -15 16 -15 11 0 -5 -7 0 -16 11 -8 10
-13 12 -9 4 4 -8 -1 -6 -9 4 -9 11 -16 16 -16 10 0 -5 -5 -1 -11 9 -6 9 -14
15 -20 12 -5 -4 -9 -1 -9 6 0 7 -3 9 -7 6 -3 -4 -12 1 -20 11 -10 11 -12 12
-8 2 4 -8 -1 -6 -9 4 -9 11 -16 17 -16 13 0 -4 -9 2 -20 13 -12 12 -25 18 -30
15 -6 -4 -10 -1 -10 5 0 6 -4 8 -10 5 -5 -3 -10 -1 -10 6 0 7 -3 9 -7 6 -3 -4
-12 1 -20 11 -8 9 -11 11 -8 4 6 -11 3 -12 -14 -3 -11 7 -21 16 -21 22 0 6 -4
8 -9 5 -5 -3 -12 1 -15 10 -4 9 -13 14 -21 10 -8 -3 -15 -1 -15 5 0 6 -4 7
-10 4 -5 -3 -10 -1 -10 5 0 6 -4 8 -10 5 -5 -3 -10 -1 -10 5 0 6 -4 8 -10 5
-5 -3 -10 -1 -10 5 0 6 -4 8 -10 5 -5 -3 -10 -1 -10 5 0 6 -4 8 -10 5 -5 -3
-10 -1 -10 5 0 6 -4 8 -10 5 -5 -3 -10 -1 -10 5 0 6 -4 8 -10 5 -5 -3 -10 -1
-10 5 0 6 -4 8 -10 5 -5 -3 -10 -1 -10 5 0 6 -4 8 -10 5 -5 -3 -10 -1 -10 5 0
6 -4 8 -10 5 -5 -3 -10 -1 -10 5 0 6 -4 8 -10 5 -5 -3 -10 -1 -10 5 0 6 -4 8
-10 5 -5 -3 -10 -1 -10 5 0 6 -4 8 -10 5 -5 -3 -10 -1 -10 5 0 7 -7 10 -15 6
-8 -3 -15 -1 -15 5 0 6 -4 7 -10 4 -5 -3 -10 -1 -10 5 0 6 -4 8 -10 5 -5 -3
-10 -1 -10 5 0 6 -4 9 -9 5 -5 -3 -12 -1 -16 5 -4 6 -11 8 -16 5 -5 -4 -9 -1
-9 5 0 6 -4 8 -10 5 -5 -3 -10 -2 -10 4 0 6 -7 7 -17 4 -12 -5 -14 -3 -8 7 6
10 4 12 -8 7 -10 -3 -17 -2 -17 4 0 6 -4 8 -9 4 -5 -3 -12 -1 -16 5 -4 6 -11
8 -16 5 -5 -4 -9 -2 -9 4 0 6 -7 8 -15 5 -8 -4 -15 -1 -15 6 0 6 -4 8 -10 5
-5 -3 -10 -2 -10 4 0 6 -7 8 -15 5 -8 -4 -15 -2 -15 3 0 5 -10 9 -22 10 -11 1
-25 8 -29 15 -5 7 -9 9 -9 4 0 -5 -7 -3 -15 4 -8 7 -15 9 -15 5 0 -4 -7 -2
-15 5 -8 7 -15 9 -15 5 0 -4 -7 -2 -15 5 -8 7 -15 9 -15 5 0 -4 -6 -2 -13 4
-8 6 -17 8 -20 4 -4 -3 -7 -1 -7 5 0 6 -7 9 -15 6 -8 -4 -15 -1 -15 5 0 6 -7
8 -15 5 -8 -4 -15 -1 -15 6 0 6 -5 8 -10 5 -6 -4 -17 -1 -25 5 -8 7 -15 9 -15
5 0 -4 -7 -2 -15 5 -8 7 -15 9 -15 4 0 -4 -5 -3 -11 3 -6 6 -18 9 -25 6 -8 -3
-14 0 -14 6 0 6 -6 8 -14 5 -8 -3 -17 0 -21 5 -3 6 -10 9 -15 6 -5 -3 -11 -1
-15 4 -3 6 -12 8 -19 5 -8 -3 -17 -1 -20 5 -4 6 -13 8 -21 4 -8 -3 -15 0 -15
6 0 6 -6 8 -14 5 -8 -3 -17 -1 -20 5 -4 6 -13 8 -20 5 -8 -3 -17 -1 -20 5 -4
6 -13 8 -20 5 -8 -3 -17 -1 -20 5 -4 6 -13 8 -20 5 -8 -3 -17 -1 -20 5 -4 6
-13 8 -20 5 -8 -3 -17 0 -21 6 -4 6 -15 8 -25 5 -10 -3 -21 -1 -25 5 -3 6 -11
8 -16 4 -5 -3 -16 0 -24 6 -8 6 -19 9 -25 5 -6 -4 -17 -1 -25 5 -8 6 -19 9
-25 5 -5 -3 -16 -3 -22 2 -13 8 -44 13 -85 13 -12 0 -25 5 -28 11 -4 5 -15 7
-26 4 -10 -4 -24 -3 -31 2 -7 4 -24 9 -38 10 -14 1 -41 4 -60 7 -95 14 -117
17 -145 17 -16 0 -37 3 -45 7 -8 3 -37 7 -65 8 -27 1 -81 5 -120 8 -38 3 -110
8 -160 10 -49 1 -153 6 -230 9 -77 3 -162 2 -190 -4z m540 -274 c39 -3 93 -7
120 -10 28 -3 66 -5 85 -5 19 0 42 -3 50 -7 8 -4 29 -8 45 -9 17 -2 48 -6 70
-9 22 -3 51 -6 65 -6 14 0 30 -5 37 -11 7 -5 17 -7 23 -3 6 4 19 3 28 -1 9 -4
26 -9 37 -10 19 -2 32 -5 103 -19 15 -3 34 -6 42 -7 8 0 20 -5 26 -10 6 -4 18
-6 27 -2 8 3 18 1 21 -5 4 -6 13 -8 20 -5 8 3 17 1 20 -5 4 -6 13 -8 20 -5 8
3 17 1 20 -4 3 -6 15 -8 26 -5 11 3 20 1 20 -5 0 -6 9 -8 20 -5 11 3 20 0 20
-6 0 -5 6 -8 14 -5 8 3 17 0 21 -5 3 -6 11 -9 16 -5 5 3 16 0 24 -6 8 -7 15
-9 15 -5 0 4 6 2 13 -4 8 -6 17 -8 20 -4 4 3 13 0 22 -7 8 -7 15 -9 15 -4 0 4
5 3 11 -3 6 -6 18 -9 25 -6 8 3 14 0 14 -6 0 -6 7 -8 15 -5 8 4 15 1 15 -6 0
-7 7 -10 15 -6 8 3 15 1 15 -5 0 -6 7 -9 15 -6 8 4 17 2 20 -4 4 -5 10 -7 15
-4 5 3 11 1 15 -4 3 -6 12 -8 20 -4 8 3 15 0 15 -6 0 -6 3 -10 8 -10 4 1 9 1
12 -1 3 -1 16 -4 30 -6 13 -2 28 -10 32 -17 4 -6 8 -8 8 -4 0 5 6 5 13 0 6 -4
21 -9 32 -10 11 -2 21 -8 23 -13 2 -5 10 -6 18 -3 8 3 14 1 14 -4 0 -5 10 -9
22 -10 11 -1 24 -6 27 -10 3 -4 15 -10 26 -11 11 -2 22 -8 23 -13 2 -5 8 -7
13 -3 5 3 9 1 9 -5 0 -6 7 -8 15 -5 8 4 15 1 15 -6 0 -6 5 -8 10 -5 6 3 10 1
10 -6 0 -7 3 -9 6 -6 4 3 16 1 28 -5 11 -7 24 -11 29 -10 4 1 7 -3 7 -9 0 -5
5 -7 10 -4 6 3 10 1 10 -4 0 -6 3 -10 8 -9 12 3 55 -14 70 -28 7 -8 18 -12 23
-9 5 4 9 1 9 -5 0 -6 5 -8 10 -5 6 3 10 1 10 -5 0 -6 5 -8 10 -5 6 3 10 1 10
-5 0 -6 5 -8 10 -5 6 3 10 1 10 -5 0 -6 5 -8 10 -5 6 3 10 1 10 -5 0 -6 5 -8
10 -5 6 3 10 1 10 -5 0 -6 5 -8 10 -5 6 3 10 1 10 -5 0 -6 5 -8 10 -5 6 3 10
1 10 -5 0 -6 5 -8 10 -5 6 3 10 1 10 -5 0 -6 5 -8 10 -5 6 3 10 1 10 -4 0 -6
3 -10 8 -9 14 3 62 -22 62 -32 0 -6 5 -8 10 -5 6 3 10 1 10 -5 0 -6 5 -8 10
-5 6 3 10 1 10 -4 0 -6 7 -11 15 -11 8 0 15 -5 15 -11 0 -5 5 -7 10 -4 6 3 10
1 10 -5 0 -6 5 -8 10 -5 6 3 10 1 10 -5 0 -6 5 -8 10 -5 6 3 13 -1 16 -9 3 -9
10 -13 15 -10 5 3 9 0 9 -6 0 -6 5 -8 10 -5 6 3 13 -1 16 -9 3 -9 10 -13 15
-10 5 3 9 0 9 -6 0 -6 5 -8 10 -5 6 3 13 -1 16 -9 3 -9 10 -13 15 -10 5 3 12
-2 15 -10 3 -9 10 -13 15 -10 5 3 9 0 9 -6 0 -6 5 -8 10 -5 6 3 13 -1 16 -9 3
-9 10 -13 15 -10 5 3 12 -2 15 -10 3 -9 10 -13 15 -10 5 3 12 -2 15 -10 3 -9
10 -13 15 -10 5 3 12 -2 15 -10 3 -9 10 -14 14 -11 5 3 13 -3 19 -12 6 -10 11
-13 11 -8 0 6 10 -1 21 -15 11 -14 18 -18 14 -10 -4 8 1 6 10 -5 9 -11 20 -20
25 -20 5 0 16 -9 25 -20 9 -11 14 -13 10 -5 -4 8 2 5 13 -7 11 -12 22 -20 25
-17 3 3 10 -4 17 -15 6 -12 15 -19 20 -16 5 3 14 -4 20 -15 6 -11 15 -18 20
-15 5 3 16 -5 25 -17 8 -13 19 -23 24 -23 5 0 19 -11 31 -25 12 -14 19 -18 15
-10 -4 8 6 2 21 -15 15 -16 31 -30 36 -30 5 0 23 -16 40 -35 16 -19 27 -28 23
-20 -3 8 15 -7 40 -35 26 -27 44 -43 40 -35 -3 8 17 -10 45 -40 28 -30 56 -54
62 -52 5 1 7 -2 4 -6 -3 -5 4 -18 17 -28 18 -16 19 -16 8 -1 -29 37 -2 13 84
-75 50 -51 79 -84 65 -74 -14 10 13 -18 60 -64 47 -45 78 -79 70 -75 -8 3 3
-10 25 -29 22 -20 39 -40 38 -45 -2 -6 11 -19 27 -31 17 -12 30 -27 30 -35 0
-7 11 -20 25 -29 14 -9 23 -21 20 -25 -2 -5 7 -16 20 -25 14 -9 23 -21 20 -26
-3 -5 4 -14 15 -20 11 -6 18 -15 15 -20 -3 -5 4 -14 15 -20 11 -6 20 -17 20
-24 0 -8 7 -17 16 -20 8 -3 13 -10 9 -15 -3 -6 4 -15 15 -21 11 -6 19 -15 17
-20 -1 -5 7 -16 18 -25 11 -9 13 -14 5 -10 -8 4 -4 -3 10 -14 14 -11 21 -21
15 -21 -5 0 -2 -5 8 -11 9 -6 15 -14 12 -19 -3 -4 2 -11 11 -14 8 -3 12 -10 9
-16 -3 -6 1 -13 9 -16 9 -3 14 -10 11 -14 -3 -4 2 -11 11 -14 8 -3 13 -10 10
-15 -3 -5 1 -12 10 -15 8 -3 13 -10 10 -15 -3 -5 1 -12 10 -15 8 -3 13 -10 10
-15 -3 -5 1 -12 10 -15 8 -3 12 -10 9 -16 -3 -5 -1 -10 5 -10 6 0 9 -4 6 -9
-3 -5 1 -12 10 -15 9 -4 14 -9 11 -12 -3 -3 2 -14 11 -25 9 -11 15 -21 12 -22
-3 -1 5 -13 17 -26 12 -13 20 -28 17 -33 -3 -4 0 -8 7 -8 7 0 10 -3 6 -6 -3
-3 3 -14 14 -25 11 -11 17 -24 14 -29 -4 -6 -1 -10 5 -10 6 0 8 -4 5 -10 -3
-5 -1 -10 5 -10 6 0 8 -4 5 -10 -3 -5 -1 -10 5 -10 6 0 8 -4 5 -10 -3 -5 -2
-10 3 -10 9 0 37 -50 34 -62 -1 -5 3 -8 9 -8 5 0 7 -4 4 -10 -3 -5 -1 -10 5
-10 6 0 8 -4 5 -10 -3 -5 -1 -10 5 -10 6 0 8 -4 5 -10 -3 -5 -1 -10 5 -10 6 0
8 -4 5 -10 -3 -5 -1 -10 5 -10 6 0 8 -4 5 -10 -3 -5 -1 -10 5 -10 6 0 8 -4 5
-10 -3 -5 -2 -10 3 -10 12 0 33 -56 25 -64 -4 -3 -1 -6 6 -6 7 0 9 -4 6 -10
-3 -5 -1 -10 5 -10 6 0 8 -4 5 -10 -3 -5 -1 -10 6 -10 7 0 10 -3 6 -6 -3 -4 1
-13 9 -21 8 -9 13 -22 10 -29 -3 -8 -1 -14 5 -14 6 0 7 -4 4 -10 -3 -5 -1 -10
5 -10 6 0 9 -4 5 -9 -3 -5 -1 -12 5 -16 6 -4 8 -11 5 -16 -4 -5 -1 -9 5 -9 6
0 9 -4 6 -9 -4 -5 -2 -11 3 -13 5 -1 11 -12 13 -23 1 -11 9 -26 16 -34 7 -7
11 -19 8 -27 -3 -7 -1 -14 4 -16 5 -2 11 -14 14 -28 2 -14 5 -27 6 -30 2 -3 2
-8 1 -12 0 -5 4 -8 10 -8 6 0 9 -6 6 -14 -3 -8 -2 -16 3 -18 5 -2 11 -14 14
-28 2 -14 5 -26 7 -27 1 -2 3 -7 4 -13 1 -5 4 -12 5 -15 1 -3 4 -9 5 -15 1 -5
4 -12 5 -15 1 -3 4 -9 5 -15 1 -5 4 -12 5 -15 1 -3 3 -8 4 -12 1 -5 5 -14 9
-20 5 -7 5 -17 2 -23 -3 -5 -1 -10 5 -10 7 0 10 -7 6 -15 -3 -8 -1 -15 5 -15
6 0 8 -9 4 -20 -4 -12 -2 -20 5 -20 7 0 10 -7 6 -15 -3 -8 -1 -15 5 -15 6 0 9
-7 5 -15 -3 -8 0 -15 5 -15 6 0 9 -9 6 -20 -3 -11 -1 -20 5 -20 6 0 8 -7 5
-15 -4 -8 -2 -17 4 -21 5 -3 7 -14 4 -25 -4 -11 -2 -19 5 -19 7 0 10 -7 7 -15
-4 -8 -2 -17 4 -21 5 -3 7 -14 4 -25 -4 -11 -2 -19 5 -19 7 0 9 -8 5 -20 -4
-12 -2 -20 5 -20 7 0 10 -8 7 -20 -3 -11 -1 -23 4 -26 6 -3 7 -14 4 -24 -3
-10 -1 -21 5 -25 6 -4 8 -15 5 -25 -3 -10 -1 -21 5 -25 6 -4 8 -15 5 -25 -3
-10 -1 -21 5 -25 7 -4 9 -18 6 -31 -4 -14 -2 -24 4 -24 6 0 10 -12 10 -27 0
-27 4 -67 16 -143 54 -365 62 -862 19 -1215 -13 -113 -15 -132 -16 -155 0 -14
-3 -32 -6 -40 -6 -15 -12 -58 -13 -97 0 -12 -5 -25 -10 -28 -6 -3 -7 -17 -4
-30 3 -12 1 -26 -6 -30 -6 -4 -8 -15 -5 -25 3 -10 1 -21 -5 -25 -6 -4 -8 -15
-5 -25 3 -10 1 -21 -5 -25 -6 -4 -8 -15 -5 -25 3 -10 2 -21 -4 -24 -5 -3 -7
-15 -4 -26 3 -12 0 -20 -7 -20 -7 0 -9 -8 -5 -19 3 -11 1 -22 -4 -25 -6 -4 -8
-13 -5 -20 3 -8 1 -17 -5 -20 -6 -4 -8 -13 -5 -20 3 -8 1 -17 -5 -20 -6 -4 -8
-13 -5 -20 3 -8 1 -17 -5 -20 -6 -4 -8 -13 -4 -21 3 -8 0 -15 -6 -15 -6 0 -8
-6 -5 -14 3 -8 1 -17 -5 -20 -6 -4 -8 -13 -4 -21 3 -8 0 -15 -7 -15 -7 0 -9
-8 -5 -20 4 -12 1 -28 -6 -36 -7 -9 -15 -23 -16 -33 -5 -21 -8 -32 -17 -53 -4
-9 -9 -23 -10 -32 -1 -8 -5 -18 -8 -22 -4 -3 -4 -12 -1 -20 3 -8 0 -14 -6 -14
-6 0 -10 -3 -10 -7 1 -5 1 -10 -1 -13 -1 -3 -4 -16 -6 -30 -3 -14 -9 -26 -14
-28 -5 -2 -6 -10 -3 -18 3 -8 -1 -14 -8 -14 -7 0 -9 -3 -6 -7 4 -3 1 -13 -6
-21 -10 -13 -9 -14 1 -8 10 6 10 2 0 -18 -6 -14 -14 -26 -17 -26 -4 0 -7 -10
-8 -22 -1 -11 -6 -24 -10 -27 -4 -3 -10 -15 -11 -26 -2 -11 -8 -22 -13 -23 -5
-2 -7 -8 -3 -13 3 -5 1 -9 -5 -9 -6 0 -8 -7 -5 -15 4 -8 1 -15 -6 -15 -6 0 -8
-4 -5 -10 3 -5 1 -10 -5 -10 -6 0 -8 -4 -5 -10 3 -5 2 -10 -2 -10 -5 0 -9 -9
-10 -20 -1 -11 -9 -27 -17 -36 -9 -9 -14 -20 -11 -25 4 -5 1 -9 -5 -9 -6 0 -8
-4 -5 -10 3 -5 2 -10 -2 -10 -5 0 -9 -9 -10 -20 -1 -11 -8 -26 -16 -34 -7 -8
-33 -57 -57 -110 -24 -53 -48 -96 -52 -96 -5 0 -6 -4 -3 -10 3 -5 1 -10 -5
-10 -6 0 -8 -5 -5 -10 3 -6 2 -10 -4 -10 -5 0 -15 -16 -21 -35 -6 -19 -16 -35
-21 -35 -5 0 -11 -11 -15 -25 -3 -14 -10 -25 -16 -25 -5 0 -6 -5 -3 -10 3 -6
1 -10 -4 -10 -6 0 -11 -7 -11 -15 0 -8 -5 -15 -11 -15 -5 0 -7 -4 -4 -10 3 -5
1 -10 -4 -10 -6 0 -11 -7 -11 -15 0 -8 -5 -15 -11 -15 -5 0 -7 -5 -4 -10 3 -6
1 -10 -4 -10 -6 0 -11 -7 -11 -15 0 -8 -4 -15 -10 -15 -5 0 -10 -7 -10 -15 0
-8 -4 -15 -10 -15 -5 0 -10 -5 -10 -12 0 -6 -10 -23 -22 -36 -13 -14 -16 -22
-8 -17 8 4 6 -1 -5 -13 -34 -36 -45 -51 -45 -62 0 -5 -4 -10 -10 -10 -5 0 -10
-7 -10 -15 0 -8 -4 -15 -10 -15 -5 0 -10 -7 -10 -15 0 -9 -7 -18 -15 -21 -8
-4 -15 -12 -15 -19 0 -7 -7 -15 -15 -19 -8 -3 -15 -10 -15 -16 0 -6 -6 -17
-12 -24 -7 -8 -20 -24 -28 -36 -8 -13 -23 -30 -32 -38 -9 -9 -15 -19 -12 -23
2 -5 -7 -16 -21 -25 -14 -9 -25 -21 -25 -27 0 -5 -10 -20 -23 -33 -12 -12 -35
-39 -52 -59 -16 -20 -49 -57 -72 -82 -24 -25 -40 -50 -37 -54 3 -5 0 -9 -6 -9
-13 0 -284 -271 -282 -283 1 -4 -2 -6 -6 -5 -5 2 -24 -13 -44 -32 -40 -39
-125 -113 -221 -192 -15 -13 -41 -35 -56 -50 -16 -15 -32 -24 -35 -21 -3 4 -6
1 -6 -6 0 -6 -11 -16 -25 -21 -14 -5 -25 -14 -25 -20 0 -5 -7 -10 -15 -10 -9
0 -18 -7 -21 -15 -4 -8 -12 -15 -19 -15 -7 0 -15 -7 -19 -15 -3 -8 -12 -15
-21 -15 -8 0 -15 -4 -15 -10 0 -5 -7 -10 -15 -10 -8 0 -19 -9 -25 -20 -6 -11
-15 -18 -21 -15 -5 4 -9 1 -9 -4 0 -6 -7 -11 -15 -11 -8 0 -15 -4 -15 -10 0
-5 -7 -10 -15 -10 -8 0 -15 -4 -15 -10 0 -5 -7 -10 -15 -10 -8 0 -15 -4 -15
-10 0 -5 -7 -10 -15 -10 -8 0 -15 -4 -15 -10 0 -5 -7 -10 -15 -10 -8 0 -15 -4
-15 -10 0 -5 -7 -10 -15 -10 -8 0 -15 -5 -15 -11 0 -5 -5 -7 -10 -4 -6 3 -13
-1 -16 -9 -3 -9 -10 -14 -14 -11 -4 3 -11 -2 -14 -11 -3 -8 -10 -12 -16 -9 -5
3 -10 1 -10 -5 0 -6 -4 -9 -9 -6 -5 3 -12 -1 -15 -10 -3 -8 -10 -12 -16 -9 -5
3 -10 1 -10 -5 0 -6 -4 -9 -9 -6 -5 3 -12 -1 -15 -10 -3 -8 -10 -12 -16 -9 -5
3 -10 1 -10 -5 0 -6 -4 -8 -10 -5 -5 3 -10 1 -10 -5 0 -6 -4 -9 -9 -6 -5 3
-12 -1 -15 -10 -3 -8 -10 -12 -16 -9 -5 3 -10 1 -10 -5 0 -6 -4 -8 -10 -5 -5
3 -10 1 -10 -5 0 -6 -4 -8 -10 -5 -5 3 -10 1 -10 -5 0 -10 -48 -35 -62 -32 -5
1 -8 -3 -8 -9 0 -5 -4 -7 -10 -4 -5 3 -10 1 -10 -5 0 -6 -4 -8 -10 -5 -5 3
-10 1 -10 -5 0 -6 -4 -8 -10 -5 -5 3 -10 1 -10 -5 0 -6 -4 -8 -10 -5 -5 3 -10
1 -10 -5 0 -6 -4 -8 -10 -5 -5 3 -10 1 -10 -5 0 -6 -4 -8 -10 -5 -5 3 -10 1
-10 -5 0 -6 -4 -8 -10 -5 -5 3 -10 1 -10 -5 0 -6 -4 -8 -10 -5 -5 3 -10 1 -10
-5 0 -6 -4 -8 -10 -5 -5 3 -10 1 -10 -5 0 -6 -4 -9 -9 -5 -5 3 -16 -2 -25 -11
-9 -8 -20 -12 -26 -9 -5 3 -10 1 -10 -5 0 -6 -4 -8 -10 -5 -5 3 -10 1 -10 -5
0 -6 -4 -8 -10 -5 -5 3 -10 1 -10 -5 0 -6 -4 -8 -10 -5 -5 3 -10 1 -10 -5 0
-6 -4 -9 -9 -5 -5 3 -12 1 -16 -5 -4 -6 -11 -8 -16 -5 -5 4 -9 1 -9 -5 0 -6
-4 -8 -10 -5 -5 3 -10 1 -10 -5 0 -6 -4 -8 -10 -5 -5 3 -10 1 -10 -5 0 -7 -7
-10 -15 -6 -8 3 -15 1 -15 -5 0 -6 -4 -7 -10 -4 -5 3 -10 1 -10 -5 0 -7 -7
-10 -15 -6 -8 3 -15 1 -15 -5 0 -6 -4 -7 -10 -4 -5 3 -10 1 -10 -5 0 -7 -7
-10 -15 -6 -8 3 -15 1 -15 -5 0 -6 -4 -7 -10 -4 -5 3 -10 1 -10 -5 0 -7 -7
-10 -15 -6 -8 3 -15 1 -15 -5 0 -6 -4 -8 -9 -4 -5 3 -12 1 -16 -5 -4 -6 -11
-8 -16 -5 -5 4 -9 1 -9 -5 0 -7 -7 -10 -15 -6 -8 3 -15 1 -15 -5 0 -6 -7 -9
-15 -5 -8 3 -15 1 -15 -5 0 -6 -7 -9 -15 -5 -8 3 -15 1 -15 -5 0 -6 -4 -7 -10
-4 -5 3 -10 1 -10 -5 0 -7 -7 -10 -15 -6 -8 3 -15 1 -15 -5 0 -6 -7 -9 -15 -5
-8 3 -15 1 -15 -5 0 -6 -7 -9 -15 -6 -8 4 -17 2 -20 -4 -4 -5 -11 -7 -16 -3
-5 3 -16 0 -24 -6 -8 -7 -15 -9 -15 -5 0 4 -6 2 -13 -4 -8 -6 -17 -8 -20 -4
-4 3 -7 1 -7 -6 0 -8 -7 -10 -19 -6 -11 3 -22 1 -26 -5 -3 -6 -11 -8 -16 -5
-5 4 -9 2 -9 -4 0 -5 -8 -10 -17 -9 -10 0 -29 -3 -43 -7 -14 -4 -31 -7 -37 -7
-7 -1 -13 -6 -13 -11 0 -5 -9 -7 -20 -4 -11 3 -22 1 -25 -3 -3 -5 -13 -9 -23
-9 -17 0 -57 -8 -57 -12 0 -1 -9 -3 -20 -5 -23 -4 -63 -11 -85 -16 -8 -2 -21
-7 -28 -12 -7 -4 -19 -5 -27 -2 -8 3 -17 1 -20 -4 -3 -5 -18 -9 -33 -9 -15 0
-40 -3 -57 -6 -16 -3 -43 -8 -60 -10 -16 -3 -43 -7 -60 -10 -78 -13 -161 -24
-320 -40 -105 -11 -233 -15 -495 -16 -304 0 -383 3 -595 26 -27 3 -67 5 -87 5
-20 0 -40 5 -43 10 -4 6 -17 7 -31 4 -13 -3 -30 -1 -38 5 -7 6 -21 9 -30 5 -9
-3 -23 -1 -31 6 -8 6 -19 9 -25 5 -6 -4 -19 -3 -28 1 -19 8 -55 14 -89 14 -13
0 -23 5 -23 11 0 6 -9 8 -19 4 -11 -3 -22 -1 -26 5 -4 6 -15 8 -25 5 -10 -3
-21 -1 -25 5 -4 6 -15 8 -25 5 -10 -3 -21 -1 -24 4 -4 6 -13 8 -20 5 -8 -3
-17 -1 -20 5 -4 6 -13 8 -20 5 -8 -3 -17 -1 -20 5 -4 6 -13 8 -20 5 -8 -3 -17
-1 -20 4 -3 6 -15 8 -26 5 -11 -3 -20 0 -20 6 0 5 -6 8 -14 5 -8 -3 -17 -1
-20 5 -4 6 -13 8 -20 5 -8 -3 -17 0 -21 5 -3 6 -10 9 -15 6 -5 -3 -11 -1 -15
4 -3 6 -12 8 -19 5 -8 -3 -17 -1 -20 5 -4 6 -13 8 -21 4 -8 -3 -15 0 -15 6 0
6 -7 8 -15 5 -8 -4 -15 -1 -15 6 0 6 -4 9 -9 6 -5 -4 -22 -1 -38 6 -15 6 -31
12 -35 13 -5 2 -10 4 -13 5 -3 1 -9 4 -15 5 -5 1 -12 4 -15 5 -3 1 -9 4 -15 5
-5 1 -11 3 -12 4 -2 2 -14 5 -28 7 -14 3 -26 9 -28 14 -2 5 -10 6 -18 3 -8 -3
-14 0 -14 6 0 6 -7 8 -15 5 -8 -4 -15 -2 -15 3 0 5 -10 10 -22 10 -13 1 -24 7
-26 12 -2 5 -10 7 -18 4 -8 -3 -14 -1 -14 4 0 5 -10 9 -22 10 -11 1 -24 6 -27
10 -3 4 -15 10 -26 11 -11 2 -22 8 -23 13 -2 5 -8 7 -13 3 -5 -3 -9 -1 -9 5 0
6 -7 8 -15 5 -8 -4 -15 -1 -15 6 0 6 -5 8 -10 5 -6 -3 -10 -1 -10 6 0 7 -3 9
-6 6 -4 -3 -16 -1 -28 5 -11 7 -24 11 -28 10 -5 -1 -8 3 -8 9 0 5 -4 7 -10 4
-5 -3 -10 -1 -10 5 0 6 -4 8 -10 5 -5 -3 -10 -2 -10 2 0 5 -9 9 -20 10 -11 1
-27 9 -36 17 -9 9 -20 14 -25 11 -5 -4 -9 -1 -9 5 0 6 -4 8 -10 5 -5 -3 -10
-1 -10 5 0 6 -4 8 -10 5 -5 -3 -10 -1 -10 5 0 6 -5 8 -10 5 -6 -3 -10 -1 -10
5 0 6 -4 8 -10 5 -5 -3 -10 -1 -10 5 0 6 -5 8 -10 5 -6 -3 -10 -1 -10 5 0 6
-5 8 -10 5 -6 -3 -10 -1 -10 5 0 6 -4 8 -10 5 -5 -3 -10 -1 -10 5 0 6 -4 8
-10 5 -5 -3 -10 -1 -10 5 0 6 -4 8 -10 5 -6 -3 -10 -1 -10 5 0 6 -5 8 -10 5
-5 -3 -10 -1 -10 4 0 6 -9 11 -20 11 -11 0 -23 7 -26 15 -4 8 -10 12 -15 9 -5
-3 -9 0 -9 6 0 6 -4 8 -10 5 -5 -3 -10 -1 -10 5 0 6 -5 8 -10 5 -6 -3 -13 1
-16 9 -3 9 -10 13 -15 10 -5 -3 -9 0 -9 6 0 6 -4 8 -10 5 -5 -3 -10 -1 -10 5
0 6 -5 8 -10 5 -6 -3 -13 1 -16 9 -3 9 -10 13 -15 10 -5 -3 -9 0 -9 6 0 6 -5
8 -10 5 -6 -3 -13 1 -16 9 -3 9 -10 13 -15 10 -5 -3 -9 0 -9 6 0 6 -5 8 -10 5
-6 -3 -13 1 -16 9 -3 9 -10 14 -14 11 -4 -3 -11 2 -14 11 -3 8 -10 12 -16 9
-5 -3 -10 -1 -10 5 0 6 -5 8 -10 5 -6 -3 -13 1 -16 9 -3 9 -10 13 -15 10 -5
-3 -12 2 -15 10 -3 9 -10 13 -15 10 -5 -3 -20 6 -33 19 -14 14 -27 22 -30 20
-3 -3 -8 2 -12 11 -3 9 -10 13 -15 10 -5 -3 -12 2 -15 10 -3 9 -10 14 -15 11
-4 -3 -13 4 -19 15 -6 11 -15 18 -21 15 -5 -4 -12 1 -15 9 -3 9 -13 16 -20 16
-8 0 -17 7 -20 15 -4 8 -10 13 -15 10 -4 -3 -13 4 -19 15 -6 11 -15 18 -20 15
-5 -3 -14 4 -20 15 -6 11 -15 18 -20 15 -5 -3 -15 4 -23 15 -7 11 -16 17 -20
14 -3 -3 -13 6 -22 20 -10 14 -23 26 -31 26 -7 0 -20 10 -29 23 -8 12 -20 22
-25 22 -5 0 -23 16 -40 35 -17 19 -29 28 -25 20 3 -8 -11 4 -32 28 -21 23 -43
42 -48 42 -6 0 -34 25 -63 57 -30 32 -51 52 -47 46 3 -7 5 -13 3 -13 -2 0 -48
46 -103 101 -55 56 -93 98 -85 94 8 -4 -16 23 -55 60 -38 36 -63 63 -55 60 8
-4 -10 16 -40 45 -30 28 -48 48 -40 45 8 -4 0 5 -17 20 -18 14 -33 30 -33 34
0 4 -20 29 -45 56 -25 26 -43 50 -40 53 3 3 -4 12 -15 19 -11 8 -18 18 -15 23
3 5 -4 14 -15 20 -11 6 -20 17 -20 24 0 8 -7 16 -15 20 -8 3 -15 12 -15 20 0
7 -7 17 -16 20 -9 4 -14 9 -10 13 3 3 -3 13 -14 20 -11 8 -18 18 -15 23 3 4
-2 11 -11 14 -8 3 -13 10 -10 15 3 5 -1 12 -10 15 -8 3 -13 10 -10 15 3 5 -1
12 -10 15 -8 3 -12 10 -9 16 3 5 1 10 -5 10 -11 0 -49 58 -49 73 0 5 -8 15
-18 23 -10 7 -15 14 -11 14 5 0 -1 9 -12 20 -12 12 -18 25 -15 29 2 5 -2 12
-11 15 -9 4 -14 9 -11 12 3 4 -3 15 -13 27 -11 11 -17 24 -14 29 3 4 1 8 -5 8
-6 0 -13 11 -17 25 -3 14 -10 25 -16 25 -5 0 -6 5 -3 10 3 6 2 10 -4 10 -6 0
-13 11 -17 25 -3 14 -10 25 -16 25 -5 0 -6 5 -3 10 3 6 1 10 -5 10 -6 0 -8 5
-5 10 3 6 1 10 -5 10 -6 0 -8 5 -5 10 3 6 2 10 -2 10 -11 0 -77 120 -66 120 4
0 3 4 -4 8 -6 4 -23 31 -36 60 -13 28 -28 48 -33 44 -4 -4 -2 1 5 10 10 13 10
18 2 18 -7 0 -9 5 -6 10 3 6 1 10 -5 10 -6 0 -8 4 -5 10 3 5 1 10 -6 10 -7 0
-10 3 -6 6 3 4 -1 13 -9 21 -8 9 -13 22 -10 29 3 8 0 14 -6 14 -6 0 -9 3 -5 6
3 4 -1 13 -9 21 -8 9 -13 22 -10 29 3 8 1 14 -5 14 -6 0 -8 4 -5 9 4 5 2 11
-3 13 -5 1 -11 12 -13 23 -1 11 -7 23 -11 26 -4 3 -9 16 -10 27 -1 12 -4 22
-8 22 -8 0 -24 59 -21 73 1 4 -3 7 -9 7 -6 0 -9 7 -5 15 3 8 2 15 -3 15 -6 0
-27 57 -37 100 0 3 -6 19 -13 35 -7 17 -14 40 -14 52 -1 13 -6 23 -11 23 -4 0
-6 7 -2 15 3 8 1 15 -5 15 -6 0 -9 7 -6 15 4 8 2 17 -4 21 -6 3 -8 12 -5 20 3
8 1 14 -5 14 -6 0 -9 7 -6 15 4 8 2 17 -4 21 -6 3 -8 12 -5 20 3 8 1 14 -5 14
-6 0 -8 9 -4 20 4 12 2 20 -5 20 -7 0 -10 7 -7 15 4 8 2 17 -4 21 -6 3 -8 12
-5 20 3 7 1 16 -5 20 -6 3 -8 12 -5 20 3 7 0 16 -5 20 -6 3 -9 15 -6 25 3 11
1 19 -5 19 -6 0 -8 9 -5 20 3 11 1 23 -5 26 -5 3 -8 15 -5 25 3 10 1 22 -5 25
-5 3 -8 15 -5 25 3 10 1 22 -5 25 -5 3 -8 15 -5 25 3 10 1 22 -5 25 -5 3 -7
17 -4 29 3 13 2 27 -4 30 -5 3 -10 16 -10 28 -1 39 -7 82 -13 97 -3 8 -6 26
-7 40 0 14 -3 45 -6 70 -3 25 -7 68 -10 95 -3 28 -7 73 -10 100 -23 238 -23
590 1 845 2 30 6 73 8 95 2 22 5 45 7 50 1 6 4 26 6 45 3 33 7 69 19 150 3 19
5 47 5 63 0 15 4 27 10 27 6 0 8 10 4 24 -3 13 -1 27 4 30 6 3 8 15 5 25 -3
10 0 22 5 25 6 3 8 15 5 25 -3 10 0 22 5 25 6 3 8 15 5 25 -3 10 0 22 5 25 6
3 8 15 5 26 -3 11 -1 20 5 20 6 0 8 9 5 20 -3 12 0 20 7 20 7 0 9 8 5 19 -3
11 -1 22 4 25 6 4 8 13 5 20 -3 8 -1 17 5 20 6 4 8 13 4 21 -3 8 0 15 7 15 7
0 9 8 5 20 -3 11 -2 20 3 20 6 0 8 9 5 20 -3 11 0 20 6 20 5 0 8 6 5 14 -3 8
0 17 5 21 6 3 9 10 6 15 -3 5 -1 11 4 15 6 3 8 12 4 20 -3 8 0 15 6 15 6 0 8
7 5 15 -4 8 -1 15 6 15 6 0 8 5 5 10 -3 6 -3 16 2 23 4 6 8 15 9 20 1 4 3 9 4
12 1 3 4 10 5 15 1 6 4 12 5 15 1 3 4 10 5 15 1 6 4 12 5 15 1 3 4 10 5 15 1
6 3 11 4 13 2 1 5 13 7 27 3 14 9 26 14 28 5 2 6 10 3 18 -3 8 0 14 6 14 6 0
10 3 10 8 -1 4 -1 9 1 12 1 3 4 16 6 30 3 14 9 26 14 28 5 2 6 10 3 19 -4 11
-2 14 5 9 8 -5 10 -2 6 8 -3 9 -1 16 5 16 6 0 8 6 5 14 -3 7 2 20 10 29 8 8
12 17 9 21 -4 3 -1 6 5 6 6 0 9 7 6 15 -4 8 -1 15 6 15 6 0 8 5 5 10 -3 6 -1
10 5 10 6 0 8 5 5 10 -3 6 -2 10 2 10 5 0 10 10 10 22 1 13 7 24 13 26 5 2 8
8 4 13 -3 5 0 9 6 9 6 0 8 5 5 10 -3 6 -1 10 5 10 6 0 8 5 5 10 -3 6 -1 10 6
10 7 0 10 3 6 6 -8 8 13 64 25 64 5 0 6 5 3 10 -3 6 -1 10 5 10 6 0 8 5 5 10
-3 6 -1 10 5 10 6 0 8 5 5 10 -3 6 -1 10 5 10 6 0 8 5 5 10 -3 6 -1 10 5 10 6
0 8 5 5 10 -3 6 -1 10 5 10 6 0 8 5 5 10 -3 6 -1 10 4 10 6 0 10 3 9 8 -4 12
43 102 53 102 6 0 7 5 4 10 -3 6 -1 10 5 10 6 0 9 4 5 10 -3 5 3 18 14 29 11
11 17 22 14 25 -4 3 -1 6 6 6 7 0 10 4 7 8 -3 5 4 19 15 30 10 12 19 25 19 29
0 5 6 15 14 25 8 9 12 19 9 22 -3 3 2 8 11 12 9 3 13 10 10 15 -3 5 0 9 6 9 6
0 8 5 5 10 -3 6 1 13 9 16 9 3 13 10 10 15 -3 5 2 12 10 15 9 3 13 10 10 15
-3 5 2 12 10 15 9 3 14 9 11 14 -2 4 6 18 18 31 12 13 21 27 19 32 -1 4 5 10
13 13 8 3 12 10 9 15 -3 5 2 12 10 15 9 3 13 10 10 15 -3 5 2 12 10 15 9 3 14
10 11 15 -3 4 4 13 15 19 11 6 18 15 15 20 -3 5 4 14 15 20 11 6 18 15 15 21
-4 5 1 12 9 15 9 3 16 12 16 20 0 7 9 18 20 24 11 6 18 15 15 20 -3 5 4 14 15
20 11 6 18 15 15 20 -3 5 6 17 20 26 13 9 22 20 20 25 -3 4 6 16 20 25 14 9
25 22 25 29 0 8 13 23 30 35 16 12 29 25 27 31 -1 5 16 25 38 45 22 19 33 33
25 29 -8 -4 19 26 60 65 41 39 69 69 63 65 -7 -3 -13 -4 -13 -2 0 10 172 172
183 172 7 1 11 6 10 13 -2 7 1 11 6 9 5 -1 33 23 61 53 28 30 48 48 45 40 -4
-8 14 8 40 35 25 28 43 43 40 35 -4 -8 7 1 23 20 17 19 35 35 40 35 5 0 21 14
36 30 15 17 25 23 21 15 -4 -8 4 -3 17 13 13 15 28 27 33 27 6 0 16 9 23 20 7
12 17 18 22 15 5 -3 14 4 20 15 6 11 15 18 20 15 5 -3 14 4 20 16 7 11 14 18
17 15 3 -3 14 5 24 17 10 12 18 18 19 13 0 -4 9 2 21 15 11 13 18 17 14 9 -4
-8 3 -4 14 10 11 14 21 21 21 15 0 -5 5 -2 11 8 6 9 14 15 19 12 4 -3 11 2 14
11 3 8 10 13 15 10 5 -3 12 1 15 10 3 8 10 13 15 10 5 -3 12 1 15 10 3 8 10
13 15 10 5 -3 12 1 15 10 3 8 10 13 15 10 5 -3 12 1 15 10 4 9 9 14 12 11 4
-3 15 3 27 13 11 11 23 17 27 15 5 -3 11 2 14 11 3 8 10 12 16 9 5 -3 10 -1
10 5 0 6 4 9 9 6 5 -3 12 1 15 10 3 8 10 12 16 9 5 -3 10 -1 10 5 0 6 4 9 9 6
5 -3 12 1 15 10 3 8 10 12 16 9 5 -3 10 -1 10 5 0 6 5 8 10 5 6 -3 10 -1 10 5
0 6 5 8 10 5 6 -3 10 -1 10 4 0 6 7 11 15 11 8 0 15 5 15 11 0 5 5 7 10 4 6
-3 10 -1 10 5 0 6 5 8 10 5 6 -3 10 -2 10 4 0 6 11 13 25 17 14 3 25 10 25 16
0 5 5 6 10 3 6 -3 10 -1 10 5 0 6 5 8 10 5 6 -3 10 -1 10 5 0 6 5 8 10 5 6 -3
10 -1 10 5 0 6 5 8 10 5 6 -3 10 -1 10 5 0 6 5 8 10 5 6 -3 10 -1 10 5 0 6 5
8 10 5 6 -3 10 -1 10 5 0 6 5 8 10 5 6 -3 10 -1 10 5 0 6 5 8 10 5 6 -3 10 -1
10 5 0 6 5 8 10 5 6 -3 10 -1 10 5 0 6 5 8 10 5 6 -3 10 -1 10 5 0 6 5 8 10 5
6 -3 10 -1 10 5 0 6 4 9 9 6 5 -4 11 -1 13 4 2 6 13 12 26 13 12 0 22 5 22 10
0 4 5 5 10 2 6 -3 10 -1 10 5 0 6 5 8 10 5 6 -3 10 -1 10 4 0 6 3 10 8 9 4 -1
17 3 28 10 12 6 24 8 28 5 3 -3 6 -1 6 6 0 7 5 9 10 6 6 -3 10 -1 10 5 0 7 7
10 15 6 8 -3 15 -1 15 5 0 6 4 8 9 5 5 -3 12 1 15 10 4 10 14 14 26 11 10 -3
20 -1 22 5 2 5 13 10 26 11 12 0 22 5 22 10 0 5 6 7 14 4 8 -3 16 -2 18 3 2 5
14 11 28 14 14 2 26 5 28 5 1 1 5 1 8 0 4 0 10 4 13 10 4 6 18 13 31 15 14 2
27 5 30 6 3 2 8 2 13 1 4 0 7 4 7 10 0 6 6 9 14 6 7 -3 19 0 25 6 6 6 11 7 11
3 0 -5 7 -3 15 4 8 7 15 9 15 5 0 -4 7 -2 15 5 8 7 15 9 15 5 0 -4 7 -2 15 5
8 6 19 9 25 5 5 -3 10 -1 10 5 0 7 7 10 15 6 8 -3 15 -1 15 5 0 6 7 9 15 6 8
-4 17 -2 21 4 3 6 12 8 20 5 7 -3 16 -1 19 4 3 5 12 7 20 3 8 -3 15 0 15 7 0
7 7 10 15 7 8 -4 17 -2 21 4 3 6 12 8 20 5 8 -3 14 0 14 5 0 6 9 9 20 6 11 -3
20 -1 20 5 0 6 9 8 20 5 11 -3 23 -1 26 5 3 5 12 7 20 4 7 -3 16 -1 20 5 3 6
12 8 20 5 7 -3 16 -1 20 5 3 5 14 7 24 4 10 -3 21 -1 25 5 4 6 14 9 22 6 9 -4
21 -2 27 2 6 5 18 10 26 10 8 1 29 4 45 7 17 4 39 8 50 9 11 1 28 6 37 10 9 4
22 5 28 1 6 -4 16 -2 23 3 7 6 23 11 37 11 14 0 43 3 65 6 66 9 114 15 255 30
25 3 82 7 128 9 45 2 84 5 86 7 6 6 586 0 671 -6z m3760 -1605 c10 -11 16 -20
13 -20 -3 0 -13 9 -23 20 -10 11 -16 20 -13 20 3 0 13 -9 23 -20z"/>
<path d="M3811 8863 c-14 -10 -16 -133 -19 -1307 -1 -808 1 -1296 7 -1296 5 0
13 -9 16 -20 6 -19 15 -20 285 -20 171 0 281 -4 285 -10 3 -5 8 -22 10 -37 7
-46 10 -57 18 -70 5 -7 5 -13 1 -13 -3 0 -1 -6 5 -14 7 -8 14 -25 16 -37 3
-13 9 -25 15 -27 6 -2 8 -8 4 -13 -3 -5 0 -9 5 -9 6 0 11 -7 11 -15 0 -8 5
-15 10 -15 6 0 10 -5 10 -11 0 -17 129 -139 148 -140 25 -1 -22 -19 -83 -32
-5 -2 -16 -6 -22 -10 -7 -5 -13 -5 -13 -2 0 3 -20 -6 -43 -20 -24 -14 -47 -22
-50 -18 -4 3 -7 1 -7 -5 0 -7 -7 -12 -15 -12 -8 0 -15 -5 -15 -11 0 -5 -4 -8
-9 -5 -5 3 -11 -1 -15 -9 -3 -8 -11 -15 -18 -15 -7 0 -19 -9 -26 -20 -7 -11
-18 -20 -26 -20 -7 0 -30 -19 -50 -42 -20 -24 -43 -50 -51 -59 -8 -9 -15 -19
-15 -23 0 -4 -7 -14 -15 -22 -8 -9 -15 -24 -15 -35 0 -11 -7 -22 -15 -25 -8
-4 -12 -10 -9 -15 3 -5 0 -9 -5 -9 -6 0 -10 -3 -10 -7 1 -5 0 -11 -1 -15 -1
-5 -3 -11 -4 -15 -1 -5 -7 -18 -14 -31 -7 -12 -10 -27 -7 -32 3 -5 -3 -14 -14
-20 -12 -6 -22 -6 -26 -1 -3 5 -18 8 -33 6 -15 -1 -33 2 -39 7 -11 9 -52 8
-158 -5 -11 -1 -26 -6 -32 -10 -7 -5 -17 -6 -22 -2 -5 3 -12 1 -16 -5 -4 -6
-11 -8 -16 -5 -5 4 -9 1 -9 -5 0 -6 -6 -10 -12 -8 -18 4 -78 -22 -78 -34 0 -5
-4 -7 -9 -4 -5 3 -12 -1 -15 -10 -3 -8 -10 -12 -16 -9 -6 3 -13 -1 -16 -9 -3
-9 -10 -16 -15 -16 -12 0 -104 -93 -101 -103 1 -4 -5 -10 -13 -13 -8 -4 -15
-12 -15 -20 0 -8 -5 -14 -12 -14 -6 0 -9 -3 -5 -6 3 -4 -1 -13 -9 -21 -8 -8
-12 -19 -9 -24 4 -5 1 -9 -4 -9 -6 0 -10 -3 -9 -7 1 -5 -3 -18 -10 -30 -7 -12
-12 -26 -11 -30 1 -4 0 -10 -1 -13 -11 -29 -21 -219 -11 -235 3 -5 6 -19 8
-30 2 -19 9 -54 13 -65 1 -3 2 -8 1 -13 0 -4 4 -7 11 -7 6 0 9 -3 5 -6 -8 -8
21 -65 42 -82 13 -11 13 -12 1 -7 -10 4 -9 2 3 -8 9 -8 17 -17 17 -21 0 -12
119 -126 131 -126 6 0 9 -6 6 -12 -2 -7 -11 -12 -21 -10 -9 2 -16 -2 -16 -8 0
-7 -8 -9 -19 -5 -11 3 -22 1 -26 -5 -3 -6 -10 -8 -15 -5 -5 3 -16 -2 -25 -11
-9 -9 -19 -14 -22 -11 -7 7 -61 -19 -81 -39 -7 -8 -20 -14 -28 -14 -8 0 -14
-4 -14 -10 0 -5 -7 -10 -15 -10 -8 0 -19 -9 -25 -20 -6 -11 -16 -20 -23 -20
-16 0 -77 -62 -77 -78 0 -6 -9 -16 -20 -22 -11 -6 -20 -17 -20 -25 0 -8 -4
-15 -10 -15 -5 0 -12 -11 -16 -25 -3 -14 -10 -25 -16 -25 -5 0 -6 -4 -3 -10 3
-5 1 -10 -5 -10 -6 0 -8 -4 -5 -10 3 -5 1 -10 -5 -10 -6 0 -8 -4 -5 -10 3 -5
1 -10 -4 -10 -6 0 -10 -3 -10 -8 1 -4 0 -10 -1 -14 -1 -5 -4 -12 -5 -18 -1 -5
-4 -12 -5 -15 -1 -3 -4 -9 -5 -15 -1 -5 -4 -11 -5 -12 -1 -2 -4 -12 -6 -23 -2
-11 -6 -33 -10 -50 -4 -16 -9 -194 -10 -395 -2 -329 -1 -367 14 -385 17 -20
29 -20 885 -20 477 0 867 3 867 7 0 5 6 7 13 5 9 -1 12 82 11 393 -1 389 -3
423 -18 448 -4 6 -4 17 -1 22 3 5 1 10 -5 10 -7 0 -10 7 -7 15 4 8 2 17 -4 20
-5 4 -7 11 -4 16 4 5 1 9 -4 9 -6 0 -10 3 -9 8 4 12 -24 72 -34 72 -5 0 -7 4
-4 9 3 5 -6 21 -19 35 -14 15 -25 29 -25 31 0 9 -131 135 -140 135 -6 0 -10 5
-10 10 0 6 -7 10 -15 10 -8 0 -15 5 -15 10 0 6 -7 10 -15 10 -8 0 -15 5 -15
11 0 5 -4 7 -10 4 -6 -3 -10 -1 -10 5 0 6 -4 8 -10 5 -6 -3 -10 -1 -10 4 0 6
-3 10 -7 9 -5 -1 -18 3 -30 10 -13 7 -23 10 -23 6 0 -3 -7 0 -17 7 -9 8 -18
13 -20 12 -1 -2 -4 -3 -5 -2 -22 6 -47 10 -65 10 -12 0 -25 4 -28 9 -4 6 -3 9
2 8 9 -3 22 6 94 72 27 25 49 50 49 56 0 32 37 34 600 33 347 0 560 -4 560 -9
0 -19 118 -141 135 -140 3 1 13 -4 23 -9 14 -8 14 -11 2 -11 -48 -3 -85 -12
-97 -21 -7 -6 -13 -8 -13 -4 0 4 -6 2 -13 -4 -8 -6 -17 -8 -20 -4 -4 3 -7 1
-7 -5 0 -7 -3 -11 -7 -10 -13 4 -93 -35 -93 -45 0 -4 -5 -5 -10 -2 -6 3 -13
-1 -16 -9 -3 -9 -12 -16 -20 -16 -8 0 -14 -4 -14 -10 0 -5 -6 -10 -12 -10 -15
0 -118 -103 -118 -118 0 -5 -7 -12 -15 -16 -8 -3 -15 -12 -15 -21 0 -8 -5 -15
-11 -15 -5 0 -8 -4 -5 -9 4 -5 3 -11 -1 -13 -10 -4 -47 -80 -45 -90 1 -5 -3
-8 -10 -8 -6 0 -8 -3 -5 -7 4 -3 2 -12 -4 -20 -6 -7 -8 -13 -4 -13 4 0 2 -7
-5 -15 -6 -8 -9 -19 -6 -24 4 -5 2 -12 -3 -16 -5 -3 -10 -13 -10 -23 0 -9 0
-192 -1 -406 -1 -214 3 -393 7 -397 12 -12 1754 -12 1766 0 4 4 8 183 7 397
-2 456 0 416 -12 431 -5 7 -7 17 -3 23 3 5 1 10 -5 10 -7 0 -10 7 -6 15 3 8 1
15 -5 15 -6 0 -9 7 -5 15 3 8 0 15 -6 15 -6 0 -9 3 -5 6 3 3 -5 23 -18 44 -13
21 -21 41 -18 44 4 3 1 6 -6 6 -7 0 -10 4 -7 9 3 5 -1 12 -10 15 -8 3 -13 10
-10 15 3 5 -6 16 -19 25 -14 9 -24 20 -21 25 6 8 -72 86 -86 86 -5 0 -16 9
-24 19 -8 11 -14 16 -14 10 0 -5 -10 2 -21 16 -11 14 -18 18 -14 10 4 -10 2
-9 -8 2 -8 10 -17 15 -20 11 -4 -3 -7 -1 -7 6 0 7 -4 10 -9 6 -5 -3 -16 1 -24
9 -8 8 -17 12 -21 9 -3 -4 -6 -1 -6 6 0 7 -4 9 -10 6 -5 -3 -10 -2 -10 4 0 6
-7 8 -15 5 -8 -4 -15 -1 -15 5 0 6 -7 8 -15 5 -8 -4 -15 -1 -15 6 0 7 -7 10
-15 7 -8 -4 -17 -2 -21 4 -3 5 -13 7 -22 5 -22 -7 -50 9 -30 16 7 3 16 5 20 4
3 0 16 11 28 27 12 15 25 25 29 22 10 -6 43 29 35 37 -3 3 7 15 21 26 14 11
27 24 28 29 1 4 255 9 565 10 l563 3 25 -25 c14 -14 22 -25 18 -25 -4 0 11
-18 32 -40 22 -22 45 -40 52 -40 7 0 15 -7 18 -15 4 -8 13 -15 22 -15 22 0 7
-12 -20 -16 -27 -4 -62 -12 -65 -14 -2 -2 -7 -4 -13 -5 -5 -1 -12 -4 -15 -5
-3 -1 -8 -3 -12 -4 -19 -5 -128 -62 -131 -68 -2 -5 -8 -8 -13 -8 -12 0 -20 -7
-104 -87 -36 -34 -65 -65 -65 -68 0 -3 -9 -15 -20 -27 -11 -12 -20 -28 -20
-35 0 -7 -4 -13 -9 -13 -8 0 -33 -50 -33 -67 0 -4 -5 -17 -11 -28 -6 -11 -12
-23 -13 -27 -1 -5 -2 -9 -4 -10 -5 -7 -11 -45 -11 -65 0 -12 -4 -25 -9 -28 -5
-3 -9 -163 -9 -395 -1 -360 1 -390 17 -398 9 -5 25 -7 34 -3 10 3 399 4 866 1
l849 -5 16 22 c15 19 17 60 14 385 -2 200 -6 377 -10 393 -4 17 -9 39 -11 50
-2 11 -5 21 -6 23 -1 1 -4 7 -5 12 -1 6 -4 12 -5 15 -1 3 -3 8 -4 13 -1 4 -7
17 -14 28 -6 12 -8 24 -5 28 3 3 1 6 -6 6 -7 0 -9 4 -6 10 3 5 1 10 -5 10 -6
0 -8 4 -5 10 3 6 1 10 -4 10 -6 0 -11 6 -11 13 0 8 -8 23 -17 35 -10 12 -27
33 -38 48 -26 34 -76 84 -110 109 -14 11 -33 26 -40 33 -8 6 -18 12 -24 12 -5
0 -16 6 -23 14 -18 17 -78 49 -78 40 0 -4 -6 -2 -12 3 -16 12 -68 27 -85 24
-7 -1 -13 3 -13 9 0 6 -7 10 -16 8 -10 -2 -19 3 -21 10 -3 6 0 12 5 12 14 0
132 115 132 129 0 6 5 11 10 11 6 0 10 7 10 15 0 8 4 15 9 15 8 0 33 50 33 67
0 4 5 17 11 28 12 22 17 39 20 70 2 11 5 25 8 30 10 16 -1 230 -11 230 -1 0
-3 11 -6 24 -2 14 -9 30 -14 36 -5 7 -7 15 -3 18 3 4 1 7 -6 7 -7 0 -10 4 -6
9 3 5 -1 16 -9 24 -8 8 -12 17 -9 21 4 3 1 6 -5 6 -7 0 -12 6 -12 14 0 8 -7
16 -15 20 -8 3 -15 10 -15 16 0 5 -22 31 -50 58 -67 64 -77 72 -90 72 -5 0
-10 5 -10 11 0 5 -5 7 -10 4 -6 -3 -10 -2 -10 3 0 12 -60 38 -77 34 -7 -2 -13
2 -13 8 0 6 -4 9 -9 5 -5 -3 -12 -1 -16 5 -4 6 -11 8 -16 5 -5 -4 -15 -3 -21
2 -7 4 -22 9 -33 10 -11 1 -46 5 -77 9 -32 3 -65 3 -75 -1 -10 -5 -30 -9 -44
-10 -14 -1 -30 -5 -36 -8 -14 -9 -36 9 -40 34 -2 12 -8 28 -14 36 -6 7 -9 13
-5 13 3 0 -4 17 -17 38 -13 20 -27 49 -31 65 -3 15 -11 27 -16 27 -6 0 -10 5
-10 11 0 18 -90 114 -145 154 -14 11 -32 25 -40 32 -7 7 -15 9 -19 6 -3 -4 -6
-1 -6 5 0 7 -7 12 -15 12 -8 0 -15 5 -15 12 0 6 -3 8 -7 5 -3 -4 -25 4 -47 17
-23 13 -44 24 -48 25 -5 1 -9 1 -10 2 -5 1 -33 8 -55 13 -29 6 -62 25 -46 26
16 0 143 124 143 139 0 6 5 11 10 11 6 0 10 7 10 15 0 8 5 15 11 15 5 0 8 4 5
9 -4 5 -2 11 4 13 6 2 12 14 15 27 2 12 9 28 14 35 5 6 10 14 10 19 1 4 1 8 2
10 3 9 10 47 14 70 2 15 7 32 10 37 4 6 113 10 281 10 274 0 276 0 294 23 18
21 19 70 19 1310 1 848 -2 1287 -9 1287 -6 0 -9 6 -7 13 3 17 -4358 28 -4382
10z m4298 -1224 c0 -626 2 -1142 5 -1148 4 -5 2 -12 -3 -15 -5 -3 -7 -32 -4
-63 8 -106 26 -98 -224 -96 -120 1 -227 2 -238 3 -22 0 -47 43 -39 65 3 7 1
16 -5 19 -6 4 -8 13 -4 21 3 8 0 15 -7 15 -6 0 -9 4 -5 9 3 5 1 12 -5 16 -6 4
-8 11 -5 16 4 5 1 9 -5 9 -6 0 -8 5 -5 10 3 6 1 10 -5 10 -6 0 -8 5 -5 10 3 6
1 10 -5 10 -6 0 -8 5 -5 10 3 6 1 10 -4 10 -6 0 -11 7 -11 15 0 8 -4 15 -10
15 -5 0 -10 6 -10 13 0 6 -16 25 -35 40 -20 16 -32 33 -29 39 4 7 2 8 -4 4 -6
-4 -19 5 -28 19 -9 14 -22 25 -29 25 -7 0 -16 7 -19 16 -3 8 -10 12 -16 9 -5
-3 -10 -1 -10 5 0 6 -4 8 -10 5 -5 -3 -10 -1 -10 5 0 6 -4 8 -10 5 -5 -3 -10
-1 -10 5 0 6 -4 8 -10 5 -5 -3 -10 -1 -10 5 0 6 -4 9 -9 6 -5 -4 -11 -1 -13 5
-2 6 -16 12 -31 12 -15 1 -27 6 -27 11 0 4 -9 6 -20 3 -11 -3 -22 -2 -25 3 -5
9 -198 6 -254 -4 -18 -3 -39 -10 -45 -16 -7 -5 -16 -7 -19 -3 -4 3 -7 0 -7 -7
0 -7 -3 -11 -6 -7 -4 3 -20 -1 -37 -9 -29 -16 -42 -25 -72 -52 -8 -7 -15 -10
-15 -6 0 4 -13 -7 -29 -24 -16 -16 -31 -28 -34 -26 -2 3 -12 -8 -22 -23 -10
-15 -24 -32 -32 -36 -7 -4 -13 -15 -13 -22 0 -8 -3 -15 -8 -15 -6 0 -53 -91
-58 -112 -1 -5 -2 -9 -4 -10 -4 -6 -22 -86 -24 -111 -2 -17 -26 -18 -476 -18
-450 0 -474 1 -476 18 -1 10 -5 32 -8 48 -4 17 -8 36 -8 43 -1 6 -6 12 -11 12
-5 0 -7 6 -4 14 3 7 -4 29 -16 47 -12 19 -23 41 -25 49 -2 8 -8 17 -13 18 -5
2 -9 9 -9 16 0 6 -8 18 -17 27 -10 8 -26 26 -36 39 -10 14 -15 19 -11 11 4 -7
-14 7 -40 33 -26 25 -54 46 -62 46 -8 0 -14 4 -14 9 0 9 -54 35 -65 31 -3 -1
-17 6 -31 15 -14 9 -32 14 -40 11 -8 -3 -14 -2 -14 3 0 10 -7 11 -135 15 -60
2 -115 -1 -121 -6 -7 -5 -16 -8 -20 -7 -5 1 -11 1 -14 -1 -3 -1 -16 -3 -29 -6
-14 -2 -30 -9 -36 -14 -7 -5 -15 -7 -18 -3 -4 3 -7 1 -7 -6 0 -7 -4 -9 -10 -6
-5 3 -10 1 -10 -5 0 -6 -4 -8 -10 -5 -5 3 -10 1 -10 -5 0 -6 -4 -8 -10 -5 -5
3 -10 1 -10 -4 0 -6 -5 -11 -10 -11 -13 0 -25 -10 -98 -82 -71 -72 -82 -85
-82 -98 0 -5 -5 -10 -11 -10 -5 0 -7 -4 -4 -10 3 -5 1 -10 -5 -10 -6 0 -8 -4
-5 -10 3 -5 2 -10 -2 -10 -5 0 -10 -10 -10 -22 -1 -13 -7 -24 -12 -26 -5 -2
-7 -10 -4 -18 3 -8 1 -14 -4 -14 -5 0 -10 -6 -11 -12 -3 -42 -13 -83 -21 -91
-6 -6 -103 -10 -248 -9 l-238 1 -1 1218 c-1 670 1 1223 3 1228 2 7 715 10
2108 11 l2105 1 -1 -1138z m-3109 -913 c50 -5 91 -11 98 -16 1 -2 7 -4 12 -5
6 -1 11 -3 13 -5 1 -1 11 -3 22 -5 11 -2 21 -9 23 -15 2 -5 8 -8 13 -4 5 3 9
0 9 -5 0 -6 7 -11 16 -11 17 0 150 -128 146 -141 -1 -5 3 -9 9 -9 5 0 7 -4 4
-10 -3 -5 -1 -10 6 -10 7 0 10 -3 6 -6 -3 -4 1 -13 9 -21 8 -8 12 -18 9 -23
-3 -5 -1 -11 5 -15 6 -4 8 -11 5 -16 -4 -5 -2 -9 3 -9 11 0 11 -2 13 -130 1
-82 -5 -132 -19 -154 -4 -6 -7 -13 -7 -16 -1 -16 -29 -70 -36 -70 -5 0 -9 -5
-9 -10 0 -16 -56 -80 -105 -119 -16 -13 -111 -63 -127 -67 -5 -1 -9 -2 -10 -4
-3 -1 -14 -4 -68 -16 -46 -10 -145 -11 -157 -2 -7 5 -17 7 -22 4 -5 -4 -13 -2
-16 4 -4 6 -15 8 -26 5 -11 -4 -19 -2 -19 5 0 6 -4 9 -8 6 -11 -7 -92 33 -92
45 0 5 -4 8 -10 6 -12 -3 -140 132 -140 149 0 7 -7 20 -16 28 -8 9 -12 16 -8
16 3 0 2 6 -3 13 -10 11 -20 43 -31 97 -7 33 -6 129 1 160 4 14 8 34 11 45 2
11 5 22 6 25 1 3 2 9 1 13 -1 4 5 15 14 23 8 9 15 22 15 30 0 8 5 14 11 14 8
0 7 5 -1 15 -11 13 -10 14 4 9 9 -3 16 -2 16 3 0 13 96 113 109 113 6 0 11 3
11 8 0 4 9 13 21 20 17 11 20 11 14 0 -3 -7 1 -4 9 6 9 11 16 17 16 13 0 -4
10 -2 23 5 12 7 25 11 30 10 4 -1 7 3 7 9 0 6 7 9 15 6 8 -4 17 -1 21 4 3 6
16 8 28 5 11 -3 27 -1 35 3 8 5 19 7 25 5 6 -2 36 -6 66 -8z m2148 -9 c7 -5
15 -7 19 -4 3 4 12 2 20 -4 7 -6 13 -8 13 -3 0 5 4 4 8 -3 4 -6 16 -13 27 -15
11 -1 29 -11 39 -20 10 -10 22 -15 26 -13 5 3 11 -2 14 -10 3 -8 9 -14 13 -13
10 3 89 -77 97 -97 3 -8 10 -15 16 -15 6 0 9 -4 6 -8 -3 -5 3 -18 13 -28 9
-11 15 -26 13 -33 -3 -9 0 -11 8 -6 10 6 12 4 7 -7 -3 -9 -3 -19 1 -22 3 -4 7
-14 9 -24 2 -9 6 -28 10 -42 15 -65 6 -169 -21 -233 -8 -20 -13 -37 -10 -37 3
0 -2 -7 -10 -16 -9 -8 -16 -22 -16 -30 0 -8 -4 -14 -10 -14 -5 0 -10 -5 -10
-10 0 -15 -104 -120 -118 -120 -7 0 -12 -4 -12 -8 0 -8 -71 -45 -92 -48 -4 -1
-9 -2 -10 -4 -4 -2 -31 -8 -78 -17 -44 -9 -115 -8 -155 0 -54 11 -70 15 -72
17 -2 2 -6 3 -10 4 -5 1 -24 10 -43 21 -19 11 -38 18 -42 17 -5 -1 -8 3 -8 8
0 6 -5 10 -10 10 -25 0 -130 105 -130 130 0 5 -4 10 -9 10 -8 0 -34 52 -33 64
1 3 -5 17 -13 32 -7 15 -11 32 -9 39 3 7 2 15 -3 18 -11 7 -4 201 7 215 2 1 4
7 5 12 1 6 4 13 5 18 1 4 2 10 1 15 0 4 4 7 10 7 5 0 7 5 4 10 -3 6 -1 10 5
10 6 0 8 5 5 10 -3 6 -1 10 5 10 6 0 8 5 5 10 -3 6 -1 10 4 10 6 0 11 5 11 11
0 17 127 139 144 139 9 0 16 5 16 11 0 5 4 8 9 5 5 -4 11 -1 13 4 2 6 12 13
23 15 11 2 21 4 23 5 1 2 7 4 12 5 6 1 11 3 13 5 1 1 10 3 20 5 11 2 21 6 23
8 10 9 189 4 202 -6z m-1137 -497 l464 -1 2 -22 c2 -29 10 -71 13 -74 1 -2 4
-7 5 -13 1 -5 4 -12 5 -15 1 -3 3 -8 4 -12 5 -19 52 -108 59 -111 4 -2 7 -10
7 -17 0 -7 7 -15 15 -19 8 -3 15 -11 15 -18 0 -16 71 -88 87 -88 7 0 13 -4 13
-10 0 -5 7 -10 15 -10 18 0 20 -16 3 -18 -26 -3 -63 -10 -65 -12 -2 -2 -7 -4
-13 -5 -5 -1 -12 -4 -15 -5 -3 -1 -9 -4 -15 -5 -5 -1 -13 -4 -17 -5 -5 -1 -11
-2 -15 -1 -5 0 -8 -4 -8 -9 0 -5 -3 -9 -7 -8 -15 4 -53 -13 -53 -23 0 -6 -4
-7 -10 -4 -5 3 -10 1 -10 -4 0 -6 -7 -11 -15 -11 -8 0 -15 -4 -15 -10 0 -5 -5
-10 -10 -10 -13 0 -20 -6 -100 -82 -33 -31 -60 -62 -60 -67 0 -6 -4 -11 -10
-11 -5 0 -10 -6 -10 -14 0 -8 -7 -17 -16 -20 -8 -3 -12 -10 -9 -16 3 -5 1 -10
-5 -10 -6 0 -8 -4 -5 -10 3 -5 1 -10 -5 -10 -6 0 -8 -4 -5 -10 3 -5 1 -10 -5
-10 -6 0 -8 -4 -5 -10 3 -5 1 -10 -5 -10 -6 0 -8 -4 -5 -10 3 -5 2 -10 -4 -10
-6 0 -8 -7 -5 -15 4 -8 1 -15 -6 -15 -6 0 -9 -4 -5 -9 3 -5 1 -12 -5 -16 -6
-4 -8 -10 -5 -15 3 -5 1 -11 -5 -15 -6 -4 -8 -10 -5 -14 2 -5 -6 -7 -18 -6
-12 1 -22 4 -22 5 0 5 -73 13 -125 13 -52 0 -125 -8 -125 -13 0 -1 -10 -4 -22
-5 -12 -1 -22 1 -21 4 0 3 0 8 -2 11 -1 3 -4 16 -6 30 -2 13 -10 27 -16 32 -7
4 -9 10 -6 14 8 7 -29 85 -44 95 -5 3 -9 9 -8 13 1 4 -9 21 -22 37 -30 40
-128 140 -128 132 0 -3 -8 4 -19 15 -10 12 -23 22 -30 22 -6 0 -11 5 -11 10 0
6 -7 10 -15 10 -8 0 -15 5 -15 11 0 5 -4 7 -10 4 -5 -3 -10 -2 -10 4 0 10 -39
27 -54 23 -5 -2 -17 5 -27 14 -11 9 -19 14 -19 9 0 -4 -7 -2 -15 5 -8 7 -15 9
-15 5 0 -4 -6 -3 -12 2 -7 6 -21 11 -30 12 -41 3 -48 5 -48 13 0 4 5 8 10 8
12 0 17 4 78 56 23 20 42 43 42 50 0 8 7 17 15 20 8 4 15 12 15 19 0 7 3 15 8
17 11 5 56 101 53 116 -1 6 2 12 7 12 5 0 9 6 10 13 0 6 4 23 7 37 4 14 9 36
10 50 4 33 4 32 14 26 4 -3 217 -6 472 -6z m-736 -525 c17 -3 38 -6 48 -6 9 0
17 -4 17 -10 0 -5 3 -8 8 -7 4 1 17 -3 28 -10 12 -6 24 -8 28 -5 3 3 6 1 6 -6
0 -7 4 -10 9 -7 4 3 19 -3 31 -14 13 -11 29 -20 35 -20 7 0 15 -7 19 -15 3 -8
10 -15 15 -15 6 0 34 -25 63 -55 70 -72 74 -78 82 -103 4 -12 11 -22 16 -22 8
0 24 -36 22 -50 0 -3 5 -14 11 -25 6 -11 12 -23 13 -27 1 -5 2 -9 4 -10 1 -2
3 -14 5 -28 3 -27 -12 -53 -26 -44 -5 3 -9 0 -9 -7 0 -7 -3 -10 -6 -6 -7 7
-16 0 -99 -80 -36 -34 -65 -66 -65 -72 0 -6 -4 -11 -8 -11 -4 0 -16 -22 -27
-50 -11 -27 -24 -50 -29 -50 -5 0 -6 -3 -3 -7 4 -3 3 -11 -2 -17 -24 -28 -38
-176 -26 -266 7 -46 12 -74 15 -77 1 -2 3 -7 4 -12 0 -5 4 -13 9 -17 4 -4 7
-11 7 -16 0 -12 -1017 -10 -1025 2 -3 6 -1 10 5 10 6 0 9 4 5 9 -3 5 0 13 6
16 5 4 8 13 5 21 -3 7 -1 16 4 19 5 3 9 13 10 23 7 141 7 178 -2 189 -5 7 -7
17 -3 23 3 5 3 15 -1 22 -4 7 -9 23 -10 37 -2 13 -8 27 -14 31 -7 4 -11 10
-10 14 4 13 -22 66 -32 66 -5 0 -6 5 -3 10 3 6 1 10 -4 10 -6 0 -11 7 -11 15
0 9 -7 18 -15 21 -8 4 -15 12 -15 19 0 6 -10 20 -22 31 l-23 19 20 -25 20 -25
-23 19 c-12 11 -20 21 -17 24 8 8 -26 42 -36 36 -4 -2 -13 5 -19 16 -6 11 -15
18 -19 15 -5 -3 -12 2 -15 11 -3 8 -10 12 -16 9 -5 -3 -10 -1 -10 5 0 6 -4 8
-10 5 -5 -3 -10 0 -11 7 0 7 -2 21 -4 31 -2 10 1 14 8 10 6 -4 8 -1 5 8 -3 8
0 23 8 33 7 11 11 23 8 27 -3 5 -1 9 4 9 9 0 25 37 23 53 -1 4 4 7 11 7 6 0 8
3 5 7 -4 3 1 12 11 20 11 10 12 12 2 8 -8 -4 1 8 20 25 19 17 28 28 20 24 -8
-4 3 12 25 35 21 22 45 41 52 41 7 0 17 9 23 20 6 11 15 18 19 15 5 -3 12 2
15 11 3 8 10 12 16 9 5 -3 10 -1 10 5 0 6 5 8 10 5 6 -3 10 -1 10 5 0 6 5 8
10 5 6 -3 10 -1 10 5 0 6 4 9 9 6 5 -4 11 -2 13 4 1 5 13 11 25 13 12 2 25 6
29 9 3 4 12 4 20 1 8 -3 14 0 14 7 0 8 8 10 23 7 12 -4 27 -3 34 1 14 9 567 6
608 -3z m2080 2 c11 -2 27 -6 35 -10 8 -4 24 -8 36 -10 24 -3 138 -59 142 -70
2 -4 8 -5 12 -2 5 3 14 -4 20 -15 6 -11 16 -20 23 -20 7 0 33 -20 57 -45 24
-25 40 -45 35 -45 -5 0 1 -7 13 -16 12 -8 20 -20 17 -25 -4 -5 -1 -9 5 -9 6 0
9 -4 6 -9 -4 -5 -3 -11 1 -13 11 -4 49 -80 46 -90 -2 -4 2 -8 8 -8 6 0 9 -7 5
-15 -3 -8 -1 -15 3 -15 5 0 8 -8 6 -17 -2 -10 -4 -24 -4 -31 -1 -7 -5 -10 -11
-7 -5 3 -10 1 -10 -4 0 -6 -7 -11 -15 -11 -8 0 -15 -4 -15 -10 0 -5 -4 -10
-10 -10 -5 0 -18 -7 -27 -15 -66 -57 -86 -76 -73 -70 8 4 0 -6 -17 -22 -18
-16 -33 -34 -33 -41 0 -7 -5 -12 -11 -12 -5 0 -7 -4 -4 -10 3 -5 2 -10 -3 -10
-9 0 -34 -50 -34 -67 0 -4 -4 -13 -8 -18 -8 -10 -11 -22 -27 -100 -11 -57 -6
-215 8 -215 4 0 8 -8 8 -17 0 -10 3 -30 7 -45 l6 -28 -511 0 c-448 0 -511 2
-511 15 0 8 4 15 10 15 5 0 7 7 4 15 -4 8 -1 15 6 15 7 0 10 7 6 16 -3 9 -3
21 1 27 9 13 12 50 11 117 0 73 -3 94 -12 108 -4 7 -5 16 -2 19 3 3 1 12 -5
20 -6 7 -8 13 -4 13 4 0 2 7 -5 15 -7 8 -10 15 -6 15 3 0 -6 19 -21 42 -14 24
-26 48 -26 55 0 7 -4 10 -9 7 -4 -3 -9 0 -9 5 -1 6 -2 14 -3 19 -3 11 -120
126 -129 126 -4 1 -12 8 -17 16 -5 8 -10 11 -10 6 0 -6 -7 -1 -16 10 -8 10
-13 12 -9 4 4 -10 2 -9 -8 2 -8 10 -18 14 -23 10 -4 -4 -2 1 5 10 7 9 10 22 7
27 -4 5 -2 12 4 16 6 4 8 10 5 15 -3 5 -1 11 5 15 6 4 8 11 5 16 -4 5 -1 9 4
9 6 0 10 3 9 8 -4 14 13 52 23 52 6 0 7 5 4 10 -3 6 -1 10 4 10 6 0 11 5 11
11 0 7 8 18 18 25 9 7 17 16 18 21 1 13 87 99 107 106 9 4 17 11 17 17 0 6 4
9 8 6 5 -3 21 6 36 19 16 14 33 22 37 19 5 -3 9 -1 9 3 0 5 10 10 22 10 13 1
24 7 26 13 2 5 8 8 13 4 5 -3 9 -1 9 5 0 5 8 10 18 10 32 0 81 7 87 12 5 6
559 3 590 -4z m-3364 -511 c9 -4 20 -6 25 -5 5 1 12 0 17 -1 4 -1 12 -4 17 -5
6 -1 12 -4 15 -5 3 -1 8 -3 13 -4 18 -5 87 -42 90 -48 2 -5 8 -8 14 -8 6 0 19
-11 30 -25 11 -14 24 -23 29 -19 5 3 13 -6 19 -20 5 -14 18 -30 30 -36 11 -6
18 -15 15 -21 -4 -5 -1 -9 4 -9 6 0 11 -7 11 -15 0 -8 5 -15 11 -15 5 0 7 -4
4 -10 -3 -5 -1 -10 4 -10 6 0 10 -3 10 -7 -1 -5 0 -10 1 -13 1 -3 3 -13 5 -23
2 -10 7 -26 11 -35 21 -51 22 -196 0 -230 -4 -7 -5 -16 -2 -21 4 -5 1 -11 -4
-13 -6 -2 -12 -13 -13 -26 0 -12 -5 -22 -10 -22 -4 0 -5 -4 -2 -10 3 -5 1 -10
-5 -10 -6 0 -8 -4 -5 -10 3 -5 1 -10 -4 -10 -6 0 -11 -6 -11 -14 0 -8 -7 -17
-16 -20 -8 -3 -13 -9 -10 -14 2 -4 -14 -25 -36 -47 -23 -22 -38 -33 -34 -25 4
8 -1 5 -12 -7 -11 -13 -25 -23 -31 -23 -6 0 -11 -5 -11 -11 0 -5 -4 -7 -10 -4
-5 3 -10 1 -10 -5 0 -6 -4 -8 -10 -5 -5 3 -10 1 -10 -5 0 -6 -4 -8 -10 -5 -5
3 -10 1 -10 -5 0 -6 -4 -9 -9 -5 -5 3 -12 1 -16 -5 -4 -6 -10 -8 -15 -5 -5 3
-11 1 -15 -4 -3 -6 -12 -8 -20 -4 -8 3 -15 1 -15 -4 0 -10 -173 -8 -189 2 -6
3 -15 4 -20 0 -5 -3 -13 0 -16 6 -4 5 -13 8 -21 5 -8 -3 -14 0 -14 6 0 6 -3 9
-6 5 -3 -3 -24 5 -45 19 -21 13 -39 21 -39 17 0 -5 -5 -1 -10 7 -5 8 -13 15
-18 15 -5 0 -21 15 -36 33 -16 17 -32 30 -36 27 -5 -3 -12 0 -16 6 -5 8 -2 10
7 5 8 -4 6 -1 -3 7 -10 8 -18 20 -18 26 0 7 -4 9 -10 6 -5 -3 -10 3 -10 14 0
12 -5 21 -11 21 -5 0 -7 5 -4 10 3 6 1 10 -5 10 -6 0 -8 5 -5 10 3 6 1 10 -4
10 -6 0 -10 3 -10 8 1 4 0 10 -1 15 -1 4 -4 12 -5 17 -1 6 -3 11 -5 13 -10 12
-16 193 -6 217 3 8 7 26 8 40 2 14 5 27 8 30 10 10 45 84 42 88 -2 3 3 9 12
14 9 5 16 13 16 18 0 13 77 90 90 90 6 0 10 5 10 10 0 6 7 10 15 10 8 0 15 5
15 11 0 5 5 7 10 4 6 -3 10 -1 10 5 0 6 5 8 10 5 6 -3 10 -1 10 5 0 6 5 8 10
5 6 -3 10 -1 10 5 0 6 4 9 9 5 5 -3 12 -1 16 4 3 6 12 8 19 5 8 -3 17 0 21 5
3 6 11 9 16 6 5 -4 15 -2 24 2 17 10 133 9 156 -1z m2099 4 c3 -1 13 -2 23 -1
9 1 17 -2 17 -8 0 -6 7 -8 15 -5 8 4 15 2 15 -3 0 -5 7 -10 15 -10 19 0 85
-35 85 -45 0 -5 4 -8 10 -8 13 0 120 -107 120 -120 0 -6 4 -10 8 -10 12 0 44
-59 37 -70 -3 -6 -1 -10 5 -10 6 0 9 -4 5 -9 -3 -5 0 -13 6 -16 5 -4 8 -13 5
-20 -2 -7 -2 -16 2 -20 17 -16 18 -165 2 -207 -1 -5 -4 -12 -5 -18 -1 -5 -3
-11 -4 -12 -2 -2 -5 -14 -7 -28 -3 -14 -9 -27 -14 -28 -6 -2 -8 -8 -4 -13 3
-5 0 -9 -6 -9 -6 0 -8 -5 -5 -10 3 -6 -1 -13 -9 -16 -9 -3 -14 -10 -11 -14 3
-5 -3 -13 -12 -19 -10 -6 -14 -11 -8 -11 5 0 -8 -18 -30 -40 -21 -21 -42 -37
-47 -34 -4 3 -11 -1 -14 -9 -3 -9 -16 -18 -30 -21 -13 -4 -24 -11 -24 -17 0
-6 -4 -7 -10 -4 -5 3 -10 1 -10 -5 0 -6 -4 -8 -10 -5 -5 3 -10 1 -10 -4 0 -6
-3 -10 -7 -10 -5 1 -11 0 -15 -1 -5 -1 -12 -4 -18 -5 -5 -1 -11 -3 -12 -5 -19
-15 -240 -15 -278 0 -3 1 -9 2 -13 1 -4 -1 -15 6 -23 14 -9 8 -20 13 -25 10
-5 -4 -9 -1 -9 5 0 6 -4 8 -10 5 -5 -3 -10 -2 -10 4 0 6 -11 13 -24 17 -14 3
-27 12 -30 21 -3 8 -9 12 -13 10 -10 -6 -83 69 -75 77 3 3 0 6 -6 6 -7 0 -12
6 -12 14 0 8 -3 16 -7 18 -8 3 -47 75 -49 90 -1 4 -3 11 -4 16 -1 4 -3 12 -5
17 -1 6 -3 12 -5 15 -4 8 -9 61 -10 105 -1 58 12 121 31 157 7 13 12 24 11 26
-7 10 2 31 23 57 54 64 124 135 134 135 6 0 11 4 11 8 0 13 79 54 90 47 5 -3
10 -1 10 5 0 7 7 10 15 7 8 -4 17 -2 21 4 3 6 12 8 20 5 7 -3 15 -2 18 2 4 7
162 8 176 2z m2085 0 c0 -1 9 -4 20 -6 35 -8 40 -10 60 -21 11 -6 25 -12 30
-12 24 -3 45 -13 45 -22 0 -5 7 -9 15 -9 8 0 15 -4 15 -10 0 -5 5 -10 10 -10
9 0 76 -65 105 -102 18 -23 58 -112 62 -137 2 -14 8 -32 12 -40 12 -25 3 -202
-11 -217 -4 -3 -4 -12 -1 -20 3 -8 0 -14 -7 -14 -6 0 -8 -4 -5 -10 3 -5 1 -10
-5 -10 -6 0 -8 -4 -5 -10 3 -5 1 -10 -5 -10 -6 0 -8 -4 -5 -10 3 -5 1 -10 -4
-10 -6 0 -11 -7 -11 -15 0 -8 -4 -15 -10 -15 -5 0 -10 -4 -10 -8 0 -13 -97
-112 -109 -112 -6 0 -11 -4 -11 -8 0 -4 -22 -16 -50 -27 -27 -11 -50 -23 -50
-27 0 -4 -6 -5 -14 -2 -8 3 -17 0 -21 -5 -3 -6 -11 -9 -16 -5 -5 3 -15 1 -22
-4 -10 -8 -170 -9 -187 -1 -3 1 -9 3 -15 4 -5 2 -13 4 -17 5 -5 1 -12 4 -18 5
-5 1 -11 3 -12 5 -2 1 -10 3 -18 5 -34 7 -70 25 -70 35 0 5 -7 10 -15 10 -8 0
-15 5 -15 10 0 6 -5 10 -11 10 -15 0 -89 74 -89 89 0 6 -4 11 -10 11 -5 0 -10
7 -10 15 0 8 -5 15 -11 15 -5 0 -7 5 -4 10 3 6 2 10 -4 10 -6 0 -14 12 -17 28
-4 15 -9 32 -13 37 -6 12 -12 34 -13 55 0 8 -4 20 -8 25 -11 15 -9 128 2 142
5 7 7 17 4 22 -4 5 -2 12 4 16 5 3 10 17 10 30 0 13 5 27 10 30 6 4 8 11 5 16
-4 5 -1 9 6 9 7 0 10 3 6 6 -3 3 3 15 13 27 11 11 17 24 14 28 -2 4 2 11 9 16
7 4 23 23 36 41 12 17 29 32 37 32 8 0 17 7 20 15 4 8 12 15 19 15 7 0 15 3
17 8 4 9 90 52 114 57 11 2 19 4 19 5 0 1 10 3 22 4 13 2 25 5 27 7 4 4 161 3
161 -1z m-1755 -834 c0 -2 -8 -10 -17 -17 -16 -13 -17 -12 -4 4 13 16 21 21
21 13z m-2234 -188 c17 -3 36 -8 43 -12 6 -4 18 -5 26 -2 8 3 15 1 15 -5 0 -6
6 -9 14 -6 7 3 19 0 25 -6 6 -6 11 -7 11 -2 0 6 3 6 8 0 9 -12 84 -49 95 -47
4 1 7 -2 7 -8 0 -5 6 -10 14 -10 8 0 16 -7 20 -15 3 -8 9 -14 13 -13 4 1 32
-22 62 -52 30 -29 48 -50 40 -46 -8 4 -2 -4 14 -18 15 -14 26 -28 25 -30 -2
-3 5 -14 14 -25 9 -11 14 -22 11 -25 -4 -3 -1 -6 6 -6 7 0 9 -4 6 -10 -3 -5
-1 -10 5 -10 6 0 9 -4 5 -9 -3 -5 -1 -12 5 -16 6 -4 8 -10 5 -15 -3 -5 -1 -11
5 -15 6 -4 8 -10 5 -15 -3 -5 -1 -11 4 -14 5 -3 7 -15 4 -26 -3 -11 -1 -20 4
-20 5 0 9 -19 9 -42 0 -24 1 -180 3 -348 l2 -305 -800 -2 -800 -2 0 334 c0
235 3 335 10 335 6 0 9 9 6 20 -3 11 -1 23 4 26 6 3 8 11 6 17 -2 6 2 22 9 35
7 14 10 32 7 41 -4 9 -2 13 2 9 7 -7 45 61 44 78 0 3 8 12 18 21 10 8 12 12 3
8 -8 -4 5 12 30 35 25 23 39 38 31 34 -10 -5 -12 -3 -7 5 5 7 19 16 33 22 14
5 21 14 17 21 -4 7 -3 8 5 4 6 -4 14 0 17 8 3 9 10 13 15 10 5 -3 12 2 15 10
3 9 10 13 15 10 5 -3 12 2 15 10 3 9 10 13 15 10 5 -3 9 0 9 6 0 6 5 8 10 5 6
-3 10 -1 10 5 0 6 5 8 10 5 6 -3 10 -2 10 4 0 6 7 8 15 5 8 -4 15 -1 15 6 0 6
4 9 9 5 5 -3 12 -1 16 5 4 6 10 8 15 5 5 -3 11 -1 15 4 3 6 12 8 19 5 8 -3 17
-1 21 5 3 6 17 8 30 5 12 -3 26 -1 29 5 6 10 460 9 532 -1z m2106 2 c15 -1 30
-5 33 -11 4 -5 11 -7 16 -3 5 3 16 0 24 -6 8 -7 15 -9 15 -5 0 4 6 2 13 -4 8
-6 17 -8 20 -4 4 3 7 1 7 -5 0 -6 6 -9 14 -6 7 3 20 -2 29 -10 8 -8 17 -12 21
-9 3 3 8 -2 12 -11 3 -9 10 -13 15 -10 5 3 9 0 9 -6 0 -6 4 -9 9 -5 6 3 15 -4
21 -15 6 -11 14 -19 18 -17 11 3 108 -94 105 -105 -2 -4 6 -12 17 -18 11 -6
18 -15 15 -21 -4 -5 -1 -9 5 -9 6 0 8 -4 5 -10 -3 -5 -2 -10 3 -10 10 0 38
-60 34 -72 -1 -5 3 -8 9 -8 6 0 9 -7 5 -15 -3 -8 -1 -15 5 -15 6 0 9 -7 6 -15
-4 -8 -2 -17 4 -21 6 -3 8 -12 5 -19 -2 -7 -1 -16 2 -21 4 -5 6 -161 4 -346
l-3 -338 -790 0 -789 0 -2 323 c0 177 0 329 1 337 2 8 3 25 3 38 0 12 5 22 10
22 6 0 8 7 5 15 -4 8 -2 17 4 20 5 4 7 10 4 15 -3 5 -1 11 5 15 6 4 8 11 5 16
-4 5 -1 9 5 9 6 0 8 5 5 10 -3 6 -1 10 5 10 6 0 8 5 5 10 -3 6 -1 10 5 10 6 0
8 5 5 10 -3 6 -1 10 5 10 6 0 9 4 6 9 -3 5 1 12 10 15 9 4 14 9 10 13 -3 3 3
13 14 20 11 8 18 18 15 23 -3 5 10 20 30 33 19 13 32 27 29 30 -4 4 2 9 12 13
10 4 30 18 43 33 13 14 20 19 16 11 -3 -8 1 -6 9 4 9 11 16 16 16 10 0 -5 5
-1 11 8 5 10 16 15 24 12 8 -4 15 -1 15 6 0 6 5 8 10 5 6 -3 10 -2 10 2 0 5
10 9 22 10 11 1 24 6 27 10 3 4 13 10 21 11 8 2 24 6 35 9 11 2 40 7 64 9 25
2 47 7 50 10 5 4 246 1 513 -6z m2083 -3 c64 -11 90 -19 102 -29 7 -6 13 -7
13 -3 0 4 6 2 13 -4 8 -6 17 -8 20 -4 4 3 7 1 7 -6 0 -7 4 -10 9 -6 5 3 16 -1
24 -9 8 -8 17 -12 21 -9 3 4 6 1 6 -5 0 -7 7 -12 15 -12 8 0 15 -4 15 -10 0
-5 4 -10 9 -10 11 0 53 -34 87 -70 13 -14 33 -35 45 -47 11 -12 20 -25 19 -29
-1 -4 2 -10 7 -13 9 -7 55 -99 59 -119 1 -8 6 -21 10 -30 11 -25 15 -45 15
-64 0 -10 4 -20 9 -23 5 -3 9 -151 9 -340 l0 -334 -795 0 c-620 -1 -796 2
-799 12 -8 22 -10 617 -3 617 5 0 8 15 7 33 0 29 6 78 11 85 2 1 4 7 5 12 1 6
4 12 5 15 1 3 3 8 4 13 1 4 7 17 14 28 6 12 8 24 5 28 -3 3 -1 6 6 6 7 0 9 5
6 10 -3 6 -2 10 4 10 6 0 13 11 17 24 3 14 12 27 20 30 8 3 14 12 14 20 0 7
11 21 25 30 14 9 24 22 22 29 -1 6 4 11 10 10 7 -2 20 8 29 22 9 14 23 25 30
25 8 0 14 5 14 10 0 6 6 10 14 10 8 0 16 3 18 8 3 6 92 53 111 58 4 1 9 3 12
4 3 1 10 4 15 5 6 1 11 3 13 5 3 3 34 8 91 15 28 3 52 8 55 11 7 6 464 -2 506
-9z"/>
<path d="M4211 8479 c-17 -16 -21 -28 -16 -48 4 -14 8 -27 9 -29 2 -1 340 -2
751 -2 492 0 752 3 759 10 6 6 6 10 1 10 -6 0 -4 4 4 9 19 13 4 50 -26 62 -14
5 -317 9 -742 9 -716 0 -717 0 -740 -21z"/>
<path d="M4207 8228 c-20 -12 -14 -62 8 -75 29 -18 2780 -18 2799 -1 14 13 10
43 -8 68 -10 13 -177 15 -1399 15 -764 0 -1394 -3 -1400 -7z"/>
<path d="M4205 7967 c-6 -7 -11 -25 -10 -42 l0 -30 1404 -5 c1022 -4 1408 -2
1416 6 12 12 13 53 1 72 -11 17 -2796 17 -2811 -1z"/>
<path d="M4220 7717 c0 -5 -4 -6 -9 -3 -19 12 -18 -45 1 -69 l20 -25 1382 2
c1493 3 1411 0 1411 53 0 53 82 50 -1417 50 -764 0 -1388 -4 -1388 -8z"/>
<path d="M9870 9626 c0 -2 8 -10 18 -17 15 -13 16 -12 3 4 -13 16 -21 21 -21
13z"/>
<path d="M10220 9236 c0 -2 8 -10 18 -17 15 -13 16 -12 3 4 -13 16 -21 21 -21
13z"/>
</g>
</svg>
