<svg xmlns="http://www.w3.org/2000/svg" width="37.771" height="37.769" viewBox="0 0 37.771 37.769">
    <defs>
        <style>
            .cls-1{fill:#7e0cf5;stroke:#7e1ef5}
        </style>
    </defs>
    <g id="djabo" transform="translate(.411 .513)">
        <path id="Path_7719" d="M36.526 13.319a13 13 0 0 1 .332 3.085c-.075 3.557-1.928 5.778-5.6 5.914a14.31 14.31 0 0 1-5.847 6.607 10.377 10.377 0 0 1 1.519 1.6c.181.236-.673.892-.854.656a9.048 9.048 0 0 0-1.7-1.7 13.607 13.607 0 0 1-11.774 0 9.224 9.224 0 0 0-2.175 2.383 8.074 8.074 0 0 0-1.249 3.819h3.244v-2.456a.538.538 0 0 1 1.077 0v2.452h9.98v-2.452a.538.538 0 0 1 1.077 0v2.452H27.8a8 8 0 0 0-.691-2.779 6.36 6.36 0 0 0-1.034-1.722l.854-.656a7.751 7.751 0 0 1 1.161 1.937 16.927 16.927 0 0 1 .8 3.759.539.539 0 0 1-.538.538H8.627a.539.539 0 0 1-.538-.538 9.125 9.125 0 0 1 1.432-4.931 10.354 10.354 0 0 1 2.052-2.362 14.314 14.314 0 0 1-5.846-6.606A5.525 5.525 0 0 1 1.372 20.4c-1.481-1.863-1.444-4.773-.911-7.081a.892.892 0 0 1 1.187-.631 9.96 9.96 0 0 1 1.279.594 16.049 16.049 0 0 1 3.461-6.71C6.237 5.593 5.9 2.246 7.994.324a1.229 1.229 0 0 1 2.047.752 3.146 3.146 0 0 0 .77 1.882 15.62 15.62 0 0 1 15.366 0 3.146 3.146 0 0 0 .77-1.882 1.229 1.229 0 0 1 2.045-.752c2.1 1.922 1.757 5.269 1.605 6.247a16.047 16.047 0 0 1 3.461 6.71 10.006 10.006 0 0 1 1.279-.594.892.892 0 0 1 1.187.632zm-1.754 6.41c1.434-1.8.995-4.8.751-5.957a7.017 7.017 0 0 0-3.188 2.412 13.164 13.164 0 0 1-.653 5.028 4.283 4.283 0 0 0 3.09-1.482zm-2.678-4.954a7.836 7.836 0 0 1 1-.878A14.891 14.891 0 0 0 7.371 7.085a15.165 15.165 0 0 0-2.605 4.077 14.747 14.747 0 0 0-.875 2.738 7.835 7.835 0 0 1 1 .878 14.608 14.608 0 0 1 1.739-4.371c.1-.158.915.569.915.569a12.616 12.616 0 0 0-1.841 6.4 12.931 12.931 0 0 0 13.131 12.359 12.941 12.941 0 0 0 12.457-12.793v-.009a12.723 12.723 0 0 0-2.492-6.868 6.368 6.368 0 0 0-9.924-.478.539.539 0 0 1-.767 0A6.346 6.346 0 0 0 8.778 9.4a14.5 14.5 0 0 0-1.234 1.574.54.54 0 1 1-.915-.569 13.569 13.569 0 0 1 1.386-1.763A7.57 7.57 0 0 1 11.5 6.588a7.283 7.283 0 0 1 1.764-.222 7.8 7.8 0 0 1 5.225 2.1c4.444-4.019 11.558-2.473 13.6 6.312zM29.62 5.531c.067-1.234-.06-3.226-1.355-4.413a.15.15 0 0 0-.25.091 4.358 4.358 0 0 1-.9 2.318 16.5 16.5 0 0 1 2.505 2.004zm-19.752-2a4.358 4.358 0 0 1-.9-2.318.15.15 0 0 0-.25-.091C7.422 2.309 7.3 4.3 7.366 5.532a16.537 16.537 0 0 1 2.5-2zM5.305 21.212a13.312 13.312 0 0 1-.653-5.028 7.083 7.083 0 0 0-3.188-2.412c-.244 1.162-.683 4.154.751 5.957a4.283 4.283 0 0 0 3.09 1.482z" class="cls-1"/>
        <path id="Path_7720" d="M320.471 212.932a.539.539 0 0 1-.381.66l-.924.248a.535.535 0 0 1 .133.353v1.007a.538.538 0 0 1-1.077 0 10.383 10.383 0 0 1 .01-1.111 3.1 3.1 0 0 1-.621.147.539.539 0 0 1-.139-1.059l2.34-.627a.539.539 0 0 1 .659.382z" class="cls-1" transform="translate(-294.197 -197.275)"/>
        <path id="Path_7721" d="M230.312 242.939a.538.538 0 0 1 .052.759 2.659 2.659 0 0 1-4.012 0 .538.538 0 1 1 .811-.707 1.584 1.584 0 0 0 2.39 0 .539.539 0 0 1 .759-.052z" class="cls-1" transform="translate(-209.864 -225.375)"/>
        <path id="Path_7722" d="M150.381 213.178a.539.539 0 0 1-.139 1.059 3.172 3.172 0 0 1-.621-.147 10.363 10.363 0 0 1 .01 1.111.538.538 0 0 1-1.077 0v-1.008a.535.535 0 0 1 .133-.353l-.924-.248a.538.538 0 1 1 .279-1.04z" class="cls-1" transform="translate(-136.67 -197.275)"/>
    </g>
</svg>
