<?xml version="1.0" standalone="no"?>
<!DOCTYPE svg PUBLIC "-//W3C//DTD SVG 20010904//EN"
 "http://www.w3.org/TR/2001/REC-SVG-20010904/DTD/svg10.dtd">
<svg version="1.0" xmlns="http://www.w3.org/2000/svg"
 width="93.000000pt" height="93.000000pt" viewBox="0 0 93.000000 93.000000"
 preserveAspectRatio="xMidYMid meet">

<g transform="translate(0.000000,93.000000) scale(0.100000,-0.100000)"
fill="#595959" stroke="none">
<path d="M732 788 c-9 -9 -6 -18 15 -40 32 -34 39 -34 53 -7 21 38 -37 78 -68
47z"/>
<path d="M538 593 c-117 -119 -158 -166 -163 -191 -8 -41 -5 -45 31 -36 19 4
86 63 191 167 l163 161 -27 28 c-15 15 -29 28 -33 28 -3 0 -76 -71 -162 -157z"/>
<path d="M145 695 l-25 -24 0 -251 0 -251 25 -24 24 -25 251 0 251 0 24 25
c25 24 25 25 25 231 l0 208 -30 -29 -30 -28 -2 -171 -3 -171 -237 -3 -238 -2
0 240 0 240 173 0 173 0 29 30 29 30 -208 0 c-206 0 -207 0 -231 -25z"/>
</g>
</svg>
