<svg xmlns="http://www.w3.org/2000/svg" width="54.308" height="54.339" viewBox="0 0 54.308 54.339">
    <defs>
        <style>
            .cls-2{fill:#7e0cf5;stroke:#7e0cf5;stroke-width:2.3px}
        </style>
    </defs>
    <g id="ic-enem" transform="translate(1.15 1.181)">
        <g id="running-on-a-treadmill" transform="rotate(13 -40.36 88.91)">
            <path id="Path_6517" fill="#7e0cf5" stroke="#7e0cf5" d="M13.867 25.593c-.537-1.868-.766-2.853-.766-2.853a7.7 7.7 0 0 0-1.6-3.324 5.471 5.471 0 0 0-1.733-1.169L8.49 22.856a1.727 1.727 0 0 1-.812 1.235 3.493 3.493 0 0 1-1.871-.084L1.2 22.816a1.545 1.545 0 0 1-1.154-1.842 1.452 1.452 0 0 1 1.865-1.045l3.72.848 1.56-5.456.006.005 1.011-4.246c.2-.611-.223-.8-.624-.752a5.544 5.544 0 0 0-2.094.572 15.934 15.934 0 0 0-2.718 1.739 1.787 1.787 0 0 1-2.423.119c-.686-.673-.089-1.858.487-2.369A11.456 11.456 0 0 1 5.215 7.8a16.561 16.561 0 0 1 5.239-.535c.083 0 .162.012.236.022a.966.966 0 0 1 .132 0 10.74 10.74 0 0 1 4.03 1.65 3.908 3.908 0 0 0 1.508.183 3.045 3.045 0 0 0 1.292-.551l1.448-.8a1.491 1.491 0 0 1 1.465 2.584l-1.989 1.1a7.839 7.839 0 0 1-1.837.761 5.674 5.674 0 0 1-1.914-.235L12.73 11.2l-1.015 4.717a11.7 11.7 0 0 1 2.33 1.958c1.424 1.507 2.194 5.088 2.3 5.519.233.966.694 2.734-.954 2.945a1.636 1.636 0 0 1-.3.028 1.354 1.354 0 0 1-1.224-.774zM9.69 3.024a3.024 3.024 0 1 1 3.024 3.024A3.024 3.024 0 0 1 9.69 3.024z"/>
        </g>
        <g id="tracking">
            <path id="Path_6504" d="M26 0a.867.867 0 0 0-.867.867v3.467a.867.867 0 0 0 1.734 0V1.755A24.271 24.271 0 1 1 1.755 26.871h2.579a.867.867 0 0 0 0-1.734H.867A.867.867 0 0 0 0 26 26 26 0 1 0 26 0zm0 0" class="cls-2"/>
            <path id="Path_6511" d="M1.232 4.406a.867.867 0 0 0 .814.57.833.833 0 0 0 .3-.053.867.867 0 0 0 .52-1.11L1.676.555a.867.867 0 0 0-1.629.593zm0 0" class="cls-2" transform="rotate(13 7.895 79.754)"/>
            <path id="Path_6513" d="M2.413 4.058a.868.868 0 0 0 1.33-1.114L1.511.287A.867.867 0 0 0 .184 1.4zm0 0" class="cls-2" transform="rotate(5 -37.732 118.645)"/>
            <path id="Path_6514" d="M2.951 3.748A.867.867 0 0 0 4.065 2.42L1.41.191A.867.867 0 0 0 .3 1.519zm0 0" class="cls-2" transform="rotate(-8 75.591 -20.89)"/>
            <path id="Path_6516" d="M.555 1.676l3.258 1.185a.852.852 0 0 0 .3.053.867.867 0 0 0 .3-1.682L1.148.047a.867.867 0 0 0-.593 1.629zm0 0" class="cls-2" transform="rotate(-7 146.19 5.88)"/>
        </g>
    </g>
</svg>
