<svg xmlns="http://www.w3.org/2000/svg" id="ic-Exit-Idle" width="40" height="40" viewBox="0 0 40 40">
    <defs>
        <filter id="Path_176" width="24.76" height="38.206" x=".82" y=".82" filterUnits="userSpaceOnUse">
            <feOffset/>
            <feGaussianBlur result="blur" stdDeviation="2"/>
            <feFlood flood-opacity=".302"/>
            <feComposite in2="blur" operator="in"/>
            <feComposite in="SourceGraphic"/>
        </filter>
        <filter id="Path_177" width="28.52" height="26.103" x="10.587" y="6.82" filterUnits="userSpaceOnUse">
            <feOffset/>
            <feGaussianBlur result="blur-2" stdDeviation="2"/>
            <feFlood flood-opacity=".302"/>
            <feComposite in2="blur-2" operator="in"/>
            <feComposite in="SourceGraphic"/>
        </filter>
        <style>
            .cls-3{fill:#f0f0f0;stroke:#f0f0f0;stroke-width:2px}
        </style>
    </defs>
    <g id="Group_366" opacity="0.6">
        <g filter="url(#Path_176)" transform="translate(7.82 7.82) translate(-7.82 -7.82)">
            <path id="Path_176-2" d="M9.932 23.039H2.483a.932.932 0 0 1-.828-1.009V3.876a.932.932 0 0 1 .828-1.009h7.449a.931.931 0 0 0 .828-1.009A.931.931 0 0 0 9.932.85H2.483A2.8 2.8 0 0 0 0 3.876V22.03a2.8 2.8 0 0 0 2.483 3.026h7.449a1.028 1.028 0 0 0 0-2.017z" class="cls-3" transform="translate(7.82 6.97)"/>
        </g>
        <g filter="url(#Path_177)" transform="translate(7.82 7.82) translate(-7.82 -7.82)">
            <path id="Path_177-2" d="M184.351 112.553l-5.49-5.142a.937.937 0 0 0-1.277.009.826.826 0 0 0 .009 1.212l3.924 3.675H171a.858.858 0 1 0 0 1.714h10.514l-3.924 3.675a.826.826 0 0 0-.009 1.212.937.937 0 0 0 1.277.009l5.49-5.142a.826.826 0 0 0 0-1.22z" class="cls-3" transform="translate(-152.51 -93.24)"/>
        </g>
    </g>
</svg>
