<svg xmlns="http://www.w3.org/2000/svg" width="20" height="20" viewBox="0 0 20 20">
    <g>
        <path fill="none" d="M0 0h20v20H0z" transform="translate(2 1) translate(-2 -1)"/>
        <path fill="#393939" d="M898.667-2748h-7a1.669 1.669 0 0 1-1.667-1.667v-12.667a1.669 1.669 0 0 1 1.667-1.667h12.667a1.669 1.669 0 0 1 1.667 1.667v12.667a1.669 1.669 0 0 1-1.667 1.667h-3v-6H903a.332.332 0 0 0 .316-.228l.667-2a.329.329 0 0 0-.018-.253.332.332 0 0 0-.193-.168.349.349 0 0 0-.105-.017h-2.333v-1.667a1 1 0 0 1 1-1h1.333a.333.333 0 0 0 .333-.333v-2a.333.333 0 0 0-.333-.333h-1.333a3.671 3.671 0 0 0-3.667 3.667v1.667H897a.334.334 0 0 0-.334.334v2a.334.334 0 0 0 .334.331h1.667v6z" transform="translate(2 1) translate(-890 2765)"/>
    </g>
</svg>
