<svg width="18" height="18" viewBox="0 0 18 18" fill="none" xmlns="http://www.w3.org/2000/svg">
<path d="M17.7918 7.363H9.20875V10.8395H14.1481C13.6884 13.0487 11.764 14.318 9.20875 14.318C8.49375 14.3192 7.78555 14.1824 7.12476 13.9155C6.46397 13.6486 5.86359 13.2568 5.35806 12.7627C4.85253 12.2685 4.4518 11.6817 4.17884 11.0358C3.90588 10.39 3.76607 9.69778 3.76743 8.99899C3.76621 8.30029 3.90612 7.60822 4.17913 6.96248C4.45215 6.31673 4.85291 5.73001 5.35843 5.23595C5.86394 4.74189 6.46428 4.35022 7.125 4.08339C7.78572 3.81656 8.49384 3.67982 9.20875 3.68102C10.5065 3.68102 11.6795 4.13132 12.5999 4.86771L15.2799 2.24952C13.6471 0.858329 11.5537 3.8339e-05 9.20875 3.8339e-05C7.99845 -0.00341918 6.7994 0.227012 5.68055 0.678077C4.5617 1.12914 3.54513 1.79194 2.68932 2.62836C1.83351 3.46477 1.15534 4.45829 0.693808 5.55178C0.23228 6.64526 -0.00349539 7.81714 4.23134e-05 9C-0.0036322 10.1829 0.23205 11.3548 0.693529 12.4484C1.15501 13.5419 1.83318 14.5355 2.68902 15.3719C3.54486 16.2084 4.56148 16.8712 5.68039 17.3222C6.7993 17.7732 7.99841 18.0035 9.20875 18C13.8131 18 18 14.727 18 9C18 8.4681 17.9165 7.8949 17.7918 7.363Z" fill="#FEFAFF"/>
</svg>
