<svg xmlns="http://www.w3.org/2000/svg" width="76" height="76" viewBox="0 0 76 76">
    <g transform="translate(-44 -150)">
        <rect width="76" height="76" opacity="0.25" rx="8" transform="translate(44 150)"/>
        <path fill="#f7beff" d="M36.683 16.171L21.513 1a3.423 3.423 0 0 0-4.842 0L1.509 16.163l-.015.016a3.422 3.422 0 0 0 2.278 5.832c.035 0 .07.005.106.005h.6v11.163a4.011 4.011 0 0 0 4.007 4.006h5.935a1.09 1.09 0 0 0 1.09-1.089v-8.752a1.83 1.83 0 0 1 1.828-1.828h3.5a1.83 1.83 0 0 1 1.828 1.828V36.1a1.09 1.09 0 0 0 1.09 1.089H29.7a4.011 4.011 0 0 0 4-4.01V22.016h.561a3.4 3.4 0 0 0 2.421-1c1.336-1.337.002-4.844.001-4.845z" transform="translate(63.153 160)"/>
        <text fill="#f7beff" font-family="AllRoundGothic-Demi, All Round Gothic" font-size="14px" font-weight="300" letter-spacing="0.02em" transform="translate(61 217)">
            <tspan x="0" y="0">HOME</tspan>
        </text>
    </g>
</svg>
