<svg width="60" height="60" viewBox="0 0 60 60" fill="none" xmlns="http://www.w3.org/2000/svg">
<path d="M30 56C44.3594 56 56 44.3594 56 30C56 15.6406 44.3594 4 30 4C15.6406 4 4 15.6406 4 30C4 44.3594 15.6406 56 30 56Z" fill="#7E0CF5"/>
<path d="M46 30H28C27.4701 30.0016 26.9623 30.2128 26.5875 30.5875C26.2128 30.9623 26.0016 31.4701 26 32V40C26.0016 40.5299 26.2128 41.0377 26.5875 41.4125C26.9623 41.7872 27.4701 41.9984 28 42H46C46.5299 41.9984 47.0377 41.7872 47.4125 41.4125C47.7872 41.0377 47.9984 40.5299 48 40V32C47.9984 31.4701 47.7872 30.9623 47.4125 30.5875C47.0377 30.2128 46.5299 30.0016 46 30ZM46 40H28V32H30V36H32V32H34V36H36V32H38V36H40V32H42V36H44V32H46V40Z" fill="white"/>
<path d="M23 17.5C20.6255 17.5014 18.3064 18.2175 16.3445 19.5552C14.3826 20.8929 12.8687 22.7901 12 25C12.8677 27.2106 14.3812 29.1085 16.3434 30.4462C18.3055 31.7839 20.6252 32.4994 23 32.4994C25.3748 32.4994 27.6945 31.7839 29.6566 30.4462C31.6187 29.1085 33.1323 27.2106 34 25C33.1313 22.7901 31.6174 20.8929 29.6555 19.5552C27.6936 18.2175 25.3745 17.5014 23 17.5ZM23 30C22.0111 30 21.0444 29.7068 20.2221 29.1573C19.3999 28.6079 18.759 27.827 18.3806 26.9134C18.0022 25.9998 17.9031 24.9945 18.0961 24.0245C18.289 23.0546 18.7652 22.1637 19.4645 21.4645C20.1637 20.7652 21.0546 20.289 22.0245 20.0961C22.9945 19.9031 23.9998 20.0022 24.9134 20.3806C25.827 20.759 26.6079 21.3999 27.1573 22.2221C27.7068 23.0444 28 24.0111 28 25C28 26.3261 27.4732 27.5979 26.5355 28.5355C25.5979 29.4732 24.3261 30 23 30ZM23 22C22.4067 22 21.8266 22.1759 21.3333 22.5056C20.8399 22.8352 20.4554 23.3038 20.2284 23.8519C20.0013 24.4001 19.9419 25.0033 20.0576 25.5853C20.1734 26.1672 20.4591 26.7018 20.8787 27.1213C21.2982 27.5409 21.8328 27.8266 22.4147 27.9424C22.9967 28.0581 23.5999 27.9987 24.1481 27.7716C24.6962 27.5446 25.1648 27.1601 25.4944 26.6667C25.8241 26.1734 26 25.5933 26 25C26 24.2044 25.6839 23.4413 25.1213 22.8787C24.5587 22.3161 23.7956 22 23 22Z" fill="white"/>
</svg>
