<svg width="60" height="60" viewBox="0 0 60 60" fill="none" xmlns="http://www.w3.org/2000/svg">
<path d="M30 56C44.3594 56 56 44.3594 56 30C56 15.6406 44.3594 4 30 4C15.6406 4 4 15.6406 4 30C4 44.3594 15.6406 56 30 56Z" fill="#7E0CF5"/>
<path d="M32.4 32.32H27.579C27.3851 32.32 27.1992 32.397 27.0621 32.5341C26.925 32.6712 26.848 32.8572 26.848 33.051V42.52C26.848 42.7139 26.925 42.8998 27.0621 43.0369C27.1992 43.174 27.3851 43.251 27.579 43.251H32.405C32.5989 43.251 32.7848 43.174 32.9219 43.0369C33.059 42.8998 33.136 42.7139 33.136 42.52V33.051C33.136 32.9546 33.1169 32.8591 33.0799 32.7701C33.0428 32.6811 32.9885 32.6003 32.9201 32.5324C32.8517 32.4644 32.7705 32.4107 32.6813 32.3742C32.592 32.3378 32.4964 32.3194 32.4 32.32ZM31.669 41.789H28.306V33.784H31.669V41.789Z" fill="white" stroke="white"/>
<path d="M42.977 26.58H38.115C37.9211 26.58 37.7352 26.657 37.5981 26.7941C37.461 26.9312 37.384 27.1171 37.384 27.311V42.519C37.384 42.7129 37.461 42.8988 37.5981 43.0359C37.7352 43.173 37.9211 43.25 38.115 43.25H42.977C43.1709 43.25 43.3568 43.173 43.4939 43.0359C43.631 42.8988 43.708 42.7129 43.708 42.519V27.311C43.708 27.1171 43.631 26.9312 43.4939 26.7941C43.3568 26.657 43.1709 26.58 42.977 26.58ZM42.246 41.788H38.846V28.042H42.246V41.788Z" fill="white" stroke="white"/>
<path d="M22.857 37.785H17.995C17.595 37.785 17.264 38.027 17.264 38.326V42.709C17.264 43.009 17.591 43.25 17.995 43.25H22.857C23.257 43.25 23.588 43.008 23.588 42.709V38.326C23.589 38.027 23.261 37.785 22.857 37.785ZM22.126 42.172H18.726V38.872H22.126V42.172Z" fill="white" stroke="white"/>
<path d="M43.4152 21.9376C43.2596 22.0733 43.0671 22.1597 42.8622 22.1858C42.6573 22.2119 42.4493 22.1764 42.2647 22.0839C42.08 21.9914 41.9271 21.8461 41.8252 21.6665C41.7234 21.4868 41.6773 21.2809 41.6928 21.075L41.9639 17.4513C41.9724 17.3418 41.9591 17.2317 41.9246 17.1274C41.8902 17.0231 41.8353 16.9268 41.7633 16.8439C41.6912 16.761 41.6034 16.6933 41.505 16.6447C41.4065 16.5961 41.2994 16.5675 41.1897 16.5607L37.5629 16.3241C37.4263 16.3152 37.2928 16.2795 37.17 16.219C37.0472 16.1585 36.9376 16.0744 36.8473 15.9715C36.757 15.8687 36.6879 15.749 36.6438 15.6194C36.5998 15.4898 36.5817 15.3528 36.5906 15.2162C36.5995 15.0797 36.6352 14.9462 36.6957 14.8234C36.7562 14.7006 36.8403 14.5909 36.9431 14.5006C37.046 14.4104 37.1657 14.3412 37.2952 14.2972C37.4248 14.2531 37.5618 14.235 37.6984 14.2439L41.3266 14.482C41.7109 14.5067 42.0864 14.6074 42.4315 14.7782C42.7766 14.9491 43.0843 15.1867 43.3369 15.4773C43.5895 15.7679 43.782 16.1057 43.9031 16.4712C44.0243 16.8367 44.0717 17.2226 44.0427 17.6065L43.7703 21.2288C43.7503 21.5027 43.6227 21.7576 43.4152 21.9376Z" fill="white"/>
<path d="M41.9943 16.7654C38.0066 20.4006 33.6703 23.6342 29.0484 26.4191C24.8321 28.9088 20.3983 31.0102 15.8016 32.6974" stroke="white" stroke-width="2.5" stroke-linecap="round"/>
</svg>
