<svg width="60" height="60" viewBox="0 0 60 60" fill="none" xmlns="http://www.w3.org/2000/svg">
<path d="M30 56C44.3594 56 56 44.3594 56 30C56 15.6406 44.3594 4 30 4C15.6406 4 4 15.6406 4 30C4 44.3594 15.6406 56 30 56Z" fill="#7E0CF5"/>
<path d="M23.57 36.785H18.958C18.7875 36.7728 18.619 36.8284 18.4891 36.9396C18.3592 37.0507 18.2783 37.2086 18.264 37.379V42.191C18.2783 42.3614 18.3592 42.5193 18.4891 42.6305C18.619 42.7417 18.7875 42.7972 18.958 42.785H23.571C23.7416 42.7972 23.91 42.7417 24.0399 42.6305C24.1698 42.5193 24.2507 42.3614 24.265 42.191V37.379C24.2507 37.2084 24.1697 37.0504 24.0396 36.9392C23.9095 36.8279 23.7407 36.7726 23.57 36.785Z" fill="white"/>
<path d="M34.687 32.9646C34.56 33.062 34.4066 33.1191 34.2467 33.1285C34.0869 33.1378 33.9279 33.099 33.7903 33.0171C33.6528 32.9351 33.543 32.8137 33.4751 32.6687C33.4072 32.5237 33.3844 32.3616 33.4096 32.2035L33.8141 29.4237C33.8266 29.3397 33.8222 29.2541 33.8013 29.1718C33.7803 29.0895 33.7432 29.0122 33.6921 28.9444C33.641 28.8766 33.577 28.8196 33.5037 28.7768C33.4303 28.734 33.3492 28.7062 33.2651 28.695L30.4815 28.3171C30.3768 28.3029 30.2759 28.2681 30.1845 28.2149C30.0932 28.1616 30.0133 28.0909 29.9493 28.0067C29.8853 27.9226 29.8385 27.8266 29.8116 27.7244C29.7847 27.6222 29.7782 27.5156 29.7924 27.4109C29.8067 27.3061 29.8415 27.2052 29.8947 27.1139C29.948 27.0226 30.0187 26.9426 30.1029 26.8787C30.187 26.8147 30.2829 26.7679 30.3852 26.741C30.4874 26.7141 30.5939 26.7076 30.6987 26.7218L33.4829 27.1004C33.7779 27.1402 34.0622 27.2382 34.3191 27.3886C34.5761 27.539 34.8007 27.7389 34.9798 27.9767C35.159 28.2145 35.2892 28.4855 35.3629 28.7739C35.4366 29.0624 35.4524 29.3626 35.4093 29.6572L35.0038 32.4341C34.9888 32.5391 34.9531 32.64 34.8987 32.7311C34.8443 32.8222 34.7724 32.9016 34.687 32.9646Z" fill="white"/>
<path d="M24.294 17.757C24.2944 17.9635 24.2333 18.1655 24.1186 18.3372C24.0038 18.5089 23.8406 18.6426 23.6497 18.7213C23.4587 18.8 23.2487 18.8201 23.0463 18.7791C22.8439 18.7381 22.6582 18.6378 22.513 18.491L19.956 15.909C19.879 15.8307 19.7871 15.7686 19.6858 15.7262C19.5845 15.6838 19.4758 15.6619 19.366 15.6619C19.2562 15.6619 19.1475 15.6838 19.0462 15.7262C18.9449 15.7686 18.853 15.8307 18.776 15.909L16.218 18.491C16.1217 18.5882 16.0071 18.6655 15.8809 18.7185C15.7547 18.7715 15.6193 18.7991 15.4824 18.7998C15.3456 18.8004 15.2099 18.7741 15.0832 18.7223C14.9565 18.6705 14.8412 18.5943 14.744 18.498C14.6468 18.4017 14.5694 18.2871 14.5165 18.1609C14.4635 18.0347 14.4359 17.8993 14.4352 17.7624C14.4346 17.6256 14.4609 17.4899 14.5127 17.3632C14.5644 17.2365 14.6407 17.1212 14.737 17.024L17.297 14.442C17.5677 14.1682 17.8901 13.9508 18.2454 13.8024C18.6007 13.6541 18.9819 13.5777 19.367 13.5777C19.752 13.5777 20.1333 13.6541 20.4886 13.8024C20.8439 13.9508 21.1663 14.1682 21.437 14.442L23.992 17.024C24.1857 17.2187 24.2943 17.4823 24.294 17.757Z" fill="white"/>
<path d="M42.797 46.457C42.5905 46.4574 42.3885 46.3963 42.2168 46.2815C42.0451 46.1668 41.9114 46.0036 41.8327 45.8127C41.754 45.6217 41.7339 45.4117 41.7749 45.2093C41.8159 45.0069 41.9162 44.8212 42.063 44.676L44.645 42.119C44.7233 42.0419 44.7854 41.9501 44.8278 41.8488C44.8702 41.7475 44.8921 41.6388 44.8921 41.529C44.8921 41.4192 44.8702 41.3105 44.8278 41.2092C44.7854 41.1079 44.7233 41.016 44.645 40.939L42.063 38.381C41.9658 38.2847 41.8884 38.1701 41.8355 38.0439C41.7825 37.9177 41.7549 37.7823 41.7542 37.6454C41.7536 37.5086 41.7799 37.3729 41.8317 37.2462C41.8835 37.1195 41.9597 37.0042 42.056 36.907C42.1523 36.8097 42.2669 36.7324 42.3931 36.6794C42.5193 36.6265 42.6547 36.5989 42.7916 36.5982C42.9284 36.5976 43.0641 36.6239 43.1908 36.6757C43.3175 36.7274 43.4328 36.8037 43.53 36.9L46.112 39.46C46.3858 39.7307 46.6032 40.0531 46.7515 40.4084C46.8999 40.7637 46.9763 41.1449 46.9763 41.53C46.9763 41.915 46.8999 42.2963 46.7515 42.6516C46.6032 43.0069 46.3858 43.3293 46.112 43.6L43.53 46.155C43.3353 46.3487 43.0717 46.4573 42.797 46.457Z" fill="white"/>
<path d="M33.724 28.7142L23.0363 38.3631" stroke="white" stroke-width="2.5" stroke-linecap="round"/>
<path d="M19.5086 16.5192L19.5033 37.2778" stroke="white" stroke-width="2.50028" stroke-linecap="round"/>
<path d="M43.8828 41.5246L23.1242 41.5193" stroke="white" stroke-width="2.50028" stroke-linecap="round"/>
</svg>
