<svg width="60" height="60" viewBox="0 0 60 60" fill="none" xmlns="http://www.w3.org/2000/svg">
<path d="M30 56C44.3594 56 56 44.3594 56 30C56 15.6406 44.3594 4 30 4C15.6406 4 4 15.6406 4 30C4 44.3594 15.6406 56 30 56Z" fill="#7E0CF5"/>
<path d="M12.3181 29.336C12.34 27.3817 12.9391 25.4774 14.04 23.8625C15.141 22.2476 16.6946 20.9942 18.5059 20.2597C20.3171 19.5253 22.305 19.3425 24.2197 19.7345C26.1345 20.1265 27.8907 21.0757 29.2676 22.4629C30.6445 23.85 31.5807 25.6131 31.9585 27.5307C32.3363 29.4483 32.1387 31.4348 31.3909 33.2406C30.643 35.0463 29.3781 36.5907 27.7551 37.6796C26.1321 38.7686 24.2235 39.3536 22.269 39.361C19.6201 39.3509 17.0837 38.2891 15.2175 36.4091C13.3514 34.5291 12.3086 31.9849 12.3181 29.336ZM20.7771 22.672C19.1272 22.9434 17.6365 23.8165 16.5928 25.1228C15.5491 26.4291 15.0264 28.0759 15.126 29.745C15.232 31.6266 16.0808 33.3891 17.4856 34.6454C18.8904 35.9017 20.7365 36.549 22.6182 36.445C25.9002 36.321 28.7861 33.751 28.8711 30.778C26.8511 30.778 24.8331 30.743 22.8171 30.789C21.3511 30.822 20.758 30.12 20.772 28.72C20.792 26.715 20.781 24.705 20.781 22.672H20.7771Z" fill="white"/>
<path d="M35.5 22.5H44.5" stroke="white" stroke-width="3" stroke-linecap="round"/>
<path d="M35.5 29.5H44.5" stroke="white" stroke-width="3" stroke-linecap="round"/>
<path d="M35.5 36.5H44.5" stroke="white" stroke-width="3" stroke-linecap="round"/>
</svg>
