<svg width="60" height="60" viewBox="0 0 60 60" fill="none" xmlns="http://www.w3.org/2000/svg">
<path d="M30 56C44.3594 56 56 44.3594 56 30C56 15.6406 44.3594 4 30 4C15.6406 4 4 15.6406 4 30C4 44.3594 15.6406 56 30 56Z" fill="#7E0CF5"/>
<path d="M42.9411 28.5913C42.6915 28.841 42.3734 29.0108 42.0272 29.0793C41.681 29.1478 41.3222 29.1119 40.9964 28.9762C40.6706 28.8404 40.3925 28.6109 40.1974 28.3167C40.0022 28.0226 39.8989 27.6772 39.9005 27.3242L39.9288 21.1101C39.9302 20.9224 39.8943 20.7361 39.8231 20.5624C39.7519 20.3886 39.6469 20.2307 39.5141 20.0979C39.3813 19.9651 39.2234 19.8601 39.0496 19.7889C38.8758 19.7177 38.6896 19.6817 38.5018 19.6832L32.2885 19.7122C31.8161 19.7143 31.3622 19.5286 31.0267 19.196C30.6912 18.8634 30.5016 18.4112 30.4995 17.9388C30.4975 17.4664 30.6831 17.0125 31.0157 16.677C31.3483 16.3415 31.8005 16.1519 32.2729 16.1498L38.4877 16.1208C39.1457 16.1176 39.7978 16.2448 40.4063 16.4951C41.0148 16.7454 41.5677 17.1138 42.0329 17.5791C42.4982 18.0443 42.8666 18.5972 43.1169 19.2057C43.3672 19.8142 43.4944 20.4663 43.4912 21.1243L43.4622 27.3391C43.461 27.809 43.2736 28.2593 42.9411 28.5913Z" fill="white"/>
<path d="M38.487 42.706L33.411 42.686L21.911 42.706C21.2532 42.7093 20.6012 42.5823 19.9928 42.3323C19.3843 42.0822 18.8314 41.7142 18.366 41.2493C17.9006 40.7844 17.5318 40.2319 17.2811 39.6238C17.0303 39.0156 16.9025 38.3638 16.905 37.706L16.928 26.388L16.906 21.122C16.9035 20.4642 17.0313 19.8124 17.2821 19.2042C17.5328 18.5961 17.9016 18.0436 18.367 17.5787C18.8324 17.1139 19.3853 16.7458 19.9938 16.4958C20.6022 16.2457 21.2542 16.1187 21.912 16.122L25.706 16.149C25.94 16.1503 26.1714 16.1976 26.387 16.2883C26.6027 16.3789 26.7984 16.5112 26.9629 16.6775C27.1275 16.8438 27.2577 17.0409 27.346 17.2575C27.4344 17.4742 27.4793 17.7061 27.478 17.94C27.4768 18.174 27.4294 18.4054 27.3388 18.621C27.2481 18.8367 27.1158 19.0324 26.9495 19.1969C26.7832 19.3615 26.5861 19.4917 26.3695 19.58C26.1529 19.6684 25.921 19.7133 25.687 19.712L21.895 19.684C21.7073 19.6828 21.5212 19.719 21.3476 19.7903C21.1739 19.8617 21.0162 19.9669 20.8836 20.0998C20.751 20.2327 20.6462 20.3906 20.5752 20.5644C20.5042 20.7381 20.4684 20.9243 20.47 21.112V22.332C20.4856 22.4282 20.4933 22.5255 20.493 22.623L20.486 26.383L20.493 28.131C20.4929 28.1978 20.4892 28.2646 20.482 28.331L20.47 37.722C20.4685 37.9096 20.5044 38.0956 20.5755 38.2692C20.6466 38.4428 20.7515 38.6006 20.8841 38.7333C21.0167 38.8659 21.1743 38.971 21.3479 39.0422C21.5214 39.1134 21.7074 39.1493 21.895 39.148L31.269 39.131C31.3394 39.1227 31.4101 39.1184 31.481 39.118L33.416 39.122L37.8 39.113C37.9056 39.1126 38.011 39.1216 38.115 39.14H38.504C38.6908 39.1412 38.876 39.1054 39.049 39.0346C39.2219 38.9638 39.3791 38.8595 39.5114 38.7277C39.6438 38.5959 39.7488 38.4391 39.8203 38.2665C39.8918 38.0939 39.9284 37.9088 39.928 37.722L39.9 33.922C39.8981 33.4495 40.0841 32.9957 40.4168 32.6602C40.7496 32.3248 41.202 32.1354 41.6745 32.1335C42.147 32.1317 42.6009 32.3176 42.9363 32.6504C43.2717 32.9831 43.4611 33.4355 43.463 33.908L43.493 37.701C43.4956 38.3571 43.3686 39.0072 43.1192 39.6141C42.8698 40.2209 42.503 40.7725 42.0397 41.2371C41.5765 41.7017 41.026 42.0702 40.4199 42.3215C39.8138 42.5727 39.1641 42.7017 38.508 42.701L38.487 42.706Z" fill="white"/>
<path d="M39.757 20.169L29.536 30.607" stroke="white" stroke-width="4" stroke-linecap="round"/>
</svg>
