<svg width="60" height="60" viewBox="0 0 60 60" fill="none" xmlns="http://www.w3.org/2000/svg">
<path d="M30 56C44.3594 56 56 44.3594 56 30C56 15.6406 44.3594 4 30 4C15.6406 4 4 15.6406 4 30C4 44.3594 15.6406 56 30 56Z" fill="#7E0CF5"/>
<path d="M32.546 21.105V39.318C32.5117 39.8163 32.6751 40.3082 33.0007 40.687C33.3264 41.0658 33.7881 41.3011 34.286 41.342H40.378C40.8759 41.3011 41.3376 41.0658 41.6632 40.687C41.9889 40.3082 42.1523 39.8163 42.118 39.318V21.105C42.1523 20.6066 41.9889 20.1148 41.6632 19.736C41.3376 19.3572 40.8759 19.1219 40.378 19.081H34.286C33.7881 19.1219 33.3264 19.3572 33.0007 19.736C32.6751 20.1148 32.5117 20.6066 32.546 21.105ZM40.378 21.105V39.318H34.286V37.295H36.897V35.271H34.286V33.247H36.897V31.223H34.286V29.199H36.897V27.175H34.286V25.151H36.897V23.127H34.286V21.103L40.378 21.105Z" fill="white"/>
<path d="M23.425 31.444C21.5506 30.9105 19.8322 29.9337 18.415 28.596C17.3988 27.5132 16.8467 26.0757 16.877 24.591C16.8376 23.8039 16.9697 23.0176 17.2641 22.2866C17.5584 21.5555 18.0081 20.8971 18.582 20.357C19.891 19.2611 21.5687 18.7057 23.273 18.804C24.9421 18.7761 26.6058 19.002 28.207 19.474C28.6372 19.6189 29.0069 19.9028 29.258 20.281C29.5296 20.6691 29.6733 21.1323 29.669 21.606C29.6736 21.7674 29.6333 21.9269 29.5526 22.0667C29.4719 22.2065 29.354 22.3212 29.212 22.398C29.0727 22.4872 28.913 22.5395 28.7479 22.5502C28.5828 22.5609 28.4177 22.5295 28.268 22.459C26.7874 21.8223 25.1937 21.4907 23.582 21.484C22.665 21.4228 21.7596 21.7171 21.054 22.306C20.7528 22.602 20.5182 22.9588 20.366 23.3527C20.2137 23.7465 20.1472 24.1684 20.171 24.59C20.1711 25.3825 20.4638 26.147 20.993 26.737C21.6553 27.4492 22.4971 27.9701 23.43 28.245C25.4976 28.7974 27.4101 29.8188 29.019 31.23C29.5419 31.7883 29.9492 32.4445 30.2174 33.1609C30.4857 33.8772 30.6096 34.6395 30.582 35.404C30.6418 36.2731 30.5028 37.1444 30.1757 37.9518C29.8486 38.7592 29.3419 39.4816 28.694 40.064C27.0795 41.2291 25.1068 41.7894 23.121 41.647C21.6372 41.6675 20.1618 41.4198 18.766 40.916C18.3139 40.7482 17.9292 40.437 17.6706 40.03C17.412 39.623 17.2938 39.1425 17.334 38.662C17.328 38.5049 17.3681 38.3494 17.4493 38.2147C17.5305 38.0801 17.6493 37.9721 17.791 37.904C17.9301 37.8242 18.0876 37.7821 18.248 37.7821C18.4084 37.7821 18.5659 37.8242 18.705 37.904C19.9709 38.5739 21.3838 38.9176 22.816 38.904C25.76 38.904 27.232 37.7373 27.232 35.404C27.2502 34.5588 26.9389 33.7397 26.364 33.12C25.5294 32.3385 24.5226 31.7643 23.425 31.444Z" fill="white"/>
</svg>
