<svg width="60" height="60" viewBox="0 0 60 60" fill="none" xmlns="http://www.w3.org/2000/svg">
<path d="M30 56C44.3594 56 56 44.3594 56 30C56 15.6406 44.3594 4 30 4C15.6406 4 4 15.6406 4 30C4 44.3594 15.6406 56 30 56Z" fill="#7E0CF5"/>
<path d="M22.139 39.267H18.081C17.931 39.2565 17.7829 39.3055 17.6687 39.4033C17.5545 39.5012 17.4835 39.6401 17.471 39.79V44.023C17.4835 44.1728 17.5545 44.3118 17.6687 44.4096C17.7829 44.5075 17.931 44.5565 18.081 44.546H22.139C22.289 44.5565 22.4371 44.5075 22.5513 44.4096C22.6655 44.3118 22.7365 44.1728 22.749 44.023V39.79C22.7365 39.6401 22.6655 39.5012 22.5513 39.4033C22.4371 39.3055 22.289 39.2565 22.139 39.267Z" fill="white"/>
<path d="M31.9221 35.9041C31.81 35.9882 31.6755 36.0372 31.5356 36.0449C31.3956 36.0525 31.2566 36.0185 31.136 35.9471C31.0154 35.8757 30.9187 35.7701 30.8581 35.6437C30.7976 35.5173 30.7759 35.3758 30.7958 35.2371L31.1503 32.7917C31.1611 32.7181 31.1571 32.643 31.1386 32.571C31.1202 32.4989 31.0876 32.4311 31.0428 32.3717C30.998 32.3123 30.9419 32.2623 30.8777 32.2247C30.8135 32.1871 30.7425 32.1625 30.6687 32.1525L28.219 31.8188C28.1268 31.806 28.0379 31.7752 27.9576 31.7282C27.8772 31.6811 27.8069 31.6187 27.7507 31.5444C27.6945 31.4702 27.6534 31.3856 27.6299 31.2955C27.6063 31.2054 27.6008 31.1115 27.6135 31.0193C27.6263 30.927 27.657 30.8382 27.7041 30.7578C27.7512 30.6775 27.8136 30.6072 27.8879 30.5509C27.9621 30.4947 28.0467 30.4537 28.1368 30.4301C28.2269 30.4066 28.3208 30.401 28.413 30.4138L30.8591 30.7477C31.1185 30.7828 31.3683 30.869 31.5941 31.0013C31.8199 31.1335 32.0172 31.3093 32.1747 31.5183C32.3322 31.7273 32.4467 31.9654 32.5115 32.219C32.5764 32.4725 32.5903 32.7364 32.5526 32.9953L32.2004 35.4439C32.1719 35.628 32.0719 35.7934 31.9221 35.9041Z" fill="white"/>
<path d="M22.897 22.528C22.8971 22.7096 22.8433 22.8872 22.7422 23.0381C22.6412 23.189 22.4976 23.3065 22.3297 23.3756C22.1617 23.4448 21.977 23.4624 21.799 23.4263C21.621 23.3903 21.4578 23.3021 21.33 23.173L19.08 20.902C19.0123 20.8331 18.9315 20.7784 18.8424 20.7411C18.7533 20.7037 18.6576 20.6845 18.561 20.6845C18.4644 20.6845 18.3688 20.7037 18.2796 20.7411C18.1905 20.7784 18.1098 20.8331 18.042 20.902L15.792 23.173C15.7081 23.2619 15.6073 23.3331 15.4955 23.3824C15.3836 23.4318 15.2631 23.4582 15.1408 23.4602C15.0186 23.4622 14.8972 23.4398 14.7838 23.3941C14.6705 23.3485 14.5673 23.2807 14.4806 23.1946C14.3938 23.1085 14.3252 23.0059 14.2787 22.8928C14.2322 22.7798 14.2087 22.6586 14.2098 22.5364C14.2109 22.4141 14.2364 22.2934 14.2849 22.1812C14.3333 22.0689 14.4038 21.9676 14.492 21.883L16.742 19.612C16.9801 19.3715 17.2636 19.1805 17.576 19.0502C17.8884 18.9199 18.2235 18.8528 18.562 18.8528C18.9005 18.8528 19.2356 18.9199 19.548 19.0502C19.8604 19.1805 20.1439 19.3715 20.382 19.612L22.631 21.882C22.8018 22.0536 22.8975 22.2859 22.897 22.528Z" fill="white"/>
<path d="M39.053 47.626C38.8714 47.6261 38.6938 47.5723 38.5429 47.4712C38.392 47.3702 38.2745 47.2266 38.2053 47.0587C38.1362 46.8907 38.1186 46.706 38.1547 46.528C38.1907 46.35 38.2789 46.1868 38.408 46.059L40.679 43.809C40.7479 43.7413 40.8026 43.6605 40.8399 43.5714C40.8773 43.4823 40.8965 43.3866 40.8965 43.29C40.8965 43.1934 40.8773 43.0978 40.8399 43.0086C40.8026 42.9195 40.7479 42.8388 40.679 42.771L38.408 40.521C38.3191 40.4371 38.2479 40.3363 38.1985 40.2245C38.1492 40.1126 38.1228 39.9921 38.1208 39.8698C38.1188 39.7476 38.1412 39.6262 38.1868 39.5129C38.2325 39.3995 38.3003 39.2963 38.3864 39.2096C38.4725 39.1228 38.5751 39.0542 38.6882 39.0077C38.8012 38.9612 38.9224 38.9378 39.0446 38.9388C39.1668 38.9399 39.2876 38.9654 39.3998 39.0139C39.512 39.0623 39.6134 39.1328 39.698 39.221L41.969 41.471C42.2095 41.7092 42.4005 41.9926 42.5308 42.305C42.6611 42.6174 42.7282 42.9525 42.7282 43.291C42.7282 43.6295 42.6611 43.9646 42.5308 44.277C42.4005 44.5894 42.2095 44.8729 41.969 45.111L39.699 47.36C39.5274 47.5308 39.2951 47.6265 39.053 47.626Z" fill="white"/>
<path d="M31.0717 32.1672L21.6686 40.6557" stroke="white" stroke-width="2" stroke-linecap="round"/>
<path d="M18.6859 21.4404L18.6822 39.7014" stroke="white" stroke-width="2.50028" stroke-linecap="round"/>
<path d="M40.0076 43.2849L21.7466 43.2812" stroke="white" stroke-width="2.50028" stroke-linecap="round"/>
<path d="M36.545 18.897H34.487V16.842C34.4811 16.7092 34.4243 16.5838 34.3282 16.4919C34.2322 16.4 34.1044 16.3487 33.9715 16.3487C33.8386 16.3487 33.7108 16.4 33.6147 16.4919C33.5187 16.5838 33.4618 16.7092 33.456 16.842V18.898H31.399C31.2662 18.9038 31.1408 18.9607 31.0489 19.0567C30.957 19.1528 30.9057 19.2806 30.9057 19.4135C30.9057 19.5464 30.957 19.6742 31.0489 19.7702C31.1408 19.8663 31.2662 19.9231 31.399 19.929H33.455V21.985C33.4608 22.1178 33.5177 22.2432 33.6137 22.3351C33.7098 22.427 33.8376 22.4783 33.9705 22.4783C34.1034 22.4783 34.2312 22.427 34.3272 22.3351C34.4233 22.2432 34.4801 22.1178 34.486 21.985V19.929H36.545C36.6146 19.9321 36.6841 19.921 36.7493 19.8965C36.8145 19.8719 36.8741 19.8345 36.9244 19.7863C36.9748 19.7381 37.0149 19.6803 37.0422 19.6162C37.0696 19.5521 37.0837 19.4832 37.0837 19.4135C37.0837 19.3438 37.0696 19.2749 37.0422 19.2108C37.0149 19.1467 36.9748 19.0888 36.9244 19.0407C36.8741 18.9925 36.8145 18.955 36.7493 18.9305C36.6841 18.906 36.6146 18.8949 36.545 18.898" fill="white"/>
<path d="M36.545 18.897H34.487V16.842C34.4811 16.7092 34.4243 16.5838 34.3282 16.4919C34.2322 16.4 34.1044 16.3487 33.9715 16.3487C33.8386 16.3487 33.7108 16.4 33.6147 16.4919C33.5187 16.5838 33.4618 16.7092 33.456 16.842V18.898H31.399C31.2662 18.9038 31.1408 18.9607 31.0489 19.0567C30.957 19.1528 30.9057 19.2806 30.9057 19.4135C30.9057 19.5464 30.957 19.6742 31.0489 19.7702C31.1408 19.8663 31.2662 19.9231 31.399 19.929H33.455V21.985C33.4608 22.1178 33.5177 22.2432 33.6137 22.3351C33.7098 22.427 33.8376 22.4783 33.9705 22.4783C34.1034 22.4783 34.2312 22.427 34.3272 22.3351C34.4233 22.2432 34.4801 22.1178 34.486 21.985V19.929H36.545C36.6146 19.9321 36.6841 19.921 36.7493 19.8965C36.8145 19.8719 36.8741 19.8345 36.9244 19.7863C36.9748 19.7381 37.0149 19.6803 37.0422 19.6162C37.0696 19.5521 37.0837 19.4832 37.0837 19.4135C37.0837 19.3438 37.0696 19.2749 37.0422 19.2108C37.0149 19.1467 36.9748 19.0888 36.9244 19.0407C36.8741 18.9925 36.8145 18.955 36.7493 18.9305C36.6841 18.906 36.6146 18.8949 36.545 18.898" stroke="white" stroke-width="0.5"/>
<path d="M39.104 26.898H43.744C43.8136 26.8949 43.8831 26.906 43.9483 26.9305C44.0136 26.955 44.0731 26.9925 44.1235 27.0407C44.1738 27.0889 44.2139 27.1467 44.2412 27.2108C44.2686 27.2749 44.2827 27.3438 44.2827 27.4135C44.2827 27.4832 44.2686 27.5521 44.2412 27.6162C44.2139 27.6803 44.1738 27.7381 44.1235 27.7863C44.0731 27.8345 44.0136 27.8719 43.9483 27.8965C43.8831 27.921 43.8136 27.9321 43.744 27.929H39.104C39.0344 27.9321 38.9649 27.921 38.8997 27.8965C38.8345 27.8719 38.7749 27.8345 38.7246 27.7863C38.6742 27.7381 38.6342 27.6803 38.6068 27.6162C38.5794 27.5521 38.5653 27.4832 38.5653 27.4135C38.5653 27.3438 38.5794 27.2749 38.6068 27.2108C38.6342 27.1467 38.6742 27.0889 38.7246 27.0407C38.7749 26.9925 38.8345 26.955 38.8997 26.9305C38.9649 26.906 39.0344 26.8949 39.104 26.898Z" fill="white"/>
<path d="M39.104 26.898H43.744C43.8136 26.8949 43.8831 26.906 43.9483 26.9305C44.0136 26.955 44.0731 26.9925 44.1235 27.0407C44.1738 27.0889 44.2139 27.1467 44.2412 27.2108C44.2686 27.2749 44.2827 27.3438 44.2827 27.4135C44.2827 27.4832 44.2686 27.5521 44.2412 27.6162C44.2139 27.6803 44.1738 27.7381 44.1235 27.7863C44.0731 27.8345 44.0136 27.8719 43.9483 27.8965C43.8831 27.921 43.8136 27.9321 43.744 27.929H39.104C39.0344 27.9321 38.9649 27.921 38.8997 27.8965C38.8345 27.8719 38.7749 27.8345 38.7246 27.7863C38.6742 27.7381 38.6342 27.6803 38.6068 27.6162C38.5794 27.5521 38.5653 27.4832 38.5653 27.4135C38.5653 27.3438 38.5794 27.2749 38.6068 27.2108C38.6342 27.1467 38.6742 27.0889 38.7246 27.0407C38.7749 26.9925 38.8345 26.955 38.8997 26.9305C38.9649 26.906 39.0344 26.8949 39.104 26.898" stroke="white" stroke-width="0.5"/>
<path d="M38 33C37.4696 33 36.961 32.7891 36.5859 32.4141C36.2109 32.039 36 31.5304 36 31V25H30.5C29.9696 25 29.461 24.7891 29.0859 24.4141C28.7109 24.039 28.5 23.5304 28.5 23V16C28.5 15.4696 28.7109 14.961 29.0859 14.5859C29.461 14.2109 29.9696 14 30.5 14H37.5C38.0304 14 38.539 14.2109 38.9141 14.5859C39.2891 14.961 39.5 15.4696 39.5 16V22H45C45.5304 22 46.039 22.2109 46.4141 22.5859C46.7891 22.961 47 23.4696 47 24V31C47 31.5304 46.7891 32.039 46.4141 32.4141C46.039 32.7891 45.5304 33 45 33H38Z" stroke="white" stroke-width="1.5" stroke-linejoin="round"/>
</svg>
