<svg width="60" height="60" viewBox="0 0 60 60" fill="none" xmlns="http://www.w3.org/2000/svg">
<path d="M30 56C44.3594 56 56 44.3594 56 30C56 15.6406 44.3594 4 30 4C15.6406 4 4 15.6406 4 30C4 44.3594 15.6406 56 30 56Z" fill="#7E0CF5"/>
<path d="M12.832 34H15.382V29.274C15.382 28.152 15.926 27.761 16.691 27.761C17.439 27.761 17.983 28.152 17.983 29.274V34H20.533V29.274C20.533 28.152 21.077 27.761 21.825 27.761C22.59 27.761 23.134 28.152 23.134 29.274V34H25.684V29.274C25.684 26.571 24.12 25.381 22.08 25.381C20.873 25.381 19.887 25.84 19.258 26.724C18.629 25.84 17.626 25.381 16.436 25.381C14.396 25.381 12.832 26.571 12.832 29.274V34ZM28.7698 34.221C29.7048 34.221 30.4018 33.524 30.4018 32.589C30.4018 31.654 29.7048 30.957 28.7698 30.957C27.8348 30.957 27.1378 31.654 27.1378 32.589C27.1378 33.524 27.8348 34.221 28.7698 34.221ZM33.4894 34H36.0394V22.882H31.5514V25.177H33.4894V34ZM41.7099 34.221C44.0559 34.221 45.6879 32.64 45.6879 30.226V26.656C45.6879 24.242 44.0559 22.661 41.7099 22.661C39.3639 22.661 37.7319 24.242 37.7319 26.656V30.226C37.7319 32.64 39.3639 34.221 41.7099 34.221ZM41.7099 31.841C40.7919 31.841 40.2819 31.246 40.2819 30.226V26.656C40.2819 25.636 40.7919 25.041 41.7099 25.041C42.6279 25.041 43.1379 25.636 43.1379 26.656V30.226C43.1379 31.246 42.6279 31.841 41.7099 31.841Z" fill="white"/>
<path d="M45.342 21H46.392V19.208C46.392 18.662 46.658 18.431 47.05 18.431C47.442 18.431 47.708 18.662 47.708 19.208V21H48.758V19.208C48.758 18.039 48.072 17.451 47.05 17.451C46.028 17.451 45.342 18.046 45.342 19.208V21Z" fill="white"/>
</svg>
