<svg width="60" height="60" viewBox="0 0 60 60" fill="none" xmlns="http://www.w3.org/2000/svg">
<path d="M30 56C44.3594 56 56 44.3594 56 30C56 15.6406 44.3594 4 30 4C15.6406 4 4 15.6406 4 30C4 44.3594 15.6406 56 30 56Z" fill="#7E0CF5"/>
<path d="M38.689 20.248C40.4774 19.3289 41.9762 17.9323 43.019 16.213C43.1012 16.0742 43.1453 15.9162 43.1467 15.7549C43.1481 15.5936 43.1068 15.4348 43.0269 15.2947C42.9471 15.1545 42.8316 15.038 42.6922 14.9569C42.5527 14.8758 42.3943 14.8331 42.233 14.833H17.766C17.6046 14.8329 17.4461 14.8755 17.3065 14.9565C17.1669 15.0375 17.0513 15.154 16.9713 15.2942C16.8914 15.4344 16.85 15.5933 16.8513 15.7546C16.8527 15.916 16.8967 16.0742 16.979 16.213C18.0212 17.932 19.5193 19.3286 21.307 20.248C22.9225 21.0901 24.6975 21.5818 26.516 21.691V24.039H22.198C21.4164 24.0397 20.662 24.326 20.0767 24.8441C19.4914 25.3622 19.1156 26.0763 19.02 26.852L17.174 41.933C17.1186 42.383 17.1595 42.8397 17.2939 43.2727C17.4283 43.7057 17.6532 44.1052 17.9537 44.4447C18.2542 44.7843 18.6234 45.0561 19.0368 45.2422C19.4503 45.4282 19.8986 45.5243 20.352 45.524H39.652C40.1051 45.5237 40.5529 45.4272 40.9659 45.2409C41.3789 45.0546 41.7476 44.7827 42.0477 44.4433C42.3477 44.1038 42.5722 43.7045 42.7064 43.2717C42.8406 42.839 42.8814 42.3827 42.826 41.933L40.98 26.852C40.8844 26.0763 40.5086 25.3622 39.9233 24.8441C39.3381 24.326 38.5836 24.0397 37.802 24.039H33.48V21.691C35.2985 21.5818 37.0735 21.0901 38.689 20.248ZM37.801 25.868C38.1363 25.8684 38.4599 25.9913 38.7109 26.2136C38.9619 26.4359 39.123 26.7422 39.164 27.075L41.007 42.152C41.0307 42.345 41.013 42.5408 40.9554 42.7264C40.8977 42.9121 40.8012 43.0834 40.6723 43.229C40.5435 43.3746 40.3852 43.4911 40.2079 43.571C40.0306 43.6508 39.8384 43.692 39.644 43.692H20.344C20.1496 43.6919 19.9575 43.6505 19.7803 43.5706C19.6031 43.4908 19.4449 43.3742 19.316 43.2286C19.1872 43.0831 19.0908 42.9119 19.033 42.7263C18.9752 42.5407 18.9575 42.345 18.981 42.152L20.827 27.074C20.8682 26.7414 21.0294 26.4353 21.2804 26.2132C21.5314 25.9912 21.8549 25.8684 22.19 25.868H37.79H37.801ZM28.347 24.039V21.718H31.652V24.039H28.347ZM32.634 19.889H27.364C25.9136 19.9172 24.473 19.645 23.1329 19.0895C21.7928 18.5339 20.5821 17.7071 19.577 16.661H40.422C39.4168 17.7072 38.206 18.5341 36.8657 19.0897C35.5254 19.6452 34.0846 19.9174 32.634 19.889Z" fill="white"/>
<path d="M30.001 27.285C28.5192 27.285 27.0707 27.7244 25.8387 28.5476C24.6066 29.3709 23.6463 30.541 23.0793 31.9099C22.5122 33.2789 22.3639 34.7853 22.653 36.2386C22.942 37.6919 23.6556 39.0269 24.7034 40.0746C25.7511 41.1224 27.0861 41.836 28.5394 42.125C29.9927 42.4141 31.4991 42.2658 32.8681 41.6987C34.2371 41.1316 35.4071 40.1714 36.2304 38.9393C37.0536 37.7073 37.493 36.2588 37.493 34.777C37.4909 32.7907 36.7009 30.8863 35.2963 29.4817C33.8917 28.0771 31.9874 27.2871 30.001 27.285ZM30.001 40.44C28.881 40.44 27.7861 40.1079 26.8548 39.4856C25.9235 38.8634 25.1977 37.9789 24.7691 36.9441C24.3404 35.9094 24.2283 34.7707 24.4468 33.6722C24.6653 32.5737 25.2047 31.5646 25.9967 30.7727C26.7886 29.9807 27.7977 29.4413 28.8962 29.2228C29.9947 29.0043 31.1334 29.1165 32.1681 29.5451C33.2029 29.9737 34.0874 30.6995 34.7096 31.6308C35.3319 32.5621 35.664 33.657 35.664 34.777C35.6629 36.2789 35.0661 37.719 34.0044 38.7812C32.9427 39.8435 31.5029 40.4411 30.001 40.443V40.44Z" fill="white"/>
<path d="M30.646 34.134C30.5611 34.0491 30.4603 33.9817 30.3494 33.9357C30.2385 33.8898 30.1196 33.8661 29.9995 33.8661C29.8794 33.8661 29.7605 33.8898 29.6496 33.9357C29.5387 33.9817 29.4379 34.0491 29.353 34.134L27.153 36.334C26.9815 36.5055 26.8852 36.738 26.8852 36.9805C26.8852 37.223 26.9815 37.4556 27.153 37.627C27.3244 37.7985 27.557 37.8948 27.7995 37.8948C28.042 37.8948 28.2745 37.7985 28.446 37.627L30.646 35.427C30.7309 35.3421 30.7983 35.2413 30.8443 35.1304C30.8902 35.0195 30.9139 34.9006 30.9139 34.7805C30.9139 34.6604 30.8902 34.5415 30.8443 34.4306C30.7983 34.3197 30.7309 34.2189 30.646 34.134Z" fill="white"/>
</svg>
