<svg width="60" height="60" viewBox="0 0 60 60" fill="none" xmlns="http://www.w3.org/2000/svg">
<path d="M30 56C44.3594 56 56 44.3594 56 30C56 15.6406 44.3594 4 30 4C15.6406 4 4 15.6406 4 30C4 44.3594 15.6406 56 30 56Z" fill="#7E0CF5"/>
<path d="M30.004 40.333C33.537 40.333 36.404 40.855 36.404 41.5C36.404 42.145 33.533 42.667 30.004 42.667C26.475 42.667 23.604 42.145 23.604 41.5C23.604 40.855 26.468 40.333 30.004 40.333Z" fill="white"/>
<path d="M30 13.816C28.8678 13.8151 27.7464 14.0374 26.7002 14.4703C25.6539 14.9032 24.7033 15.5381 23.9027 16.3387C23.1021 17.1393 22.4672 18.09 22.0343 19.1362C21.6014 20.1824 21.3791 21.3038 21.38 22.436C21.38 26.451 24.704 31.652 27.439 35.305C28.761 37.073 30.915 37.43 32.372 35.551C34.703 32.551 38.619 26.793 38.619 22.436C38.6199 21.3038 38.3976 20.1826 37.9648 19.1364C37.532 18.0902 36.8972 17.1397 36.0967 16.3391C35.2962 15.5384 34.3456 14.9035 33.2995 14.4706C32.2534 14.0377 31.1322 13.8152 30 13.816ZM23.843 22.436C23.843 20.8031 24.4917 19.237 25.6464 18.0824C26.801 16.9277 28.3671 16.279 30 16.279C31.6329 16.279 33.199 16.9277 34.3537 18.0824C35.5083 19.237 36.157 20.8031 36.157 22.436C36.157 25.298 33.847 29.307 31.37 32.787C31.043 33.249 30.025 34.443 28.558 32.666C26.422 29.716 23.843 25.408 23.843 22.436Z" fill="white"/>
<path d="M29.999 25.513C31.699 25.513 33.077 24.1349 33.077 22.435C33.077 20.7351 31.699 19.357 29.999 19.357C28.2991 19.357 26.921 20.7351 26.921 22.435C26.921 24.1349 28.2991 25.513 29.999 25.513Z" fill="white"/>
</svg>
