<svg width="60" height="60" viewBox="0 0 60 60" fill="none" xmlns="http://www.w3.org/2000/svg">
<path d="M30 56C44.3594 56 56 44.3594 56 30C56 15.6406 44.3594 4 30 4C15.6406 4 4 15.6406 4 30C4 44.3594 15.6406 56 30 56Z" fill="#7E0CF5"/>
<path d="M41.099 23.965C40.7648 24.1023 40.4928 24.3578 40.3347 24.6827C40.1767 25.0076 40.1437 25.3793 40.242 25.727C41.0923 27.4228 41.5086 29.303 41.4536 31.1992C41.3987 33.0954 40.8741 34.9483 39.927 36.592H20.06C18.8289 34.4565 18.3188 31.9811 18.6052 29.5328C18.8916 27.0846 19.9593 24.7937 21.65 23C23.1594 21.4187 25.0855 20.297 27.2057 19.7643C29.3258 19.2317 31.5534 19.3099 33.631 19.99C33.9652 20.1145 34.3318 20.1218 34.6707 20.0106C35.0095 19.8994 35.3006 19.6763 35.496 19.378C35.6128 19.2336 35.6955 19.0647 35.738 18.8838C35.7804 18.703 35.7815 18.5149 35.7411 18.3336C35.7007 18.1523 35.62 17.9825 35.5048 17.8368C35.3896 17.691 35.2431 17.5732 35.076 17.492C32.3155 16.4563 29.3028 16.2971 26.4485 17.0359C23.5943 17.7747 21.0372 19.3756 19.1259 21.6206C17.2145 23.8655 16.0419 26.6451 15.7677 29.5807C15.4936 32.5163 16.1313 35.465 17.594 38.025C17.8442 38.4581 18.2033 38.8183 18.6357 39.0696C19.0682 39.321 19.5588 39.4549 20.059 39.458H39.912C40.4171 39.46 40.9138 39.3285 41.3517 39.0769C41.7897 38.8252 42.1534 38.4624 42.406 38.025C43.5839 35.96 44.235 33.6367 44.3016 31.2603C44.3682 28.8839 43.8484 26.5277 42.788 24.4C42.6229 24.1211 42.3551 23.9179 42.042 23.834C41.729 23.7501 41.3955 23.7921 41.113 23.951L41.099 23.965ZM27.973 32.879C28.2393 33.1454 28.5554 33.3568 28.9034 33.501C29.2513 33.6452 29.6243 33.7194 30.001 33.7194C30.3777 33.7194 30.7507 33.6452 31.0986 33.501C31.4466 33.3568 31.7627 33.1454 32.029 32.879L40.141 20.71L27.973 28.823C27.7066 29.0892 27.4952 29.4054 27.351 29.7534C27.2068 30.1013 27.1325 30.4743 27.1325 30.851C27.1325 31.2277 27.2068 31.6006 27.351 31.9486C27.4952 32.2966 27.7066 32.6127 27.973 32.879Z" fill="white"/>
</svg>
