<svg width="60" height="60" viewBox="0 0 60 60" fill="none" xmlns="http://www.w3.org/2000/svg">
<path d="M30 56C44.3594 56 56 44.3594 56 30C56 15.6406 44.3594 4 30 4C15.6406 4 4 15.6406 4 30C4 44.3594 15.6406 56 30 56Z" fill="#7E0CF5"/>
<path d="M33.5244 43.2877C33.6144 43.317 33.7119 43.3393 33.8179 43.3532C35.4503 43.6617 35.5584 41.8387 35.6351 40.8477C35.6702 40.4057 36.0444 36.7625 35.156 34.8894C34.6677 33.8612 34.1632 33.0437 33.545 32.3069L35.968 28.1346L37.7189 29.518C37.7189 29.518 38.7619 30.2301 39.4661 30.3328C40.1704 30.4352 41.4486 30.1768 41.4486 30.1768L43.6797 29.7465C43.6797 29.7465 45.0051 29.3749 44.7123 28.0111C44.4197 26.6464 43.0853 26.8363 43.0853 26.8363L41.4614 27.1498C41.4614 27.1498 40.7562 27.404 40.0622 27.2748C39.368 27.1464 38.685 26.6347 38.685 26.6347C38.685 26.6347 36.886 24.3848 35.3627 23.8202C35.3188 23.8039 35.2767 23.7914 35.2365 23.7824C35.1694 23.75 35.0971 23.7184 35.0193 23.6885C33.9602 23.2779 32.0519 22.3215 29.9927 22.2605C28.1025 22.2049 26.4695 23.289 25.1112 23.8938C24.4043 24.2058 23.472 25.1439 23.9148 25.9987C24.3566 26.8539 25.4105 26.9818 26.256 26.6347C26.9519 26.3468 28.218 25.4648 29.2943 25.302C29.9522 25.202 30.4318 25.4405 30.9776 25.6178C31.0953 25.6561 31.2162 25.6915 31.3426 25.7201C31.7383 25.8002 32.0846 26.1102 31.7033 26.6283L29.4295 30.3537L29.4255 30.3467L26.256 35.0531L22.9803 33.0973C22.9803 33.0973 21.6434 32.2209 20.8837 33.5147C20.1241 34.8087 21.4145 35.6239 21.4145 35.6239L25.4256 38.1797C25.4256 38.1797 26.4523 38.9044 27.1792 38.8377C27.906 38.7711 28.3327 37.9139 28.3327 37.9139L30.9753 33.9261C31.4183 34.3203 31.9203 34.874 32.262 35.5732C33.0058 37.0941 32.7529 39.2278 32.7529 39.2278C32.7529 39.2278 32.6668 40.2354 32.6 42.1778C32.6477 42.541 32.8958 43.0835 33.5244 43.2877ZM38.1983 22.2605C39.7867 22.7766 41.4924 21.9075 42.0085 20.3192C42.5246 18.7307 41.6554 17.0251 40.0671 16.509C38.4794 15.9932 36.773 16.8619 36.2569 18.4504C35.7408 20.0387 36.6106 21.7447 38.1983 22.2605ZM32.9682 44.9995C31.818 44.6258 30.973 43.6103 30.8155 42.4124L30.796 42.2647L30.8012 42.1159C30.8688 40.1504 30.9558 39.1176 30.9595 39.0746L30.9653 39.0177C30.9974 38.7254 31.0266 37.9853 30.9124 37.2793L29.8785 38.8395C29.6242 39.2949 28.8194 40.4948 27.3435 40.6301C26.916 40.6693 26.4548 40.6098 25.9731 40.4533C25.248 40.2178 24.6238 39.8125 24.4291 39.679L20.4473 37.1418C20.2825 37.037 19.7449 36.6619 19.3364 36.006C18.6814 34.9542 18.6796 33.714 19.3316 32.6035C20.1354 31.2344 21.5779 30.6904 23.0961 31.1837C23.493 31.3126 23.7911 31.4821 23.9206 31.5624L25.7152 32.634L27.9969 29.2458L29.2715 27.1577C28.8581 27.2985 28.3295 27.5854 27.9209 27.8072C27.5766 27.9942 27.2514 28.1707 26.9442 28.2978C26.0453 28.6668 25.0803 28.7155 24.2223 28.4368C23.3902 28.1665 22.7131 27.594 22.3157 26.8249C21.9531 26.1249 21.9017 25.316 22.1718 24.549C22.5793 23.3919 23.6164 22.5868 24.382 22.2483C24.634 22.1359 24.9144 21.9961 25.2112 21.848C26.5006 21.2048 28.1054 20.4043 30.0456 20.4614C31.0348 20.4907 32.0667 20.684 33.2004 21.0524C33.8436 21.2614 34.4179 21.4933 34.9 21.6935C34.2871 20.5692 34.1191 19.2053 34.5451 17.8942C35.367 15.3646 38.0937 13.9753 40.6233 14.7972C43.1529 15.6191 44.5422 18.3458 43.7203 20.8754C43.0351 22.9841 41.0265 24.3004 38.9116 24.2039C39.3446 24.6346 39.6915 25.03 39.9069 25.2866C40.0293 25.3604 40.1861 25.4425 40.3221 25.4867C40.3595 25.4988 40.3818 25.5035 40.3896 25.505C40.5037 25.5262 40.7242 25.4948 40.8609 25.4527L41.0057 25.3957L41.1202 25.3826L42.8317 25.0544C43.0055 25.0296 43.6274 24.9669 44.3353 25.1969C45.4381 25.5552 46.217 26.4434 46.4722 27.6337C46.728 28.825 46.3755 29.9546 45.505 30.7324C44.9426 31.2349 44.3376 31.4313 44.1655 31.4796L44.0937 31.4997L41.7976 31.9426C41.4162 32.0193 40.1413 32.2498 39.2071 32.1139C39.0098 32.0852 38.8015 32.0354 38.5876 31.9659C37.7242 31.6854 36.867 31.1158 36.704 31.0044L36.6523 30.9691L36.4816 30.8343L35.6983 32.1831C36.0833 32.7588 36.4378 33.3929 36.7818 34.1173C37.4796 35.5886 37.6997 37.8732 37.4363 40.9085C37.4333 40.943 37.4309 40.9705 37.4293 40.9904L37.4253 41.0423C37.3558 41.9479 37.2264 43.6335 35.9788 44.5893C35.5057 44.9517 34.6992 45.3367 33.5319 45.1306C33.3384 45.1023 33.149 45.0583 32.9682 44.9995Z" fill="white"/>
<path d="M31.5 15.5H25.5" stroke="white" stroke-width="2" stroke-linecap="round"/>
<path d="M21.5 40.5H17.5" stroke="white" stroke-width="2" stroke-linecap="round"/>
<path d="M19.5 27.5H10.5" stroke="white" stroke-width="2" stroke-linecap="round"/>
</svg>
