<svg width="60" height="60" viewBox="0 0 60 60" fill="none" xmlns="http://www.w3.org/2000/svg">
<path d="M30 56C44.3594 56 56 44.3594 56 30C56 15.6406 44.3594 4 30 4C15.6406 4 4 15.6406 4 30C4 44.3594 15.6406 56 30 56Z" fill="#7E0CF5"/>
<path d="M16.421 39.704C16.0405 39.7042 15.6684 39.5912 15.3522 39.3795C15.0359 39.1678 14.7897 38.8669 14.6448 38.5149C14.5 38.163 14.4629 37.776 14.5385 37.403C14.614 37.03 14.7986 36.6878 15.069 36.42L20.444 31.087C20.5883 30.945 20.7028 30.7757 20.781 30.589C20.8592 30.4023 20.8995 30.2019 20.8995 29.9995C20.8995 29.7971 20.8592 29.5967 20.781 29.41C20.7028 29.2233 20.5883 29.054 20.444 28.912L15.069 23.58C14.7285 23.2177 14.5418 22.7373 14.5483 22.2401C14.5547 21.7429 14.7538 21.2676 15.1037 20.9142C15.4536 20.5609 15.9269 20.357 16.424 20.3456C16.9211 20.3342 17.4033 20.5161 17.769 20.853L23.145 26.185C23.6493 26.6842 24.0496 27.2783 24.3228 27.9332C24.596 28.588 24.7366 29.2905 24.7366 30C24.7366 30.7095 24.596 31.412 24.3228 32.0669C24.0496 32.7217 23.6493 33.3159 23.145 33.815L17.769 39.146C17.411 39.5027 16.9264 39.7033 16.421 39.704Z" fill="white" stroke="white" stroke-width="0.5"/>
<path d="M27.421 39.704C27.0405 39.7042 26.6684 39.5912 26.3522 39.3795C26.0359 39.1678 25.7897 38.8669 25.6448 38.5149C25.5 38.163 25.4629 37.776 25.5385 37.403C25.614 37.03 25.7986 36.6878 26.069 36.42L31.444 31.087C31.5883 30.945 31.7028 30.7757 31.781 30.589C31.8592 30.4023 31.8995 30.2019 31.8995 29.9995C31.8995 29.7971 31.8592 29.5967 31.781 29.41C31.7028 29.2233 31.5883 29.054 31.444 28.912L26.069 23.58C25.7285 23.2177 25.5418 22.7373 25.5483 22.2401C25.5547 21.7429 25.7538 21.2676 26.1037 20.9142C26.4536 20.5609 26.9269 20.357 27.424 20.3456C27.9211 20.3342 28.4033 20.5161 28.769 20.853L34.145 26.185C34.6493 26.6842 35.0496 27.2783 35.3228 27.9332C35.596 28.588 35.7366 29.2905 35.7366 30C35.7366 30.7095 35.596 31.412 35.3228 32.0669C35.0496 32.7217 34.6493 33.3159 34.145 33.815L28.769 39.146C28.411 39.5027 27.9264 39.7033 27.421 39.704Z" fill="white" stroke="white" stroke-width="0.5"/>
<path d="M38.421 39.704C38.0405 39.7042 37.6684 39.5912 37.3522 39.3795C37.0359 39.1678 36.7897 38.8669 36.6448 38.5149C36.5 38.163 36.4629 37.776 36.5385 37.403C36.614 37.03 36.7986 36.6878 37.069 36.42L42.444 31.087C42.5883 30.945 42.7028 30.7757 42.781 30.589C42.8592 30.4023 42.8995 30.2019 42.8995 29.9995C42.8995 29.7971 42.8592 29.5967 42.781 29.41C42.7028 29.2233 42.5883 29.054 42.444 28.912L37.069 23.58C36.7285 23.2177 36.5418 22.7373 36.5483 22.2401C36.5547 21.7429 36.7538 21.2676 37.1037 20.9142C37.4536 20.5609 37.9269 20.357 38.424 20.3456C38.9211 20.3342 39.4033 20.5161 39.769 20.853L45.145 26.185C45.6493 26.6842 46.0496 27.2783 46.3228 27.9332C46.596 28.588 46.7366 29.2905 46.7366 30C46.7366 30.7095 46.596 31.412 46.3228 32.0669C46.0496 32.7217 45.6493 33.3159 45.145 33.815L39.769 39.146C39.411 39.5027 38.9264 39.7033 38.421 39.704Z" fill="white" stroke="white" stroke-width="0.5"/>
</svg>
