<svg width="60" height="60" viewBox="0 0 60 60" fill="none" xmlns="http://www.w3.org/2000/svg">
<path d="M30 56C44.3594 56 56 44.3594 56 30C56 15.6406 44.3594 4 30 4C15.6406 4 4 15.6406 4 30C4 44.3594 15.6406 56 30 56Z" fill="#7E0CF5"/>
<path d="M37.773 25.074C36.3597 24.842 34.9108 25.1489 33.713 25.934C34.1043 25.1024 34.6807 24.3714 35.398 23.797C35.9348 23.3478 36.5328 22.9775 37.174 22.697C37.3452 22.6307 37.4831 22.4991 37.5572 22.3312C37.6314 22.1632 37.6358 21.9727 37.5695 21.8015C37.5032 21.6303 37.3716 21.4925 37.2037 21.4183C37.0357 21.3441 36.8452 21.3397 36.674 21.406C35.4534 21.9261 34.3675 22.7179 33.499 23.721C33.4474 23.4647 33.3744 23.2132 33.281 22.969C32.6469 21.5785 31.5478 20.4525 30.173 19.785C30.089 19.7461 29.998 19.7245 29.9054 19.7214C29.8129 19.7183 29.7207 19.7338 29.6342 19.767C29.5478 19.8002 29.4689 19.8504 29.4022 19.9146C29.3355 19.9789 29.2824 20.0558 29.246 20.141C28.6695 21.5584 28.6058 23.1326 29.066 24.592C29.1377 24.7775 29.2212 24.9582 29.316 25.133C28.6066 24.9769 27.8739 24.9569 27.157 25.074C25.5991 25.3481 24.2117 26.2244 23.2947 27.5133C22.3778 28.8023 22.005 30.4004 22.257 31.962C22.5353 34.0025 23.0546 36.0028 23.804 37.921C24.3732 39.4958 25.3618 40.8851 26.663 41.939C27.5261 42.5822 28.5746 42.9279 29.651 42.924C29.9595 42.9233 30.2675 42.8979 30.572 42.848C31.2584 42.7466 31.9085 42.475 32.463 42.058C33.0175 42.475 33.6676 42.7466 34.354 42.848C35.0331 42.9719 35.7304 42.9551 36.4027 42.7987C37.0751 42.6424 37.7082 42.3498 38.263 41.939C39.5643 40.8851 40.5529 39.4958 41.122 37.921C41.8728 36.003 42.3934 34.0027 42.673 31.962C42.925 30.4004 42.5522 28.8023 41.6353 27.5133C40.7184 26.2244 39.3309 25.3481 37.773 25.074ZM30.279 21.452C31.0338 21.9419 31.6284 22.6425 31.989 23.467C32.2706 24.3219 32.2967 25.2405 32.064 26.11C31.3092 25.62 30.7146 24.9195 30.354 24.095C30.0723 23.2401 30.0463 22.3215 30.279 21.452ZM41.303 31.752C40.603 36.361 39.267 39.498 37.448 40.823C37.041 41.1264 36.5753 41.3419 36.0805 41.4557C35.5857 41.5695 35.0727 41.5791 34.574 41.484C33.961 41.402 33.3955 41.1097 32.974 40.657C32.9092 40.5868 32.8306 40.5308 32.7431 40.4924C32.6555 40.4541 32.561 40.4343 32.4655 40.4343C32.37 40.4343 32.2755 40.4541 32.188 40.4924C32.1004 40.5308 32.0218 40.5868 31.957 40.657C31.5356 41.1097 30.97 41.402 30.357 41.484C29.8566 41.5802 29.3417 41.5709 28.8451 41.4568C28.3485 41.3426 27.8811 41.1261 27.473 40.821C25.654 39.496 24.321 36.359 23.618 31.75C23.4211 30.5491 23.7046 29.319 24.4072 28.3254C25.1098 27.3318 26.1752 26.6546 27.373 26.44C27.6045 26.4025 27.8385 26.3834 28.073 26.383C29.0381 26.3846 29.9755 26.7056 30.739 27.296C31.2332 27.6724 31.8373 27.8762 32.4585 27.8762C33.0797 27.8762 33.6838 27.6724 34.178 27.296C34.6511 26.9296 35.1945 26.6646 35.7745 26.5173C36.3544 26.37 36.9585 26.3437 37.549 26.44C38.7473 26.6548 39.8129 27.3326 40.5153 28.3268C41.2178 29.321 41.5008 30.5518 41.303 31.753V31.752Z" fill="white" stroke="white" stroke-width="0.5"/>
<path d="M19.425 39.6831L17.425 36.219" stroke="white" stroke-width="3" stroke-linecap="round"/>
<path d="M33.425 17.6831L31.425 14.219" stroke="white" stroke-width="3" stroke-linecap="round"/>
<path d="M21.683 24.45L15.5 15.5" stroke="white" stroke-width="3" stroke-linecap="round"/>
</svg>
