<svg width="60" height="60" viewBox="0 0 60 60" fill="none" xmlns="http://www.w3.org/2000/svg">
<path d="M30 56C44.3594 56 56 44.3594 56 30C56 15.6406 44.3594 4 30 4C15.6406 4 4 15.6406 4 30C4 44.3594 15.6406 56 30 56Z" fill="#7E0CF5"/>
<path d="M31.515 18.773V17.757H32.603C32.9279 17.7299 33.2308 17.5817 33.4516 17.3417C33.6724 17.1018 33.7949 16.7876 33.7949 16.4615C33.7949 16.1354 33.6724 15.8213 33.4516 15.5813C33.2308 15.3414 32.9279 15.1931 32.603 15.166H26.439C26.1141 15.1931 25.8112 15.3414 25.5904 15.5813C25.3696 15.8213 25.2471 16.1354 25.2471 16.4615C25.2471 16.7876 25.3696 17.1018 25.5904 17.3417C25.8112 17.5817 26.1141 17.7299 26.439 17.757H27.526V18.773C24.3075 19.2753 21.3971 20.9734 19.3761 23.5281C17.3551 26.0828 16.3723 29.3059 16.6242 32.5536C16.8761 35.8012 18.3441 38.8343 20.7348 41.0468C23.1256 43.2593 26.2631 44.4883 29.5205 44.4883C32.7779 44.4883 35.9154 43.2593 38.3062 41.0468C40.6969 38.8343 42.1649 35.8012 42.4168 32.5536C42.6687 29.3059 41.6859 26.0828 39.6649 23.5281C37.6439 20.9734 34.7335 19.2753 31.515 18.773ZM29.521 41.906C27.4742 41.9066 25.4733 41.3002 23.7711 40.1635C22.069 39.0268 20.7422 37.4109 19.9586 35.5201C19.1749 33.6293 18.9695 31.5486 19.3685 29.5411C19.7674 27.5335 20.7527 25.6894 22.1998 24.2419C23.6469 22.7944 25.4907 21.8086 27.4981 21.4091C29.5055 21.0095 31.5863 21.2143 33.4773 21.9974C35.3683 22.7806 36.9847 24.1069 38.1218 25.8087C39.259 27.5104 39.866 29.5112 39.866 31.558C39.8634 34.3011 38.7727 36.9312 36.8333 38.8712C34.8939 40.8111 32.2641 41.9026 29.521 41.906Z" fill="white"/>
<path d="M30.552 32.111V26.011C30.5249 25.6861 30.3767 25.3832 30.1367 25.1624C29.8967 24.9416 29.5826 24.8191 29.2565 24.8191C28.9304 24.8191 28.6163 24.9416 28.3763 25.1624C28.1363 25.3832 27.9881 25.6861 27.961 26.011V32.861C27.961 32.9653 27.9816 33.0685 28.0216 33.1647C28.0616 33.261 28.1202 33.3484 28.194 33.422L31.819 37.031C31.9356 37.1676 32.0792 37.2785 32.2408 37.3568C32.4023 37.4351 32.5784 37.4791 32.7578 37.486C32.9372 37.4929 33.1161 37.4625 33.2832 37.3968C33.4503 37.3312 33.602 37.2316 33.7287 37.1044C33.8554 36.9772 33.9544 36.8251 34.0194 36.6578C34.0845 36.4904 34.1141 36.3114 34.1065 36.132C34.099 35.9527 34.0543 35.7768 33.9754 35.6155C33.8965 35.4542 33.785 35.3111 33.648 35.195L30.552 32.111Z" fill="white"/>
<path d="M38.311 25.8303L41.6804 22.4793C41.815 22.3517 41.9228 22.1984 41.9972 22.0284C42.0717 21.8584 42.1113 21.6753 42.1138 21.4898C42.1163 21.3042 42.0816 21.1201 42.0117 20.9482C41.9419 20.7763 41.8383 20.6202 41.7071 20.489C41.5759 20.3578 41.4197 20.2542 41.2478 20.1843C41.0759 20.1145 40.8918 20.0798 40.7063 20.0823C40.5207 20.0848 40.3376 20.1244 40.1676 20.1988C39.9977 20.2733 39.8444 20.381 39.7167 20.5157L36.3431 23.8709L38.311 25.8303Z" fill="white"/>
</svg>
