<svg width="60" height="60" viewBox="0 0 60 60" fill="none" xmlns="http://www.w3.org/2000/svg">
<path d="M30 56C44.3594 56 56 44.3594 56 30C56 15.6406 44.3594 4 30 4C15.6406 4 4 15.6406 4 30C4 44.3594 15.6406 56 30 56Z" fill="#7E0CF5"/>
<path d="M37.383 20.687C37.2148 20.6878 37.0501 20.6385 36.9099 20.5454C36.7698 20.4523 36.6606 20.3195 36.5963 20.1641C36.5319 20.0086 36.5153 19.8375 36.5485 19.6726C36.5818 19.5076 36.6634 19.3564 36.783 19.238L38.883 17.158C38.9467 17.0954 38.9974 17.0207 39.0319 16.9382C39.0665 16.8558 39.0843 16.7674 39.0843 16.678C39.0843 16.5886 39.0665 16.5002 39.0319 16.4178C38.9974 16.3353 38.9467 16.2606 38.883 16.198L36.783 14.118C36.7041 14.0394 36.6414 13.946 36.5986 13.8432C36.5557 13.7404 36.5336 13.6302 36.5333 13.5188C36.5331 13.4074 36.5548 13.297 36.5972 13.1941C36.6396 13.0911 36.7019 12.9974 36.7805 12.9185C36.8591 12.8396 36.9525 12.7769 37.0553 12.7341C37.1581 12.6912 37.2684 12.6691 37.3797 12.6688C37.4911 12.6686 37.6015 12.6903 37.7045 12.7327C37.8074 12.7751 37.9011 12.8374 37.98 12.916L40.08 14.996C40.3025 15.2162 40.4791 15.4783 40.5996 15.7672C40.7201 16.0561 40.7822 16.366 40.7822 16.679C40.7822 16.992 40.7201 17.3019 40.5996 17.5908C40.4791 17.8797 40.3025 18.1418 40.08 18.362L37.98 20.442C37.8213 20.5995 37.6066 20.6876 37.383 20.687Z" fill="white" stroke="white" stroke-width="0.5"/>
<path d="M30.0003 45.0002C27.4555 45 24.9889 44.1176 23.0218 42.5031C21.0547 40.8885 19.7086 38.6417 19.2122 36.1457C18.7159 33.6497 19.1004 31.059 20.3001 28.8146C21.4998 26.5703 23.4402 24.8109 25.7913 23.8371C28.1425 22.8632 30.7594 22.735 33.1947 23.4738C35.6299 24.2126 37.733 25.7729 39.1468 27.8888C40.5607 30.0048 41.197 32.5457 40.9476 35.0783C40.6982 37.6109 39.5791 39.9789 37.7796 41.7785C36.7604 42.8031 35.5475 43.6151 34.2122 44.1681C32.877 44.7212 31.4456 45.004 30.0003 45.0002ZM30.0003 26.0002C28.4181 26.0002 26.8716 26.4697 25.556 27.3488C24.2404 28.2278 23.2152 29.4768 22.6097 30.9386C22.0042 32.4004 21.845 34.0089 22.1536 35.5607C22.4623 37.1126 23.2243 38.5386 24.3431 39.6574C25.4619 40.7762 26.8879 41.5382 28.4398 41.8468C29.9916 42.1555 31.6 41.9963 33.0619 41.3908C34.5237 40.7853 35.7726 39.7601 36.6517 38.4445C37.5307 37.1289 38.0003 35.5824 38.0003 34.0002C37.9979 31.8792 37.1544 29.8456 35.6546 28.3459C34.1549 26.8461 32.1213 26.0025 30.0003 26.0002Z" fill="white"/>
<path d="M38.8461 16.6192L21.769 16.6198" stroke="white" stroke-width="2.5" stroke-linecap="round"/>
</svg>
