<svg width="60" height="60" viewBox="0 0 60 60" fill="none" xmlns="http://www.w3.org/2000/svg">
<path d="M30 56C44.3594 56 56 44.3594 56 30C56 15.6406 44.3594 4 30 4C15.6406 4 4 15.6406 4 30C4 44.3594 15.6406 56 30 56Z" fill="#7E0CF5"/>
<path d="M43.7252 42.2354H35.525C35.4562 42.2354 35.3882 42.2211 35.3249 42.1943C35.2615 42.1675 35.2038 42.1285 35.1559 42.0791L21.7165 28.1582C21.3756 27.8094 21.1706 27.3491 21.1403 26.8623C21.11 26.3755 21.2564 25.8942 21.5514 25.5059L29.8004 16.3057L30.8288 14.2754C30.9643 14.1211 31.1301 13.9956 31.3151 13.9062C31.5001 13.8169 31.7007 13.7651 31.9059 13.7549H31.9831C32.3701 13.7549 32.7429 13.9003 33.028 14.1621L41.1872 20.7764C41.5378 21.0731 41.7713 21.4852 41.8454 21.9385C41.8491 22.0583 41.8274 22.1768 41.7829 22.2881C41.7383 22.3994 41.671 22.5008 41.5856 22.585C41.1419 22.9288 40.6124 23.1432 40.0543 23.2041H40.0456C39.5599 23.2533 39.0972 23.4343 38.7077 23.7285C38.1607 24.3195 38.5962 31.9288 38.6012 32.0068C40.4085 32.1409 42.0987 32.952 43.3336 34.2783C44.5686 35.6047 45.2575 37.3489 45.2624 39.1611V40.7002C45.261 41.1072 45.0982 41.4965 44.8102 41.7842C44.5222 42.0718 44.1323 42.2346 43.7252 42.2354ZM22.8473 25.625L22.3473 26.1523C22.2095 26.346 22.1449 26.5815 22.1647 26.8184C22.1845 27.0552 22.2868 27.2781 22.4547 27.4463L35.7418 41.2109H43.7243C43.8604 41.2107 43.9904 41.1569 44.0866 41.0605C44.1827 40.9642 44.237 40.8334 44.237 40.6973V39.8154H36.6276C36.5584 39.8159 36.4899 39.8018 36.4264 39.7744C36.3629 39.747 36.3066 39.7068 36.2594 39.6562L22.8483 25.625H22.8473ZM28.0241 30.0928L36.7682 39.1621H44.237C44.2354 37.5318 43.5877 35.9685 42.4352 34.8154C41.2827 33.6623 39.7189 33.0131 38.0885 33.0107C38.0627 33.0146 38.0375 33.0165 38.0114 33.0166C37.9565 33.0186 37.9014 33.0085 37.8512 32.9863C37.801 32.9642 37.7568 32.9306 37.7213 32.8887C37.5766 32.6182 37.5251 32.3075 37.5758 32.0049V24.5225L30.0504 17.5C30.0433 17.492 30.0364 17.4829 30.0309 17.4736C30.0264 17.4653 30.0217 17.4579 30.0163 17.4502L25.8874 22.1377L25.2096 22.9102L23.2448 25.1387L24.1832 26.1113L28.0172 30.1113L28.027 30.0977L28.0241 30.0928ZM31.9752 14.7744H31.9577C31.8897 14.778 31.8235 14.7943 31.7624 14.8242C31.7012 14.8541 31.6468 14.8968 31.6022 14.9482L30.6745 16.7012L30.7047 16.7197H30.7135C30.726 16.7265 30.7379 16.735 30.7487 16.7441L37.5758 23.1152L39.652 21.4014C39.6519 21.3308 39.6374 21.2608 39.609 21.1963C39.5806 21.1317 39.5389 21.0741 39.487 21.0264L32.3327 14.9053C32.2393 14.818 32.1167 14.7684 31.9889 14.7676L31.9752 14.7744Z" fill="white" stroke="white"/>
<path d="M21.5 32.5H11.5" stroke="white" stroke-width="2" stroke-linecap="round"/>
<path d="M24.5 16.5H21.5" stroke="white" stroke-width="2" stroke-linecap="round"/>
<path d="M28.5 40.5H22.5" stroke="white" stroke-width="2" stroke-linecap="round"/>
</svg>
