<svg width="60" height="60" viewBox="0 0 60 60" fill="none" xmlns="http://www.w3.org/2000/svg">
<path d="M30 56C44.3594 56 56 44.3594 56 30C56 15.6406 44.3594 4 30 4C15.6406 4 4 15.6406 4 30C4 44.3594 15.6406 56 30 56Z" fill="#7E0CF5"/>
<path d="M25.612 43.678C23.5292 43.6774 21.4901 43.0814 19.7348 41.9602C17.9796 40.839 16.5816 39.2394 15.7054 37.3498C14.8293 35.4603 14.5117 33.3597 14.7899 31.2956C15.0682 29.2315 15.9308 27.29 17.276 25.7V21.165C17.2778 19.3922 17.9828 17.6926 19.2363 16.439C20.4897 15.1853 22.1892 14.4801 23.962 14.478H27.262C29.0348 14.4801 30.7343 15.1853 31.9877 16.439C33.2412 17.6926 33.9461 19.3922 33.948 21.165V25.7C34.4861 26.3433 34.9528 27.0431 35.34 27.787C35.54 28.149 35.54 28.587 35.266 28.757C35.1806 28.8075 35.0857 28.8399 34.9872 28.8521C34.8887 28.8643 34.7888 28.856 34.6936 28.8279C34.5985 28.7997 34.5102 28.7523 34.4342 28.6884C34.3582 28.6246 34.2962 28.5458 34.252 28.457C33.8373 27.7216 33.3638 27.021 32.836 26.362C32.7329 26.2456 32.676 26.0955 32.676 25.94V21.165C32.6741 19.7299 32.1033 18.3542 31.0885 17.3395C30.0738 16.3247 28.698 15.7538 27.263 15.752H23.963C22.5278 15.7536 21.1518 16.3244 20.1368 17.3391C19.1219 18.3539 18.5508 19.7298 18.549 21.165V25.938C18.5489 26.0935 18.492 26.2436 18.389 26.36C17.156 27.7514 16.3512 29.4694 16.0713 31.3073C15.7915 33.1452 16.0485 35.0249 16.8114 36.7202C17.5744 38.4156 18.8108 39.8545 20.3721 40.8638C21.9333 41.8732 23.7529 42.4101 25.612 42.41C26.3029 42.4049 26.9916 42.3312 27.668 42.19C28.179 42.064 28.399 42.263 28.514 42.563C28.629 42.863 28.568 43.341 28.128 43.391C27.3044 43.5903 26.4593 43.6867 25.612 43.678ZM30.25 24.764C30.1495 24.7641 30.0506 24.7383 29.963 24.689C28.6333 23.9468 27.1358 23.5571 25.613 23.5571C24.0902 23.5571 22.5927 23.9468 21.263 24.689C21.1754 24.7383 21.0765 24.7641 20.976 24.764C20.8989 24.7641 20.8226 24.7491 20.7513 24.7197C20.68 24.6903 20.6152 24.6472 20.5606 24.5928C20.506 24.5384 20.4627 24.4737 20.4331 24.4026C20.4034 24.3314 20.3881 24.2551 20.388 24.178V21.767C20.3896 20.7862 20.7799 19.846 21.4735 19.1525C22.167 18.4589 23.1072 18.0686 24.088 18.067H27.135C28.1158 18.0686 29.056 18.4589 29.7495 19.1525C30.4431 19.846 30.8334 20.7862 30.835 21.767V24.178C30.8347 24.2806 30.8077 24.3814 30.7567 24.4705C30.7057 24.5595 30.6324 24.6338 30.544 24.686C30.4551 24.7392 30.3536 24.7678 30.25 24.769V24.764ZM25.612 22.386C27.0057 22.3881 28.3842 22.6764 29.662 23.233V21.767C29.6612 21.0973 29.3948 20.4553 28.9213 19.9817C28.4477 19.5082 27.8057 19.2418 27.136 19.241H24.088C23.4183 19.2418 22.7763 19.5082 22.3027 19.9817C21.8292 20.4553 21.5628 21.0973 21.562 21.767V23.233C22.8398 22.6765 24.2183 22.3882 25.612 22.386Z" fill="white" stroke="white" stroke-width="0.7"/>
<path d="M37.999 43.001C40.7604 43.001 42.999 40.7624 42.999 38.001C42.999 35.2396 40.7604 33.001 37.999 33.001C35.2376 33.001 32.999 35.2396 32.999 38.001C32.999 40.7624 35.2376 43.001 37.999 43.001Z" stroke="white" stroke-width="2"/>
<path d="M38.058 29.41V46.723" stroke="white" stroke-width="2" stroke-linecap="round"/>
<path d="M46.714 38.067H29.401" stroke="white" stroke-width="2" stroke-linecap="round"/>
</svg>
