<svg width="60" height="60" viewBox="0 0 60 60" fill="none" xmlns="http://www.w3.org/2000/svg">
<path d="M30 56C44.3594 56 56 44.3594 56 30C56 15.6406 44.3594 4 30 4C15.6406 4 4 15.6406 4 30C4 44.3594 15.6406 56 30 56Z" fill="#7E0CF5"/>
<path d="M37.715 19.9083C37.6089 19.7884 37.5413 19.6394 37.5208 19.4807C37.5003 19.3219 37.5279 19.1607 37.6 19.0178C37.6722 18.8749 37.7855 18.7569 37.9254 18.6791C38.0653 18.6014 38.2253 18.5673 38.3847 18.5814L41.1849 18.7907C41.2695 18.7973 41.3546 18.7869 41.4352 18.7603C41.5157 18.7337 41.5902 18.6913 41.6543 18.6356C41.7183 18.5799 41.7707 18.5121 41.8083 18.436C41.8458 18.3599 41.8679 18.2771 41.8732 18.1924L42.0556 15.3903C42.0697 15.1773 42.1678 14.9786 42.3284 14.8378C42.489 14.6971 42.6989 14.626 42.9119 14.64C43.125 14.6541 43.3237 14.7522 43.4644 14.9128C43.6051 15.0734 43.6763 15.2833 43.6622 15.4963L43.4784 18.2982C43.4593 18.5952 43.3815 18.8855 43.2494 19.1523C43.1174 19.419 42.9337 19.6569 42.7091 19.8521C42.4845 20.0474 42.2234 20.1961 41.9409 20.2898C41.6584 20.3834 41.3601 20.4201 41.0633 20.3976L38.2654 20.1864C38.1598 20.1788 38.0568 20.1502 37.9623 20.1025C37.8678 20.0548 37.7837 19.9888 37.715 19.9083Z" fill="white" stroke="white" stroke-width="0.5"/>
<path d="M41.8058 18.7714C35.4446 9.04663 23.0654 10.9033 18.6466 19.1058" stroke="white" stroke-width="2.50028" stroke-linecap="round"/>
<path d="M20.199 38.172C20.4658 38.8904 20.7937 39.5846 21.179 40.247C21.219 40.327 21.833 41.061 22.2 40.434C22.9437 39.4901 23.5696 38.4592 24.064 37.364C24.604 36.123 25.071 35.084 25.524 34.076L26.215 32.532C26.563 31.608 26.415 31.402 25.615 31.091C23.945 30.445 21.926 29.615 19.923 28.678C19.6242 28.5557 19.3792 28.3304 19.2324 28.0429C19.0856 27.7553 19.0468 27.4247 19.123 27.111C19.206 26.7387 19.4109 26.4047 19.7053 26.1621C19.9997 25.9196 20.3667 25.7823 20.748 25.772C20.9904 25.7726 21.2295 25.8273 21.448 25.932C23.203 26.754 24.974 27.487 27.205 28.347C27.264 28.37 28.468 28.784 28.796 28.347C29.124 27.91 28.927 27.399 28.796 26.898C28.42 25.472 27.864 23.572 27.429 22.472C27.2736 22.0732 27.283 21.6291 27.455 21.2372C27.6271 20.8454 27.9478 20.5379 28.3465 20.3825C28.7453 20.2271 29.1894 20.2364 29.5813 20.4085C29.9732 20.5806 30.2806 20.9012 30.436 21.3C31.2985 23.7236 32.0046 26.2 32.55 28.714C32.764 30.014 33.234 30.494 32.85 31.42C32.85 31.42 31.371 34.854 30.681 36.39C30.469 36.861 30.253 37.342 29.9 38.136C29.276 39.536 30.507 39.854 31.364 40.243C33.664 41.283 36.302 42.518 38.7 43.506C40.582 44.282 39.759 47.383 37.849 46.595C34.549 45.233 30.779 43.403 27.084 41.81C26.905 41.732 25.884 40.969 25.121 41.955C24.3323 42.9097 23.4584 43.7907 22.51 44.587C22.3339 44.7542 22.1227 44.8801 21.8918 44.9556C21.661 45.0311 21.4162 45.0542 21.1753 45.0232C20.9344 44.9923 20.7034 44.9081 20.4991 44.7768C20.2947 44.6455 20.1222 44.4703 19.994 44.264C18.7975 42.6587 17.8281 40.8961 17.113 39.026C16.41 37.072 19.506 36.239 20.199 38.172Z" stroke="white" stroke-width="2"/>
<path d="M37.284 30.958C38.8685 30.958 40.153 29.6735 40.153 28.089C40.153 26.5045 38.8685 25.22 37.284 25.22C35.6995 25.22 34.415 26.5045 34.415 28.089C34.415 29.6735 35.6995 30.958 37.284 30.958Z" stroke="white" stroke-width="2"/>
</svg>
