<svg width="60" height="60" viewBox="0 0 60 60" fill="none" xmlns="http://www.w3.org/2000/svg">
<path d="M30 56C44.3594 56 56 44.3594 56 30C56 15.6406 44.3594 4 30 4C15.6406 4 4 15.6406 4 30C4 44.3594 15.6406 56 30 56Z" fill="#7E0CF5"/>
<path d="M49.9148 32.1666C49.7086 32.2336 49.4872 32.2378 49.2787 32.1787C49.0701 32.1196 48.8838 31.9999 48.7434 31.8347C48.603 31.6696 48.5148 31.4664 48.4901 31.2511C48.4653 31.0358 48.5051 30.8179 48.6044 30.6252L50.3535 27.236C50.4065 27.1336 50.4387 27.0218 50.4482 26.9069C50.4576 26.792 50.4441 26.6764 50.4085 26.5668C50.3729 26.4571 50.3159 26.3557 50.2407 26.2683C50.1655 26.1809 50.0737 26.1093 49.9706 26.0577L46.5613 24.3372C46.431 24.2737 46.3147 24.185 46.2191 24.0762C46.1234 23.9674 46.0503 23.8407 46.004 23.7034C45.9577 23.5662 45.9392 23.4211 45.9494 23.2766C45.9596 23.1321 45.9985 22.991 46.0637 22.8616C46.1288 22.7323 46.2191 22.6171 46.3291 22.5229C46.4392 22.4287 46.5668 22.3573 46.7047 22.3128C46.8426 22.2683 46.9879 22.2516 47.1322 22.2638C47.2766 22.2759 47.4171 22.3166 47.5456 22.3835L50.9538 24.097C51.3149 24.2787 51.6364 24.5301 51.8997 24.8368C52.163 25.1435 52.3629 25.4993 52.4878 25.8838C52.6128 26.2682 52.6602 26.6736 52.6275 27.0765C52.5947 27.4794 52.4824 27.8718 52.297 28.231L50.5491 31.6272C50.4173 31.8838 50.1892 32.0777 49.9148 32.1666Z" fill="white"/>
<path d="M50.7716 26.6886L31.3601 31.9127" stroke="white" stroke-width="2.5" stroke-linecap="round"/>
<path d="M16.8974 24.0243C16.981 24.0979 17.0824 24.1483 17.1916 24.1706C17.3007 24.1929 17.4138 24.1863 17.5196 24.1514C19.0919 23.6355 20.77 23.5304 22.3944 23.8462C24.0187 24.1619 25.5353 24.888 26.7999 25.9553C26.8849 26.0272 26.9873 26.0757 27.0968 26.0958C27.2063 26.116 27.3193 26.1072 27.4244 26.0703C27.5294 26.0334 27.623 25.9696 27.6959 25.8854C27.7688 25.8011 27.8183 25.6993 27.8397 25.59L28.3402 23.0152C28.5426 21.9682 28.3214 20.8837 27.7251 19.9996C27.1288 19.1155 26.2061 18.5041 25.1595 18.2996L21.9084 17.6677C20.8614 17.4652 19.7768 17.6864 18.8928 18.2828C18.0087 18.8791 17.3973 19.8018 17.1928 20.8483L16.6923 23.4232C16.6711 23.5325 16.6789 23.6456 16.7149 23.751C16.7508 23.8565 16.8138 23.9507 16.8974 24.0243ZM18.4473 21.0922C18.5869 20.3782 19.004 19.7487 19.6072 19.3419C20.2103 18.9351 20.9502 18.7842 21.6645 18.9222L24.9157 19.5542C25.6296 19.6937 26.2591 20.1109 26.6659 20.714C27.0727 21.3171 27.2237 22.057 27.0857 22.7713L26.7817 24.335C25.5354 23.4747 24.1247 22.8814 22.6381 22.5924C21.1515 22.3034 19.6212 22.3251 18.1434 22.6559L18.4473 21.0922Z" fill="white" stroke="white" stroke-width="0.5"/>
<path d="M30.113 27.998L30.9817 23.5286C31.3195 21.7811 30.9503 19.971 29.955 18.4955C28.9597 17.0199 27.4197 15.9995 25.673 15.6581L22.4218 15.0261C20.6743 14.6883 18.8642 15.0576 17.3887 16.0528C15.9131 17.0481 14.8927 18.5881 14.5513 20.3349L13.6825 24.8042C12.0507 26.1132 10.8273 27.8616 10.1566 29.8431C9.48595 31.8246 9.39601 33.9566 9.8974 35.9876C10.3988 38.0185 11.4706 39.8637 12.9864 41.3055C14.5021 42.7472 16.3986 43.7254 18.4521 44.1245C20.5056 44.5237 22.6305 44.3272 24.576 43.5583C26.5215 42.7893 28.2064 41.48 29.4321 39.7847C30.6578 38.0895 31.3731 36.079 31.4935 33.9906C31.614 31.9021 31.1346 29.8227 30.112 27.9978L30.113 27.998ZM18.6967 42.8689C16.8643 42.5131 15.1737 41.6355 13.8282 40.3416C12.4828 39.0478 11.5397 37.3928 11.1125 35.5757C10.6853 33.7586 10.7922 31.8568 11.4202 30.099C12.0483 28.3411 13.1707 26.8022 14.6527 25.6672C14.7768 25.5722 14.8618 25.4351 14.8916 25.2817L15.8058 20.5787C16.0823 19.1645 16.9085 17.9178 18.1031 17.112C19.2977 16.3062 20.7632 16.0072 22.178 16.2806L25.4291 16.9126C26.8433 17.1891 28.09 18.0153 28.8958 19.2099C29.7016 20.4045 30.0006 21.87 29.7272 23.2848L28.8138 27.9838C28.784 28.1372 28.8114 28.2962 28.8909 28.4308C29.8393 30.0383 30.3032 31.8856 30.2268 33.7505C30.1504 35.6153 29.537 37.4185 28.4603 38.9431C27.3837 40.4677 25.8895 41.6488 24.1576 42.3446C22.4257 43.0403 20.5297 43.221 18.6975 42.865L18.6967 42.8689Z" fill="white" stroke="white" stroke-width="0.5"/>
<path d="M14.5 44.5H44.5" stroke="white" stroke-width="3" stroke-linecap="round"/>
</svg>
