<svg width="60" height="60" viewBox="0 0 60 60" fill="none" xmlns="http://www.w3.org/2000/svg">
<path d="M30 56C44.3594 56 56 44.3594 56 30C56 15.6406 44.3594 4 30 4C15.6406 4 4 15.6406 4 30C4 44.3594 15.6406 56 30 56Z" fill="#7E0CF5"/>
<path d="M36.152 21.546C35.9538 21.5461 35.7575 21.5069 35.5746 21.4307C35.3916 21.3545 35.2255 21.2428 35.086 21.102L30.918 16.902C30.807 16.7893 30.6747 16.6998 30.5287 16.6387C30.3828 16.5776 30.2262 16.5461 30.068 16.5461C29.9098 16.5461 29.7532 16.5776 29.6072 16.6387C29.4613 16.6998 29.329 16.7893 29.218 16.902L25.05 21.102C24.9112 21.242 24.7462 21.3533 24.5643 21.4295C24.3825 21.5057 24.1875 21.5453 23.9904 21.5462C23.7932 21.547 23.5978 21.509 23.4154 21.4343C23.2329 21.3597 23.067 21.2498 22.927 21.111C22.787 20.9722 22.6757 20.8072 22.5995 20.6254C22.5233 20.4435 22.4836 20.2485 22.4828 20.0514C22.482 19.8542 22.52 19.6588 22.5946 19.4764C22.6693 19.2939 22.7792 19.128 22.918 18.988L27.086 14.788C27.4765 14.3942 27.941 14.0816 28.4529 13.8683C28.9648 13.655 29.5139 13.5451 30.0685 13.5451C30.6231 13.5451 31.1721 13.655 31.684 13.8683C32.1959 14.0816 32.6605 14.3942 33.051 14.788L37.219 18.988C37.4282 19.1982 37.5703 19.4658 37.6275 19.7568C37.6847 20.0478 37.6544 20.3492 37.5403 20.623C37.4262 20.8968 37.2335 21.1306 36.9866 21.2948C36.7396 21.4591 36.4496 21.5465 36.153 21.546H36.152Z" fill="white"/>
<path d="M30.067 48.455C29.5122 48.4563 28.9627 48.347 28.4507 48.1334C27.9387 47.9198 27.4744 47.6062 27.085 47.211L22.917 43.011C22.7782 42.871 22.6683 42.705 22.5937 42.5226C22.519 42.3401 22.481 42.1448 22.4818 41.9476C22.4835 41.5495 22.6433 41.1683 22.926 40.888C23.2087 40.6077 23.5912 40.4511 23.9894 40.4528C24.3875 40.4545 24.7687 40.6143 25.049 40.897L29.217 45.097C29.328 45.2097 29.4603 45.2992 29.6063 45.3603C29.7522 45.4214 29.9088 45.4529 30.067 45.4529C30.2252 45.4529 30.3818 45.4214 30.5278 45.3603C30.6737 45.2992 30.806 45.2097 30.917 45.097L35.085 40.897C35.3653 40.6143 35.7465 40.4545 36.1446 40.4528C36.5428 40.4511 36.9253 40.6077 37.208 40.888C37.4907 41.1683 37.6505 41.5495 37.6522 41.9476C37.6539 42.3458 37.4973 42.7283 37.217 43.011L33.049 47.211C32.6596 47.6062 32.1953 47.9198 31.6833 48.1334C31.1713 48.347 30.6218 48.4563 30.067 48.455Z" fill="white"/>
<path d="M19.046 38.585C18.6499 38.5849 18.2699 38.4282 17.989 38.149L13.789 33.981C13.3952 33.5905 13.0826 33.1259 12.8693 32.614C12.656 32.1021 12.5461 31.5531 12.5461 30.9985C12.5461 30.4439 12.656 29.8948 12.8693 29.3829C13.0826 28.871 13.3952 28.4065 13.789 28.016L17.989 23.848C18.129 23.7092 18.2949 23.5993 18.4774 23.5246C18.6599 23.45 18.8552 23.412 19.0524 23.4128C19.2495 23.4136 19.4445 23.4533 19.6264 23.5295C19.8082 23.6057 19.9732 23.717 20.112 23.857C20.2508 23.997 20.3607 24.1629 20.4353 24.3454C20.51 24.5278 20.548 24.7232 20.5472 24.9203C20.5464 25.1175 20.5067 25.3125 20.4305 25.4944C20.3543 25.6762 20.243 25.8412 20.103 25.98L15.903 30.148C15.7903 30.259 15.7008 30.3913 15.6397 30.5372C15.5786 30.6832 15.5471 30.8398 15.5471 30.998C15.5471 31.1562 15.5786 31.3128 15.6397 31.4587C15.7008 31.6047 15.7903 31.737 15.903 31.848L20.103 36.016C20.3147 36.2252 20.4594 36.4927 20.5187 36.7844C20.578 37.0761 20.5491 37.3789 20.4357 37.6541C20.3224 37.9294 20.1297 38.1647 19.8822 38.3301C19.6348 38.4955 19.3437 38.5835 19.046 38.583V38.585Z" fill="white"/>
<path d="M40.952 38.586C40.6543 38.5865 40.3632 38.4985 40.1157 38.3331C39.8683 38.1677 39.6756 37.9324 39.5622 37.6571C39.4489 37.3819 39.42 37.0791 39.4793 36.7874C39.5385 36.4957 39.6832 36.2282 39.895 36.019L44.095 31.851C44.2077 31.74 44.2972 31.6077 44.3583 31.4617C44.4194 31.3158 44.4509 31.1592 44.4509 31.001C44.4509 30.8428 44.4194 30.6862 44.3583 30.5402C44.2972 30.3943 44.2077 30.262 44.095 30.151L39.895 25.983C39.6123 25.7027 39.4525 25.3215 39.4508 24.9233C39.4491 24.5252 39.6056 24.1427 39.886 23.86C40.1663 23.5773 40.5475 23.4175 40.9456 23.4158C41.3437 23.4141 41.7263 23.5706 42.009 23.851L46.209 28.019C46.6028 28.4094 46.9154 28.874 47.1287 29.3859C47.342 29.8978 47.4518 30.4469 47.4518 31.0015C47.4518 31.556 47.342 32.1051 47.1287 32.617C46.9154 33.1289 46.6028 33.5935 46.209 33.984L42.009 38.152C41.7277 38.4304 41.3478 38.5864 40.952 38.586Z" fill="white"/>
<path d="M30.067 35.881C29.1014 35.8812 28.1574 35.595 27.3544 35.0587C26.5514 34.5224 25.9256 33.76 25.5559 32.868C25.1862 31.9759 25.0894 30.9943 25.2777 30.0472C25.4659 29.1001 25.9308 28.2301 26.6135 27.5473C27.2963 26.8644 28.1661 26.3993 29.1132 26.2109C30.0602 26.0224 31.0419 26.119 31.934 26.4885C32.8261 26.858 33.5887 27.4837 34.1252 28.2866C34.6616 29.0895 34.948 30.0334 34.948 30.999C34.9467 32.2932 34.432 33.534 33.517 34.4493C32.6019 35.3645 31.3612 35.8794 30.067 35.881Z" fill="white"/>
</svg>
