<svg width="60" height="60" viewBox="0 0 60 60" fill="none" xmlns="http://www.w3.org/2000/svg">
<path d="M30 56C44.3594 56 56 44.3594 56 30C56 15.6406 44.3594 4 30 4C15.6406 4 4 15.6406 4 30C4 44.3594 15.6406 56 30 56Z" fill="#7E0CF5"/>
<path d="M32.918 29.185H39.007C39.2308 29.1678 39.4523 29.2393 39.6237 29.3841C39.7951 29.529 39.9026 29.7355 39.923 29.959V36.227C39.9026 36.4505 39.7951 36.657 39.6237 36.8018C39.4523 36.9466 39.2308 37.0182 39.007 37.001H32.918C32.6942 37.0182 32.4727 36.9466 32.3013 36.8018C32.1299 36.657 32.0224 36.4505 32.002 36.227V29.959C32.0224 29.7355 32.1299 29.529 32.3013 29.3841C32.4727 29.2393 32.6942 29.1678 32.918 29.185Z" fill="white"/>
<path d="M9.7 31.835C9.69958 32.0375 9.75938 32.2355 9.87179 32.4039C9.9842 32.5723 10.1441 32.7035 10.3313 32.7808C10.5185 32.8581 10.7244 32.878 10.9228 32.8379C11.1213 32.7979 11.3034 32.6998 11.446 32.556L13.953 30.023C14.0286 29.9463 14.1186 29.8854 14.2179 29.8438C14.3172 29.8022 14.4238 29.7808 14.5315 29.7808C14.6392 29.7808 14.7458 29.8022 14.8451 29.8438C14.9444 29.8854 15.0344 29.9463 15.11 30.023L17.618 32.556C17.7126 32.6512 17.8249 32.7269 17.9487 32.7786C18.0725 32.8304 18.2053 32.8573 18.3395 32.8578C18.4736 32.8582 18.6066 32.8323 18.7307 32.7813C18.8549 32.7304 18.9678 32.6555 19.063 32.561C19.1582 32.4664 19.2339 32.3541 19.2856 32.2303C19.3374 32.1065 19.3643 31.9737 19.3648 31.8395C19.3652 31.7053 19.3393 31.5724 19.2883 31.4482C19.2374 31.3241 19.1626 31.2112 19.068 31.116L16.56 28.585C16.2946 28.3168 15.9787 28.104 15.6305 27.9587C15.2823 27.8134 14.9088 27.7386 14.5315 27.7386C14.1542 27.7386 13.7807 27.8134 13.4325 27.9587C13.0843 28.104 12.7684 28.3168 12.503 28.585L10 31.116C9.80862 31.3064 9.70071 31.565 9.7 31.835Z" fill="white"/>
<path d="M14.5026 35.7784L34.852 35.775" stroke="white" stroke-width="2.50028" stroke-linecap="round"/>
<path d="M14.5028 35.7783L14.4969 30.8376" stroke="white" stroke-width="2.50028" stroke-linecap="round"/>
<path d="M39 37C42.866 37 46 33.866 46 30C46 26.134 42.866 23 39 23C35.134 23 32 26.134 32 30C32 33.866 35.134 37 39 37Z" fill="white"/>
</svg>
