<svg width="60" height="60" viewBox="0 0 60 60" fill="none" xmlns="http://www.w3.org/2000/svg">
<path d="M30 56C44.3594 56 56 44.3594 56 30C56 15.6406 44.3594 4 30 4C15.6406 4 4 15.6406 4 30C4 44.3594 15.6406 56 30 56Z" fill="#7E0CF5"/>
<path d="M33.468 37.676C33.4681 37.9029 33.5356 38.1247 33.6619 38.3132C33.7883 38.5017 33.9677 38.6485 34.1775 38.7349C34.3873 38.8214 34.6181 38.8436 34.8405 38.7987C35.063 38.7539 35.2671 38.644 35.427 38.483L38.241 35.643C38.3258 35.5567 38.427 35.4881 38.5386 35.4412C38.6502 35.3944 38.77 35.3703 38.891 35.3703C39.012 35.3703 39.1318 35.3944 39.2434 35.4412C39.3551 35.4881 39.4562 35.5567 39.541 35.643L42.353 38.483C42.4584 38.5924 42.5845 38.6798 42.7239 38.74C42.8634 38.8003 43.0134 38.8322 43.1654 38.8339C43.3173 38.8356 43.468 38.8071 43.6088 38.7501C43.7496 38.693 43.8776 38.6086 43.9855 38.5016C44.0933 38.3946 44.1788 38.2672 44.237 38.1269C44.2952 37.9866 44.3249 37.8361 44.3244 37.6841C44.3239 37.5322 44.2932 37.3819 44.234 37.242C44.1749 37.1021 44.0886 36.9753 43.98 36.869L41.168 34.029C40.8704 33.7279 40.516 33.4888 40.1253 33.3256C39.7346 33.1624 39.3154 33.0784 38.892 33.0784C38.4686 33.0784 38.0494 33.1624 37.6587 33.3256C37.268 33.4888 36.9136 33.7279 36.616 34.029L33.8 36.869C33.5869 37.0835 33.4675 37.3737 33.468 37.676Z" fill="white"/>
<path d="M38.939 35.026V43.087" stroke="white" stroke-width="2.5" stroke-linecap="round"/>
<path d="M30.2489 41.5688C28.2747 41.5688 26.3424 41.0045 24.6785 39.9419C23.0147 38.8793 21.6896 37.3628 20.8592 35.5718C20.0288 33.7807 19.7279 31.7899 19.992 29.8335C20.2561 27.8771 21.0739 26.0365 22.3494 24.5298V20.23C22.3513 18.5496 23.0196 16.9387 24.2078 15.7505C25.396 14.5623 27.007 13.8939 28.6873 13.8921H31.8133C33.4933 13.8942 35.1042 14.5623 36.2918 15.7505C37.4795 16.9387 38.1469 18.55 38.1483 20.23V24.5298C39.3193 25.9259 40.1095 27.6014 40.4422 29.3931C40.4722 29.5161 40.5788 30.1931 40.1248 30.3071C40.0413 30.3437 39.9512 30.3607 39.8602 30.3569C39.7691 30.3532 39.6796 30.3289 39.5994 30.2856C39.5192 30.2424 39.4504 30.181 39.3973 30.1069C39.3442 30.0329 39.3081 29.9477 39.2928 29.8579C39.0312 28.1109 38.2675 26.4776 37.0936 25.1577C36.9967 25.047 36.943 24.9054 36.9432 24.7583V20.2368C36.9416 18.8767 36.401 17.5726 35.4393 16.6108C34.4776 15.6491 33.1734 15.1085 31.8133 15.1069H28.6873C27.3273 15.1085 26.0231 15.6491 25.0614 16.6108C24.0996 17.5726 23.559 18.8767 23.5574 20.2368V24.7583C23.5567 24.9058 23.502 25.0474 23.4041 25.1577C22.2357 26.4763 21.473 28.1045 21.2078 29.8462C20.9426 31.5879 21.186 33.3695 21.909 34.9761C22.632 36.5827 23.8045 37.9463 25.284 38.9028C26.7635 39.8594 28.487 40.3678 30.2489 40.3677H30.2928C30.5004 40.7822 30.7468 41.177 31.0281 41.5454C30.7631 41.5604 30.4979 41.5688 30.2489 41.5688ZM25.493 23.312C25.4138 23.312 25.3356 23.2966 25.2625 23.2661C25.1894 23.2356 25.123 23.1905 25.0672 23.1343C25.0114 23.078 24.9672 23.0114 24.9373 22.938C24.9075 22.8646 24.8927 22.7858 24.8934 22.7065V20.2329C24.8934 19.2251 25.294 18.259 26.0067 17.5464C26.7193 16.8337 27.6854 16.4331 28.6932 16.4331H31.8192C32.8259 16.4347 33.7914 16.8359 34.5028 17.5483C35.2141 18.2608 35.6131 19.2261 35.6131 20.2329V22.7065C35.6131 22.8657 35.5499 23.0188 35.4373 23.1313C35.3248 23.2439 35.1726 23.3071 35.0135 23.3071C34.9087 23.3073 34.8057 23.281 34.7137 23.231C33.35 22.4689 31.813 22.0688 30.2508 22.0688C28.6886 22.0688 27.1526 22.4689 25.7889 23.231C25.6988 23.2828 25.597 23.3108 25.493 23.312ZM30.2489 20.8667C31.678 20.8692 33.0917 21.1648 34.4022 21.7349V20.2349C34.4019 19.548 34.1288 18.8898 33.6434 18.4038C33.158 17.9179 32.5001 17.6441 31.8133 17.6431H28.6873C28.0005 17.6452 27.3429 17.9191 26.8572 18.4048C26.3716 18.8904 26.0976 19.5481 26.0955 20.2349V21.7349C27.4054 21.1617 28.8191 20.866 30.2489 20.8667Z" fill="white" stroke="white" stroke-width="0.7"/>
<path d="M18.5 41.5H32.5" stroke="white" stroke-width="3" stroke-linecap="round"/>
</svg>
