<svg width="60" height="60" viewBox="0 0 60 60" fill="none" xmlns="http://www.w3.org/2000/svg">
<path d="M30 56C44.3594 56 56 44.3594 56 30C56 15.6406 44.3594 4 30 4C15.6406 4 4 15.6406 4 30C4 44.3594 15.6406 56 30 56Z" fill="#7E0CF5"/>
<path d="M16.6791 39.1116L16.6828 20.8506" stroke="white" stroke-width="2.00022" stroke-linecap="round"/>
<path d="M43.6805 32.6081L43.6828 20.8506" stroke="white" stroke-width="2.00022" stroke-linecap="round"/>
<path d="M43.724 21H17.013" stroke="white" stroke-width="2" stroke-linecap="round"/>
<path d="M16.7 24C18.3569 24 19.7 22.6569 19.7 21C19.7 19.3431 18.3569 18 16.7 18C15.0431 18 13.7 19.3431 13.7 21C13.7 22.6569 15.0431 24 16.7 24Z" fill="white"/>
<path d="M43.7 24C45.3569 24 46.7 22.6569 46.7 21C46.7 19.3431 45.3569 18 43.7 18C42.0431 18 40.7 19.3431 40.7 21C40.7 22.6569 42.0431 24 43.7 24Z" fill="white"/>
<path d="M46.2 29H41.2C40.6477 29 40.2 29.4477 40.2 30V35C40.2 35.5523 40.6477 36 41.2 36H46.2C46.7523 36 47.2 35.5523 47.2 35V30C47.2 29.4477 46.7523 29 46.2 29Z" fill="white"/>
<path d="M20.2 37H13.2C12.6477 37 12.2 37.4477 12.2 38V44C12.2 44.5523 12.6477 45 13.2 45H20.2C20.7523 45 21.2 44.5523 21.2 44V38C21.2 37.4477 20.7523 37 20.2 37Z" fill="white"/>
</svg>
