<svg width="60" height="60" viewBox="0 0 60 60" fill="none" xmlns="http://www.w3.org/2000/svg">
<path d="M30 56C44.3594 56 56 44.3594 56 30C56 15.6406 44.3594 4 30 4C15.6406 4 4 15.6406 4 30C4 44.3594 15.6406 56 30 56Z" fill="#7E0CF5"/>
<path d="M18.235 36.912C18.0182 36.912 17.8064 36.8476 17.6263 36.7269C17.4462 36.6063 17.306 36.4348 17.2235 36.2344C17.141 36.0339 17.1199 35.8134 17.1629 35.601C17.2059 35.3885 17.311 35.1936 17.465 35.041L20.176 32.358C20.2581 32.2771 20.3233 32.1806 20.3678 32.0743C20.4123 31.9679 20.4352 31.8538 20.4352 31.7385C20.4352 31.6232 20.4123 31.5091 20.3678 31.4027C20.3233 31.2964 20.2581 31.1999 20.176 31.119L17.465 28.429C17.3608 28.3284 17.2776 28.2081 17.2202 28.075C17.1628 27.942 17.1325 27.7989 17.1309 27.654C17.1292 27.5092 17.1564 27.3654 17.2108 27.2311C17.2652 27.0969 17.3457 26.9747 17.4477 26.8718C17.5497 26.7689 17.6711 26.6873 17.8049 26.6317C17.9387 26.5761 18.0822 26.5476 18.227 26.5479C18.3719 26.5482 18.5153 26.5773 18.6488 26.6334C18.7824 26.6896 18.9035 26.7717 19.005 26.875L21.717 29.558C22.0043 29.8424 22.2324 30.1809 22.3881 30.554C22.5437 30.927 22.6239 31.3273 22.6239 31.7315C22.6239 32.1358 22.5437 32.536 22.3881 32.9091C22.2324 33.2821 22.0043 33.6206 21.717 33.905L19.005 36.595C18.8003 36.7983 18.5235 36.9123 18.235 36.912Z" fill="white"/>
<path d="M20.7708 31.6878L13.0683 31.6885" stroke="white" stroke-width="2.5" stroke-linecap="round"/>
<path d="M29.8974 23.0243C29.981 23.0979 30.0824 23.1483 30.1916 23.1706C30.3007 23.1929 30.4138 23.1863 30.5196 23.1514C32.0919 22.6355 33.77 22.5304 35.3944 22.8462C37.0187 23.1619 38.5353 23.888 39.7999 24.9553C39.8849 25.0272 39.9873 25.0757 40.0968 25.0958C40.2063 25.116 40.3193 25.1072 40.4244 25.0703C40.5294 25.0334 40.623 24.9696 40.6959 24.8854C40.7688 24.8011 40.8183 24.6993 40.8397 24.59L41.3402 22.0152C41.5426 20.9682 41.3214 19.8837 40.7251 18.9996C40.1288 18.1155 39.2061 17.5041 38.1595 17.2996L34.9084 16.6677C33.8614 16.4652 32.7768 16.6864 31.8928 17.2828C31.0087 17.8791 30.3973 18.8018 30.1928 19.8483L29.6923 22.4232C29.6711 22.5325 29.6789 22.6456 29.7149 22.751C29.7508 22.8565 29.8138 22.9507 29.8974 23.0243ZM31.4473 20.0922C31.5869 19.3782 32.004 18.7487 32.6072 18.3419C33.2103 17.9351 33.9502 17.7842 34.6645 17.9222L37.9157 18.5542C38.6296 18.6937 39.2591 19.1109 39.6659 19.714C40.0727 20.3171 40.2237 21.057 40.0857 21.7713L39.7817 23.335C38.5354 22.4747 37.1247 21.8814 35.6381 21.5924C34.1515 21.3034 32.6212 21.3251 31.1434 21.6559L31.4473 20.0922Z" fill="white" stroke="white" stroke-width="0.7"/>
<path d="M43.113 26.998L43.9817 22.5286C44.3195 20.7811 43.9503 18.971 42.955 17.4955C41.9597 16.0199 40.4197 14.9995 38.673 14.6581L35.4218 14.0261C33.6743 13.6883 31.8642 14.0576 30.3887 15.0528C28.9131 16.0481 27.8927 17.5881 27.5513 19.3349L26.6825 23.8042C25.0507 25.1132 23.8273 26.8616 23.1566 28.8431C22.486 30.8246 22.396 32.9566 22.8974 34.9876C23.3988 37.0185 24.4706 38.8637 25.9864 40.3055C27.5021 41.7472 29.3986 42.7254 31.4521 43.1245C33.5056 43.5237 35.6305 43.3272 37.576 42.5583C39.5215 41.7893 41.2064 40.48 42.4321 38.7847C43.6578 37.0895 44.3731 35.079 44.4935 32.9906C44.614 30.9021 44.1346 28.8227 43.112 26.9978L43.113 26.998ZM31.6967 41.8689C29.8643 41.5131 28.1737 40.6355 26.8282 39.3416C25.4828 38.0478 24.5397 36.3928 24.1125 34.5757C23.6853 32.7586 23.7922 30.8568 24.4202 29.099C25.0483 27.3411 26.1707 25.8022 27.6527 24.6672C27.7768 24.5722 27.8618 24.4351 27.8916 24.2817L28.8058 19.5787C29.0823 18.1645 29.9085 16.9178 31.1031 16.112C32.2977 15.3062 33.7632 15.0072 35.178 15.2806L38.4291 15.9126C39.8433 16.1891 41.09 17.0153 41.8958 18.2099C42.7016 19.4045 43.0006 20.87 42.7272 22.2848L41.8138 26.9838C41.784 27.1372 41.8114 27.2962 41.8909 27.4308C42.8393 29.0383 43.3032 30.8856 43.2268 32.7505C43.1504 34.6153 42.537 36.4185 41.4603 37.9431C40.3837 39.4677 38.8895 40.6488 37.1576 41.3446C35.4257 42.0403 33.5297 42.221 31.6975 41.865L31.6967 41.8689Z" fill="white" stroke="white" stroke-width="0.2"/>
<path d="M17.5 43.5H41.5" stroke="white" stroke-width="3" stroke-linecap="round"/>
</svg>
