<svg width="60" height="60" viewBox="0 0 60 60" fill="none" xmlns="http://www.w3.org/2000/svg">
<path d="M30 56C44.3594 56 56 44.3594 56 30C56 15.6406 44.3594 4 30 4C15.6406 4 4 15.6406 4 30C4 44.3594 15.6406 56 30 56Z" fill="#7E0CF5"/>
<path d="M23.983 13.546C24.1812 13.5459 24.3774 13.5851 24.5604 13.6613C24.7434 13.7375 24.9094 13.8492 25.049 13.99L29.217 18.19C29.328 18.3027 29.4603 18.3922 29.6062 18.4533C29.7522 18.5144 29.9088 18.5459 30.067 18.5459C30.2252 18.5459 30.3818 18.5144 30.5277 18.4533C30.6736 18.3922 30.806 18.3027 30.917 18.19L35.085 13.99C35.3653 13.7073 35.7465 13.5475 36.1446 13.5458C36.5427 13.5441 36.9253 13.7007 37.208 13.981C37.4907 14.2613 37.6505 14.6425 37.6522 15.0406C37.6538 15.4388 37.4973 15.8213 37.217 16.104L33.049 20.304C32.6585 20.6977 32.194 21.0101 31.6822 21.2233C31.1704 21.4366 30.6214 21.5464 30.067 21.5464C29.5125 21.5464 28.9636 21.4366 28.4517 21.2233C27.9399 21.0101 27.4754 20.6977 27.085 20.304L22.917 16.104C22.7078 15.8938 22.5656 15.6262 22.5084 15.3352C22.4512 15.0442 22.4816 14.7428 22.5957 14.469C22.7098 14.1952 22.9025 13.9614 23.1494 13.7972C23.3963 13.6329 23.6864 13.5455 23.983 13.546Z" fill="white"/>
<path d="M30.067 40.449C29.5121 40.4478 28.9626 40.5573 28.4505 40.7711C27.9385 40.9849 27.4743 41.2986 27.085 41.694L22.917 45.894C22.6365 46.1767 22.4798 46.5593 22.4814 46.9575C22.483 47.3558 22.6428 47.7371 22.9255 48.0175C23.2082 48.298 23.5907 48.4547 23.989 48.4531C24.3872 48.4515 24.7685 48.2917 25.049 48.009L29.217 43.809C29.328 43.6963 29.4603 43.6068 29.6062 43.5457C29.7522 43.4846 29.9088 43.4531 30.067 43.4531C30.2252 43.4531 30.3818 43.4846 30.5277 43.5457C30.6736 43.6068 30.806 43.6963 30.917 43.809L35.085 48.009C35.3654 48.2917 35.7467 48.4515 36.145 48.4531C36.5432 48.4547 36.9258 48.298 37.2085 48.0175C37.4912 47.7371 37.6509 47.3558 37.6525 46.9575C37.6541 46.5593 37.4974 46.1767 37.217 45.894L33.049 41.694C32.6597 41.2986 32.1954 40.9849 31.6834 40.7711C31.1714 40.5573 30.6218 40.4478 30.067 40.449Z" fill="white"/>
<path d="M14.046 38.585C14.4421 38.5849 14.822 38.4282 15.103 38.149L19.303 33.981C19.6968 33.5906 20.0094 33.126 20.2227 32.6141C20.436 32.1022 20.5458 31.5531 20.5458 30.9985C20.5458 30.4439 20.436 29.8949 20.2227 29.383C20.0094 28.8711 19.6968 28.4065 19.303 28.016L15.103 23.848C14.963 23.7092 14.797 23.5993 14.6146 23.5247C14.4321 23.45 14.2368 23.412 14.0396 23.4128C13.8425 23.4137 13.6474 23.4533 13.4656 23.5295C13.2838 23.6058 13.1188 23.717 12.98 23.857C12.8412 23.997 12.7313 24.163 12.6566 24.3454C12.582 24.5279 12.544 24.7232 12.5448 24.9204C12.5456 25.1175 12.5853 25.3126 12.6615 25.4944C12.7377 25.6762 12.849 25.8412 12.989 25.98L17.189 30.148C17.3017 30.259 17.3912 30.3913 17.4523 30.5373C17.5134 30.6832 17.5449 30.8398 17.5449 30.998C17.5449 31.1562 17.5134 31.3128 17.4523 31.4588C17.3912 31.6047 17.3017 31.737 17.189 31.848L12.989 36.016C12.7773 36.2252 12.6325 36.4927 12.5733 36.7844C12.514 37.0761 12.5429 37.3789 12.6563 37.6541C12.7696 37.9294 12.9623 38.1647 13.2097 38.3301C13.4572 38.4955 13.7483 38.5836 14.046 38.583V38.585Z" fill="white"/>
<path d="M45.954 38.585C46.2516 38.5856 46.5427 38.4975 46.7902 38.3321C47.0377 38.1667 47.2304 37.9314 47.3437 37.6561C47.4571 37.3809 47.4859 37.0781 47.4267 36.7864C47.3674 36.4947 47.2227 36.2272 47.011 36.018L42.811 31.85C42.6983 31.739 42.6088 31.6067 42.5477 31.4608C42.4866 31.3148 42.4551 31.1582 42.4551 31C42.4551 30.8418 42.4866 30.6852 42.5477 30.5393C42.6088 30.3933 42.6983 30.261 42.811 30.15L47.011 25.982C47.151 25.8431 47.2623 25.6781 47.3384 25.4962C47.4146 25.3143 47.4542 25.1192 47.455 24.922C47.4558 24.7248 47.4177 24.5294 47.343 24.347C47.2683 24.1645 47.1583 23.9985 47.0195 23.8585C46.8806 23.7185 46.7155 23.6073 46.5337 23.5311C46.3518 23.4549 46.1567 23.4153 45.9595 23.4145C45.7623 23.4137 45.5669 23.4517 45.3844 23.5265C45.202 23.6012 45.036 23.7111 44.896 23.85L40.696 28.018C40.3022 28.4085 39.9896 28.8731 39.7763 29.385C39.563 29.8969 39.4531 30.4459 39.4531 31.0005C39.4531 31.5551 39.563 32.1042 39.7763 32.6161C39.9896 33.128 40.3022 33.5926 40.696 33.983L44.896 38.151C45.1775 38.4297 45.5578 38.5857 45.954 38.585Z" fill="white"/>
<path d="M30.067 35.881C29.1014 35.8812 28.1574 35.595 27.3544 35.0587C26.5514 34.5224 25.9256 33.76 25.5559 32.868C25.1862 31.9759 25.0894 30.9943 25.2777 30.0472C25.4659 29.1001 25.9308 28.2301 26.6135 27.5473C27.2963 26.8644 28.1661 26.3993 29.1132 26.2109C30.0602 26.0224 31.0419 26.119 31.934 26.4885C32.8261 26.858 33.5887 27.4837 34.1252 28.2866C34.6616 29.0895 34.948 30.0334 34.948 30.999C34.9467 32.2932 34.432 33.534 33.517 34.4493C32.6019 35.3645 31.3612 35.8794 30.067 35.881Z" fill="white"/>
</svg>
