<svg width="60" height="60" viewBox="0 0 60 60" fill="none" xmlns="http://www.w3.org/2000/svg">
<path d="M30 56C44.3594 56 56 44.3594 56 30C56 15.6406 44.3594 4 30 4C15.6406 4 4 15.6406 4 30C4 44.3594 15.6406 56 30 56Z" fill="#7E0CF5"/>
<path d="M30.2503 38.8472C28.9497 38.847 27.6763 38.4743 26.5804 37.774C25.4845 37.0737 24.6114 36.0752 24.0647 34.8951C23.5181 33.715 23.3209 32.4026 23.4954 31.1138C23.67 29.825 24.2093 28.6129 25.0501 27.6207V24.7906C25.0506 23.6836 25.4904 22.6225 26.2728 21.8394C27.0551 21.0563 28.116 20.6154 29.2229 20.6138H31.2845C32.3914 20.6154 33.4523 21.0563 34.2347 21.8394C35.017 22.6225 35.4568 23.6836 35.4573 24.7906V27.6207C36.2982 28.6129 36.8375 29.825 37.012 31.1138C37.1866 32.4026 36.9893 33.715 36.4427 34.8951C35.896 36.0752 35.023 37.0737 33.927 37.774C32.8311 38.4743 31.5577 38.847 30.2571 38.8472H30.2503ZM30.2503 26.0005C31.2796 26.0017 32.291 26.2663 33.1897 26.7681C33.2508 26.8024 33.3199 26.8201 33.3899 26.8199C33.4602 26.8186 33.5291 26.8 33.5901 26.7652C33.6494 26.7293 33.6989 26.6782 33.7327 26.6177C33.7665 26.5573 33.784 26.4898 33.7835 26.4205V24.7906C33.7835 24.1275 33.5199 23.4919 33.0511 23.023C32.5822 22.5542 31.9465 22.2906 31.2835 22.2906H29.222C28.5589 22.2906 27.9232 22.5542 27.4544 23.023C26.9855 23.4919 26.722 24.1275 26.722 24.7906V26.4205C26.7222 26.4904 26.7416 26.5582 26.7767 26.6187C26.8118 26.6793 26.8616 26.7302 26.9222 26.7652C26.9834 26.7991 27.0524 26.8168 27.1224 26.817C27.19 26.8163 27.2569 26.7997 27.3167 26.7681C28.2133 26.2666 29.2229 26.0023 30.2503 26.0015V26.0005Z" fill="white" stroke="white" stroke-width="0.2"/>
<path d="M36.152 16.546C35.9538 16.5461 35.7575 16.5069 35.5746 16.4307C35.3916 16.3545 35.2255 16.2428 35.086 16.102L30.918 11.902C30.807 11.7893 30.6747 11.6998 30.5287 11.6387C30.3828 11.5776 30.2262 11.5461 30.068 11.5461C29.9098 11.5461 29.7532 11.5776 29.6072 11.6387C29.4613 11.6998 29.329 11.7893 29.218 11.902L25.05 16.102C24.9112 16.242 24.7462 16.3533 24.5643 16.4295C24.3825 16.5057 24.1875 16.5453 23.9904 16.5462C23.7932 16.547 23.5978 16.509 23.4154 16.4343C23.2329 16.3597 23.067 16.2498 22.927 16.111C22.787 15.9722 22.6757 15.8072 22.5995 15.6254C22.5233 15.4435 22.4836 15.2485 22.4828 15.0514C22.482 14.8542 22.52 14.6588 22.5946 14.4764C22.6693 14.2939 22.7792 14.128 22.918 13.988L27.086 9.78799C27.4765 9.39418 27.941 9.0816 28.4529 8.86828C28.9648 8.65496 29.5139 8.54514 30.0685 8.54514C30.6231 8.54514 31.1721 8.65496 31.684 8.86828C32.1959 9.0816 32.6605 9.39418 33.051 9.78799L37.219 13.988C37.4282 14.1982 37.5703 14.4658 37.6275 14.7568C37.6847 15.0478 37.6544 15.3492 37.5403 15.623C37.4262 15.8968 37.2335 16.1306 36.9866 16.2948C36.7396 16.4591 36.4496 16.5465 36.153 16.546H36.152Z" fill="white" stroke="#7E1EF5" stroke-width="0.5"/>
<path d="M30.067 50.455C29.5122 50.4563 28.9627 50.347 28.4507 50.1334C27.9387 49.9198 27.4744 49.6062 27.085 49.211L22.917 45.011C22.7782 44.871 22.6683 44.705 22.5937 44.5226C22.519 44.3401 22.481 44.1448 22.4818 43.9476C22.4835 43.5495 22.6433 43.1683 22.926 42.888C23.2087 42.6077 23.5912 42.4511 23.9894 42.4528C24.3875 42.4545 24.7687 42.6143 25.049 42.897L29.217 47.097C29.328 47.2097 29.4603 47.2992 29.6063 47.3603C29.7522 47.4214 29.9088 47.4529 30.067 47.4529C30.2252 47.4529 30.3818 47.4214 30.5278 47.3603C30.6737 47.2992 30.806 47.2097 30.917 47.097L35.085 42.897C35.3653 42.6143 35.7465 42.4545 36.1446 42.4528C36.5428 42.4511 36.9253 42.6077 37.208 42.888C37.4907 43.1683 37.6505 43.5495 37.6522 43.9476C37.6539 44.3458 37.4973 44.7283 37.217 45.011L33.049 49.211C32.6596 49.6062 32.1953 49.9198 31.6833 50.1334C31.1713 50.347 30.6218 50.4563 30.067 50.455Z" fill="white" stroke="#7E1EF5" stroke-width="0.5"/>
<path d="M16.046 37.585C15.6499 37.5849 15.2699 37.4282 14.989 37.149L10.789 32.981C10.3952 32.5905 10.0826 32.1259 9.86929 31.614C9.65597 31.1021 9.54614 30.5531 9.54614 29.9985C9.54614 29.4439 9.65597 28.8948 9.86929 28.3829C10.0826 27.871 10.3952 27.4065 10.789 27.016L14.989 22.848C15.129 22.7092 15.2949 22.5993 15.4774 22.5246C15.6599 22.45 15.8552 22.412 16.0524 22.4128C16.2495 22.4136 16.4445 22.4533 16.6264 22.5295C16.8082 22.6057 16.9732 22.717 17.112 22.857C17.2508 22.997 17.3607 23.1629 17.4353 23.3454C17.51 23.5278 17.548 23.7232 17.5472 23.9203C17.5464 24.1175 17.5067 24.3125 17.4305 24.4944C17.3543 24.6762 17.243 24.8412 17.103 24.98L12.903 29.148C12.7903 29.259 12.7008 29.3913 12.6397 29.5372C12.5786 29.6832 12.5471 29.8398 12.5471 29.998C12.5471 30.1562 12.5786 30.3128 12.6397 30.4587C12.7008 30.6047 12.7903 30.737 12.903 30.848L17.103 35.016C17.3147 35.2252 17.4594 35.4927 17.5187 35.7844C17.578 36.0761 17.5491 36.3789 17.4357 36.6541C17.3224 36.9294 17.1297 37.1647 16.8822 37.3301C16.6348 37.4955 16.3437 37.5835 16.046 37.583V37.585Z" fill="white" stroke="#7E1EF5" stroke-width="0.5"/>
<path d="M43.952 37.586C43.6543 37.5865 43.3632 37.4985 43.1157 37.3331C42.8683 37.1677 42.6756 36.9324 42.5622 36.6571C42.4489 36.3819 42.42 36.0791 42.4793 35.7874C42.5385 35.4957 42.6832 35.2282 42.895 35.019L47.095 30.851C47.2077 30.74 47.2972 30.6077 47.3583 30.4617C47.4194 30.3158 47.4509 30.1592 47.4509 30.001C47.4509 29.8428 47.4194 29.6862 47.3583 29.5402C47.2972 29.3943 47.2077 29.262 47.095 29.151L42.895 24.983C42.6123 24.7027 42.4525 24.3215 42.4508 23.9233C42.4491 23.5252 42.6056 23.1427 42.886 22.86C43.1663 22.5773 43.5475 22.4175 43.9456 22.4158C44.3437 22.4141 44.7263 22.5706 45.009 22.851L49.209 27.019C49.6028 27.4094 49.9154 27.874 50.1287 28.3859C50.342 28.8978 50.4518 29.4469 50.4518 30.0015C50.4518 30.556 50.342 31.1051 50.1287 31.617C49.9154 32.1289 49.6028 32.5935 49.209 32.984L45.009 37.152C44.7277 37.4304 44.3478 37.5864 43.952 37.586Z" fill="white" stroke="#7E1EF5" stroke-width="0.5"/>
</svg>
