<svg width="60" height="60" viewBox="0 0 60 60" fill="none" xmlns="http://www.w3.org/2000/svg">
<path d="M30 56C44.3594 56 56 44.3594 56 30C56 15.6406 44.3594 4 30 4C15.6406 4 4 15.6406 4 30C4 44.3594 15.6406 56 30 56Z" fill="#7E0CF5"/>
<path d="M24.669 36.124C24.669 35.9073 24.7334 35.6954 24.8541 35.5153C24.9747 35.3352 25.1462 35.195 25.3466 35.1125C25.5471 35.03 25.7675 35.0089 25.98 35.0519C26.1925 35.0949 26.3874 35.2001 26.54 35.354L29.223 38.065C29.3039 38.1471 29.4004 38.2123 29.5067 38.2568C29.6131 38.3013 29.7272 38.3242 29.8425 38.3242C29.9578 38.3242 30.0719 38.3013 30.1782 38.2568C30.2846 38.2123 30.381 38.1471 30.462 38.065L33.152 35.354C33.2526 35.2498 33.3729 35.1666 33.506 35.1092C33.639 35.0518 33.7821 35.0215 33.927 35.0199C34.0718 35.0183 34.2156 35.0454 34.3499 35.0998C34.4841 35.1542 34.6063 35.2348 34.7092 35.3367C34.8121 35.4387 34.8937 35.5601 34.9493 35.6939C35.0049 35.8277 35.0334 35.9712 35.0331 36.116C35.0328 36.2609 35.0037 36.4043 34.9476 36.5379C34.8914 36.6714 34.8093 36.7925 34.706 36.894L32.023 39.606C31.7386 39.8933 31.4001 40.1214 31.027 40.2771C30.654 40.4328 30.2537 40.5129 29.8495 40.5129C29.4452 40.5129 29.045 40.4328 28.6719 40.2771C28.2989 40.1214 27.9603 39.8933 27.676 39.606L24.986 36.894C24.7827 36.6894 24.6687 36.4125 24.669 36.124Z" fill="white"/>
<path d="M29.8932 38.6598L29.8925 30.9573" stroke="white" stroke-width="2.5" stroke-linecap="round"/>
<path d="M23.331 23.573C23.4551 23.6458 23.5961 23.6848 23.7399 23.6862C23.8838 23.6876 24.0255 23.6514 24.151 23.581C26.0155 22.54 28.1155 21.9934 30.251 21.9934C32.3865 21.9934 34.4864 22.54 36.351 23.581C36.4764 23.6513 36.618 23.6876 36.7618 23.6862C36.9056 23.6849 37.0465 23.6459 37.1706 23.5732C37.2946 23.5005 37.3975 23.3966 37.469 23.2718C37.5405 23.1471 37.578 23.0058 37.578 22.862V19.477C37.5751 18.1017 37.0275 16.7835 36.055 15.811C35.0825 14.8385 33.7643 14.2909 32.389 14.288H28.116C26.7407 14.2909 25.4225 14.8385 24.45 15.811C23.4775 16.7835 22.9299 18.1017 22.927 19.477V22.862C22.9266 23.0054 22.9637 23.1465 23.0346 23.2711C23.1054 23.3958 23.2076 23.4999 23.331 23.573ZM24.572 19.473C24.573 18.5342 24.9464 17.6341 25.6103 16.9703C26.2741 16.3065 27.1742 15.9331 28.113 15.932H32.386C33.3248 15.9331 34.2248 16.3065 34.8887 16.9703C35.5525 17.6341 35.9259 18.5342 35.927 19.473V21.528C34.1366 20.7451 32.2036 20.341 30.2495 20.341C28.2954 20.341 26.3624 20.7451 24.572 21.528V19.473Z" fill="white" stroke="white" stroke-width="0.7"/>
<path d="M41.048 25.352V19.478C41.0456 17.1821 40.1328 14.9809 38.5097 13.3571C36.8867 11.7333 34.6859 10.8195 32.39 10.816L28.113 10.816C25.8164 10.8184 23.6146 11.7318 21.9907 13.3557C20.3667 14.9796 19.4534 17.1814 19.451 19.478V25.353C17.707 27.4129 16.5884 29.9286 16.2272 32.6033C15.8661 35.2781 16.2774 38.0004 17.4126 40.449C18.5479 42.8977 20.3597 44.9706 22.6345 46.4233C24.9092 47.876 27.552 48.6479 30.251 48.6479C32.95 48.6479 35.5928 47.876 37.8675 46.4233C40.1422 44.9706 41.9541 42.8977 43.0893 40.449C44.2246 38.0004 44.6359 35.2781 44.2747 32.6033C43.9136 29.9286 42.795 27.4129 41.051 25.353L41.048 25.352ZM30.25 46.999C27.8411 47.0002 25.4832 46.3054 23.46 44.9981C21.4367 43.6908 19.8343 41.8268 18.8455 39.6302C17.8566 37.4337 17.5235 34.9982 17.8863 32.6168C18.249 30.2354 19.292 28.0096 20.89 26.207C21.0239 26.0563 21.0979 25.8617 21.098 25.66V19.478C21.1001 17.6187 21.8396 15.8361 23.1544 14.5214C24.4691 13.2067 26.2517 12.4671 28.111 12.465H32.39C34.2493 12.4671 36.0319 13.2067 37.3466 14.5214C38.6613 15.8361 39.4009 17.6187 39.403 19.478V25.66C39.4031 25.8617 39.4771 26.0563 39.611 26.207C41.209 28.0096 42.2521 30.2356 42.6147 32.6171C42.9774 34.9985 42.6443 37.4341 41.6553 39.6307C40.6664 41.8272 39.0638 43.6913 37.0404 44.9985C35.017 46.3057 32.6589 47.0004 30.25 46.999Z" fill="white" stroke="white" stroke-width="0.2"/>
</svg>
