<svg xmlns="http://www.w3.org/2000/svg" width="80.468" height="80.468" viewBox="0 0 80.468 80.468"><defs><style>.a,.c,.e,.f{fill:#fff;}.a{opacity:0;}.b{fill:#7e0cf5;opacity:0.75;}.d,.g{fill:none;stroke-linecap:round;}.d,.e,.f,.g{stroke:#fff;}.d{stroke-width:2.5px;}.e{stroke-width:0.7px;}.f{stroke-width:0.2px;}.g{stroke-width:3px;}</style></defs><rect class="a" width="80.468" height="80.468" transform="translate(0 0)"/><ellipse class="b" cx="31.852" cy="31.014" rx="31.852" ry="31.014" transform="translate(8.382 8.382)"/><g transform="translate(15.859 34.053)"><path class="c" d="M1.438,13.607A1.438,1.438,0,0,1,.425,11.149L3.989,7.618a1.143,1.143,0,0,0,0-1.629L.425,2.458A1.438,1.438,0,1,1,2.45.417L6.014,3.948a4.019,4.019,0,0,1,0,5.712L2.45,13.19A1.433,1.433,0,0,1,1.438,13.607Zm0,0" transform="translate(5.351 0)"/><path class="d" d="M7.157,0,0,7.157" transform="translate(5.061 1.681) rotate(45)"/></g><g transform="translate(33.224 15.25) rotate(11)"><path class="e" d="M.415,9.457a.839.839,0,0,0,.835.008,12.744,12.744,0,0,1,12.423,0,.839.839,0,0,0,1.25-.732V5.285A5.291,5.291,0,0,0,9.637,0H5.285A5.291,5.291,0,0,0,0,5.285V8.732A.839.839,0,0,0,.415,9.457ZM1.679,5.285A3.61,3.61,0,0,1,5.285,1.679H9.637a3.61,3.61,0,0,1,3.606,3.606V7.378a14.432,14.432,0,0,0-11.565,0Z" transform="translate(6.951 3.536)"/><path class="f" d="M25.409,14.8V8.821A8.832,8.832,0,0,0,16.588,0H12.236A8.832,8.832,0,0,0,3.414,8.821V14.8a14.412,14.412,0,1,0,22,0Zm-11,22.046a12.732,12.732,0,0,1-9.53-21.176.839.839,0,0,0,.211-.557v-6.3a7.151,7.151,0,0,1,7.143-7.143h4.352A7.151,7.151,0,0,1,23.73,8.821v6.3a.839.839,0,0,0,.211.557,12.732,12.732,0,0,1-9.53,21.176Z" transform="translate(0 0)"/></g><line class="g" x2="31.539" transform="translate(21.683 56.317)"/></svg>