<svg xmlns="http://www.w3.org/2000/svg" width="98" height="98" viewBox="0 0 98 98"><defs><style>.a{fill:none;}.b{fill:#7e0cf5;}.c{fill:#fff;stroke:#fff;stroke-width:0.5px;}</style></defs><g transform="translate(-178 -80)"><rect class="a" width="98" height="98" transform="translate(178 80)"/><circle class="b" cx="42" cy="42" r="42" transform="translate(185 87)"/><g transform="translate(199.009 99.029)"><path class="c" d="M48.241,52.32H32.889a37.254,37.254,0,0,0-2.427-11.4,26.942,26.942,0,0,0-6.233-9.308,6.823,6.823,0,0,0,.326-1.62c.059-.758.051-2.122-.665-2.743a3.016,3.016,0,0,0-2.326-.36,6.36,6.36,0,0,0-2.877-2.965,6.85,6.85,0,0,0-5.52-.3l-3.5-5.538-.006-.01a1.567,1.567,0,0,0-2.879.976c0,.017,0,.033,0,.049L8.073,29.422c-.267.14-.534.289-.8.448C1.935,33.045-1.2,38.471.434,41.718c1.355,2.7,4.869,3.933,8.991,3.262V55.534a9.375,9.375,0,0,0,7.065,15.539H48.242a9.377,9.377,0,1,0,0-18.753Zm-17.616,0h-5.18l-3.381-16.5q-.007-.035-.017-.07c-.083-.3-.222-.776-.384-1.294a4.4,4.4,0,0,0,1.318-.875,24.269,24.269,0,0,1,5.35,8.092A35.439,35.439,0,0,1,30.625,52.32ZM17.691,25.955a4.015,4.015,0,0,1,1.691,1.652,4.609,4.609,0,0,0-1.3,1.019l-.088.1a6.952,6.952,0,0,0-2.115-.806L14.412,25.6A4.656,4.656,0,0,1,17.691,25.955Zm-3.729,3.169a7.011,7.011,0,0,1-1.677.859,7.072,7.072,0,0,1-1.807.457L9.42,21.93ZM2.454,40.7c-.512-1.019,0-3.007,1.573-5.065l3.741,7.245c-2.515.122-4.554-.666-5.315-2.18Zm8.914,16.055a1.13,1.13,0,0,0,.317-.785V43.585a1.131,1.131,0,0,0-1.416-1.094q-.535.14-1.057.23L4.981,34.528a16.287,16.287,0,0,1,3.447-2.715l.029-.017a1.9,1.9,0,0,0,1.858.918,8.183,8.183,0,0,0,2.765-.614,9.447,9.447,0,0,0,2.181-1.125,3.553,3.553,0,0,0,.724-.686,4.367,4.367,0,0,1,1.556.9,1.131,1.131,0,0,0,1.8-.394,2.654,2.654,0,0,1,.446-.692A3.932,3.932,0,0,1,22.3,29.081a3.933,3.933,0,0,1-.658,2.633,1.836,1.836,0,0,1-1.391.76,1.131,1.131,0,0,0-1.128,1.494c.28.821.588,1.825.731,2.346l3.559,17.363a1.13,1.13,0,0,0,1.107.9H48.242A7.124,7.124,0,0,1,55.357,61.7c0,.2-45.984,0-45.984,0a7.08,7.08,0,0,1,2-4.938ZM48.241,68.813H16.489A7.127,7.127,0,0,1,9.65,63.655H55.081A7.127,7.127,0,0,1,48.241,68.813Z" transform="translate(-0.001 -17.365)"/><circle class="c" cx="1.131" cy="1.131" r="1.131" transform="translate(11.91 17.796)"/></g></g></svg>