<svg width="60" height="60" viewBox="0 0 60 60" fill="none" xmlns="http://www.w3.org/2000/svg">
<path d="M30 56C44.3594 56 56 44.3594 56 30C56 15.6406 44.3594 4 30 4C15.6406 4 4 15.6406 4 30C4 44.3594 15.6406 56 30 56Z" fill="#7E0CF5"/>
<path d="M42.398 33.052H32.998C32.8719 30.6621 32.3704 28.307 31.512 26.073C30.6533 23.9267 29.3532 21.9847 27.696 20.373C27.8026 20.0517 27.8698 19.7186 27.896 19.381C27.9475 19.0882 27.9379 18.7879 27.8678 18.499C27.7978 18.2101 27.6688 17.9387 27.489 17.702C27.2778 17.572 27.0427 17.4859 26.7975 17.4488C26.5523 17.4117 26.3022 17.4243 26.062 17.486C25.6933 16.7019 25.0736 16.0632 24.301 15.671C23.7818 15.4074 23.2134 15.2549 22.632 15.223C22.0506 15.1912 21.4689 15.2807 20.924 15.486L18.783 12.096V12.09C18.6666 11.9108 18.4938 11.7756 18.292 11.7057C18.0901 11.6358 17.8707 11.6353 17.6684 11.7041C17.4662 11.773 17.2927 11.9073 17.1755 12.0859C17.0582 12.2645 17.0038 12.4771 17.021 12.69C17.021 12.7 17.021 12.71 17.021 12.72L17.806 19.035C17.643 19.121 17.479 19.212 17.316 19.309C14.047 21.251 12.13 24.573 13.128 26.561C13.958 28.213 16.109 28.969 18.628 28.561V35.023C17.9038 35.854 17.4342 36.876 17.2754 37.9668C17.1165 39.0576 17.2751 40.1711 17.7322 41.1742C18.1893 42.1772 18.9255 43.0275 19.8529 43.6233C20.7803 44.2191 21.8597 44.5353 22.962 44.534H42.402C43.9246 44.534 45.3848 43.9292 46.4615 42.8525C47.5381 41.7759 48.143 40.3156 48.143 38.793C48.143 37.2704 47.5381 35.8102 46.4615 34.7335C45.3848 33.6569 43.9246 33.052 42.402 33.052H42.398ZM31.613 33.052H28.441L26.371 22.952C26.371 22.9373 26.3677 22.923 26.361 22.909C26.31 22.723 26.225 22.434 26.126 22.116C26.4252 21.9876 26.6986 21.806 26.933 21.58C28.3469 22.9941 29.4608 24.6791 30.208 26.534C31.0075 28.6213 31.4797 30.8195 31.608 33.051L31.613 33.052ZM23.694 16.91C24.1331 17.1356 24.4941 17.4883 24.73 17.922C24.4278 18.08 24.1568 18.2914 23.93 18.546L23.876 18.61C23.4742 18.376 23.0367 18.2095 22.581 18.117L21.681 16.695C22.3557 16.5179 23.0719 16.5944 23.694 16.91ZM21.411 18.85C21.0939 19.0708 20.7484 19.2477 20.384 19.376C20.029 19.5178 19.6567 19.612 19.277 19.656L18.629 14.446L21.411 18.85ZM14.362 25.94C14.049 25.316 14.362 24.099 15.325 22.84L17.616 27.276C16.076 27.35 14.828 26.869 14.362 25.941V25.94ZM19.82 35.77C19.9464 35.6406 20.0171 35.4669 20.017 35.286V27.704C20.0171 27.5982 19.9929 27.4937 19.9463 27.3987C19.8997 27.3037 19.8319 27.2207 19.7481 27.156C19.6644 27.0912 19.5669 27.0466 19.4632 27.0255C19.3595 27.0043 19.2524 27.0072 19.15 27.034C18.9313 27.0913 18.7157 27.1383 18.503 27.175L15.912 22.159C16.5372 21.5124 17.2469 20.9533 18.022 20.497L18.04 20.487C18.1548 20.6809 18.3234 20.8373 18.5255 20.9371C18.7275 21.0369 18.9542 21.0758 19.178 21.049C19.7599 21.023 20.3328 20.8958 20.871 20.673C21.3443 20.5031 21.7934 20.2721 22.207 19.986C22.3737 19.8675 22.5228 19.7261 22.65 19.566C23.0026 19.6822 23.3272 19.8705 23.603 20.119C23.6847 20.1928 23.7829 20.2461 23.8893 20.2744C23.9958 20.3026 24.1074 20.3051 24.215 20.2815C24.3226 20.2579 24.423 20.209 24.5079 20.1388C24.5927 20.0687 24.6596 19.9792 24.703 19.878C24.7714 19.7233 24.8635 19.5803 24.976 19.454C25.3979 19.0689 25.9431 18.8463 26.514 18.826C26.5761 19.3938 26.4343 19.9651 26.114 20.438C26.0157 20.5743 25.8882 20.6867 25.7408 20.7672C25.5933 20.8477 25.4297 20.8941 25.262 20.903C25.1491 20.8973 25.0364 20.9193 24.934 20.9671C24.8315 21.0149 24.7423 21.0872 24.6743 21.1775C24.6062 21.2677 24.5613 21.3733 24.5434 21.485C24.5256 21.5967 24.5354 21.711 24.572 21.818C24.743 22.318 24.932 22.935 25.02 23.255L27.199 33.886C27.231 34.0422 27.316 34.1825 27.4395 34.2833C27.563 34.384 27.7176 34.439 27.877 34.439H42.398C43.5532 34.4401 44.6608 34.8994 45.4777 35.7163C46.2946 36.5332 46.7539 37.6408 46.755 38.796C46.755 38.921 18.602 38.796 18.602 38.796C18.6004 37.6677 19.0388 36.5832 19.824 35.773L19.82 35.77ZM42.395 43.15H22.962C22.0162 43.1487 21.0965 42.8401 20.3413 42.2707C19.5861 41.7013 19.0364 40.9019 18.775 39.993H46.585C46.3232 40.9017 45.7734 41.7007 45.0183 42.2699C44.2632 42.8391 43.3436 43.1476 42.398 43.149L42.395 43.15Z" fill="white" stroke="white" stroke-width="0.5"/>
<path d="M20.847 23.93C21.2292 23.93 21.539 23.6202 21.539 23.238C21.539 22.8558 21.2292 22.546 20.847 22.546C20.4648 22.546 20.155 22.8558 20.155 23.238C20.155 23.6202 20.4648 23.93 20.847 23.93Z" fill="white" stroke="white" stroke-width="0.5"/>
</svg>
