<svg width="60" height="60" viewBox="0 0 60 60" fill="none" xmlns="http://www.w3.org/2000/svg">
<path d="M30 56C44.3594 56 56 44.3594 56 30C56 15.6406 44.3594 4 30 4C15.6406 4 4 15.6406 4 30C4 44.3594 15.6406 56 30 56Z" fill="#7E0CF5"/>
<path d="M29.9998 42.0002C27.2236 41.9999 24.5334 41.037 22.3875 39.2756C20.2417 37.5142 18.7727 35.0629 18.2313 32.34C17.6899 29.6171 18.1099 26.7913 19.4188 24.343C20.7276 21.8947 22.8451 19.9756 25.41 18.9133C27.9749 17.851 30.8285 17.7108 33.4852 18.5168C36.1418 19.3227 38.437 21.0249 39.9793 23.3332C41.5217 25.6415 42.2153 28.4131 41.9432 31.176C41.6711 33.9388 40.4501 36.5224 38.4871 38.4855C37.3752 39.6036 36.0523 40.4896 34.5955 41.093C33.1387 41.6963 31.5766 42.0047 29.9998 42.0002ZM29.9998 20.0002C28.022 20.0002 26.0886 20.5869 24.4442 21.6857C22.7997 22.7845 21.5174 24.3458 20.7606 26.173C20.0037 28.0003 19.8064 30.0115 20.1922 31.9514C20.5781 33.8912 21.53 35.673 22.9285 37.0715C24.3271 38.47 26.1088 39.422 28.0486 39.8078C29.9885 40.1937 31.9997 39.9963 33.827 39.2394C35.6542 38.4826 37.2155 37.2003 38.3143 35.5559C39.4131 33.9114 39.9998 31.978 39.9998 30.0002C39.9964 27.3491 38.9418 24.8074 37.0672 22.9328C35.1926 21.0582 32.6509 20.0036 29.9998 20.0002Z" fill="white"/>
<path d="M16.3 16.164C16.2998 16.2781 16.3336 16.3896 16.397 16.4845C16.4604 16.5793 16.5506 16.6531 16.6561 16.6966C16.7616 16.74 16.8777 16.751 16.9895 16.7283C17.1013 16.7056 17.2038 16.6501 17.284 16.569L18.7 15.139C18.7425 15.0957 18.7933 15.0613 18.8492 15.0378C18.9052 15.0144 18.9653 15.0023 19.026 15.0023C19.0867 15.0023 19.1468 15.0144 19.2027 15.0378C19.2587 15.0613 19.3095 15.0957 19.352 15.139L20.761 16.569C20.8684 16.6773 21.0145 16.7386 21.167 16.7392C21.3196 16.7399 21.4661 16.6799 21.5745 16.5725C21.6828 16.4651 21.7441 16.319 21.7447 16.1665C21.7454 16.0139 21.6854 15.8673 21.578 15.759L20.165 14.333C20.0155 14.182 19.8375 14.0622 19.6414 13.9804C19.4453 13.8986 19.235 13.8565 19.0225 13.8565C18.81 13.8565 18.5997 13.8986 18.4036 13.9804C18.2075 14.0622 18.0295 14.182 17.88 14.333L16.467 15.759C16.3599 15.8665 16.2998 16.0122 16.3 16.164Z" fill="white"/>
<path d="M19.0431 30.7822L19.0442 15.4009" stroke="white" stroke-width="2.00022" stroke-linecap="round"/>
<path d="M38.264 44.467C38.264 44.3531 38.2979 44.2418 38.3612 44.1472C38.4246 44.0526 38.5147 43.9789 38.62 43.9355C38.7253 43.8921 38.8411 43.881 38.9527 43.9035C39.0643 43.926 39.1668 43.9812 39.247 44.062L40.66 45.492C40.7025 45.5353 40.7533 45.5697 40.8092 45.5932C40.8652 45.6166 40.9253 45.6287 40.986 45.6287C41.0467 45.6287 41.1068 45.6166 41.1628 45.5932C41.2187 45.5697 41.2695 45.5353 41.312 45.492L42.724 44.062C42.8314 43.9536 42.9775 43.8924 43.13 43.8918C43.2826 43.8911 43.4292 43.9511 43.5375 44.0585C43.6458 44.1659 43.7071 44.312 43.7077 44.4645C43.7084 44.6171 43.6484 44.7636 43.541 44.872L42.128 46.298C41.9785 46.449 41.8005 46.5688 41.6044 46.6506C41.4083 46.7324 41.198 46.7745 40.9855 46.7745C40.773 46.7745 40.5627 46.7324 40.3666 46.6506C40.1705 46.5688 39.9925 46.449 39.843 46.298L38.43 44.872C38.3233 44.7643 38.2636 44.6186 38.264 44.467Z" fill="white"/>
<path d="M41.0163 29.8545L41.013 45.235" stroke="white" stroke-width="2.00022" stroke-linecap="round"/>
<path d="M44.201 16.264C44.0869 16.2638 43.9753 16.2976 43.8805 16.361C43.7857 16.4244 43.7119 16.5146 43.6684 16.6201C43.625 16.7256 43.6139 16.8417 43.6367 16.9535C43.6594 17.0653 43.7148 17.1678 43.796 17.248L45.226 18.664C45.2693 18.7065 45.3037 18.7572 45.3272 18.8132C45.3506 18.8692 45.3627 18.9293 45.3627 18.99C45.3627 19.0507 45.3506 19.1108 45.3272 19.1667C45.3037 19.2227 45.2693 19.2734 45.226 19.316L43.796 20.725C43.6877 20.8324 43.6264 20.9784 43.6258 21.131C43.6251 21.2836 43.6851 21.4301 43.7925 21.5385C43.8999 21.6468 44.046 21.7081 44.1985 21.7087C44.3511 21.7094 44.4977 21.6494 44.606 21.542L46.032 20.129C46.183 19.9795 46.3028 19.8015 46.3846 19.6054C46.4664 19.4093 46.5085 19.1989 46.5085 18.9865C46.5085 18.774 46.4664 18.5636 46.3846 18.3675C46.3028 18.1714 46.183 17.9935 46.032 17.844L44.606 16.431C44.4984 16.3239 44.3528 16.2638 44.201 16.264Z" fill="white"/>
<path d="M29.5828 19.0071L44.9641 19.0082" stroke="white" stroke-width="2.00022" stroke-linecap="round"/>
<path d="M15.898 38.264C16.0119 38.264 16.1232 38.2979 16.2178 38.3612C16.3124 38.4246 16.3861 38.5147 16.4295 38.62C16.4729 38.7253 16.484 38.8411 16.4615 38.9527C16.439 39.0643 16.3838 39.1668 16.303 39.247L14.873 40.66C14.8297 40.7025 14.7953 40.7533 14.7718 40.8092C14.7484 40.8652 14.7363 40.9253 14.7363 40.986C14.7363 41.0467 14.7484 41.1068 14.7718 41.1628C14.7953 41.2187 14.8297 41.2695 14.873 41.312L16.303 42.724C16.4113 42.8314 16.4726 42.9775 16.4732 43.13C16.4739 43.2826 16.4139 43.4292 16.3065 43.5375C16.1991 43.6458 16.053 43.7071 15.9005 43.7077C15.7479 43.7084 15.6013 43.6484 15.493 43.541L14.067 42.128C13.916 41.9785 13.7962 41.8005 13.7144 41.6044C13.6326 41.4083 13.5905 41.198 13.5905 40.9855C13.5905 40.773 13.6326 40.5627 13.7144 40.3666C13.7962 40.1705 13.916 39.9925 14.067 39.843L15.493 38.43C15.6007 38.3233 15.7464 38.2636 15.898 38.264Z" fill="white"/>
<path d="M30.5105 41.0163L15.13 41.013" stroke="white" stroke-width="2.00022" stroke-linecap="round"/>
</svg>
