<svg width="60" height="60" viewBox="0 0 60 60" fill="none" xmlns="http://www.w3.org/2000/svg">
<path d="M30 56C44.3594 56 56 44.3594 56 30C56 15.6406 44.3594 4 30 4C15.6406 4 4 15.6406 4 30C4 44.3594 15.6406 56 30 56Z" fill="#7E0CF5"/>
<path d="M46.8 24.72C46.5048 24.72 46.2217 24.8373 46.013 25.046C45.8043 25.2547 45.687 25.5378 45.687 25.833V27.333H44.426C44.401 27.333 44.377 27.333 44.352 27.333V23.88C44.352 23.5848 44.2347 23.3017 44.026 23.093C43.8173 22.8843 43.5342 22.767 43.239 22.767C42.9438 22.767 42.6607 22.8843 42.452 23.093C42.2433 23.3017 42.126 23.5848 42.126 23.88V23.94C41.1373 23.1784 39.924 22.7659 38.676 22.767H36.34V19.044C36.34 18.7488 36.2227 18.4657 36.014 18.257C35.8053 18.0483 35.5222 17.931 35.227 17.931H32.655V14.17C32.655 13.8748 32.5377 13.5917 32.329 13.383C32.1203 13.1743 31.8372 13.057 31.542 13.057H29.342C29.3247 12.7677 29.1952 12.4965 28.9809 12.3013C28.7667 12.106 28.4847 12.0022 28.195 12.0118C27.9053 12.0215 27.6308 12.1439 27.43 12.3529C27.2292 12.562 27.118 12.8411 27.12 13.131V15.21C27.118 15.4999 27.2292 15.779 27.43 15.9881C27.6308 16.1971 27.9053 16.3195 28.195 16.3292C28.4847 16.3388 28.7667 16.235 28.9809 16.0397C29.1952 15.8445 29.3247 15.5733 29.342 15.284H30.434V17.931H28.904C28.6948 17.9317 28.49 17.9914 28.3131 18.1031C28.1362 18.2149 27.9944 18.3743 27.904 18.563L25.888 22.763H18.423C16.9178 22.763 15.4742 23.361 14.4098 24.4253C13.3455 25.4897 12.7475 26.9333 12.7475 28.4385C12.7475 29.9437 13.3455 31.3873 14.4098 32.4517C15.4742 33.516 16.9178 34.114 18.423 34.114H38.677C39.925 34.1151 41.1383 33.7026 42.127 32.941V33.001C42.127 33.2962 42.2443 33.5793 42.453 33.788C42.6617 33.9967 42.9448 34.114 43.24 34.114C43.5352 34.114 43.8183 33.9967 44.027 33.788C44.2357 33.5793 44.353 33.2962 44.353 33.001V29.548C44.378 29.548 44.402 29.548 44.427 29.548H45.688V31.048C45.688 31.3432 45.8053 31.6263 46.014 31.835C46.2227 32.0437 46.5058 32.161 46.801 32.161C47.0962 32.161 47.3793 32.0437 47.588 31.835C47.7967 31.6263 47.914 31.3432 47.914 31.048V25.829C47.9129 25.5343 47.7951 25.2521 47.5862 25.0442C47.3774 24.8363 47.0947 24.7197 46.8 24.72ZM29.6 20.157H34.114V22.77H28.348L29.6 20.157ZM38.677 31.892H18.423C17.508 31.892 16.6305 31.5285 15.9835 30.8815C15.3365 30.2345 14.973 29.357 14.973 28.442C14.973 27.527 15.3365 26.6495 15.9835 26.0025C16.6305 25.3555 17.508 24.992 18.423 24.992H38.677C39.592 24.992 40.4695 25.3555 41.1165 26.0025C41.7635 26.6495 42.127 27.527 42.127 28.442C42.127 29.357 41.7635 30.2345 41.1165 30.8815C40.4695 31.5285 39.592 31.892 38.677 31.892Z" fill="white"/>
<path d="M23.5 29.5C24.3284 29.5 25 28.8284 25 28C25 27.1716 24.3284 26.5 23.5 26.5C22.6716 26.5 22 27.1716 22 28C22 28.8284 22.6716 29.5 23.5 29.5Z" fill="white"/>
<path d="M29.5 29.5C30.3284 29.5 31 28.8284 31 28C31 27.1716 30.3284 26.5 29.5 26.5C28.6716 26.5 28 27.1716 28 28C28 28.8284 28.6716 29.5 29.5 29.5Z" fill="white"/>
<path d="M35.5 29.5C36.3284 29.5 37 28.8284 37 28C37 27.1716 36.3284 26.5 35.5 26.5C34.6716 26.5 34 27.1716 34 28C34 28.8284 34.6716 29.5 35.5 29.5Z" fill="white"/>
<path d="M24.468 41.676C24.4682 41.9029 24.5357 42.1247 24.662 42.3132C24.7883 42.5017 24.9677 42.6485 25.1775 42.7349C25.3873 42.8214 25.6181 42.8436 25.8405 42.7987C26.063 42.7539 26.2671 42.644 26.427 42.483L29.241 39.643C29.3258 39.5567 29.427 39.4881 29.5386 39.4412C29.6502 39.3944 29.77 39.3703 29.891 39.3703C30.012 39.3703 30.1319 39.3944 30.2435 39.4412C30.3551 39.4881 30.4562 39.5567 30.541 39.643L33.353 42.483C33.4584 42.5924 33.5845 42.6798 33.724 42.74C33.8634 42.8003 34.0135 42.8322 34.1654 42.8339C34.3173 42.8356 34.468 42.8071 34.6088 42.7501C34.7496 42.693 34.8776 42.6086 34.9855 42.5016C35.0933 42.3946 35.1788 42.2672 35.237 42.1269C35.2952 41.9866 35.3249 41.8361 35.3244 41.6841C35.3239 41.5322 35.2932 41.3819 35.2341 41.242C35.1749 41.1021 35.0886 40.9753 34.98 40.869L32.168 38.029C31.8704 37.7279 31.516 37.4888 31.1253 37.3256C30.7346 37.1624 30.3154 37.0784 29.892 37.0784C29.4686 37.0784 29.0494 37.1624 28.6588 37.3256C28.2681 37.4888 27.9136 37.7279 27.616 38.029L24.8 40.869C24.5869 41.0835 24.4675 41.3737 24.468 41.676Z" fill="white"/>
<path d="M29.939 39.026V47.087" stroke="white" stroke-width="2.5" stroke-linecap="round"/>
</svg>
