<svg width="60" height="60" viewBox="0 0 60 60" fill="none" xmlns="http://www.w3.org/2000/svg">
<path d="M30 56C44.3594 56 56 44.3594 56 30C56 15.6406 44.3594 4 30 4C15.6406 4 4 15.6406 4 30C4 44.3594 15.6406 56 30 56Z" fill="#7E0CF5"/>
<path d="M25.5 16.75H12.5C12.3619 16.75 12.25 16.8619 12.25 17V34.147C12.25 34.2851 12.3619 34.397 12.5 34.397H25.5C25.6381 34.397 25.75 34.2851 25.75 34.147V17C25.75 16.8619 25.6381 16.75 25.5 16.75Z" stroke="white" stroke-width="1.5"/>
<path d="M25.5 27.147H12.5C11.9477 27.147 11.5 27.5947 11.5 28.147V34.147C11.5 34.6993 11.9477 35.147 12.5 35.147H25.5C26.0523 35.147 26.5 34.6993 26.5 34.147V28.147C26.5 27.5947 26.0523 27.147 25.5 27.147Z" fill="white"/>
<path d="M25.5 27.647H12.5C12.2239 27.647 12 27.8709 12 28.147V34.147C12 34.4231 12.2239 34.647 12.5 34.647H25.5C25.7761 34.647 26 34.4231 26 34.147V28.147C26 27.8709 25.7761 27.647 25.5 27.647Z" stroke="white"/>
<path d="M48.2 21.5H39.2C38.9239 21.5 38.7 21.7239 38.7 22V30C38.7 30.2761 38.9239 30.5 39.2 30.5H48.2C48.4762 30.5 48.7 30.2761 48.7 30V22C48.7 21.7239 48.4762 21.5 48.2 21.5Z" stroke="white" stroke-linejoin="round"/>
<path d="M48.2 25H39.2C38.6477 25 38.2 25.4477 38.2 26V30C38.2 30.5523 38.6477 31 39.2 31H48.2C48.7523 31 49.2 30.5523 49.2 30V26C49.2 25.4477 48.7523 25 48.2 25Z" fill="white"/>
<path d="M18.287 31.886V36.668C18.096 40.978 21.732 46.416 29.347 46.416C34.606 46.539 44.498 47.374 44.498 36.668V25.5" stroke="white" stroke-width="3"/>
</svg>
