<svg xmlns="http://www.w3.org/2000/svg" width="102" height="101" viewBox="0 0 102 101"><defs><style>.a{opacity:0.5;}.b{fill:none;}.c{fill:#7e0cf5;}.d{fill:#fff;stroke:#fff;stroke-width:0.5px;}</style></defs><g class="a" transform="translate(0.255)"><rect class="b" width="102" height="101" transform="translate(-0.255)"/><circle class="c" cx="44" cy="44" r="44" transform="translate(6.745 7)"/><g transform="translate(21.714 19.668)"><path class="d" d="M49.86,53.493H33.993a38.5,38.5,0,0,0-2.508-11.781,27.847,27.847,0,0,0-6.442-9.621,7.052,7.052,0,0,0,.337-1.674c.061-.783.053-2.193-.688-2.835a3.117,3.117,0,0,0-2.4-.372,6.573,6.573,0,0,0-2.974-3.065,7.079,7.079,0,0,0-5.705-.306L9.995,18.116l-.007-.01a1.62,1.62,0,0,0-2.975,1.008c0,.017,0,.034.005.051L8.344,29.826c-.276.145-.552.3-.828.463C2,33.571-1.237,39.179.448,42.535c1.4,2.789,5.033,4.065,9.293,3.371V56.815a9.689,9.689,0,0,0,7.3,16.061H49.86a9.691,9.691,0,1,0,0-19.383Zm-18.207,0H26.3L22.8,36.444q-.007-.037-.017-.073c-.086-.314-.23-.8-.4-1.338a4.545,4.545,0,0,0,1.362-.9,25.083,25.083,0,0,1,5.529,8.363,36.628,36.628,0,0,1,2.372,11ZM18.285,26.244a4.15,4.15,0,0,1,1.748,1.708A4.763,4.763,0,0,0,18.688,29l-.091.108a7.186,7.186,0,0,0-2.185-.833l-1.516-2.4A4.812,4.812,0,0,1,18.285,26.244Zm-3.854,3.276a7.246,7.246,0,0,1-1.733.888,7.31,7.31,0,0,1-1.868.472l-1.094-8.8ZM2.536,41.487c-.529-1.053,0-3.108,1.626-5.235L8.029,43.74c-2.6.126-4.707-.688-5.493-2.253ZM11.75,58.081a1.168,1.168,0,0,0,.328-.811v-12.8a1.169,1.169,0,0,0-1.464-1.131q-.553.145-1.093.238L5.148,35.1A16.833,16.833,0,0,1,8.711,32.3l.03-.018a1.962,1.962,0,0,0,1.921.949,8.458,8.458,0,0,0,2.858-.635,9.764,9.764,0,0,0,2.254-1.163,3.672,3.672,0,0,0,.749-.709,4.513,4.513,0,0,1,1.608.934,1.168,1.168,0,0,0,1.863-.407,2.743,2.743,0,0,1,.46-.715,4.064,4.064,0,0,1,2.6-1.06,4.065,4.065,0,0,1-.681,2.721,1.9,1.9,0,0,1-1.438.786,1.168,1.168,0,0,0-1.166,1.544c.289.849.607,1.886.756,2.425L24.2,54.9a1.168,1.168,0,0,0,1.145.934H49.86a7.363,7.363,0,0,1,7.355,7.355c0,.21-47.527,0-47.527,0a7.318,7.318,0,0,1,2.062-5.1ZM49.86,70.539H17.043a7.366,7.366,0,0,1-7.069-5.33H56.929A7.366,7.366,0,0,1,49.86,70.539Z" transform="translate(-0.001 -17.365)"/><circle class="d" cx="1.169" cy="1.169" r="1.169" transform="translate(12.31 18.393)"/></g></g></svg>