<svg width="60" height="60" viewBox="0 0 60 60" fill="none" xmlns="http://www.w3.org/2000/svg">
<path d="M30 56C44.3594 56 56 44.3594 56 30C56 15.6406 44.3594 4 30 4C15.6406 4 4 15.6406 4 30C4 44.3594 15.6406 56 30 56Z" fill="#7E0CF5"/>
<path d="M24.878 14.75H14.5C14.3619 14.75 14.25 14.8619 14.25 15V28.801C14.25 28.9391 14.3619 29.051 14.5 29.051H24.878C25.0161 29.051 25.128 28.9391 25.128 28.801V15C25.128 14.8619 25.0161 14.75 24.878 14.75Z" stroke="white" stroke-width="1.5"/>
<path d="M24.878 23.199H14.5C13.9477 23.199 13.5 23.6467 13.5 24.199V28.801C13.5 29.3533 13.9477 29.801 14.5 29.801H24.878C25.4303 29.801 25.878 29.3533 25.878 28.801V24.199C25.878 23.6467 25.4303 23.199 24.878 23.199Z" fill="white"/>
<path d="M24.878 23.699H14.5C14.2239 23.699 14 23.9229 14 24.199V28.801C14 29.0771 14.2239 29.301 14.5 29.301H24.878C25.1541 29.301 25.378 29.0771 25.378 28.801V24.199C25.378 23.9229 25.1541 23.699 24.878 23.699Z" stroke="white"/>
<path d="M46.611 18.626H39.534C39.2579 18.626 39.034 18.8499 39.034 19.126V25.378C39.034 25.6541 39.2579 25.878 39.534 25.878H46.611C46.8871 25.878 47.111 25.6541 47.111 25.378V19.126C47.111 18.8499 46.8871 18.626 46.611 18.626Z" stroke="white" stroke-linejoin="round"/>
<path d="M46.611 21.427H39.534C38.9817 21.427 38.534 21.8747 38.534 22.427V25.378C38.534 25.9303 38.9817 26.378 39.534 26.378H46.611C47.1633 26.378 47.611 25.9303 47.611 25.378V22.427C47.611 21.8747 47.1633 21.427 46.611 21.427Z" fill="white"/>
<path d="M42.691 33.102C43.2903 32.1587 43.6478 31.0823 43.732 29.968C43.83 28.4432 43.83 26.9138 43.732 25.389V23.255" stroke="white" stroke-width="3" stroke-linecap="round"/>
<path d="M19.101 27.11V31.056C19.0999 32.4645 19.4826 33.8468 20.2079 35.0542C20.9333 36.2616 21.9739 37.2485 23.218 37.909" stroke="white" stroke-width="3" stroke-linecap="round"/>
<path d="M40.197 35.914C40.0106 35.9904 39.8589 36.1327 39.7707 36.3138C39.6826 36.495 39.6642 36.7022 39.719 36.896C40.1927 37.8409 40.4245 38.8886 40.3938 39.9452C40.3631 41.0017 40.0708 42.0342 39.543 42.95H28.473C27.7869 41.7598 27.5027 40.3801 27.6625 39.0157C27.8223 37.6512 28.4175 36.3745 29.36 35.375C30.2011 34.494 31.2744 33.869 32.4558 33.5722C33.6371 33.2754 34.8784 33.3191 36.036 33.698C36.2222 33.7672 36.4264 33.7712 36.6152 33.7093C36.8039 33.6473 36.966 33.5231 37.075 33.357C37.14 33.2765 37.1861 33.1824 37.2097 33.0816C37.2333 32.9809 37.2339 32.8761 37.2114 32.7751C37.1889 32.6741 37.144 32.5794 37.0798 32.4982C37.0157 32.417 36.9341 32.3513 36.841 32.306C35.3026 31.7288 33.6237 31.6401 32.0331 32.0519C30.4424 32.4636 29.0175 33.3559 27.9524 34.6071C26.8874 35.8582 26.2341 37.4073 26.0815 39.0433C25.929 40.6793 26.2846 42.3225 27.1 43.749C27.2394 43.9905 27.4396 44.1914 27.6806 44.3317C27.9216 44.4721 28.1951 44.547 28.474 44.549H39.536C39.8176 44.5498 40.0944 44.4762 40.3385 44.3357C40.5825 44.1953 40.7852 43.9929 40.926 43.749C41.5823 42.5984 41.9451 41.3038 41.9823 39.9796C42.0194 38.6555 41.7298 37.3426 41.139 36.157C41.047 36.0017 40.8978 35.8886 40.7234 35.8419C40.5491 35.7952 40.3634 35.8185 40.206 35.907L40.197 35.914ZM32.882 40.882C33.182 41.1812 33.5883 41.3493 34.012 41.3493C34.4357 41.3493 34.8421 41.1812 35.142 40.882L39.663 34.101L32.882 38.621C32.5828 38.9209 32.4147 39.3273 32.4147 39.751C32.4147 40.1747 32.5828 40.581 32.882 40.881V40.882Z" fill="white"/>
</svg>
