<svg xmlns="http://www.w3.org/2000/svg" width="45.11" height="40.786" viewBox="0 0 45.11 40.786">
    <defs>
        <style>
            .cls-1{fill:#7e0cf5}
        </style>
    </defs>
    <g id="ic-cookies" transform="translate(-.001 -43.152)">
        <g id="Group_892" transform="translate(.001 43.152)">
            <path id="Path_7727" d="M10.98 66.83c0-.336.02-.666.05-.992-4.66-1.358-8.108-4.43-8.108-8 0-.692.02-1.889.055-2 1.062 2.631 5.041 4.725 9.687 5.472L15 57.569a9.209 9.209 0 0 1 1.869-2.15 10.4 10.4 0 0 1 2.405-1.513 12.933 12.933 0 0 1 3.487-1.006 1.092 1.092 0 0 1-.21-.641 1.1 1.1 0 1 1 2.095.481c.155-.005.306-.005.461-.005a20.8 20.8 0 0 1 7.512 1.493c-.035-6.109-7.326-11.075-16.306-11.075-9 0-16.306 5-16.306 11.13L0 59.157c0 4.941 4.756 9.12 11.315 10.553a12.509 12.509 0 0 1-.335-2.88zM21.674 46.4a1.1 1.1 0 1 1-1.1 1.1 1.112 1.112 0 0 1 1.1-1.1zm-4.31 3.758a1.1 1.1 0 1 1-1.1 1.1 1.112 1.112 0 0 1 1.1-1.101zm-4.089-2.541a1.1 1.1 0 1 1-1.1 1.1 1.112 1.112 0 0 1 1.1-1.1zm-2.54 5.083a1.1 1.1 0 1 1-1.1 1.1 1.112 1.112 0 0 1 1.1-1.1zm-3.092-2.988a1.1 1.1 0 1 1-1.1 1.1 1.112 1.112 0 0 1 1.1-1.1z" class="cls-1" transform="translate(-.001 -43.152)"/>
            <path id="Path_7728" d="M272.633 267.619a23.6 23.6 0 0 0-3.378-1.759 19.565 19.565 0 0 0-7.512-1.609c-3.833 0-7.111 1.393-8.835 4.134l-1.969 3.142-.621.992a7.99 7.99 0 0 0-1.183 3.7 10.7 10.7 0 0 0 .451 3.8c1.123 3.819 4.189 7.747 8.649 10.548a21 21 0 0 0 10.919 3.388c3.808 0 7.056-1.383 8.769-4.114.025-.04 2.511-4 2.6-4.144 3.26-5.197-.268-13.297-7.89-18.078zm-.085 11.776a1.1 1.1 0 1 1-1.1-1.1 1.112 1.112 0 0 1 1.1 1.105zm-1.438-8.063a1.1 1.1 0 1 1-1.1 1.1 1.112 1.112 0 0 1 1.1-1.099zm-4.745 5.3a1.1 1.1 0 1 1-1.107-1.1 1.127 1.127 0 0 1 1.107 1.1zm1.543-4.53a1.1 1.1 0 1 1-1.1-1.1 1.112 1.112 0 0 1 1.1 1.098zm-5.3-3.974a1.119 1.119 0 0 1 1.022.692 1.045 1.045 0 0 1 .085.416 1.1 1.1 0 0 1-2.01.616 1.065 1.065 0 0 1-.2-.621 1.1 1.1 0 0 1 1.101-1.1zm13.565 19.047c-2.566 4.094-9.987 4.064-15.99.3a17.563 17.563 0 0 1-6.6-7.221 10.17 10.17 0 0 1-.967-3.653 6.168 6.168 0 0 1 .872-3.653c.256-.406.651-1.017.9-1.378a1.783 1.783 0 0 1 .215-.286c-.015.09-.03.18-.04.276a8.116 8.116 0 0 0 1.353 4.811 18.252 18.252 0 0 0 2.486 3.257 23.068 23.068 0 0 0 4.435 3.623c5.146 3.227 11.551 4.34 14.432 2.255-.006-.006-.727 1.086-1.098 1.672zm.907-9.661a1.1 1.1 0 1 1-1.1-1.1 1.112 1.112 0 0 1 1.098 1.102z" class="cls-1" transform="translate(-236.628 -253.172)"/>
        </g>
    </g>
</svg>
