<svg xmlns="http://www.w3.org/2000/svg" xmlns:xlink="http://www.w3.org/1999/xlink" width="40" height="40" viewBox="0 0 40 40"><defs><style>.a{opacity:0;}.b{opacity:0.6;}.c{fill:#f0f0f0;stroke:#f0f0f0;stroke-width:2px;}.d{filter:url(#c);}.e{filter:url(#a);}</style><filter id="a" x="0.82" y="0.82" width="24.76" height="38.206" filterUnits="userSpaceOnUse"><feOffset input="SourceAlpha"/><feGaussianBlur stdDeviation="2" result="b"/><feFlood flood-opacity="0.302"/><feComposite operator="in" in2="b"/><feComposite in="SourceGraphic"/></filter><filter id="c" x="10.587" y="6.82" width="28.52" height="26.103" filterUnits="userSpaceOnUse"><feOffset input="SourceAlpha"/><feGaussianBlur stdDeviation="2" result="d"/><feFlood flood-opacity="0.302"/><feComposite operator="in" in2="d"/><feComposite in="SourceGraphic"/></filter></defs><rect class="a" width="40" height="40" rx="8"/><g class="b" transform="translate(7.82 7.82)"><g class="e" transform="matrix(1, 0, 0, 1, -7.82, -7.82)"><path class="c" d="M9.932,23.039H2.483a.932.932,0,0,1-.828-1.009V3.876a.932.932,0,0,1,.828-1.009H9.932a.931.931,0,0,0,.828-1.009A.931.931,0,0,0,9.932.85H2.483A2.8,2.8,0,0,0,0,3.876V22.03a2.8,2.8,0,0,0,2.483,3.026H9.932a1.028,1.028,0,0,0,0-2.017Z" transform="translate(7.82 6.97)"/></g><g class="d" transform="matrix(1, 0, 0, 1, -7.82, -7.82)"><path class="c" d="M184.351,112.553l-5.49-5.142a.937.937,0,0,0-1.277.009.826.826,0,0,0,.009,1.212l3.924,3.675H171a.858.858,0,1,0,0,1.714h10.514l-3.924,3.675a.826.826,0,0,0-.009,1.212.937.937,0,0,0,1.277.009l5.49-5.142a.826.826,0,0,0,0-1.22Z" transform="translate(-152.51 -93.24)"/></g></g></svg>