<svg xmlns="http://www.w3.org/2000/svg" width="72" height="72" viewBox="0 0 72 72">
    <defs>
        <style>
            .cls-1{fill:#7e0cf5}
        </style>
    </defs>
    <g id="ic-humanas" transform="translate(-1039 -356)">
        <g id="ic" transform="translate(19543.371 15997.268)">
            <g id="Group_585" transform="translate(-18494.371 -15633.268)">
                <path id="Path_6464" d="M190.665 49.924c0-1.726.025-3.453-.006-5.179a12.806 12.806 0 0 1 2.3-7.6 20.6 20.6 0 0 0 3.368-8.91 21.229 21.229 0 0 0-41.555-8.275 20.219 20.219 0 0 0-.668 5.045 20.766 20.766 0 0 1-1.823 8.544c-.7 1.574-1.352 3.174-2.024 4.762-.319.754-.261.872.506 1.087.871.242 1.743.484 2.61.734a2.756 2.756 0 0 1 2.095 2.34q.7 4.283 1.341 8.577a2.232 2.232 0 0 0 2.3 2.118c2.548.023 5.1.052 7.644-.008a5.276 5.276 0 0 0 5.333-5.2c.062-.851.568-1.387 1.284-1.36s1.171.591 1.162 1.454a7.708 7.708 0 0 1-7.075 7.49c-2.93.152-5.876.111-8.811.025a4.625 4.625 0 0 1-4.243-4.241c-.242-2.161-.662-4.3-1-6.451-.091-.567-.221-1.132-.269-1.7-.043-.5-.306-.7-.76-.81-.894-.218-1.787-.451-2.665-.732a2.814 2.814 0 0 1-1.815-3.933c.759-1.864 1.533-3.721 2.344-5.563a16.436 16.436 0 0 0 1.388-6.758 23.661 23.661 0 0 1 46.955-4.143 22.878 22.878 0 0 1-3.456 17.025 11.83 11.83 0 0 0-2.027 6.841c.056 3.678.011 7.357.008 11.035a3.449 3.449 0 0 1-.025.553 1.2 1.2 0 0 1-1.252 1.038 1.172 1.172 0 0 1-1.144-1.149c-.027-.965-.013-1.931-.013-2.9v-3.761" class="cls-1" transform="translate(-147.629 -1.733)"/>
                <g id="Group_584" transform="translate(14.102 9.685)">
                    <path id="Path_6465" d="M179.284 26.46a4.065 4.065 0 0 0-3.349 2.232 4.14 4.14 0 0 0 3.023 6c.367.063.5-.041.623-.371a4.232 4.232 0 0 1 3.841-2.852c.7-.026 1.144.306 1.192.9.05.616-.344 1.025-1.058 1.095a2.318 2.318 0 0 0 .156 4.634c.712.015 1.425 0 2.137.014a4.438 4.438 0 0 1 4.417 4.357c.035.949.017 1.9 0 2.849a1 1 0 0 1-1.013 1.1 1.011 1.011 0 0 1-1-1.115c-.014-.9 0-1.8-.006-2.7a2.4 2.4 0 0 0-2.37-2.478c-.711-.035-1.424-.008-2.137-.016a4.279 4.279 0 0 1-4.209-2.995.526.526 0 0 0-.546-.4 6.139 6.139 0 0 1-.326-12.175 1.458 1.458 0 0 0 1.3-1.015 6.6 6.6 0 0 1 5.547-4 6.668 6.668 0 0 1 6.446 2.992 1.056 1.056 0 0 0 .891.516 6.1 6.1 0 0 1 5.775 6.385.99.99 0 0 0 .4.9 5.262 5.262 0 1 1-8.462 5.5c-.123-.424-.258-.629-.755-.669a3.607 3.607 0 0 1-2.536-1.351 1.039 1.039 0 0 1-.025-1.536 1.013 1.013 0 0 1 1.513.2 1.951 1.951 0 0 0 2.018.654 1.8 1.8 0 0 0 1.367-1.37 3.623 3.623 0 0 0 .049-.906 1 1 0 0 1 .926-1.117 1.006 1.006 0 0 1 1.048.958 3.814 3.814 0 0 1-1.472 3.685.585.585 0 0 0-.294.626 3.273 3.273 0 0 0 2.67 2.535 3.23 3.23 0 0 0 2.875-5.426c-.081.109-.158.216-.239.32a1 1 0 0 1-1.346.32.976.976 0 0 1-.347-1.373 4.325 4.325 0 0 0 .609-2.378 4.115 4.115 0 0 0-4.5-3.958 1.328 1.328 0 0 1-1.488-.836 4.883 4.883 0 0 0-5.207-2.647 4.938 4.938 0 0 0-4.06 4.206 9.08 9.08 0 0 0-.023 1.32.988.988 0 1 1-1.97.145c-.031-.23-.053-.462-.087-.756" class="cls-1" transform="translate(-173.461 -19.475)"/>
                    <path id="Path_6466" d="M196.506 34.106a1.884 1.884 0 0 0-1.206-1.921 1.942 1.942 0 0 0-2.234.634c-.516.591-1.178.662-1.621.174a1.014 1.014 0 0 1-.073-1.268 3.941 3.941 0 0 1 7.134 2.8 1 1 0 0 1-2-.165v-.254" class="cls-1" transform="translate(-181.509 -24.274)"/>
                </g>
            </g>
        </g>
        <path id="area" fill="none" d="M0 0H72V72H0z" transform="translate(1039 356)"/>
    </g>
</svg>
