<svg xmlns="http://www.w3.org/2000/svg" width="68.963" height="52.297" viewBox="0 0 68.963 52.297">
    <defs>
        <linearGradient id="linear-gradient" x1=".5" x2=".5" y1="-3.438" y2="1.814" gradientUnits="objectBoundingBox">
            <stop offset="0" stop-color="#d14fc5"/>
            <stop offset="1" stop-color="#8121eb"/>
        </linearGradient>
        <clipPath id="clip-path">
            <path id="Path_6520" fill="#7e0cf5" stroke="#fff" stroke-miterlimit="10" stroke-width="2px" d="M505.188 19.677h-24.439a8.133 8.133 0 0 0-8.133 8.133V52.4a4.037 4.037 0 0 1-3.99 4.037l-7.613.089a8.132 8.132 0 0 0 8.132 8.133h36.043a8.133 8.133 0 0 0 8.133-8.133V27.81a8.133 8.133 0 0 0-8.133-8.133z" transform="translate(472.643 496.637)"/>
        </clipPath>
        <filter id="Rectangle_971" width="182" height="182" x="-57" y="-51" filterUnits="userSpaceOnUse">
            <feOffset/>
            <feGaussianBlur result="blur" stdDeviation="6"/>
            <feFlood flood-opacity=".161"/>
            <feComposite in2="blur" operator="in"/>
            <feComposite in="SourceGraphic"/>
        </filter>
        <style>
            .cls-2{fill:#fefaff}
        </style>
    </defs>
    <g id="ic-lang" transform="translate(18213.09 15629.421)">
        <path id="Path_6458" d="M461.482 7.654a6.064 6.064 0 0 1 6.057 6.057v28.718a6.065 6.065 0 0 1-6.057 6.058h-24.439a6.065 6.065 0 0 1-6.058-6.058V13.712a6.064 6.064 0 0 1 6.058-6.057h24.439m0-2.075h-24.439a8.133 8.133 0 0 0-8.133 8.133v28.716a8.133 8.133 0 0 0 8.133 8.133h24.439a8.133 8.133 0 0 0 8.133-8.133V13.712a8.133 8.133 0 0 0-8.133-8.133" class="cls-2" transform="translate(-18642 -15635)"/>
        <path id="Path_6459" d="M468.508 45.329l-8.727-23.123-.017-.043a2.1 2.1 0 0 0-1.953-1.308 2.1 2.1 0 0 0-1.952 1.312l-.015.036-8.806 23.122a1.58 1.58 0 1 0 2.952 1.124l1.806-4.741h11.969l1.788 4.737a1.58 1.58 0 0 0 2.957-1.116M453 38.548l4.809-12.625 4.764 12.625z" class="cls-2" transform="translate(-18650.672 -15642.352)"/>
        <path id="Path_6460" d="M468.508 45.329l-8.727-23.123-.017-.043a2.1 2.1 0 0 0-1.953-1.308 2.1 2.1 0 0 0-1.952 1.312l-.015.036-8.806 23.122a1.58 1.58 0 1 0 2.952 1.124l1.806-4.741h11.969l1.788 4.737a1.58 1.58 0 0 0 2.957-1.116zM453 38.548l4.809-12.625 4.764 12.625z" class="cls-2" transform="translate(-18650.672 -15642.352)"/>
        <g id="Mask_Group_3" clip-path="url(#clip-path)" transform="translate(-19130.09 -16138.421)">
            <g filter="url(#Rectangle_971)" transform="translate(917 509)">
                <rect id="Rectangle_971-2" width="146" height="146" fill="url(#linear-gradient)" rx="12" transform="translate(-39 -33)"/>
            </g>
        </g>
        <path id="Path_6463" d="M521.983 41.372h-10.016v-3.617a1.579 1.579 0 1 0-3.159 0v3.617h-10.017a1.58 1.58 0 0 0 0 3.159h17.274a18.036 18.036 0 0 1-3.363 7.511 22.865 22.865 0 0 1-2.056 2.417 20.949 20.949 0 0 1-5.482-6.074 1.58 1.58 0 1 0-2.757 1.542 23.668 23.668 0 0 0 5.848 6.66 23.336 23.336 0 0 1-5.88 3.308 1.58 1.58 0 1 0 1.139 2.947 26.42 26.42 0 0 0 7.405-4.341 21.682 21.682 0 0 0 4.822 2.382 1.58 1.58 0 0 0 .955-3.012 17.208 17.208 0 0 1-3.4-1.608 26.032 26.032 0 0 0 1.954-2.347 20.646 20.646 0 0 0 4.009-9.384h2.727a1.58 1.58 0 0 0 0-3.159" class="cls-2" transform="translate(-18674.865 -15649.723)"/>
        <g id="Path_6462" fill="none" stroke="none" stroke-miterlimit="10">
            <path d="M505.188 19.677h-24.439a8.133 8.133 0 0 0-8.133 8.133V52.4a4.037 4.037 0 0 1-3.99 4.037l-7.613.089a8.132 8.132 0 0 0 8.132 8.133h36.043a8.133 8.133 0 0 0 8.133-8.133V27.81a8.133 8.133 0 0 0-8.133-8.133z" transform="translate(-18657.447 -15641.784)"/>
            <path fill="#fff" d="M480.749 21.677c-3.382 0-6.133 2.751-6.133 6.133v24.592c0 3.29-2.676 5.998-5.966 6.036l-5.311.062c.823 2.417 3.115 4.16 5.806 4.16h36.043c3.381 0 6.132-2.751 6.132-6.133V27.81c0-3.382-2.75-6.133-6.132-6.133h-24.439m0-2h24.439c4.491 0 8.132 3.641 8.132 8.133v28.717c0 4.492-3.641 8.133-8.132 8.133h-36.043c-4.492 0-8.132-3.641-8.132-8.133l7.613-.089c2.211-.026 3.99-1.825 3.99-4.036V27.81c0-4.492 3.641-8.133 8.133-8.133z" transform="translate(-18657.447 -15641.784)"/>
        </g>
    </g>
</svg>
