<svg xmlns="http://www.w3.org/2000/svg" width="72" height="72" viewBox="0 0 72 72">
    <defs>
        <style>
            .cls-1{fill:#7e0cf5}
        </style>
    </defs>
    <g id="ic-lang" transform="translate(-1039 -539)">
        <g id="ic" transform="translate(19254.09 16178.421)">
            <path id="Path_6458" d="M461.482 7.62a6.016 6.016 0 0 1 6.057 5.959v28.252a6.016 6.016 0 0 1-6.057 5.96h-24.439a6.016 6.016 0 0 1-6.058-5.96V13.58a6.016 6.016 0 0 1 6.058-5.959h24.439m0-2.041h-24.439a8.068 8.068 0 0 0-8.133 8v28.251a8.068 8.068 0 0 0 8.133 8h24.439a8.068 8.068 0 0 0 8.133-8V13.58a8.068 8.068 0 0 0-8.133-8" class="cls-1" transform="translate(-18642 -15635)"/>
            <path id="Path_6459" d="M468.508 45.329l-8.727-23.123-.017-.043a2.1 2.1 0 0 0-1.953-1.308 2.1 2.1 0 0 0-1.952 1.312l-.015.036-8.806 23.122a1.58 1.58 0 1 0 2.952 1.124l1.806-4.741h11.969l1.788 4.737a1.58 1.58 0 0 0 2.957-1.116M453 38.548l4.809-12.625 4.764 12.625z" class="cls-1" transform="translate(-18650.672 -15642.577)"/>
            <path id="Path_6460" fill="none" stroke="#fff" stroke-miterlimit="10" stroke-width="0.5px" d="M468.508 45.329l-8.727-23.123-.017-.043a2.1 2.1 0 0 0-1.953-1.308 2.1 2.1 0 0 0-1.952 1.312l-.015.036-8.806 23.122a1.58 1.58 0 1 0 2.952 1.124l1.806-4.741h11.969l1.788 4.737a1.58 1.58 0 0 0 2.957-1.116zM453 38.548l4.809-12.625 4.764 12.625z" transform="translate(-18650.672 -15642.577)"/>
            <path id="Path_6461" fill="#fefaff" d="M505.188 19.677h-24.439a8.068 8.068 0 0 0-8.133 8V51.87a4 4 0 0 1-3.99 3.971l-7.613.087a8.067 8.067 0 0 0 8.132 8h36.043a8.068 8.068 0 0 0 8.133-8v-28.25a8.068 8.068 0 0 0-8.133-8" transform="translate(-18658.41 -15641.784)"/>
            <g id="Path_6462" fill="none" stroke="none" stroke-miterlimit="10">
                <path d="M505.188 19.677h-24.439a8.068 8.068 0 0 0-8.133 8V51.87a4 4 0 0 1-3.99 3.971l-7.613.087a8.067 8.067 0 0 0 8.132 8h36.043a8.068 8.068 0 0 0 8.133-8v-28.25a8.068 8.068 0 0 0-8.133-8.001z" transform="translate(-18658.41 -15641.784)"/>
                <path fill="#7e0cf5" d="M480.749 21.677c-3.382 0-6.133 2.692-6.133 6V51.87c0 3.255-2.676 5.933-5.967 5.971l-5.295.061c.835 2.343 3.116 4.028 5.791 4.028h36.043c3.381 0 6.132-2.692 6.132-6.001V27.678c0-3.31-2.75-6.001-6.132-6.001h-24.439m0-2h24.439c4.491 0 8.132 3.582 8.132 8V55.93c0 4.419-3.641 8-8.132 8h-36.043c-4.492 0-8.132-3.581-8.132-8l7.613-.088c2.211-.025 3.99-1.796 3.99-3.97V27.677c0-4.419 3.641-8.001 8.133-8.001z" transform="translate(-18658.41 -15641.784)"/>
            </g>
            <path id="Path_6463" d="M521.983 41.372h-10.016v-3.617a1.579 1.579 0 1 0-3.159 0v3.617h-10.017a1.58 1.58 0 0 0 0 3.159h17.274a18.036 18.036 0 0 1-3.363 7.511 22.865 22.865 0 0 1-2.056 2.417 20.949 20.949 0 0 1-5.482-6.074 1.58 1.58 0 1 0-2.757 1.542 23.668 23.668 0 0 0 5.848 6.66 23.336 23.336 0 0 1-5.88 3.308 1.58 1.58 0 1 0 1.139 2.947 26.42 26.42 0 0 0 7.405-4.341 21.682 21.682 0 0 0 4.822 2.382 1.58 1.58 0 0 0 .955-3.012 17.208 17.208 0 0 1-3.4-1.608 26.032 26.032 0 0 0 1.954-2.347 20.646 20.646 0 0 0 4.009-9.384h2.727a1.58 1.58 0 0 0 0-3.159" class="cls-1" transform="translate(-18675.828 -15650.177)"/>
        </g>
        <path id="area" fill="none" d="M0 0H72V72H0z" transform="translate(1039 539)"/>
    </g>
</svg>
