<svg xmlns="http://www.w3.org/2000/svg" id="ic-Notification" width="37.04" height="37.04" viewBox="0 0 37.04 37.04">
    <defs>
        <style>
            .cls-2{fill:#ffffff}
        </style>
    </defs>
    <g id="notifications-24px_1_">
        <path id="Path_6431" fill="none" d="M0 0h37.04v37.04H0z"/>
        <path id="Path_6432" d="M16.347 32.595a3.085 3.085 0 0 0 3.067-2.639c.045-.312-.17-.438-.422-.448h-5.28c-.321.013-.382.163-.418.452a3.021 3.021 0 0 0 3.053 2.635z" class="cls-2" transform="translate(2.173 1.358)"/>
        <path id="Path_6438" d="M1325.466-1057.535h-10.9a1.52 1.52 0 0 1-1.329-.726 1.29 1.29 0 0 1-.129-1.234 4.186 4.186 0 0 1 .793-1.121 4.764 4.764 0 0 0 1.5-3.163v-6.1a10.8 10.8 0 0 1 1.854-6.036 8.553 8.553 0 0 1 4.438-3.44c.676-.2.889-.481.99-1.328a2.345 2.345 0 0 1 1.858-2.25v-.039a2.639 2.639 0 0 1 .363-.025h.2a2.568 2.568 0 0 1 .363.025v.039a2.345 2.345 0 0 1 1.858 2.25c.1.846.314 1.131.99 1.328a8.551 8.551 0 0 1 4.438 3.441 10.8 10.8 0 0 1 1.854 6.035v6.1a4.765 4.765 0 0 0 1.5 3.163 4.165 4.165 0 0 1 .793 1.121 1.293 1.293 0 0 1-.128 1.234 1.522 1.522 0 0 1-1.33.726zm4.471-3.086a1.524 1.524 0 0 0 1.178-.4 1.1 1.1 0 0 0 .255-.83v-8.026a7.355 7.355 0 0 0-1.725-4.909 6.121 6.121 0 0 0-4.645-2.036 6.122 6.122 0 0 0-4.645 2.036 7.36 7.36 0 0 0-1.725 4.909v8.026a1.1 1.1 0 0 0 .255.83 1.527 1.527 0 0 0 1.178.4h9.875z" class="cls-2" transform="translate(-1306.504 1086.544)"/>
    </g>
</svg>
