<svg xmlns="http://www.w3.org/2000/svg" width="54.719" height="41.3" viewBox="0 0 54.719 41.3"><defs><style>.a{fill:#7e0cf5;stroke:#fff;stroke-width:2px;}</style></defs><g transform="translate(-29.938 -33.376)"><g transform="translate(30.938 34.376)"><path class="a" d="M250.131,63.033l-14.1-13.1a7.44,7.44,0,0,0-9.967,0,6.225,6.225,0,0,0,0,9.262l9.115,8.47-9.115,8.47a6.225,6.225,0,0,0,0,9.262,7.43,7.43,0,0,0,9.967,0l14.1-13.1a6.225,6.225,0,0,0,0-9.262Z" transform="translate(-199.478 -48.016)"/><path class="a" d="M26.008,63.033l-14.032-13.1a7.379,7.379,0,0,0-9.921,0,6.245,6.245,0,0,0,0,9.262l9.072,8.47-9.072,8.47a6.245,6.245,0,0,0,0,9.262,7.227,7.227,0,0,0,4.96,1.919,7.227,7.227,0,0,0,4.96-1.919L26.008,72.3a6.245,6.245,0,0,0,0-9.262Z" transform="translate(0 -48.016)"/></g></g></svg>