<svg xmlns="http://www.w3.org/2000/svg" width="72" height="72" viewBox="0 0 72 72">
    <defs>
        <style>
            .cls-1{fill:#7e0cf5}
        </style>
    </defs>
    <g id="ic-sci" transform="translate(-1039 -725)">
        <g id="ic" transform="translate(19406.223 16366.767)">
            <g id="Group_587" transform="translate(-18357.223 -15633.767)">
                <path id="Path_6467" d="M327.284 42.588a3.7 3.7 0 1 1-3.7 3.7 3.7 3.7 0 0 1 3.7-3.7" class="cls-1" transform="translate(-300.662 -18.285)"/>
                <path id="Path_6468" d="M342.029 86.353a3.941 3.941 0 1 1-3.941 3.941 3.941 3.941 0 0 1 3.941-3.941" class="cls-1" transform="translate(-309.234 -40.281)"/>
                <path id="Path_6469" d="M332.331 27.548a3.625 3.625 0 0 0 3.479-6.071c-.059-.059-.122-.113-.187-.167a7.253 7.253 0 0 0-.447-5.712c-1.965-3.407-7.127-4.523-14.21-3.113-2.327-6.838-5.876-10.752-9.8-10.752s-7.477 3.913-9.806 10.752c-7.083-1.411-12.244-.294-14.209 3.112a7.256 7.256 0 0 0-.476 5.588 3.627 3.627 0 0 0 3.294 6.325c.486.646 1.018 1.3 1.591 1.955-4.759 5.431-6.373 10.459-4.41 13.862 1.411 2.446 4.465 3.715 8.7 3.715a28.633 28.633 0 0 0 5.512-.6c2.329 6.84 5.879 10.754 9.807 10.754a7.294 7.294 0 0 0 5.1-2.4 3.625 3.625 0 0 0 4.019-5.883c-.058-.059-.124-.109-.187-.163.308-.726.6-1.5.879-2.31a28.606 28.606 0 0 0 5.509.6c4.231 0 7.286-1.269 8.7-3.715 1.966-3.4.35-8.431-4.409-13.861.553-.631 1.074-1.272 1.562-1.918m1.428-11.134a5.5 5.5 0 0 1 .378 4.118 3.625 3.625 0 0 0-3.459 6.075c.059.06.122.113.185.168q-.57.742-1.2 1.473a49.518 49.518 0 0 0-6.534-5.692 50.118 50.118 0 0 0-1.657-8.5c6.172-1.193 10.737-.333 12.291 2.362zm-10.44 8.355a46.253 46.253 0 0 1 5.224 4.7 46.262 46.262 0 0 1-5.224 4.7c.116-1.545.177-3.118.177-4.7s-.061-3.15-.177-4.7m-1.46 4.7c0 2.029-.1 4.046-.3 6.008-1.587 1.142-3.284 2.241-5.058 3.265-1.755 1.014-3.554 1.936-5.351 2.751-1.8-.816-3.6-1.737-5.352-2.751-1.773-1.024-3.469-2.122-5.058-3.265-.2-1.961-.3-3.978-.3-6.008s.1-4.046.3-6.007c1.587-1.142 3.284-2.241 5.058-3.265 1.755-1.014 3.554-1.936 5.351-2.751 1.8.815 3.6 1.737 5.352 2.751 1.773 1.024 3.469 2.122 5.058 3.265.2 1.961.3 3.979.3 6.007m-.556-8.19c-1.274-.868-2.6-1.708-3.978-2.5s-2.757-1.523-4.156-2.2a46.88 46.88 0 0 1 6.682-2.172 46.8 46.8 0 0 1 1.452 6.871m-10.151-17.9c3.106 0 6.137 3.524 8.2 9.466a50.237 50.237 0 0 0-8.2 2.808 50.248 50.248 0 0 0-8.2-2.808c2.061-5.942 5.091-9.466 8.2-9.466m-8.7 11.03a46.853 46.853 0 0 1 6.682 2.172c-1.4.675-2.789 1.409-4.154 2.2s-2.707 1.635-3.98 2.5a46.838 46.838 0 0 1 1.452-6.874m-11.076 12.274l.078-.071a3.625 3.625 0 0 0-3.287-6.116 5.438 5.438 0 0 1 .386-4.072c1.555-2.7 6.119-3.557 12.292-2.363a50.05 50.05 0 0 0-1.657 8.5 49.454 49.454 0 0 0-6.535 5.686q-.684-.788-1.277-1.567m7.607 7.481a46.207 46.207 0 0 1-5.224-4.7 46.3 46.3 0 0 1 5.224-4.7c-.116 1.544-.177 3.118-.177 4.7s.061 3.15.177 4.7m-10.429 8.349c-1.552-2.692-.016-7.077 4.1-11.829a49.487 49.487 0 0 0 6.533 5.689 50 50 0 0 0 1.657 8.5c-6.173 1.192-10.737.332-12.292-2.363m12.446-4.856c1.274.868 2.605 1.708 3.98 2.5s2.754 1.522 4.154 2.2a46.886 46.886 0 0 1-6.683 2.172 46.87 46.87 0 0 1-1.452-6.871m13.1 13.45v.015a3.615 3.615 0 0 0 .832 2.687 5.5 5.5 0 0 1-3.777 1.749c-3.107 0-6.137-3.524-8.2-9.465a50.26 50.26 0 0 0 8.2-2.808 50.266 50.266 0 0 0 8.2 2.808q-.343.987-.719 1.885a3.63 3.63 0 0 0-1.828-.011m3.048-3.438a46.892 46.892 0 0 1-6.682-2.172c1.4-.675 2.788-1.409 4.153-2.2s2.707-1.635 3.978-2.5a46.87 46.87 0 0 1-1.452 6.871zm13.9-2.016c-1.555 2.7-6.12 3.557-12.292 2.363a50.07 50.07 0 0 0 1.657-8.5 49.449 49.449 0 0 0 6.528-5.689c4.118 4.752 5.654 9.137 4.1 11.829z" class="cls-1" transform="translate(-285.008 -1.462)"/>
                <path id="Path_6470" d="M310.933 57.233c-3.985 0-7.617-3.9-9.986-10.712a28.99 28.99 0 0 1-5.33.562c-4.393 0-7.482-1.331-8.935-3.85-1.992-3.453-.43-8.546 4.285-14-.475-.549-.924-1.1-1.337-1.645a3.923 3.923 0 0 1-4.022-1.377 3.9 3.9 0 0 1 .528-5.358 7.465 7.465 0 0 1 .547-5.624c1.993-3.456 7.186-4.65 14.264-3.288 2.369-6.811 6-10.711 9.986-10.711s7.616 3.9 9.983 10.711c7.077-1.362 12.271-.167 14.264 3.289a7.44 7.44 0 0 1 .517 5.754l.073.069a3.9 3.9 0 0 1-2.756 6.653 3.949 3.949 0 0 1-.805-.086c-.418.547-.858 1.088-1.312 1.613 4.715 5.452 6.278 10.545 4.284 14-1.453 2.519-4.542 3.85-8.931 3.85a28.942 28.942 0 0 1-5.331-.562c-.232.665-.477 1.309-.731 1.919l.053.051a3.9 3.9 0 0 1-4.149 6.392 7.5 7.5 0 0 1-5.16 2.351m-9.632-11.34l.077.227c2.287 6.718 5.769 10.571 9.551 10.571a7.057 7.057 0 0 0 4.907-2.319l.13-.13.168.074a3.355 3.355 0 0 0 3.719-5.444 1.494 1.494 0 0 0-.113-.1l-.209-.179.077-.182c.305-.719.6-1.49.872-2.291l.077-.226.234.049a28.312 28.312 0 0 0 5.457.6c4.182 0 7.108-1.238 8.46-3.58 1.892-3.275.3-8.213-4.378-13.548l-.156-.179.156-.178c.54-.615 1.061-1.255 1.549-1.9l.109-.145.176.046a3.355 3.355 0 0 0 3.219-5.618c-.051-.051-.106-.1-.162-.145l-.132-.112.037-.174a7 7 0 0 0-.42-5.505c-1.893-3.281-6.967-4.367-13.922-2.983l-.233.047-.076-.225c-2.286-6.716-5.766-10.568-9.548-10.568s-7.263 3.852-9.551 10.569l-.076.225-.233-.047c-6.954-1.385-12.029-.3-13.922 2.982a7.014 7.014 0 0 0-.449 5.383l.046.172-.141.11a3.357 3.357 0 0 0-.574 4.712 3.379 3.379 0 0 0 3.622 1.142l.182-.056.114.152c.48.639 1.011 1.291 1.578 1.939l.156.179-.156.178c-4.674 5.334-6.269 10.271-4.379 13.548 1.351 2.342 4.277 3.58 8.463 3.58a28.427 28.427 0 0 0 5.456-.6zm9.63 9.7c-3.246 0-6.327-3.516-8.453-9.647l-.1-.279.287-.072a50.124 50.124 0 0 0 8.153-2.792l.11-.049.109.048A50.046 50.046 0 0 0 319.2 45.6l.288.072-.1.28c-.236.679-.48 1.319-.725 1.9l-.091.218-.227-.061a3.38 3.38 0 0 0-1.692-.01l-.134-.525a3.931 3.931 0 0 1 1.734-.042c.177-.432.353-.894.527-1.379a50.71 50.71 0 0 1-7.844-2.7 50.65 50.65 0 0 1-7.844 2.7c2.013 5.645 4.935 9 7.844 9a5.115 5.115 0 0 0 3.41-1.507 3.909 3.909 0 0 1-.735-2.685l.54.04v.015a3.36 3.36 0 0 0 .77 2.484l.164.195-.185.175a5.759 5.759 0 0 1-3.963 1.824m15.355-10.15a27.081 27.081 0 0 1-5.1-.537l-.29-.056.082-.284a49.926 49.926 0 0 0 1.648-8.458l.012-.12.1-.071a49.3 49.3 0 0 0 6.492-5.657l.206-.214.194.224c4.073 4.7 5.626 8.963 4.316 11.786h.019l-.2.354c-1.15 1.993-3.782 3.03-7.479 3.03m-4.707-1.014c5.777 1.065 10.088.27 11.627-2.141l.085-.147c1.454-2.522 0-6.731-3.88-11.292a49.817 49.817 0 0 1-6.26 5.435 50.483 50.483 0 0 1-1.572 8.145m-26 1.013c-3.7 0-6.331-1.038-7.48-3.03-1.622-2.813-.116-7.239 4.132-12.141l.194-.224.206.214a49.288 49.288 0 0 0 6.5 5.657l.1.071.013.12a49.98 49.98 0 0 0 1.648 8.457l.082.284-.291.056a27.1 27.1 0 0 1-5.1.537m-7.011-3.3c1.455 2.523 5.823 3.371 11.716 2.287a50.537 50.537 0 0 1-1.572-8.144 49.882 49.882 0 0 1-6.264-5.435c-3.892 4.564-5.342 8.772-3.888 11.294zm13.476 2.475l-.073-.248a47.339 47.339 0 0 1-1.46-6.911l-.081-.6.5.342c1.29.88 2.623 1.718 3.963 2.492s2.744 1.516 4.136 2.187l.547.264-.562.231a47.286 47.286 0 0 1-6.721 2.185zm-.911-6.631a46.84 46.84 0 0 0 1.287 5.981 46.683 46.683 0 0 0 5.82-1.866c-1.221-.6-2.437-1.254-3.624-1.938s-2.35-1.409-3.492-2.173m18.436 6.57a47.37 47.37 0 0 1-6.721-2.185l-.561-.23.546-.264c1.412-.683 2.8-1.419 4.136-2.188 1.357-.785 2.69-1.623 3.961-2.492l.5-.343-.081.6a47.3 47.3 0 0 1-1.459 6.911l-.258-.075zm-5.953-2.459a46.892 46.892 0 0 0 5.827 1.87 46.843 46.843 0 0 0 1.287-5.981c-1.128.755-2.3 1.484-3.491 2.172-1.171.676-2.387 1.327-3.624 1.939m-2.684-.545l-.112-.051c-1.824-.827-3.633-1.756-5.376-2.763s-3.462-2.115-5.081-3.28l-.1-.071-.012-.121c-.2-1.995-.3-4.025-.3-6.035s.1-4.039.3-6.034l.012-.121.1-.071c1.619-1.165 3.329-2.269 5.081-3.28s3.546-1.934 5.375-2.763l.112-.05.111.05c1.827.829 3.636 1.758 5.376 2.763 1.755 1.013 3.464 2.117 5.081 3.28l.1.071.012.121c.2 2 .3 4.026.3 6.034s-.1 4.038-.3 6.035l-.012.121-.1.071c-1.621 1.166-3.33 2.269-5.081 3.28s-3.547 1.934-5.375 2.763zm-10.152-6.463c1.575 1.128 3.235 2.2 4.936 3.179s3.447 1.881 5.217 2.688c1.774-.808 3.528-1.712 5.216-2.688s3.36-2.051 4.936-3.179c.189-1.94.285-3.911.285-5.86s-.1-3.92-.285-5.859c-1.572-1.126-3.232-2.2-4.936-3.179s-3.443-1.88-5.217-2.688c-1.774.809-3.528 1.713-5.216 2.688s-3.36 2.051-4.936 3.179c-.189 1.938-.285 3.908-.285 5.859s.1 3.922.285 5.86m-1.7-.579l-.481-.37a46.71 46.71 0 0 1-5.255-4.724l-.179-.187.179-.187a46.579 46.579 0 0 1 5.254-4.723l.481-.37-.045.6c-.117 1.56-.176 3.134-.176 4.675s.059 3.124.176 4.676zm-5.164-5.281a46.023 46.023 0 0 0 4.536 4.109c-.09-1.367-.135-2.747-.135-4.109s.046-2.734.135-4.108a46.2 46.2 0 0 0-4.536 4.108m28.87 5.281l.045-.6c.117-1.561.176-3.134.176-4.676s-.06-3.127-.176-4.675l-.045-.605.48.371a46.55 46.55 0 0 1 5.255 4.723l.179.187-.179.187a46.614 46.614 0 0 1-5.255 4.724zm.628-9.389c.089 1.365.135 2.744.135 4.108s-.045 2.735-.135 4.109a46.3 46.3 0 0 0 4.536-4.109 46.274 46.274 0 0 0-4.536-4.108m6.026 3.3l-.206-.214a49.409 49.409 0 0 0-6.5-5.66l-.1-.071-.012-.119a50.013 50.013 0 0 0-1.648-8.457l-.082-.284.291-.056c5.466-1.058 9.621-.537 11.714 1.414l-.238-.833 1.1 1.91a4.842 4.842 0 0 1 .621 2.146l.009.03-.008-.013a7.438 7.438 0 0 1-.215 2.153l-.063.267-.267-.068a3.354 3.354 0 0 0-3.2 5.621c.045.046.094.088.141.129l.192.167-.125.228c-.383.5-.791 1-1.213 1.486zm-6.289-6.241a49.932 49.932 0 0 1 6.266 5.438c.292-.343.576-.691.848-1.04l-.009-.009a3.912 3.912 0 0 1-1.019-3.716 3.894 3.894 0 0 1 4.464-2.871 5.144 5.144 0 0 0-.379-3.612l-.027-.048c-1.457-2.524-5.826-3.371-11.717-2.286a50.489 50.489 0 0 1 1.572 8.144m-30.727 6.237l-.194-.224c-.456-.526-.89-1.057-1.289-1.58l-.148-.194.218-.2a3.354 3.354 0 0 0-3.01-5.696l-.257.053-.06-.256a5.7 5.7 0 0 1 .415-4.269c1.624-2.816 6.209-3.725 12.577-2.492l.291.056-.082.284a50.011 50.011 0 0 0-1.648 8.458l-.013.12-.1.071a49.31 49.31 0 0 0-6.5 5.655zm-.906-1.943c.293.378.6.76.928 1.141a49.866 49.866 0 0 1 6.267-5.434 50.518 50.518 0 0 1 1.573-8.145c-5.892-1.086-10.261-.237-11.717 2.287a5.048 5.048 0 0 0-.412 3.627 3.9 3.9 0 0 1 3.361 6.523m8.913-4.864l.081-.6a47.344 47.344 0 0 1 1.46-6.913l.073-.248.252.061a47.389 47.389 0 0 1 6.721 2.185l.561.23-.546.264c-1.419.686-2.81 1.422-4.136 2.19-1.352.782-2.685 1.621-3.963 2.492zm1.99-7.112a46.875 46.875 0 0 0-1.287 5.985c1.134-.757 2.306-1.486 3.492-2.172 1.166-.675 2.383-1.327 3.624-1.941a46.8 46.8 0 0 0-5.829-1.872m19.013 7.111l-.5-.341c-1.289-.878-2.622-1.716-3.961-2.492-1.355-.781-2.749-1.517-4.138-2.187l-.547-.264.562-.231a47.424 47.424 0 0 1 6.721-2.185l.252-.061.073.248a47.228 47.228 0 0 1 1.46 6.911zm-7.818-5.24c1.219.6 2.437 1.254 3.626 1.939s2.349 1.411 3.491 2.173a46.727 46.727 0 0 0-1.288-5.982 46.976 46.976 0 0 0-5.829 1.871m-2.683-.656l-.109-.049a50.122 50.122 0 0 0-8.153-2.793l-.287-.071.1-.28c2.125-6.131 5.207-9.647 8.453-9.647s6.327 3.517 8.452 9.647l.1.28-.287.071a50.132 50.132 0 0 0-8.153 2.793zm-7.843-3.294a50.6 50.6 0 0 1 7.843 2.7 50.641 50.641 0 0 1 7.843-2.7c-2.012-5.645-4.934-9-7.843-9s-5.83 3.36-7.844 9" class="cls-1" transform="translate(-284.778 -1.233)"/>
            </g>
        </g>
        <path id="area" fill="none" d="M0 0H72V72H0z" transform="translate(1039 725)"/>
    </g>
</svg>
