<svg xmlns="http://www.w3.org/2000/svg" width="48" height="48" viewBox="0 0 48 48"><defs><style>.a{fill:#060457;opacity:0;}.b{fill:#f7beff;stroke:#f7beff;stroke-width:2px;}</style></defs><g transform="translate(-44.476 -150.476)"><rect class="a" width="48" height="48" rx="8" transform="translate(44.476 150.476)"/><g transform="translate(53.734 159.734)"><path class="b" d="M14.65,27.708H3.662a1.221,1.221,0,0,1-1.221-1.221V4.512A1.221,1.221,0,0,1,3.662,3.292H14.65a1.221,1.221,0,0,0,0-2.442H3.662A3.667,3.667,0,0,0,0,4.512V26.487a3.667,3.667,0,0,0,3.662,3.662H14.65a1.221,1.221,0,0,0,0-2.442Z" transform="translate(0 -0.85)"/><path class="b" d="M189.367,114.841l-7.423-7.325a1.221,1.221,0,1,0-1.714,1.738l5.3,5.235H171.321a1.221,1.221,0,0,0,0,2.442h14.214l-5.3,5.235a1.221,1.221,0,1,0,1.714,1.738l7.423-7.325a1.22,1.22,0,0,0,0-1.738Z" transform="translate(-160.333 -101.06)"/></g></g></svg>