<svg xmlns="http://www.w3.org/2000/svg" width="47" height="47" viewBox="0 0 47 47">
    <g>
        <path fill="none" stroke="#f0f0f0" d="M23 0a23 23 0 1 0 23 23A23 23 0 0 0 23 0z" transform="translate(.5 .5)"/>
        <path fill="#f0f0f0" d="M7733.563-7095.564a6.086 6.086 0 0 1-2.038-.377 3.391 3.391 0 0 1-1.263-.822 3.425 3.425 0 0 1-.821-1.262 6.051 6.051 0 0 1-.377-2.038c-.054-1.158-.064-1.5-.064-4.437s.011-3.278.064-4.436a6.06 6.06 0 0 1 .377-2.038 3.425 3.425 0 0 1 .821-1.262 3.4 3.4 0 0 1 1.263-.821 6.054 6.054 0 0 1 2.038-.378c1.157-.053 1.5-.063 4.437-.063s3.278.012 4.437.063a6.052 6.052 0 0 1 2.037.378 3.393 3.393 0 0 1 1.263.821 3.388 3.388 0 0 1 .821 1.262 6.06 6.06 0 0 1 .377 2.038c.054 1.158.065 1.5.065 4.436s-.012 3.279-.065 4.437a6.051 6.051 0 0 1-.377 2.038 3.631 3.631 0 0 1-2.084 2.084 6.086 6.086 0 0 1-2.038.377c-1.157.053-1.5.064-4.436.064s-3.279-.011-4.437-.064zm-1.2-8.936a5.638 5.638 0 0 0 5.639 5.638 5.638 5.638 0 0 0 5.637-5.638 5.637 5.637 0 0 0-5.637-5.637 5.637 5.637 0 0 0-5.641 5.637zm10.182-5.859a1.317 1.317 0 0 0 1.317 1.317 1.318 1.318 0 0 0 1.317-1.317 1.317 1.317 0 0 0-1.317-1.317 1.316 1.316 0 0 0-1.319 1.316zm-8.2 5.859a3.66 3.66 0 0 1 3.66-3.659 3.658 3.658 0 0 1 3.658 3.659 3.657 3.657 0 0 1-3.658 3.659 3.659 3.659 0 0 1-3.665-3.659z" transform="translate(.5 .5) translate(-7715 7127.5)"/>
    </g>
</svg>
