<svg xmlns="http://www.w3.org/2000/svg" width="47" height="47" viewBox="0 0 47 47">
    <g>
        <path fill="none" stroke="#f0f0f0" d="M23 0a23 23 0 1 0 23 23A23 23 0 0 0 23 0z" transform="translate(.5 .5)"/>
        <path fill="#f0f0f0" d="M11.5 24.812H7.462V12.667H11.5zm-2.018-13.8h-.028a2.1 2.1 0 1 1 .053-4.2 2.1 2.1 0 1 1-.027 4.2zm16.575 13.8h-4.038v-6.5c0-1.633-.585-2.746-2.045-2.746a2.21 2.21 0 0 0-2.074 1.479 2.764 2.764 0 0 0-.133.985v6.782h-4.034s.053-11.006 0-12.145h4.037v1.72a4.008 4.008 0 0 1 3.638-2c2.656 0 4.647 1.736 4.647 5.466zm0 0" transform="translate(.5 .5) translate(7.276 6.688)"/>
    </g>
</svg>
