<?xml version="1.0" standalone="no"?>
<!DOCTYPE svg PUBLIC "-//W3C//DTD SVG 20010904//EN"
 "http://www.w3.org/TR/2001/REC-SVG-20010904/DTD/svg10.dtd">
<svg version="1.0" xmlns="http://www.w3.org/2000/svg"
 width="500.000000pt" height="500.000000pt" viewBox="0 0 500.000000 500.000000"
 preserveAspectRatio="xMidYMid meet">

<g transform="translate(0.000000,500.000000) scale(0.100000,-0.100000)"
fill="#7E0CF5" stroke="none">
<path d="M2690 4721 c-116 -38 -200 -152 -200 -272 0 -21 10 -64 21 -96 20
-55 60 -96 790 -828 423 -424 769 -774 769 -778 0 -4 -873 -7 -1940 -7 -1729
0 -1945 -2 -1978 -15 -121 -51 -177 -203 -119 -327 26 -58 67 -97 130 -123 32
-13 257 -15 1979 -15 l1943 0 -776 -777 c-739 -740 -778 -781 -798 -836 -40
-110 -16 -222 63 -295 61 -57 101 -74 177 -80 135 -9 62 -74 1184 1054 682
687 1008 1021 1025 1053 20 37 25 60 25 121 0 61 -5 84 -25 121 -37 68 -2009
2049 -2070 2080 -48 24 -156 35 -200 20z"/>
</g>
</svg>
