<svg version="1.1" id="Layer_1" xmlns="http://www.w3.org/2000/svg" xmlns:xlink="http://www.w3.org/1999/xlink" x="0px" y="0px"
	 width="100%" viewBox="0 0 1024 576" enable-background="new 0 0 1024 576" xml:space="preserve">
<path fill="#7E0CF5" opacity="1.000000" stroke="none" 
	d="
M537.217773,245.782059 
	C530.745239,239.269028 524.535156,232.993591 518.292236,226.750885 
	C516.375122,224.833832 514.790955,222.731598 514.073425,220.078720 
	C512.911499,215.782837 514.150452,212.092987 517.361633,209.220917 
	C520.644287,206.284958 524.505737,205.939438 528.558716,207.629608 
	C530.775269,208.553970 532.405090,210.230484 534.050415,211.882080 
	C556.502686,234.420670 578.963928,256.950378 601.390747,279.514282 
	C608.245728,286.411163 608.242065,291.569122 601.499146,298.325317 
	C579.024292,320.844543 556.542664,343.356995 534.048096,365.856567 
	C532.757568,367.147430 531.445129,368.472107 529.943542,369.485626 
	C525.863281,372.239502 520.772156,371.754303 517.026001,368.436310 
	C513.648315,365.444611 512.548828,359.638733 514.875488,355.605774 
	C515.937988,353.763977 517.440796,352.125153 518.952576,350.601379 
	C534.435364,334.996002 549.963257,319.435303 565.470337,303.854065 
	C566.634583,302.684204 567.736511,301.452332 569.235168,299.858093 
	C566.449524,298.013214 563.611450,298.433350 560.938293,298.431091 
	C517.793640,298.394928 474.648956,298.364838 431.504456,298.445496 
	C426.332428,298.455139 422.306488,297.174042 420.489075,291.878082 
	C418.576447,286.304901 422.196686,280.397034 428.036285,279.706635 
	C429.844788,279.492859 431.696411,279.630280 433.528290,279.629883 
	C477.006104,279.620361 520.483887,279.619049 563.961731,279.587189 
	C565.578918,279.585999 567.283142,279.986359 569.707947,278.483398 
	C558.840942,267.545349 548.154236,256.788818 537.217773,245.782059 
z"/>
</svg>