<svg xmlns="http://www.w3.org/2000/svg" width="56" height="43.999" viewBox="0 0 56 43.999">
    <path fill="#7e0cf5" d="M10 44A10.011 10.011 0 0 1 0 34V10A10.011 10.011 0 0 1 10 0h36a10.011 10.011 0 0 1 10 10v24a10.011 10.011 0 0 1-10 10zM2.714 10.02v23.96a7.008 7.008 0 0 0 7 7h36.572a7.008 7.008 0 0 0 7-7V10.02a6.991 6.991 0 0 0-.232-1.79l-24.084 14a1.368 1.368 0 0 1-1.43-.03L3.163 8.026a1.4 1.4 0 0 1-.133-.088 6.978 6.978 0 0 0-.316 2.082zm1.813-4.375L28.28 19.456 51.838 5.761a6.991 6.991 0 0 0-5.552-2.741H9.714A6.988 6.988 0 0 0 4.33 5.55a1.391 1.391 0 0 1 .197.095z"/>
</svg>
