<?xml version="1.0" standalone="no"?>
<!DOCTYPE svg PUBLIC "-//W3C//DTD SVG 20010904//EN"
 "http://www.w3.org/TR/2001/REC-SVG-20010904/DTD/svg10.dtd">
<svg version="1.0" xmlns="http://www.w3.org/2000/svg"
 width="720.000000pt" height="720.000000pt" viewBox="0 0 720.000000 720.000000"
 preserveAspectRatio="xMidYMid meet">

<g transform="translate(0.000000,720.000000) scale(0.100000,-0.100000)"
fill="#ffffff" stroke="none">
<path d="M655 7190 c-165 -23 -312 -96 -430 -214 -127 -128 -194 -268 -216
-451 -6 -50 -9 -1162 -7 -2985 l3 -2905 28 -90 c45 -142 90 -217 192 -320 104
-104 202 -160 345 -198 l85 -22 2955 0 2955 0 90 28 c142 45 217 90 320 192
102 103 147 178 192 320 l28 90 0 2965 0 2965 -28 90 c-45 142 -90 217 -192
320 -103 102 -178 147 -320 192 l-90 28 -2925 1 c-1609 1 -2952 -2 -2985 -6z
m5913 -345 c137 -41 236 -141 277 -278 13 -45 15 -401 15 -2967 0 -2600 -2
-2922 -15 -2968 -43 -142 -158 -252 -295 -281 -42 -9 -763 -11 -2986 -9
l-2930 3 -65 33 c-110 58 -180 141 -214 255 -13 45 -15 401 -15 2967 0 2600 2
2922 15 2968 40 135 145 240 275 277 36 11 616 13 2966 14 2605 1 2926 -1
2972 -14z"/>
<path d="M1550 6310 c-129 -16 -250 -115 -290 -235 -20 -60 -21 -80 -18 -526
3 -455 3 -465 25 -512 34 -73 125 -158 198 -185 60 -23 65 -23 535 -20 l475 3
50 27 c74 40 128 96 166 173 l34 70 0 465 0 465 -31 65 c-57 120 -154 191
-287 211 -72 10 -776 10 -857 -1z m921 -199 c81 -51 79 -38 79 -545 l0 -446
-25 -38 c-14 -21 -43 -48 -64 -60 -38 -22 -46 -22 -475 -22 -416 0 -439 1
-476 20 -21 11 -51 36 -67 57 l-28 36 -3 431 c-3 460 -2 481 45 537 50 58 48
58 529 59 l440 0 45 -29z"/>
<path d="M1612 5970 c-12 -12 -22 -27 -22 -34 0 -11 166 -359 327 -683 26 -53
53 -95 64 -98 25 -8 62 13 55 31 -3 8 -2 13 3 9 11 -6 51 58 148 239 42 78
100 177 129 221 30 44 54 88 54 96 0 20 -31 49 -53 49 -28 0 -85 -73 -141
-180 -88 -171 -161 -300 -168 -300 -5 0 -78 143 -164 318 -86 174 -163 325
-171 335 -21 22 -34 22 -61 -3z"/>
<path d="M4455 6094 c-79 -12 -190 -36 -256 -58 -109 -34 -212 -84 -203 -98 4
-7 3 -8 -5 -4 -6 4 -33 -5 -59 -20 -284 -167 -496 -432 -602 -754 -43 -132
-54 -196 -54 -325 -1 -117 0 -122 33 -190 60 -122 166 -205 283 -221 64 -9
171 25 223 69 62 54 99 127 164 324 109 327 205 486 344 567 104 61 330 85
476 51 228 -54 400 -272 418 -528 7 -108 -15 -209 -67 -313 -54 -106 -110
-175 -331 -404 -101 -106 -189 -197 -194 -203 -6 -7 -40 -46 -76 -87 -94 -107
-139 -172 -192 -275 -91 -178 -124 -316 -133 -545 -17 -438 73 -645 281 -643
87 1 153 25 204 76 71 69 105 158 151 397 30 153 56 244 100 341 71 157 123
228 326 439 151 156 200 211 196 222 -1 5 2 7 6 4 12 -7 152 145 222 243 177
244 252 487 237 766 -10 192 -57 362 -144 524 -53 99 -71 126 -138 206 -84
101 -197 201 -215 190 -6 -4 -9 -2 -8 3 7 24 -162 120 -303 172 -150 56 -252
72 -464 75 -104 2 -203 1 -220 -1z"/>
<path d="M1503 4465 c-100 -27 -184 -98 -231 -195 l-27 -55 0 -481 0 -481 36
-69 c45 -86 111 -143 202 -173 63 -21 76 -22 523 -19 l459 3 63 34 c74 40 134
104 171 181 l26 55 0 466 0 465 -37 75 c-43 86 -99 140 -186 179 l-57 25 -445
2 c-359 2 -455 -1 -497 -12z m934 -170 c43 -18 46 -18 37 -3 -4 7 -3 8 5 4 6
-4 9 -11 6 -15 -5 -9 39 -54 46 -47 10 10 11 -41 15 -483 4 -439 4 -455 -16
-495 -11 -22 -36 -52 -57 -66 l-37 -25 -444 -3 -444 -3 -43 26 c-24 14 -54 40
-67 58 l-23 32 -3 432 c-2 288 1 446 8 473 15 54 68 106 122 118 24 6 227 10
451 11 341 1 413 -1 444 -14z"/>
<path d="M1607 4132 c-9 -10 -17 -24 -17 -32 0 -7 24 -63 54 -124 266 -545
317 -645 332 -654 41 -23 79 25 197 248 64 121 115 210 141 245 12 17 32 47
45 67 l22 37 -20 20 c-12 12 -32 21 -45 21 -34 0 -93 -85 -193 -277 -43 -84
-88 -165 -99 -180 l-21 -28 -122 250 c-217 444 -204 420 -232 423 -15 2 -32
-5 -42 -16z"/>
<path d="M1510 2633 c-115 -43 -190 -105 -237 -195 l-28 -53 -3 -470 c-3 -462
-2 -470 19 -528 30 -81 103 -158 187 -199 l67 -33 460 0 c448 0 461 1 518 22
75 28 131 74 173 140 63 97 66 122 62 610 -3 423 -4 440 -25 483 -11 25 -29
54 -38 65 -9 11 -13 14 -9 6 5 -9 3 -12 -5 -7 -6 4 -8 12 -5 18 9 14 -57 80
-74 73 -7 -2 -10 0 -7 5 3 5 -18 22 -47 37 l-53 28 -470 2 c-259 1 -477 -1
-485 -4z m927 -174 c34 -13 80 -55 99 -91 11 -22 14 -108 14 -470 0 -501 2
-487 -78 -543 l-44 -30 -404 -3 c-243 -2 -427 1 -459 7 -67 13 -109 42 -135
96 -19 39 -20 62 -20 470 0 415 1 430 21 472 21 44 68 87 104 96 43 10 874 7
902 -4z"/>
<path d="M4434 2132 c-240 -116 -296 -440 -113 -654 22 -27 64 -58 104 -78 60
-31 75 -34 148 -34 66 1 93 6 139 27 75 34 142 102 181 185 27 57 32 81 35
162 5 114 -13 185 -65 263 -75 111 -146 151 -278 155 -82 3 -95 0 -151 -26z"/>
</g>
</svg>
