<svg width="200" height="151" viewBox="0 0 200 151" fill="none" xmlns="http://www.w3.org/2000/svg">
<path d="M2.32644e-06 113.4C0.133336 110.067 1.4 107.2 3.8 104.8L28.8 79.8C30.6667 77.8 32.8667 76.6 35.4 76.2C37.9333 75.8 40.2667 76.0667 42.4 77C44.5333 77.9334 46.3333 79.4667 47.8 81.6C49.2667 83.7334 50 86.0667 50 88.6V101H162.6C165.933 101 168.867 99.8 171.4 97.4C173.933 95 175.133 92.0667 175 88.6V38.6C175 35.1334 173.8 32.2 171.4 29.8C169 27.4 166.067 26.1334 162.6 26H62.6C59.5333 26 56.9333 25.1334 54.8 23.4C52.6667 21.6667 51.3333 19.6 50.8 17.2C50.2667 14.8 50.2667 12.4 50.8 10C51.3333 7.60003 52.6667 5.46669 54.8 3.60003C56.9333 1.73336 59.5333 0.866694 62.6 1.00003H162.6C172.867 1.00003 181.667 4.6667 189 12C196.333 19.3334 200 28.2 200 38.6V88.6C200 99 196.333 107.8 189 115C181.667 122.2 172.867 125.867 162.6 126H50V138.6C50 141.267 49.2667 143.667 47.8 145.8C46.3333 147.933 44.4667 149.4 42.2 150.2C39.9333 151 37.6 151.2 35.2 150.8C32.8 150.4 30.6667 149.267 28.8 147.4L3.8 122.4C1.13334 119.867 -0.133331 116.867 2.32644e-06 113.4Z" fill="#FFFDFD"/>
</svg>
