<svg width="215" height="163" viewBox="0 0 215 163" fill="none" xmlns="http://www.w3.org/2000/svg">
<mask id="path-1-inside-1_560_89" fill="white">
<path d="M133.518 24.2941H88.2499V0.824829H69.4106L0 68.2988L69.4106 135.772H88.2499V112.303H145.589C173.878 112.303 196.893 134.675 196.893 162.175H215V103.502C215 59.8265 178.447 24.2941 133.518 24.2941ZM196.893 116.774C184.189 103.219 165.894 94.7018 145.589 94.7018H70.1429V111.592L25.6073 68.2992L70.1429 25.0064V41.8958H133.518C168.463 41.8958 196.893 69.5323 196.893 103.502V116.774Z"/>
</mask>
<path d="M133.518 24.2941H88.2499V0.824829H69.4106L0 68.2988L69.4106 135.772H88.2499V112.303H145.589C173.878 112.303 196.893 134.675 196.893 162.175H215V103.502C215 59.8265 178.447 24.2941 133.518 24.2941ZM196.893 116.774C184.189 103.219 165.894 94.7018 145.589 94.7018H70.1429V111.592L25.6073 68.2992L70.1429 25.0064V41.8958H133.518C168.463 41.8958 196.893 69.5323 196.893 103.502V116.774Z" fill="white"/>
<path d="M88.2499 24.2941H-911.75V1024.29H88.2499V24.2941ZM88.2499 0.824829H1088.25V-999.175H88.2499V0.824829ZM69.4106 0.824829V-999.175H-336.54L-627.622 -716.214L69.4106 0.824829ZM0 68.2988L-697.033 -648.74L-1434.65 68.301L-697.031 785.34L0 68.2988ZM69.4106 135.772L-627.62 852.814L-336.538 1135.77H69.4106V135.772ZM88.2499 135.772V1135.77H1088.25V135.772H88.2499ZM88.2499 112.303V-887.697H-911.75V112.303H88.2499ZM196.893 162.175H-803.107V1162.17H196.893V162.175ZM215 162.175V1162.17H1215V162.175H215ZM196.893 116.774L-532.744 800.608L1196.89 2646.1V116.774H196.893ZM70.1429 94.7018V-905.298H-929.857V94.7018H70.1429ZM70.1429 111.592L-626.891 828.63L1070.14 2478.32L1070.14 111.592H70.1429ZM25.6073 68.2992L-671.424 -648.742L-1409.05 68.2957L-671.427 785.337L25.6073 68.2992ZM70.1429 25.0064H1070.14V-2341.71L-626.888 -692.035L70.1429 25.0064ZM70.1429 41.8958H-929.857V1041.9H70.1429V41.8958ZM133.518 -975.706H88.2499V1024.29H133.518V-975.706ZM1088.25 24.2941V0.824829H-911.75V24.2941H1088.25ZM88.2499 -999.175H69.4106V1000.82H88.2499V-999.175ZM-627.622 -716.214L-697.033 -648.74L697.033 785.338L766.444 717.864L-627.622 -716.214ZM-697.031 785.34L-627.62 852.814L766.441 -581.269L697.031 -648.742L-697.031 785.34ZM69.4106 1135.77H88.2499V-864.228H69.4106V1135.77ZM1088.25 135.772V112.303H-911.75V135.772H1088.25ZM88.2499 1112.3H145.589V-887.697H88.2499V1112.3ZM145.589 1112.3C-351.537 1112.3 -803.107 713.452 -803.107 162.175H1196.89C1196.89 -444.101 699.294 -887.697 145.589 -887.697V1112.3ZM196.893 1162.17H215V-837.825H196.893V1162.17ZM1215 162.175V103.502H-785V162.175H1215ZM1215 103.502C1215 -518.953 703.859 -975.706 133.518 -975.706V1024.29C-346.965 1024.29 -785 638.606 -785 103.502H1215ZM926.53 -567.061C729.972 -776.784 449.865 -905.298 145.589 -905.298V1094.7C-118.077 1094.7 -361.594 983.222 -532.744 800.608L926.53 -567.061ZM145.589 -905.298H70.1429V1094.7H145.589V-905.298ZM-929.857 94.7018V111.592H1070.14V94.7018H-929.857ZM767.177 -605.445L722.641 -648.739L-671.427 785.337L-626.891 828.63L767.177 -605.445ZM722.638 785.34L767.174 742.048L-626.888 -692.035L-671.424 -648.742L722.638 785.34ZM-929.857 25.0064V41.8958H1070.14V25.0064H-929.857ZM70.1429 1041.9H133.518V-958.104H70.1429V1041.9ZM133.518 1041.9C-356.956 1041.9 -803.107 648.305 -803.107 103.502H1196.89C1196.89 -509.24 693.883 -958.104 133.518 -958.104V1041.9ZM-803.107 103.502V116.774H1196.89V103.502H-803.107Z" fill="white" mask="url(#path-1-inside-1_560_89)"/>
</svg>
