<?xml version="1.0" standalone="no"?>
<!DOCTYPE svg PUBLIC "-//W3C//DTD SVG 20010904//EN"
 "http://www.w3.org/TR/2001/REC-SVG-20010904/DTD/svg10.dtd">
<svg version="1.0" xmlns="http://www.w3.org/2000/svg"
 width="640.000000pt" height="640.000000pt" viewBox="0 0 640.000000 640.000000"
 preserveAspectRatio="xMidYMid meet">

<g transform="translate(0.000000,640.000000) scale(0.100000,-0.100000)"
fill="#7e0cf5"  stroke="none">
<path d="M2996 5368 c-303 -26 -646 -139 -914 -299 -412 -248 -739 -634 -909
-1074 -281 -725 -160 -1535 321 -2150 71 -90 240 -259 341 -340 312 -251 691
-412 1095 -466 122 -17 418 -17 540 0 383 51 745 199 1050 429 96 73 295 265
373 362 531 657 634 1568 261 2327 -110 224 -229 391 -407 571 -462 468 -1092
699 -1751 640z m675 -931 c90 -73 342 -272 377 -297 32 -24 40 -44 23 -54 -5
-3 -76 47 -157 112 -82 64 -188 148 -236 186 -83 65 -106 96 -74 96 7 0 38
-20 67 -43z m135 -213 c156 -120 283 -226 284 -234 0 -8 -53 -48 -119 -89
l-119 -75 -11 -52 c-12 -52 -12 -52 27 -113 135 -209 159 -482 62 -715 -32
-77 -108 -193 -154 -235 l-26 -24 0 -368 c0 -202 -4 -370 -8 -373 -17 -10
-137 -15 -509 -21 l-383 -7 0 186 0 185 -113 -1 c-216 -1 -264 49 -274 287
l-6 120 -71 35 c-43 21 -72 42 -74 53 -2 10 28 84 66 165 l71 147 -6 105 c-9
163 26 307 108 448 48 80 190 221 268 265 64 35 65 37 82 99 l18 63 -66 129
c-35 70 -61 132 -56 136 4 5 143 27 308 50 165 22 323 44 350 49 28 5 54 8 59
7 5 -1 137 -101 292 -222z"/>
<path d="M3170 4363 c-179 -25 -326 -47 -328 -49 -3 -2 60 -126 82 -163 6 -9
13 1 25 35 15 47 18 49 61 56 81 12 235 8 330 -8 171 -29 333 -95 477 -194 72
-50 78 -63 60 -132 -7 -28 -7 -28 65 18 40 26 79 52 86 58 10 10 -28 44 -180
161 -106 81 -226 175 -265 207 -40 32 -76 58 -80 57 -5 -1 -154 -21 -333 -46z"/>
<path d="M3013 4204 c-12 -3 -24 -13 -27 -22 -20 -67 -56 -202 -56 -210 0 -4
62 -14 138 -20 231 -20 439 -79 632 -178 46 -24 86 -41 88 -39 7 6 61 207 62
225 0 20 -147 112 -251 157 -152 66 -236 84 -409 88 -85 2 -165 1 -177 -1z"/>
<path d="M2835 3879 c-145 -88 -263 -237 -322 -404 -26 -74 -28 -93 -29 -240
l-2 -160 -67 -139 -68 -139 24 -18 c13 -10 45 -26 70 -35 l47 -17 7 -116 c15
-261 38 -286 253 -286 l132 1 0 -183 0 -183 123 0 c67 0 254 3 415 7 l292 6 0
360 0 359 51 56 c65 74 121 169 156 268 26 73 28 91 28 229 0 139 -2 156 -28
230 -35 98 -96 205 -117 205 -9 0 -20 4 -25 9 -6 5 -56 32 -113 61 -198 98
-419 156 -635 166 l-122 6 -70 -43z m330 -152 c0 -64 1 -117 3 -117 1 0 14 7
28 16 19 13 28 14 37 5 8 -8 3 -18 -23 -41 -52 -44 -65 -45 -110 -10 -57 45
-53 82 5 44 l25 -16 0 122 c0 110 2 121 18 118 15 -3 17 -17 17 -121z m-224
-174 c30 -10 88 -40 130 -68 l77 -51 70 47 c168 112 282 112 282 -1 0 -41 -46
-144 -95 -210 -19 -26 -35 -51 -35 -54 0 -3 17 -32 39 -64 57 -84 81 -137 88
-192 5 -43 3 -51 -20 -74 -17 -16 -37 -26 -56 -26 -45 0 -127 36 -207 89 l-70
48 -33 -28 c-51 -42 -173 -101 -222 -106 -96 -11 -121 64 -62 188 17 35 47 86
66 113 l36 49 -38 56 c-80 117 -108 197 -90 250 18 52 56 61 140 34z m633
-239 c19 -18 20 -28 6 -55 -21 -39 -90 -16 -90 30 0 16 30 41 50 41 10 0 26
-7 34 -16z m-770 -136 c9 -12 16 -30 16 -40 0 -24 -35 -58 -60 -58 -26 0 -60
34 -60 62 0 53 74 79 104 36z m394 -329 c23 -17 42 -35 42 -39 0 -18 -20 -20
-44 -4 l-25 16 -3 -118 c-3 -104 -5 -119 -20 -122 -16 -3 -18 8 -18 124 l0
127 -23 -21 c-27 -25 -47 -28 -47 -8 0 16 68 76 85 76 6 0 30 -14 53 -31z
m372 -674 c0 -9 -6 -17 -12 -19 -7 -3 -136 -7 -285 -10 -269 -7 -273 -6 -273
13 0 20 7 21 173 24 94 1 223 4 285 5 95 2 112 0 112 -13z m-3 -120 c3 -9 4
-17 2 -19 -2 -2 -132 -7 -287 -11 -275 -8 -284 -7 -280 11 3 18 18 19 223 24
121 3 246 7 278 8 44 1 59 -2 64 -13z"/>
<path d="M2840 3515 c-8 -9 -10 -28 -6 -49 9 -45 58 -143 93 -184 l28 -32 81
79 80 80 -42 31 c-58 41 -163 90 -195 90 -15 0 -32 -7 -39 -15z"/>
<path d="M3325 3501 c-33 -16 -80 -43 -104 -61 l-44 -32 79 -79 c43 -43 81
-79 85 -79 10 0 86 119 104 163 9 22 15 55 13 75 -3 34 -6 37 -38 40 -23 2
-56 -8 -95 -27z"/>
<path d="M3099 3340 c-26 -22 -63 -60 -84 -85 l-37 -45 69 -71 c101 -105 92
-104 184 -13 44 43 79 83 79 89 0 10 -151 165 -160 165 -3 -1 -26 -19 -51 -40z
m119 -45 c36 -30 47 -75 28 -119 -18 -44 -52 -66 -101 -66 -83 0 -132 87 -89
158 33 57 111 70 162 27z"/>
<path d="M3130 3283 c-56 -20 -68 -87 -23 -123 45 -35 113 -2 113 55 0 42 -52
82 -90 68z"/>
<path d="M2928 3149 c-64 -86 -104 -183 -94 -225 12 -48 107 -25 227 57 33 22
59 42 57 42 -2 1 -40 37 -85 81 l-80 78 -25 -33z"/>
<path d="M3257 3098 c-43 -44 -77 -81 -75 -82 86 -66 196 -118 240 -114 29 3
33 7 36 36 2 19 -4 52 -13 75 -17 44 -96 168 -105 166 -3 0 -40 -37 -83 -81z"/>
<path d="M2740 3140 c0 -13 7 -20 20 -20 13 0 20 7 20 20 0 13 -7 20 -20 20
-13 0 -20 -7 -20 -20z"/>
</g>
</svg>
