<?xml version="1.0" standalone="no"?>
<!DOCTYPE svg PUBLIC "-//W3C//DTD SVG 20010904//EN"
 "http://www.w3.org/TR/2001/REC-SVG-20010904/DTD/svg10.dtd">
<svg version="1.0" xmlns="http://www.w3.org/2000/svg"
 width="178.000000pt" height="256.000000pt" viewBox="0 0 178.000000 256.000000"
 preserveAspectRatio="xMidYMid meet">

<g transform="translate(0.000000,256.000000) scale(0.100000,-0.100000)"
fill="#ffffff" stroke="#7e0cf5">
<path d="M1280 2547 c0 -7 48 -51 108 -97 59 -46 162 -128 229 -182 114 -92
153 -114 153 -87 0 6 -12 21 -27 33 -40 32 -139 109 -223 173 -41 32 -106 84
-144 115 -68 57 -96 70 -96 45z"/>
<path d="M900 2485 c-129 -19 -273 -39 -320 -45 -47 -6 -89 -15 -94 -20 -5 -5
20 -63 59 -136 l67 -127 -19 -64 c-17 -62 -19 -64 -83 -101 -36 -20 -101 -73
-146 -117 -167 -165 -246 -371 -230 -604 l6 -94 -71 -149 c-39 -82 -69 -156
-67 -166 2 -10 33 -32 74 -52 l71 -35 6 -120 c6 -116 21 -195 39 -195 4 0 8
-6 8 -14 0 -8 15 -25 32 -37 18 -13 34 -27 36 -31 2 -4 64 -8 138 -8 l134 0 0
-185 0 -185 450 0 450 0 0 380 0 380 59 70 c67 80 132 204 156 299 54 210 12
456 -106 628 -30 43 -30 46 -19 96 13 51 30 77 61 89 8 3 42 23 74 45 32 21
70 45 84 54 25 15 42 49 24 49 -5 0 -18 8 -29 18 -10 9 -131 105 -268 211
-232 181 -253 194 -295 197 -25 2 -152 -12 -281 -31z m538 -180 c125 -97 243
-189 262 -204 l34 -29 -71 -46 c-39 -25 -74 -46 -77 -46 -3 0 -6 20 -6 44 0
42 -3 46 -52 82 -140 101 -360 189 -533 213 -84 12 -212 13 -290 3 l-49 -7
-17 -55 -16 -55 -47 94 c-26 51 -46 94 -44 96 2 2 93 15 203 30 110 15 238 33
285 40 47 7 109 13 138 14 l53 1 227 -175z m-328 -44 c96 -25 97 -25 205 -75
102 -48 225 -127 225 -145 0 -8 -14 -65 -31 -126 l-31 -113 -56 33 c-32 19
-86 46 -122 61 -36 14 -78 32 -95 39 -103 45 -317 89 -487 100 -55 4 -98 11
-98 17 0 5 6 33 14 61 8 29 22 78 30 109 10 36 23 58 34 62 9 3 87 4 172 2
118 -3 175 -9 240 -25z m-260 -276 c58 -8 125 -19 150 -24 87 -19 256 -83 381
-144 l127 -62 40 -70 c69 -119 87 -196 87 -365 -1 -129 -4 -154 -27 -223 -32
-96 -92 -198 -158 -270 l-50 -55 0 -361 0 -361 -415 0 -415 0 0 174 0 173
-138 5 c-125 4 -142 7 -171 28 -48 34 -62 78 -74 238 -9 117 -14 142 -26 142
-9 0 -38 13 -66 28 -39 22 -49 33 -48 50 2 12 30 78 64 146 l61 123 2 164 c2
149 5 171 29 238 61 169 175 312 315 396 73 43 80 45 152 45 41 -1 122 -7 180
-15z"/>
<path d="M820 1805 l0 -126 -29 22 c-26 19 -51 20 -51 0 0 -15 92 -72 108 -66
10 3 33 19 52 35 26 23 31 33 22 42 -9 9 -17 6 -37 -12 l-25 -23 0 126 c0 120
-1 127 -20 127 -19 0 -20 -7 -20 -125z"/>
<path d="M523 1638 c-23 -11 -42 -51 -37 -80 7 -50 42 -128 86 -194 l50 -74
-32 -40 c-37 -47 -88 -139 -94 -172 -2 -12 -7 -30 -11 -39 -3 -9 0 -32 8 -52
12 -28 22 -36 51 -41 40 -8 58 -4 126 27 44 19 123 69 148 93 9 10 29 2 96
-40 83 -52 164 -86 206 -86 31 0 70 44 70 78 0 38 -26 111 -48 135 -9 11 -15
20 -12 21 2 0 -14 28 -37 61 l-41 61 21 29 c12 17 24 32 28 35 4 3 23 36 43
73 97 178 25 263 -150 177 -33 -16 -82 -46 -108 -66 -44 -33 -49 -35 -65 -20
-10 9 -21 16 -25 16 -4 0 -16 9 -27 19 -31 29 -139 78 -184 84 -22 3 -50 1
-62 -5z m148 -62 c66 -33 133 -78 131 -88 -2 -4 -38 -43 -82 -86 -91 -90 -82
-92 -149 30 -90 165 -53 219 100 144z m477 -10 c4 -43 -45 -153 -93 -211 l-25
-30 -85 85 c-49 49 -80 87 -73 89 7 2 33 18 58 35 66 46 140 76 180 73 33 -2
35 -4 38 -41z m-220 -187 l82 -82 -47 -51 c-89 -94 -120 -118 -140 -108 -10 6
-49 42 -86 81 l-69 71 31 39 c34 43 129 131 140 131 4 0 44 -37 89 -81z m132
-152 c36 -45 86 -146 94 -186 16 -87 -76 -83 -221 11 -35 23 -63 44 -63 47 0
4 12 18 26 31 14 14 48 49 77 78 28 28 53 52 56 52 4 0 17 -15 31 -33z m-327
-52 l74 -75 -31 -23 c-105 -77 -149 -97 -213 -97 -40 0 -50 27 -33 91 15 53
94 179 114 179 8 0 48 -34 89 -75z"/>
<path d="M764 1364 c-23 -24 -34 -45 -34 -65 0 -117 152 -152 205 -46 19 38
19 46 -1 85 -21 43 -51 62 -98 62 -31 0 -45 -7 -72 -36z m121 -19 c14 -13 25
-36 25 -50 0 -28 -40 -75 -64 -75 -69 0 -100 77 -51 125 13 14 34 25 45 25 12
0 32 -11 45 -25z"/>
<path d="M1196 1394 c-9 -8 -16 -22 -16 -29 0 -20 28 -45 50 -45 22 0 50 25
50 45 0 20 -28 45 -50 45 -10 0 -26 -7 -34 -16z m44 -34 c0 -5 -4 -10 -10 -10
-5 0 -10 5 -10 10 0 6 5 10 10 10 6 0 10 -4 10 -10z"/>
<path d="M410 1260 c-11 -11 -20 -29 -20 -40 0 -24 37 -60 62 -60 24 0 58 35
58 60 0 11 -9 29 -20 40 -11 11 -29 20 -40 20 -11 0 -29 -9 -40 -20z m60 -40
c0 -13 -7 -20 -20 -20 -13 0 -20 7 -20 20 0 13 7 20 20 20 13 0 20 -7 20 -20z"/>
<path d="M777 921 c-36 -34 -40 -41 -24 -47 12 -4 26 1 43 16 l24 23 0 -126
c0 -106 2 -127 15 -127 13 0 15 21 15 127 l0 126 24 -23 c17 -15 31 -20 43
-16 16 6 12 13 -24 47 -23 21 -49 39 -58 39 -9 0 -35 -18 -58 -39z"/>
<path d="M695 249 c-4 -6 -3 -15 2 -20 5 -5 124 -8 284 -7 236 3 274 5 274 18
0 13 -39 15 -277 18 -193 2 -279 -1 -283 -9z"/>
<path d="M695 139 c-4 -6 -3 -15 2 -20 5 -5 124 -8 284 -7 236 3 274 5 274 18
0 13 -39 15 -277 18 -193 2 -279 -1 -283 -9z"/>
</g>
</svg>
