<svg width="800" height="800" viewBox="0 0 24 24" fill="none" xmlns="http://www.w3.org/2000/svg"><path d="M10.5766 8.70419C11.2099 7.56806 11.5266 7 12 7c.4734 0 .7901.56806 1.4234 1.70419l.1639.29393c.1799.32285.2699.48427.4102.59078.1403.10651.3151.14605.6646.22512l.3181.07199c1.2299.27829 1.8448.41739 1.9911.88789.1463.4704-.2729.9606-1.1113 1.9411l-.217.2536c-.2382.2786-.3573.4179-.4109.5903-.0536.1723-.0356.3582.0004.7299l.0328.3384c.1268 1.3081.1901 1.9622-.1929 2.2529-.383.2908-.9587.0257-2.1102-.5045l-.2979-.1372c-.3273-.1506-.4909-.226-.6643-.226s-.337.0754-.6643.226l-.2979.1372c-1.15146.5302-1.72721.7953-2.11023.5045-.38301-.2907-.31963-.9448-.19287-2.2529l.03279-.3384c.03602-.3717.05403-.5576.00044-.7299-.05359-.1724-.17272-.3117-.41097-.5903l-.21691-.2536c-.83843-.9805-1.25764-1.4707-1.11134-1.9411.1463-.4705.76122-.6096 1.99106-.88789l.31817-.07199c.34949-.07907.52423-.11861.66456-.22512.1403-.10651.2303-.26793.4102-.59078l.1639-.29393Z" stroke="#FFD700" stroke-width="1.5"/><path opacity=".5" d="M12 2v2M12 20v2M2 12h2M20 12h2" stroke="#FFD700" stroke-width="1.5" stroke-linecap="round"/><path d="m6 18 .34305-.343M17.6567 6.34326 18 6M18 18l-.343-.343M6.34326 6.34326 6 6" stroke="#FFD700" stroke-width="1.5" stroke-linecap="round"/></svg>