<svg xmlns="http://www.w3.org/2000/svg" width="47" height="47" viewBox="0 0 47 47">
    <g>
        <path fill="none" stroke="#f0f0f0" d="M23 0a23 23 0 1 0 23 23A23 23 0 0 0 23 0z" transform="translate(.5 .5)"/>
        <path fill="#f0f0f0" d="M30.683 17.3q.013.3.013.6a13.1 13.1 0 0 1-13.187 13.184A13.119 13.119 0 0 1 10.4 29a9.427 9.427 0 0 0 1.106.064 9.3 9.3 0 0 0 5.757-1.984 4.64 4.64 0 0 1-4.33-3.219 4.619 4.619 0 0 0 2.093-.079 4.636 4.636 0 0 1-3.718-4.543v-.059a4.6 4.6 0 0 0 2.1.58 4.639 4.639 0 0 1-1.435-6.188 13.159 13.159 0 0 0 9.554 4.843 4.637 4.637 0 0 1 7.9-4.227 9.3 9.3 0 0 0 2.943-1.125 4.653 4.653 0 0 1-2.038 2.564 9.244 9.244 0 0 0 2.662-.73 9.419 9.419 0 0 1-2.311 2.403zm0 0" transform="translate(.5 .5) translate(1.57 1.276)"/>
    </g>
</svg>
