<svg xmlns="http://www.w3.org/2000/svg" width="47.518" height="47.518" viewBox="0 0 47.518 47.518">
    <path fill="#7e0cf5" d="M40.768 6.749A22.89 22.89 0 0 0 24.474 0 23.047 23.047 0 0 0 4 33.612L.122 44.677a2.137 2.137 0 0 0 2.007 2.841 2.152 2.152 0 0 0 .712-.122l11.065-3.873A23.045 23.045 0 0 0 40.768 6.749zM38.8 37.367a20.264 20.264 0 0 1-23.832 3.565 2.146 2.146 0 0 0-1.712-.133L3.2 44.317l3.519-10.053a2.147 2.147 0 0 0-.133-1.712A20.258 20.258 0 0 1 24.473 2.787 20.256 20.256 0 0 1 38.8 37.367zm0 0"/>
    <path fill="#7e0cf5" stroke="#fefaff" stroke-width="0.5px" d="M148.567 128.327a2.722 2.722 0 0 0-3.845 0l-1.159 1.159a16.876 16.876 0 0 1-6.777-6.777l1.159-1.159a2.721 2.721 0 0 0 0-3.845l-3.124-3.124a2.722 2.722 0 0 0-3.845 0l-2.5 2.5c-1.432 1.432-1.5 3.893-.2 6.93A30.419 30.419 0 0 0 142.261 138a10.09 10.09 0 0 0 3.89.927 4.143 4.143 0 0 0 3.04-1.128l2.5-2.5a2.718 2.718 0 0 0 0-3.845zm-1.346 7.5c-.409.409-1.665.552-3.862-.389a27.706 27.706 0 0 1-12.523-12.523c-.941-2.2-.8-3.453-.39-3.862l2.454-2.453 3.028 3.028-1.451 1.452a2.127 2.127 0 0 0-.394 2.476 19.661 19.661 0 0 0 8.635 8.635 2.127 2.127 0 0 0 2.477-.394l1.451-1.451 3.028 3.028zm0 0" transform="translate(-115.529 -103.225)"/>
</svg>
