<svg xmlns="http://www.w3.org/2000/svg" stroke="#fff" stroke-width=".0003" viewBox="0 0 32 32"><path d="M26 6a3.9963 3.9963 0 0 0-3.8579 3h-4.2116A7.9964 7.9964 0 1 0 9 17.9307v4.2114a4 4 0 1 0 2 0v-4.2114a7.951 7.951 0 0 0 3.8976-1.6192l3.6693 3.67A3.9529 3.9529 0 0 0 18 22a4 4 0 1 0 4-4 3.9521 3.9521 0 0 0-2.019.5669l-3.6694-3.6694A7.9493 7.9493 0 0 0 17.9305 11h4.2116A3.9934 3.9934 0 1 0 26 6ZM12 26a2 2 0 1 1-2-2 2.0023 2.0023 0 0 1 2 2Zm-2-10a6 6 0 1 1 6-6 6.0066 6.0066 0 0 1-6 6Zm14 6a2 2 0 1 1-2-2 2.0023 2.0023 0 0 1 2 2Zm2-10a2 2 0 1 1 2-2 2.0023 2.0023 0 0 1-2 2Z"/><path d="M0 0h32v32H0z" data-name="&lt;Transparent Rectangle&gt;" style="fill:none"/></svg>