<svg xmlns="http://www.w3.org/2000/svg" fill="none" viewBox="0 0 48 48"><path fill="#fff" fill-opacity=".01" d="M48 0H0v48h48V0Z"/><path stroke="#FFF" stroke-width="4" d="M13.5 39.3707C16.3908 41.644 20.0371 43 24 43c3.9629 0 7.6092-1.356 10.5-3.6293M19 9.7472C12.0513 11.8823 7 18.3513 7 26c0 1.9248.3199 3.7749.9094 5.5M29 9.7472C35.9487 11.8823 41 18.3513 41 26c0 1.9248-.3199 3.7749-.9094 5.5"/><path fill="#FFF" stroke="#FFF" stroke-linecap="round" stroke-linejoin="round" stroke-width="4" d="M43 36c0 1.3416-.5284 2.5597-1.3883 3.4577C40.7015 40.4082 39.4199 41 38 41c-2.7614 0-5-2.2386-5-5 0-2.0101 1.1861-3.7431 2.8967-4.5374A4.9807 4.9807 0 0 1 38 31c2.7614 0 5 2.2386 5 5ZM15 36c0 1.3416-.5284 2.5597-1.3883 3.4577C12.7015 40.4082 11.4199 41 10 41c-2.7614 0-5-2.2386-5-5 0-2.0101 1.1861-3.7431 2.8967-4.5374A4.981 4.981 0 0 1 10 31c2.7614 0 5 2.2386 5 5ZM29 9c0 1.3416-.5284 2.5597-1.3883 3.4577C26.7015 13.4082 25.4199 14 24 14c-2.7614 0-5-2.2386-5-5 0-2.01 1.1861-3.7431 2.8967-4.5374A4.981 4.981 0 0 1 24 4c2.7614 0 5 2.2386 5 5Z"/></svg>