<svg xmlns="http://www.w3.org/2000/svg" xml:space="preserve" viewBox="0 0 113.5 113.5"><path fill="#fff" d="M103.75 9.766c0-.828-.671-1.5-1.5-1.5H81.916c-.828 0-1.5.672-1.5 1.5V45.94l23.334-27.355V9.766zM80.416 89.1v14.635c0 .828.672 1.5 1.5 1.5h20.334c.829 0 1.5-.672 1.5-1.5V33.995L80.416 61.352V89.1zM44.083 83.795v19.938c0 .828.671 1.5 1.5 1.5h20.334c.828 0 1.5-.672 1.5-1.5V67.016l-10.062-2.939-13.272 19.718zM56.652 53.451l10.765 3.146V33.264c0-.828-.672-1.5-1.5-1.5H45.583c-.829 0-1.5.672-1.5 1.5V65.884l7.019-10.428c1.215-1.807 3.46-2.617 5.55-2.005zM24.888 64.899l8.196 7.904V50.766c0-.828-.672-1.5-1.5-1.5H11.25c-.829 0-1.5.672-1.5 1.5v20.85l8.493-6.979c1.96-1.614 4.818-1.498 6.645.262zM9.75 84.559v19.176c0 .828.671 1.5 1.5 1.5h20.334c.828 0 1.5-.672 1.5-1.5V86.697L21.15 75.188l-11.4 9.371z"/><path fill="#fff" d="M112.623 16.585c-1.049-.895-2.628-.771-3.524.28L71.648 60.77l-15.446-4.516c-1.046-.309-2.168.1-2.775 1.004L37.589 80.785 23.401 67.104c-.913-.881-2.341-.938-3.323-.132L.913 82.723c-1.066.877-1.221 2.451-.344 3.52.495.602 1.211.912 1.933.912.559 0 1.121-.188 1.586-.568L21.535 72.25l14.73 14.205c.532.512 1.259.76 1.999.687a2.5013 2.5013 0 0 0 1.81-1.091l16.479-24.483 15.245 4.457c.944.272 1.964-.026 2.604-.776l38.5-45.137c.896-1.051.771-2.631-.279-3.527z"/></svg>