<svg xmlns="http://www.w3.org/2000/svg" xml:space="preserve" viewBox="0 0 96.946 96.946"><path fill="#fff" d="M48.473 2.372 0 37.591l18.515 56.984h59.917l18.515-56.984L48.473 2.372zm.55 4.27L92.48 38.214l-11.082 2.488c-.352-.85-1.188-1.451-2.166-1.451-.203 0-.396.035-.584.082L50.749 15.828c.042-.176.07-.357.07-.545 0-1.105-.767-2.025-1.796-2.273V6.642zm15.87 71.081-37.174 4.783a2.343 2.343 0 0 0-.29-.451l6.233-9.592c.235.078.483.131.745.131 1.296 0 2.347-1.051 2.347-2.346v-.004l19.603-4.85c.408.69 1.152 1.16 2.013 1.16.338 0 .657-.074.946-.203l6.267 9.641c-.429.426-.694 1.014-.694 1.664-.002.024.004.047.004.067zM34.354 44.817c-.049-.232-.14-.447-.251-.648l12.857-9.34c.275.232.6.406.962.494v12.531l-13.568-3.037zm13.291 4.103L35.212 68.053a2.3947 2.3947 0 0 0-.433-.113l-1.927-20.438a2.3428 2.3428 0 0 0 1.458-1.568l13.335 2.986zm-1.518-15.872c0 .318.064.619.179.895l-12.947 9.408c-.372-.248-.818-.395-1.298-.395-.761 0-1.431.367-1.859.93l-10.725-2.4a2.191 2.191 0 0 0-.099-.316l28.167-23.732c.121.051.248.088.377.121v13.217c-1.028.246-1.795 1.166-1.795 2.272zm-26.675 9.56 10.3 2.307c-.021.127-.039.254-.039.387 0 1.191.892 2.166 2.042 2.316l1.924 20.41c-.938.307-1.621 1.18-1.621 2.221 0 .636.255 1.209.665 1.632l-6.172 9.497a2.2898 2.2898 0 0 0-.386-.125L18.693 43.8c.366-.306.634-.719.759-1.192zm38.316 19.341-8.4-12.927 13.302-2.985c.163.494.478.922.901 1.209l-4.764 14.662c-.143-.026-.289-.045-.438-.045-.211 0-.409.034-.601.086zm2.42 3.723c.324-.402.525-.908.525-1.465 0-.748-.355-1.406-.9-1.836l4.793-14.75c.093.012.185.027.281.027 1.295 0 2.346-1.051 2.346-2.346 0-.098-.018-.191-.029-.287L77.21 42.77c.196.338.47.619.804.824L67.692 75.358c-.149-.028-.302-.047-.46-.047-.247 0-.48.05-.704.119l-6.34-9.758zM49.023 17.558c.131-.033.258-.07.379-.121l27.652 23.297c-.106.268-.17.559-.17.865 0 .039.01.076.012.113l-10.078 2.264c-.422-.613-1.131-1.018-1.932-1.018-.48 0-.927.145-1.299.393L50.64 33.943c.113-.275.179-.576.179-.895 0-1.105-.767-2.025-1.796-2.273V17.558zm0 17.766c.363-.088.688-.262.963-.494l12.857 9.342c-.129.232-.222.484-.267.758l-13.554 3.043V35.324h.001zm7.774 27.153c-.474.431-.775 1.043-.775 1.73 0 .045.011.088.013.131l-19.552 4.838a2.3985 2.3985 0 0 0-.354-.512L48.473 49.67l8.324 12.807zM47.922 6.642v6.367c-1.028.248-1.795 1.168-1.795 2.273 0 .188.028.369.07.545L17.8 39.752c-.194-.053-.395-.09-.606-.09-.747 0-1.405.355-1.834.9L4.562 38.145l43.36-31.503zM3.78 39.101l11.109 2.486c-.025.137-.042.277-.042.422 0 1.109.771 2.033 1.805 2.277l7.47 37.441c-.518.43-.855 1.07-.855 1.797 0 .688.3 1.299.77 1.729l-3.507 5.395L3.78 39.101zm17.546 52.346 3.68-5.664c.194.053.396.09.607.09.894 0 1.662-.506 2.058-1.241l38.407-4.941c.342.195.732.316 1.154.316.3 0 .584-.062.848-.164l7.541 11.604H21.326zm55.091-.8-7.435-11.438c.367-.416.596-.952.596-1.551 0-.291-.061-.567-.156-.826l10.75-33.086c.768-.336 1.312-1.076 1.387-1.951l11.576-2.6-16.718 51.452z"/></svg>