<svg width="389" height="234" viewBox="0 0 389 234" fill="none" xmlns="http://www.w3.org/2000/svg">
<g clip-path="url(#clip0)">
<path d="M173.466 87.9023L192.376 87.9492L192.298 154.255L170.229 154.177C169.187 154.411 167.91 154.614 166.525 154.583C158.759 154.583 151.88 151.426 148.27 142.597C143.243 151.942 135.524 155.411 126.808 155.411C123.727 155.411 121.174 154.896 119.073 154.052C119.151 154.099 64.8203 153.974 64.8203 153.974L64.9137 90.809L91.1998 90.8402C101.394 90.8402 110.996 98.685 110.996 111.374C110.996 116.828 108.397 121.126 108.397 121.126C112.039 114 119.634 110.624 127.042 110.655C134.668 110.655 142.698 112.968 147.352 124.751C150.9 115.906 155.849 111.015 167.07 111.109C169.622 111.109 170.774 111.468 173.42 112.14L173.466 87.9023Z" fill="white"/>
<path d="M285.271 88.293L322.778 88.3398L322.685 154.396L275.295 154.317C271.903 155.505 268.354 156.224 265.755 156.224C259.639 156.255 249.103 154.161 246.068 144.207C243.858 149.551 234.582 154.286 230.209 154.239L199.768 154.192L199.908 91.3559L224.466 91.3871C234.473 91.3871 244.045 96.3253 244.013 109.218C244.029 110.14 243.858 111.484 243.547 112.843L285.225 112.874L285.271 88.293Z" fill="white"/>
<path d="M120.163 129.017C120.163 125.235 123.213 122.219 126.933 122.251C130.637 122.251 133.687 125.282 133.656 129.017H120.163ZM177.544 146.051C174.587 149.004 170.681 150.817 166.37 150.817C157.281 150.817 149.857 142.613 149.857 132.627C149.904 122.594 157.312 114.484 166.432 114.484C170.712 114.484 174.603 116.312 177.544 119.172L177.56 91.6685L188.563 91.7153L188.485 150.504H177.497L177.544 146.051ZM87.5892 104.295L80.5702 104.326L80.4768 150.254H68.7578L68.8045 94.7001L88.2117 94.7783C88.4763 94.7783 89.7836 94.747 90.0637 94.747C99.2459 94.747 106.67 102.107 106.685 111.187C106.67 118.906 101.254 125.345 93.9856 127.111L110.187 150.348H96.3356L84.6011 132.127L84.6322 118.875L87.3713 118.844C91.7134 118.844 95.2307 115.578 95.2307 111.593C95.2151 107.561 91.9468 104.295 87.5892 104.295ZM144.55 135.456C144.659 134.674 144.706 133.862 144.659 133.065C144.799 121.079 136.924 114.484 126.886 114.484C116.786 114.437 108.599 122.766 108.568 133.033C108.553 143.222 116.677 151.583 126.793 151.63C134.481 151.63 140.504 148.16 143.616 142.628L134.668 138.487C133.516 140.956 130.839 142.707 127.726 142.66C123.54 142.66 120.194 139.597 120.194 135.784C120.209 135.502 120.116 135.627 120.132 135.377L144.55 135.456ZM236.139 99.5133C238.707 102.232 240.139 105.733 240.139 109.468C240.139 113.64 238.256 117.469 235.252 120.297C242.644 123.751 244.901 128.298 244.917 134.58C244.886 143.253 237.306 150.426 228 150.536H203.581L203.659 95.2471L222.568 95.3408C228.871 95.3408 233.509 96.5754 236.139 99.5133ZM319.013 150.739H307.947L308.041 92.2779L319.106 92.3248L319.013 150.739ZM300.352 150.739L289.287 150.708L289.349 92.2779L300.43 92.3248L300.352 150.739ZM259.717 136.612L259.748 116.641L248.807 116.594L248.776 138.722C248.761 146.207 256.449 152.302 265.958 152.302C275.498 152.333 283.217 146.254 283.217 138.769L283.249 116.641H272.354L272.339 136.612C272.339 139.956 269.506 142.66 266.036 142.66C262.503 142.66 259.717 139.956 259.717 136.612Z" fill="#DB0A40"/>
<path d="M156.736 40.0676C156.752 17.8459 174.696 -0.0783692 196.796 -0.000233794C218.88 -0.000233794 236.762 18.0178 236.731 40.2239C236.7 62.3987 218.771 80.3386 196.656 80.3386C174.572 80.2917 156.705 62.2893 156.736 40.0676Z" fill="#FAD50A"/>
<path d="M228.683 54.8821C228.917 54.4758 229.104 54.0851 229.275 53.7257C229.477 53.335 229.664 52.96 229.851 52.6787C229.275 52.6474 228.792 52.6474 228.294 52.5537C228.014 52.5537 227.703 52.5068 227.376 52.4755C227.828 53.2413 228.294 54.0851 228.683 54.8821ZM228.185 62.2425C227.703 63.7583 226.489 65.2897 224.248 65.4616C223.174 65.4929 221.805 65.0084 220.684 64.5709C220.124 64.3365 219.564 64.1333 219.003 63.9302C218.521 63.7583 218.163 63.6489 217.852 63.6489C217.665 63.602 217.494 63.6489 217.276 63.6489C217.027 63.6489 216.778 63.6801 216.513 63.6801C215.891 63.7583 215.206 63.8364 214.521 63.8052C213.385 63.8052 212.109 63.5239 211.05 62.555C208.56 65.196 205.619 65.8836 203.144 65.8054C202.086 65.8054 199.97 64.9928 200.359 63.3989C197.215 63.3676 195.814 60.6797 197.884 59.1952C198.18 59.0076 198.475 58.8045 198.88 58.4763C199.254 58.1169 199.814 57.6325 200.623 56.7261C202.242 55.1165 203.253 53.21 204 51.0378C204.825 48.8344 205.339 46.4278 205.899 44.0213C207.004 39.2238 208.218 33.9418 212.078 29.7694C214.988 26.5658 217.26 24.7999 223.019 20.7213C224.653 19.518 226.411 17.8771 228.061 16.5957C229.633 15.2674 231.391 13.9548 232.963 13.8297C235.562 13.5016 239.951 14.5017 243.375 18.8617C243.375 18.8617 243.437 18.9085 243.453 18.9554C243.577 18.9867 243.717 19.0336 243.92 19.1117C244.402 19.268 244.947 19.393 245.616 19.5492C247.001 19.9087 248.744 20.3619 250.534 21.3151C251.67 21.9558 252.402 22.5184 253.071 23.0653C253.382 23.2685 253.662 23.5029 254.02 23.7529C254.316 23.9873 254.596 24.2374 255.001 24.3936C255.436 24.7218 255.903 24.7999 256.448 24.8468C256.728 24.8781 256.977 24.925 257.32 25.0031C257.678 25.0344 258.02 25.1281 258.409 25.2375C259.53 25.5657 260.712 26.2064 261.802 26.8784C262.86 27.5191 263.872 28.2848 264.852 28.9255C265.926 29.6443 266.969 29.9256 268.323 30.2069C268.992 30.3632 269.708 30.5351 270.502 30.6914C271.295 30.9258 272.12 31.2071 273.069 31.6134C274.844 32.4572 276.322 33.2542 277.645 34.0981C278.906 34.9107 279.98 35.6608 281.007 36.3327C282.999 37.6923 284.586 38.5362 286.594 38.5362C288.057 38.5362 289.068 37.6923 289.084 36.2546C289.068 35.6139 288.726 34.8169 287.963 33.8637C287.605 33.4574 287.123 32.9417 286.687 32.5041C286.143 31.9415 285.629 31.504 285.131 30.9883C284.057 29.9881 282.921 28.863 282.143 27.7535C281.287 26.5971 280.664 25.3156 280.742 23.8311C280.867 22.3465 281.583 20.7994 282.641 19.8305C284.835 17.9084 286.827 17.1896 288.539 16.7364C289.348 16.502 290.049 16.3301 290.718 16.1425C291.356 15.9081 291.807 15.705 292.228 15.3456C292.726 14.908 293.177 14.533 293.457 14.3454C293.628 14.2204 293.815 14.0641 294.049 14.0173C294.298 13.9704 294.873 13.8922 295.231 14.4236C295.885 15.4706 296.165 16.3769 296.321 17.2677C296.461 18.0647 296.399 18.7991 296.399 19.3773C296.399 22.7528 294.578 25.6282 290.376 26.6752C293.659 29.7537 296.103 33.2855 296.103 36.7234C296.087 43.2087 290.345 46.2403 285.94 46.2403C285.691 46.2403 285.131 46.2091 284.431 46.1309C284.757 47.5686 284.571 48.9751 284.337 50.1002C284.182 50.8191 283.979 51.4598 283.808 51.9442L283.621 52.5068C283.606 52.7881 283.621 52.9131 284.259 52.9912C284.664 53.0694 285.038 53.0693 285.411 53.0693C285.629 53.0693 285.847 53.0693 286.049 53.0693C286.298 53.1475 286.516 53.1475 286.703 53.2256C288.835 53.8195 289.317 55.5072 289.551 56.7886C289.738 57.4293 289.831 58.0231 290.049 58.6326C290.127 58.7889 290.189 58.9451 290.22 59.117C291.107 58.07 292.228 57.6325 293.177 57.6325C294.578 57.6325 297.488 60.164 297.955 60.9923C298.173 61.4298 298.235 61.8205 298.235 62.1487C298.235 62.305 298.173 62.43 298.173 62.555C298.297 61.7893 299.682 61.9612 300.461 63.3207C300.959 64.1958 301.27 64.8834 301.161 66.1961C301.176 66.2742 301.223 66.3524 301.254 66.4774C301.332 66.6805 301.425 66.9618 301.534 67.2431C301.659 67.6025 301.815 67.9307 301.877 68.2432C301.939 68.5714 302.001 68.9621 301.939 69.3684C301.861 70.0091 301.441 70.4154 301.083 70.6967C300.71 70.978 300.227 71.2124 299.791 71.3374C298.904 71.6656 297.893 71.8687 297.192 71.9C296.71 71.9 296.352 71.6968 296.041 71.5406C295.387 71.6187 294.344 71.6656 292.897 71.6656C290.531 71.5874 289.208 70.6186 288.493 69.6653C288.135 69.2278 287.932 68.8371 287.714 68.5089C287.45 68.5558 287.247 68.6652 287.03 68.7121C286.796 68.8683 286.547 68.9465 286.329 69.0246C286.22 69.0559 286.08 69.0559 286.034 69.1027C285.909 69.1027 285.753 69.1809 285.613 69.1809C283.855 69.2121 282.61 68.3058 281.551 67.4619C280.991 67.0556 280.462 66.618 279.777 66.2117C279.17 65.8523 278.485 65.5241 277.645 65.2897C277.131 65.1647 276.509 65.0084 275.84 64.9616C275.139 64.8365 274.408 64.8834 273.645 65.0866C270.968 65.8054 269.008 64.5553 267.513 63.602C267.093 63.3207 266.72 63.1176 266.3 62.8363C265.926 62.555 265.459 62.1956 265.086 61.6799C263.934 60.0859 263.234 58.07 262.953 55.9135C262.082 56.1948 261.101 56.3042 260.323 56.3042L256.106 56.0229C252.993 56.0229 251.561 56.4292 249.18 56.5542C247.811 56.6323 245.647 56.5542 244.729 56.5073C244.667 56.5542 244.558 56.7105 244.402 56.7573C244.931 56.8667 245.212 57.1168 245.476 57.5231C245.569 57.4762 245.787 57.4449 245.912 57.4449L250.425 57.4918C251.701 57.57 252.775 58.0544 252.775 59.8984C252.806 60.7735 251.219 65.0553 248.246 65.6179C247.873 67.2587 246.612 69.9779 243.562 69.8685C241.445 69.8685 237.337 68.7121 234.177 67.6182C233.882 67.5088 233.617 67.3056 233.43 67.1337C233.29 66.9775 233.119 66.8524 232.979 66.6962C232.886 66.5712 232.792 66.493 232.714 66.368C231.983 66.4149 231.469 66.368 231.096 66.3368C230.629 66.2586 230.255 66.1336 229.944 65.8523C229.088 65.0397 228.59 64.0552 228.248 62.9613C228.294 62.6956 228.217 62.4456 228.185 62.2425ZM166.633 51.9911C165.497 52.1942 164.423 52.4286 163.505 52.5849C163.754 53.2256 164.143 53.9445 164.595 54.7414C164.984 54.0695 165.419 53.4288 165.855 52.9443C166.12 52.6474 166.369 52.3661 166.633 51.9911ZM111.322 52.3974C110.637 51.3191 110.093 49.0376 109.844 45.9434C100.397 47.428 96.0857 41.2709 96.4281 35.7702C96.646 31.5352 97.7043 29.8475 102.436 26.1283C97.7821 25.3625 95.0897 21.362 95.4944 17.9553C95.8367 15.1112 96.2725 14.3923 96.895 13.4234L97.4086 12.7515L98.1868 13.2359C98.2179 13.2672 101.657 15.6425 103.089 16.2832C103.12 16.3144 103.229 16.3144 103.54 16.4082C103.836 16.4395 104.163 16.4863 104.552 16.5176C105.346 16.6426 106.357 16.8458 107.385 17.1739C109.33 17.7678 111.649 18.971 112.271 21.6433C112.894 24.0967 112.411 25.972 111.135 27.6597C110.544 28.4254 109.766 29.1755 108.925 29.8631C108.1 30.582 107.12 31.3477 106.093 32.1759C104.599 33.4105 103.867 34.8638 103.992 36.2234C104.194 37.8954 105.501 38.6612 107.027 38.7081C108.91 38.7081 110.7 37.7079 112.769 36.2234C113.781 35.5358 114.855 34.6919 115.913 33.973C117.018 33.2073 118.154 32.4572 119.415 31.8946C120.504 31.3321 121.5 31.0508 122.387 30.8476C123.321 30.6914 124.099 30.6132 124.893 30.5351C126.34 30.3632 127.461 30.2069 128.737 29.4412C129.111 29.2068 129.531 28.8474 130.076 28.3317C130.636 27.8472 131.243 27.2847 131.85 26.769C133.126 25.7219 134.76 24.7218 136.768 24.6124C137.281 24.5655 137.842 24.5655 138.355 24.5343C138.931 24.4874 139.336 24.4093 139.507 24.378C139.662 24.2999 139.865 24.128 140.238 23.8467C140.55 23.5342 140.97 23.1279 141.421 22.6903C142.37 21.8152 143.662 20.7838 145.468 20.1743C147.786 19.4086 149.358 18.9242 150.852 18.2991C152.284 17.6896 153.638 16.9708 155.646 15.6581C156.86 14.7674 161.778 13.0484 166.96 16.5332C168.516 17.6584 169.762 18.5804 171.224 19.8305C172.641 20.9869 174.29 22.4246 176.609 24.3936C177.31 25.1125 178.072 26.0345 178.773 26.9096C179.488 27.8316 180.173 28.7067 180.718 29.3943C183.208 32.4728 185.076 34.8482 185.48 37.7704C186.196 42.8961 186.679 45.8496 188.624 51.0691C188.64 51.1003 188.702 51.1472 188.78 51.2722C188.889 51.3973 189.013 51.5066 189.138 51.6629L189.604 52.1474C189.791 52.3036 189.947 52.5068 190.134 52.7099C190.445 53.1631 190.725 53.6319 190.974 54.1476C191.223 54.5852 191.488 55.1165 191.783 55.5853C192.297 56.5073 192.935 57.273 193.853 57.82C195.067 58.4607 195.347 58.7107 195.83 59.1483C196.701 59.9453 196.25 61.1954 195.55 61.7893C195.098 62.2268 194.491 62.4612 193.76 62.5862C194.087 63.9458 193.06 65.3522 190.912 65.4304C186.539 65.5554 183.659 63.4301 182.43 62.3518L182.274 62.4612C181.807 62.7894 181.091 63.3051 180.204 63.6958C179.131 64.2271 177.901 64.1802 176.967 64.149C176.454 64.0552 175.925 64.0239 175.489 64.0239C175.022 63.9771 174.602 63.9771 174.29 64.0239C173.512 64.2271 172.594 64.5396 171.66 64.8678C170.695 65.1491 169.59 65.4773 168.594 65.5554C166.696 65.5866 165.482 64.8209 164.89 63.5864C164.704 63.3832 164.595 63.0707 164.532 62.7894C163.832 64.1958 163.007 65.3054 162.26 65.7117C161.513 65.993 160.642 66.118 159.941 66.1961C159.583 66.2742 159.225 66.2742 158.945 66.3211C158.898 66.3211 158.758 66.3211 158.696 66.3524C155.646 67.7901 150.806 69.6341 148.891 69.6809C146.775 69.7591 144.565 68.0401 143.335 65.6023C142.402 65.6492 141.281 65.3991 140.861 65.0084C139.678 63.8052 137.982 60.4766 137.873 59.1952C137.826 58.2732 138.417 57.6793 138.962 57.3981C139.476 57.1168 140.192 56.9136 140.814 56.8355C142.028 56.5542 143.444 56.6011 144.067 56.6323C144.331 56.6323 144.503 56.6323 144.689 56.6323C144.876 56.6323 145.11 56.6636 145.312 56.7105C145.468 56.7105 145.561 56.7573 145.701 56.8355C146.121 56.226 146.977 56.0385 147.584 55.9135C147.677 55.9135 147.849 55.9135 147.973 55.9135C147.6 55.6009 147.273 55.2728 146.993 54.9602C146.79 55.0696 146.619 55.1165 146.417 55.1946C145.857 55.3509 145.094 55.5228 144.3 55.5541C141.748 55.726 137.561 55.3197 137.188 55.3197C136.503 55.3509 135.32 55.5541 134.075 55.726C133.048 55.9291 131.881 56.0385 131.009 56.0072C130.558 56.8824 130.091 57.8044 129.733 58.5701C129.297 59.4452 128.815 60.3203 128.504 60.7579C127.943 61.5236 127.243 61.9143 126.621 62.2737C126.309 62.3675 126.045 62.5237 125.811 62.6019C125.578 62.7269 125.376 62.805 125.251 62.93C124.737 63.2426 123.835 63.7739 122.87 64.2115C121.952 64.6178 120.8 65.0241 119.788 64.8522C117.454 64.4928 115.742 64.2896 114.964 64.2583C114.637 64.2583 114.279 64.3834 113.765 64.6959C113.532 64.8991 113.252 65.1022 112.972 65.2897C112.676 65.5241 112.411 65.7742 112.085 66.0555C110.871 67.0556 109.268 68.2901 106.964 68.1339C106.778 68.087 106.342 68.087 105.891 68.0088C105.673 67.9307 105.439 67.8838 105.206 67.8526C105.05 68.0557 104.879 68.2901 104.754 68.5714C104.614 68.7746 104.49 69.009 104.381 69.2121C104.225 69.4622 104.07 69.6966 103.93 69.8997C103.167 70.8999 102.093 71.6656 100.148 71.7437C100.085 71.7437 99.9298 71.7437 99.712 71.6656C99.5719 71.6656 99.3696 71.6187 99.1828 71.5875C98.8093 71.5406 98.3424 71.4312 97.8911 71.353C97.4086 71.228 96.9728 71.1499 96.5993 71.0718L96.1636 70.9936C96.0235 71.0718 95.8834 71.1968 95.7901 71.228C95.6033 71.353 95.3698 71.4312 95.0741 71.4312C94.7785 71.4312 93.798 71.353 92.8019 71.1499C92.3195 70.9936 91.8059 70.8374 91.2923 70.5561C90.8721 70.3217 90.3118 69.9153 90.1406 69.2278C89.9228 68.2745 90.0628 67.6182 90.3741 67.0712C90.4986 66.8368 90.6542 66.6337 90.7632 66.4305C90.8565 66.2274 90.9188 66.1023 91.0433 65.8211C91.1367 65.3835 91.2145 64.9459 91.2768 64.5084C91.4013 64.0708 91.4791 63.5395 91.6658 63.0707C92.086 62.0237 92.8642 61.2423 94.4049 61.1173L94.5139 61.0392C95.5099 58.6013 98.2179 57.1949 99.9143 57.273H99.9921C101.284 57.5543 102.109 58.3044 102.544 59.1483C102.84 58.867 103.136 58.5857 103.26 58.3044C103.291 58.2263 103.338 58.0544 103.432 57.945C103.494 57.7419 103.556 57.5543 103.603 57.3043C103.727 56.8198 103.93 56.3042 104.116 55.7885C104.521 54.8196 105.268 53.3819 106.84 53.3819C108.241 53.3819 109.626 53.1944 110.528 52.8193C110.98 52.6005 111.166 52.4755 111.322 52.3974Z" fill="white"/>
<path d="M298.765 64.5241C299.279 65.3211 299.061 66.4462 299.248 67.2588C299.372 67.8527 300.166 68.3683 299.746 69.0091L297.489 69.7279C297.085 69.7592 297.209 69.2435 297.1 69.0091C296.804 67.6964 296.524 66.7275 296.104 65.4773C296.011 64.7585 296.742 64.1959 297.256 63.8052C297.863 63.649 298.283 64.2115 298.765 64.5241ZM96.2114 64.6022V64.9929C95.7134 66.1649 95.4022 67.7276 94.982 69.1497C94.0015 68.9934 93.2389 68.6653 92.4919 68.4309C92.3207 68.2277 92.4452 67.9933 92.4919 67.712C93.4101 66.8994 93.1766 65.868 93.379 64.696C93.519 64.1022 94.1104 63.5396 94.6707 63.2114C95.3866 63.3989 95.8068 64.1334 96.2114 64.6022ZM293.505 59.8047C294.33 60.5704 295.419 61.133 296.104 62.055C296.182 62.5394 295.933 62.8989 295.668 63.2583C295.357 63.4927 294.968 63.774 294.454 63.774C293.91 63.6958 293.474 63.4614 293.132 63.0083C292.649 62.2425 291.933 61.5237 291.715 60.6486C292.089 60.086 292.774 59.2421 293.505 59.8047ZM100.771 60.2891C100.149 61.3362 99.4486 62.5394 98.4058 63.1802C97.9856 63.3052 97.4721 63.3052 97.0674 63.102C96.8495 62.9145 96.4293 62.6176 96.4449 62.2582C96.4916 61.8987 96.3671 61.383 96.6939 61.1017C97.5654 60.5704 98.4058 60.0235 99.1684 59.3828C99.4019 59.3046 99.7443 59.1796 99.9466 59.3359C100.258 59.5703 100.631 59.8828 100.771 60.2891ZM243.672 59.0077C243.532 59.961 243.221 60.9611 242.878 61.8831C242.551 62.5238 241.649 62.3363 241.057 62.2425C240.404 62.0081 239.392 61.93 239.299 61.0392C239.221 60.1954 239.626 59.3671 240.015 58.7577C240.964 58.6014 242.084 58.8046 243.049 58.6796C243.298 58.6014 243.579 58.7264 243.672 59.0077ZM152.597 59.9297C152.643 60.4142 153.359 60.8986 152.877 61.2893C152.036 61.93 151.071 62.3675 150.013 62.2113C149.204 61.6018 149.235 60.3673 148.503 59.5703C148.363 59.0077 147.399 58.9765 147.585 58.2889L147.881 58.0857C149.017 58.0545 150.169 58.0545 151.305 57.8513C152.457 57.9295 152.099 59.289 152.597 59.9297ZM239.812 18.5336C240.948 19.2993 241.415 20.7839 242.8 21.1433C245.041 21.6277 247.329 22.1434 249.384 23.1748C250.878 23.9405 252.232 25.0188 253.461 26.1908C254.737 26.7847 256.247 26.7534 257.616 27.2379C259.531 27.7223 261.149 29.2381 262.877 30.3633C265.165 32.1916 268.417 31.926 270.954 33.0824C275.125 34.4419 278.455 37.6924 282.268 39.5676C284.261 40.6459 287.218 41.0991 289.21 39.8489C290.532 38.9269 291.404 37.6768 291.124 35.9578C290.361 31.7541 285.739 29.4725 283.513 25.9408C283.078 25.0969 282.813 24.0187 283.015 22.9717C283.84 20.8933 286.066 19.815 287.902 19.0024C289.365 18.3148 291.171 18.4398 292.571 17.6428C293.1 17.3615 293.474 16.8771 293.847 16.5177C294.19 16.5177 294.174 16.8771 294.252 17.0803C294.672 19.6118 294.205 22.1747 292.073 23.6124C291.217 24.2062 290.237 24.4094 289.225 24.7219C288.447 25.0344 286.782 24.3156 286.844 25.8002C287.046 26.4409 287.7 26.9722 288.229 27.441C291.124 29.8476 293.738 32.9261 294.065 36.6922C294.205 39.5676 292.229 42.0992 289.723 43.3025C287.933 44.0682 285.537 44.3495 283.545 43.7713C283.015 43.7244 282.222 43.1775 281.786 43.8963C281.708 44.6933 282.253 45.3028 282.268 46.131C282.471 47.4437 282.424 49.2095 282.004 50.491C281.786 51.5849 280.728 52.7725 281.708 53.8977C282.658 55.3041 284.51 54.8665 286.05 55.1009C286.875 55.3041 287.14 56.2261 287.389 56.8668C287.669 57.6325 287.747 58.5858 288.042 59.2265C288.027 60.758 289.754 61.3518 290.626 62.3988C291.684 63.5239 292.54 65.5242 294.408 65.3992C294.968 66.6806 295.341 67.837 295.528 69.2435L295.31 69.4779C293.816 69.431 291.886 69.8842 290.797 68.8372C289.536 67.9933 289.116 65.7117 287.326 66.2743C286.502 66.915 285.397 67.1494 284.416 66.7119C283.513 66.4306 282.86 65.5867 282.051 65.1179C279.592 63.2739 276.308 62.3519 273.055 63.0395C271.219 63.5552 269.756 62.2738 268.277 61.3987C266.363 60.5548 265.803 58.4764 265.367 56.6793L265.025 54.4759C265.025 54.2727 265.18 54.0383 265.398 53.9914L265.694 54.0383C267.094 57.2887 268.448 59.289 271.732 60.4142C274.487 61.5393 276.837 60.1641 279.436 60.6486C282.035 60.9767 284.105 62.6488 286.066 64.2115C286.268 64.2428 286.408 64.0396 286.439 63.9303L286.455 63.7584C284.12 60.758 280.852 58.7264 277.008 59.0077C273.787 59.6484 270.643 58.6014 268.822 55.8823C267.857 54.3196 267.032 53.1632 266.783 51.3661C266.503 49.2877 266.021 47.0061 265.351 45.1152C265.18 44.959 264.791 44.7558 264.527 44.9121L264.106 45.2403C264.464 47.2405 265.429 49.6002 264.698 51.7568C264.2 53.3663 262.503 53.9914 260.947 54.0852C259.344 54.1633 257.928 54.0071 256.309 54.0071C252.574 53.8508 249.57 54.9759 245.711 54.5696C246.006 53.6476 246.613 52.9288 246.271 51.9286C246.131 51.6942 245.68 51.6942 245.431 51.7724C244.73 52.2099 244.808 53.1476 244.372 53.7414C243.547 55.1009 242.038 56.273 240.45 56.5855C239.361 57.4606 238.303 58.6639 237.416 59.6328C237.026 59.9922 237.042 60.5548 237.151 61.0392C237.929 62.8832 240.015 63.1176 241.695 63.6021C242.583 63.6802 243.33 63.3989 243.734 62.6488C244.435 61.5237 244.575 59.6484 246.255 59.4922H249.866C250.146 59.5703 250.426 59.7734 250.52 60.0547L250.38 60.6173C249.586 61.5862 249.259 62.8207 248.185 63.5396C247.609 63.7427 246.831 63.5083 246.458 64.0553C246.209 65.2898 245.897 66.6181 244.684 67.3057C243.765 68.1027 242.396 67.6964 241.4 67.3838C239.485 66.6181 237.384 66.2587 235.486 65.6649C234.63 65.4305 234.287 64.3834 233.431 64.1959C232.638 63.9146 231.704 64.6335 231.019 63.8677C230.537 62.9457 230.381 62.305 230.148 61.258C229.836 60.6954 229.665 59.9453 229.556 59.2578C229.401 58.6639 229.572 58.2107 229.774 57.6482L232.404 52.8038C232.653 52.5225 232.84 52.2099 233.167 52.0537C233.805 52.2099 234.505 52.5381 235.081 52.8506L235.05 53.1319L232.295 57.4138C231.688 58.7733 232.326 60.2579 232.918 61.4143C233.058 61.4924 233.12 61.7425 233.229 61.6174C233.198 60.7736 233.089 59.9297 233.276 59.0546C233.463 58.2576 233.961 57.4606 234.427 56.7418L236.622 53.5382C236.855 52.9757 236.746 52.1787 236.466 51.7099C235.517 50.7097 234.132 50.4597 233.322 49.1783C231.564 46.8186 231.875 44.0526 231.642 40.9741C231.642 40.7709 231.268 40.4115 231.004 40.3334C230.77 40.2552 230.319 40.5365 230.21 40.6928C229.634 42.6149 230.008 45.0527 230.474 46.7717C230.848 48.1782 231.408 49.4439 231.984 50.7254C232.062 51.0066 231.906 51.2411 231.688 51.2879C230.288 51.413 228.84 51.2879 227.393 51.1317C225.479 50.8504 224.171 49.3658 222.631 48.2407C222.491 48.1156 222.273 48.3188 222.148 48.4907C222.584 50.5691 224.856 51.7724 225.588 53.7258C226.07 55.2416 227.502 56.4605 227.891 58.0857C227.86 58.3358 227.689 58.6014 227.486 58.7577C226.957 58.8358 226.459 58.5233 225.992 58.8046C225.899 59.6797 226.49 60.6486 226.101 61.5237C225.588 62.3207 224.856 63.2427 223.891 63.2895C222.055 62.602 220.218 61.8519 218.382 61.2893C217.012 61.1799 215.612 61.3674 214.351 61.5237C213.168 61.2424 212.297 60.211 211.363 59.4922C211.083 59.414 210.803 59.3671 210.585 59.6172C208.499 61.6956 206.258 63.9771 203.13 63.8209C202.943 63.774 202.803 63.5865 202.788 63.4146L202.803 63.1802C204.204 61.9769 205.822 60.6486 206.414 58.9765C206.818 57.5388 208.11 56.4918 208.546 55.1009C208.608 54.8197 208.406 54.7415 208.235 54.6946L207.877 54.8509C206.383 56.4605 205.184 58.1326 204.126 59.8516C203.006 61.0549 201.294 61.7268 199.597 61.2893C199.379 61.133 199.379 60.8517 199.488 60.6486C205.931 56.6949 206.663 49.6471 208.437 43.24C209.713 39.0051 210.585 34.5982 213.946 31.1446C218.927 25.7064 225.167 22.4247 230.568 17.6585C231.377 16.9396 232.249 16.252 233.276 16.1426C235.875 15.9238 237.929 17.0021 239.812 18.5336ZM102.421 18.2054C104.88 18.8461 107.588 18.9242 109.409 20.8464C110.452 22.1278 110.545 24.2531 109.767 25.5658C108.366 28.0505 105.487 29.3631 103.697 31.4884C101.954 32.973 101.254 35.2858 101.861 37.4892C102.468 39.4582 104.398 40.8178 106.405 40.9272C109.471 41.0053 111.806 39.4895 114.218 38.0362C116.692 36.3172 118.98 34.0356 121.844 33.3168C123.665 32.6292 125.812 33.0042 127.602 32.2698C129.61 31.8635 131.12 30.1914 132.691 28.7849C134.434 27.3472 136.489 26.5034 138.808 26.5815C140.862 26.9409 142.014 25.0188 143.414 23.8155C145.749 21.6902 148.939 21.4558 151.694 20.2213C153.655 19.5806 155.258 18.1898 157.063 17.2209C158.822 16.4552 161.234 16.3302 163.008 17.0177C164.207 17.5803 165.358 18.0491 166.354 18.8149L174.774 25.8939C174.914 26.144 175.225 26.3315 175.474 26.5346C177.84 29.4569 180.361 32.301 182.275 35.4264C182.914 36.5516 183.194 37.7393 183.474 38.9425C183.847 43.6932 185.17 47.8656 186.727 52.0693C187.147 52.7413 187.925 53.1476 188.392 53.8352C189.699 55.6635 190.571 58.0388 192.672 59.3203L193.963 59.961C193.979 60.0391 194.041 60.2423 193.963 60.3673L193.745 60.5704C191.146 61.008 189.217 59.3671 187.863 57.4919C187.053 55.8979 185.933 54.0539 184.081 53.382C184.003 53.3351 183.941 53.4914 183.816 53.5382C184.081 54.1008 184.61 54.5853 184.921 55.1478C185.59 56.3042 186.275 57.5857 186.618 58.7421C186.976 60.0704 188.454 61.0705 189.606 61.8206L191.302 62.6645C191.52 62.7895 191.567 63.1489 191.38 63.3521L191.115 63.4614C188.345 63.5396 185.839 62.6176 183.941 60.5861C183.458 60.0704 182.882 59.5859 182.182 59.5859C180.953 60.6954 179.723 61.8206 178.027 61.9144C176.346 61.6331 174.369 61.5862 172.813 62.2738C171.412 62.7582 169.981 63.3989 168.393 63.4302C167.662 63.4302 166.821 63.0708 166.557 62.3519C166.526 61.4612 165.856 60.3985 166.448 59.4765L167.506 57.9138C167.506 57.6638 167.35 57.5544 167.133 57.4763C166.697 57.4294 165.981 58.1951 165.794 57.3981C165.919 55.7573 167.475 54.8353 168.549 53.7101C168.782 52.4287 169.265 51.3192 170.183 50.3034C170.167 50.1784 170.043 50.0221 169.903 49.944C168.549 50.1472 167.226 50.5066 165.747 50.5066C164.611 51.116 163.195 51.5536 161.857 51.116C161.545 50.9129 161.639 50.5847 161.748 50.3503C163.18 48.4282 163.724 45.9122 163.335 43.4588C163.195 43.3494 162.977 43.0681 162.759 43.0993C162.51 43.0993 162.277 43.3806 162.215 43.5369C161.841 45.8185 161.577 47.5843 160.394 49.5065C159.491 50.4597 157.997 50.4284 156.814 50.8348C156.534 50.9441 156.192 51.2411 156.223 51.6005C156.161 52.3662 156.736 52.96 157.063 53.632L159.771 58.6014C159.88 59.961 159.258 61.3205 158.962 62.5238C159.149 62.7582 159.32 62.6488 159.46 62.5551C160.456 61.68 161.078 60.5548 161.436 59.3515C161.545 58.7889 161.312 58.1795 161.156 57.7888L158.386 52.1787C158.557 51.8193 159.009 51.8974 159.351 51.788C160.036 51.7411 160.549 52.1162 161.172 52.2724C161.81 53.9914 162.464 55.6792 163.678 57.1637C163.958 58.0388 164.222 59.289 163.6 60.1329C163.024 61.3674 162.339 62.4144 161.545 63.5708C160.861 64.2897 159.756 64.2428 158.775 64.3366H157.919C155.491 65.6961 152.877 66.4931 150.247 67.2901C149.064 67.8214 147.71 67.4464 146.838 66.6494C145.904 65.9305 145.515 64.8522 144.908 63.9303C144.208 63.0083 143.056 63.8052 142.232 63.3208C141.562 62.1175 140.862 60.9611 140.193 59.7891C140.146 59.4765 140.193 59.1484 140.488 58.9452C141.391 58.617 142.418 58.5858 143.445 58.4608C144.442 58.4139 145.36 58.5858 146.045 59.2578C147.258 60.7423 147.741 62.6957 149.64 63.649C151.103 63.774 152.394 63.2895 153.593 62.6801C154.324 62.2425 155.149 61.6018 155.149 60.6798C155.04 58.8827 153.826 57.3981 152.332 56.3667C150.76 55.5698 149.126 54.3665 147.99 52.9132C147.43 52.1474 147.274 51.1942 146.932 50.2722C146.792 50.1159 146.294 49.9909 146.091 50.1159C145.5 50.7097 146.013 51.0848 146.06 51.7099C146.138 52.1474 146.06 52.6788 145.78 53.0851C144.908 53.757 144.068 53.5226 142.916 53.5695C140.613 53.3976 138.683 53.1944 136.255 53.3663C133.968 53.5226 130.793 54.7572 129.065 52.4756C128.271 50.3191 128.941 47.7093 129.361 45.5528C129.361 45.2715 128.941 45.0684 128.738 45.0684C128.536 44.9902 128.007 45.1465 127.96 45.3496C127.384 47.4749 127.198 49.8659 126.7 52.1474C125.844 54.1164 124.474 55.7104 122.451 56.7887C120.661 57.7107 118.607 58.0388 116.443 58.1951C112.553 58.2264 108.88 59.0702 106.452 62.3988C106.296 62.727 105.938 63.4458 106.032 63.8834C106.219 63.9928 106.436 64.1178 106.608 63.9928C109.3 60.9611 112.771 59.7891 116.63 59.9141C121.828 59.9141 123.852 59.6016 126.435 56.0698C127.011 55.3822 127.415 54.6165 127.976 53.8664C128.396 53.7883 128.723 54.3508 128.972 54.6321C129.096 55.7104 128.147 56.4761 127.789 57.445C127.291 58.492 126.793 59.7266 125.672 60.2891C124.412 60.5704 123.385 61.4143 122.28 62.0863C121.112 62.6019 119.696 62.852 118.373 62.4926C116.661 62.18 114.389 61.7268 112.739 62.4926C111.899 63.0083 111.23 63.9771 110.436 64.4928C109.222 64.9773 108.242 65.9461 106.872 65.8993C105.938 65.7274 104.787 65.0867 104.009 65.9305C102.997 66.8838 102.701 68.4934 101.394 69.1341C99.8532 69.9467 98.2346 69.1028 96.6628 68.9309C96.9273 67.4151 97.0985 65.8993 98.1257 64.8054C98.7171 64.7585 99.2774 64.6022 99.6976 64.1959C100.336 63.6802 100.818 62.9145 101.238 62.2894C102.53 61.4455 104.102 60.8048 104.942 59.3671C105.565 58.0076 105.612 56.773 106.654 55.601L107.199 55.2728L109.969 55.1166C111.105 54.679 112.179 54.0696 113.191 53.2726C113.518 52.9132 113.564 52.4287 113.518 51.9912C113.02 50.6316 112.584 49.6783 112.241 48.2719C111.883 46.7561 112.117 45.3496 111.992 43.7088C111.883 43.5213 111.79 43.3181 111.51 43.2712C109.674 43.6307 107.868 44.1932 105.829 43.8651C103.044 43.5056 100.164 41.7085 99.1684 38.8957C98.2346 36.4578 98.4681 33.0511 100.18 31.1759C101.892 29.0819 103.993 27.4879 105.985 25.847C106.312 25.5658 106.359 25.2376 106.405 24.8782C106.39 24.425 106.016 24.1124 105.643 23.9562C104.382 23.6749 102.966 24.0812 101.721 23.5655C99.5886 22.7685 97.8767 20.7214 97.6277 18.4711C97.5499 17.4397 97.7366 16.5958 98.2658 15.7988C99.6509 16.5646 100.865 17.7678 102.421 18.2054Z" fill="#DB0A40"/>
<path d="M164.828 34.1767L164.797 34.2548L164.766 34.3017C164.626 34.4267 164.393 34.5048 164.237 34.3798L164.159 34.3017V34.2235C163.832 32.739 163.505 31.3013 162.976 29.8948C162.898 29.7386 162.774 29.5354 162.634 29.3791C162.494 29.176 162.369 28.9728 162.229 28.7697C161.949 28.2852 161.794 27.8477 162.089 27.2539L162.136 27.1757C162.416 26.8944 162.898 26.8632 163.225 26.9726L163.35 27.0507C163.941 27.457 164.33 28.129 164.61 28.6916C165.342 30.3011 165.295 32.5046 164.828 34.1767Z" fill="white"/>
<path d="M182.805 48.0687C182.727 48.1469 182.696 48.225 182.665 48.35C182.65 48.475 182.603 48.5532 182.603 48.6626C182.51 48.9126 182.385 49.1157 182.027 49.2251C181.654 49.3033 181.327 49.0689 181.342 48.7094C181.311 48.225 181.28 47.7406 181.218 47.303C181.124 46.8654 180.984 46.4591 180.766 46.0997C180.611 45.9747 180.471 45.7403 180.268 45.5371C180.128 45.334 179.926 45.0996 179.755 44.9433C179.397 44.6151 179.039 44.3339 178.634 44.3339C178.354 44.412 178.058 44.662 177.825 44.9433C177.701 45.0527 177.545 45.2246 177.467 45.4278L177.14 45.8184C177.016 46.0685 176.704 45.9903 176.658 45.9903L176.564 45.9122L176.502 45.8184C176.284 45.2246 176.409 44.6933 176.596 44.2245C176.782 43.7869 177.078 43.3806 177.234 42.943L177.296 42.818C177.374 42.7399 177.467 42.5836 177.607 42.3336C177.669 42.0992 177.778 41.8179 177.841 41.5679C178.121 41.0522 178.51 40.6459 179.366 41.0053C179.864 41.2397 180.191 41.6773 180.455 42.0836C180.564 42.2867 180.689 42.4899 180.798 42.7243C180.922 42.8805 181.062 43.0524 181.171 43.2087C182.385 44.5526 183.225 46.1153 182.805 48.0687Z" fill="white"/>
<path d="M178.384 57.8046L178.369 57.8514H178.353C177.606 58.0546 176.859 58.164 176.081 58.0858H176.05H176.034C175.956 58.0546 175.91 58.0546 175.847 58.0077C175.785 58.0077 175.707 57.9765 175.661 57.9296C175.552 57.8046 175.427 57.6483 175.536 57.4139C175.879 56.4138 176.844 55.3824 177.98 55.1323C178.057 55.1323 178.182 55.1323 178.26 55.1323C178.306 55.1323 178.415 55.1323 178.571 55.1792C178.727 55.2573 178.945 55.3824 179.022 55.7105C179.054 56.32 179.054 57.2889 178.384 57.8046Z" fill="white"/>
<path d="M234.194 25.8943C234.178 26.0036 234.1 26.1287 234.022 26.2068L233.867 26.4568C233.104 27.2226 232.295 27.9414 231.563 28.6602C230.801 29.426 230.069 30.1448 229.587 30.9731C229.213 31.4888 228.887 32.0982 228.606 32.692C228.513 32.8952 228.28 32.9264 228.093 32.8952L228.015 32.8483L227.953 32.7233C227.813 32.2389 227.828 31.77 227.922 31.3169C227.999 30.8793 228.14 30.3949 228.295 30.0042C229.058 27.9727 230.754 26.0505 232.482 24.7535C232.84 24.5191 233.851 24.3159 234.178 25.0816C234.271 25.3317 234.271 25.6598 234.194 25.8943Z" fill="white"/>
<path d="M219.642 45.7094C219.72 45.8657 219.72 45.9907 219.72 46.1001C219.642 46.2095 219.595 46.3501 219.595 46.4595C219.471 46.6158 219.377 46.772 219.206 46.8502C219.05 46.9283 218.833 46.9752 218.646 46.8189C218.428 46.772 218.272 46.6158 218.163 46.4595C218.054 46.3814 218.023 46.2876 217.977 46.2095L217.868 46.0063C217.681 45.725 217.572 45.5688 217.261 45.5688C216.981 45.5688 216.716 45.6938 216.498 45.8501C216.389 45.9751 216.296 46.0063 216.187 46.1313C216.062 46.1782 215.922 46.2564 215.782 46.3657C215.533 46.5689 215.3 46.772 215.066 46.9596C214.817 47.1627 214.553 47.3971 214.35 47.6472C213.915 48.0847 213.588 48.5692 213.494 49.1161C213.432 49.288 213.401 49.3974 213.386 49.4755C213.386 49.6318 213.354 49.7099 213.339 49.8662C213.277 50.1162 213.199 50.4288 212.887 50.6007C212.452 50.757 212.032 50.4444 212.032 50.0694C211.86 48.3816 212.436 46.7408 213.666 45.5844C214.273 45.1156 214.739 44.5843 215.191 43.9748C215.704 43.381 216.171 42.7403 216.638 42.2089L216.794 42.1933C217.463 42.037 217.914 42.5996 218.179 42.959C218.786 43.7873 219.253 44.7093 219.642 45.7094Z" fill="white"/>
<path d="M218.848 57.57C218.972 57.8513 219.034 58.1639 218.832 58.492L218.817 58.5702L218.785 58.6171C218.505 58.8202 218.194 58.8202 217.852 58.8202C217.509 58.8202 217.214 58.7733 216.918 58.7421H216.887V58.6952C216.093 58.2576 216 57.3669 215.906 56.648C215.906 56.4449 215.937 56.1636 216.186 55.9761L216.295 55.9292H216.326C217.105 55.9292 217.945 56.0855 218.505 56.8043V56.8356C218.599 57.0856 218.739 57.32 218.848 57.57Z" fill="white"/>
<path d="M161.42 132.987C161.436 128.064 165.062 124.079 169.56 124.079C174.042 124.11 177.621 128.095 177.621 133.033C177.621 137.925 173.995 141.91 169.544 141.91C165.046 141.91 161.389 137.925 161.42 132.987Z" fill="white"/>
<path d="M225.976 140.878H215.439L215.471 104.811L222.832 104.858C226.053 104.811 228.699 107.483 228.668 110.749C228.699 114.015 226.038 116.609 222.801 116.609H218.957V126.564L225.976 126.642C229.882 126.595 232.87 129.83 232.87 133.768C232.699 137.815 230.224 140.628 225.976 140.878Z" fill="white"/>
<path d="M81.2081 175.945L66.252 227.343L70.1427 228.484L76.4614 206.793H96.7868L103.93 229.156L107.79 227.905L91.1996 175.945H81.2081ZM77.6442 202.73L84.2585 180.024H88.2426L95.495 202.73H77.6442Z" fill="white"/>
<path d="M27.5306 174.086V223.233C26.5346 223.936 25.8965 225.077 25.8965 226.374C25.8965 228.499 27.6084 230.218 29.725 230.218C30.8456 230.218 31.8416 229.734 32.5264 228.968H55.9177L66.1894 221.608V211.372L58.2522 204.043V198.933L66.1894 191.604V181.368L55.9177 174.008L27.5306 174.086ZM54.2058 199.464H31.5926V178.165L54.626 178.102L62.1274 183.478V189.822L54.1902 197.152V199.464H54.2058ZM31.5926 223.061V203.543H54.2058V205.84L62.143 213.169V219.514L54.626 224.905H33.2423C32.9155 224.108 32.324 223.483 31.5926 223.061Z" fill="white"/>
<path d="M240.154 229.453H274.222V225.374H244.216V204.387H274.222V200.308H244.216V178.102H274.222V174.023H240.154V229.453Z" fill="white"/>
<path d="M115.338 177.711H141.998V189.01H146.06V173.648H111.292V189.526L142.309 216.263V225.14H114.591V212.325H110.529V229.218H146.356V214.404L115.338 187.666V177.711Z" fill="white"/>
<path d="M189.652 171.929V223.592C188.952 223.999 188.392 224.624 188.065 225.374H155.398V204.387H185.404V200.308H155.398V178.102H185.404V174.023H151.352V229.453H188.734C189.434 230.234 190.446 230.75 191.582 230.75C193.699 230.75 195.411 229.031 195.411 226.905C195.411 225.593 194.742 224.421 193.73 223.733V184.025L210.242 205.809L205.324 212.294L208.562 214.763L212.795 209.184L217.028 214.763L220.265 212.294L215.347 205.809L231.86 184.025V229.343H235.922V171.929L212.795 202.433L189.652 171.929Z" fill="white"/>
<path d="M343.026 177.711H361.935V173.633H318.623C317.876 172.695 316.74 172.086 315.448 172.086C313.191 172.086 311.355 173.93 311.355 176.195C311.355 177.618 312.086 178.868 313.191 179.618V218.357L278.797 171.554V229.031H282.859V183.931L317.253 230.734V179.868C318.156 179.415 318.872 178.665 319.245 177.727H338.964V225.218H331.058V229.296H349.189V234.016H353.142V220.514H349.189V225.233H343.026V177.711Z" fill="white"/>
<path d="M11.9836 202.183H0V47.9438H49.7086V49.4753H1.50962V200.667H11.9836V202.183Z" fill="white"/>
<path d="M52.0116 48.7098C52.0116 50.085 50.9066 51.1945 49.537 51.1945C48.1675 51.1945 47.0625 50.085 47.0625 48.7098C47.0625 47.3346 48.1675 46.2251 49.537 46.2251C50.9066 46.2251 52.0116 47.3346 52.0116 48.7098Z" fill="white"/>
<path d="M340.894 48.7098C340.894 50.085 339.789 51.1945 338.42 51.1945C337.05 51.1945 335.945 50.085 335.945 48.7098C335.945 47.3346 337.05 46.2251 338.42 46.2251C339.789 46.2251 340.894 47.3346 340.894 48.7098Z" fill="white"/>
<path d="M14.4432 201.495C14.4432 202.871 13.3382 203.98 11.9687 203.98C10.5991 203.98 9.49414 202.871 9.49414 201.495C9.49414 200.12 10.5991 199.011 11.9687 199.011C13.3382 199.026 14.4432 200.136 14.4432 201.495Z" fill="white"/>
<path d="M385.328 137.002V202.871H373.547V201.355H383.819V137.487L385.328 137.002Z" fill="white"/>
<path d="M385.327 113.296V47.9595H338.467V49.4753H383.818V113.203L385.327 113.296Z" fill="white"/>
<path d="M375.974 202.121C375.974 203.496 374.87 204.606 373.5 204.606C372.13 204.606 371.025 203.496 371.025 202.121C371.025 200.761 372.13 199.636 373.5 199.636C374.87 199.636 375.974 200.746 375.974 202.121Z" fill="white"/>
<path d="M389 138.081H380.238V112.75H389V138.081ZM381.748 136.565H387.491V114.265H381.748V136.565Z" fill="white"/>
</g>
<defs>
<clipPath id="clip0">
<rect width="389" height="234" fill="white"/>
</clipPath>
</defs>
</svg>
