<svg width="1920" height="1080" viewBox="0 0 1920 1080" fill="none" xmlns="http://www.w3.org/2000/svg">
<g clip-path="url(#clip0_530_316)">
<path d="M1920 0H0V1080H1920V0Z" fill="#7E0CF5"/>
<path opacity="0.158" d="M0 922.613L132.422 883.002L323.053 862.266L551.896 802.066H725.191L914.393 862.266C914.393 862.266 1048.1 899.03 1056.85 901.133C1065.6 903.236 1184.83 937.832 1184.83 937.832L1360.23 1007.43L1642.37 1037.78L1892.01 1078.5H0V922.613Z" fill="#C411C6"/>
<path opacity="0.3" d="M0 638.174C0 638.174 69.4996 607.975 114.391 607.975C159.282 607.975 349.23 670.656 349.23 670.656L638.678 807.467L0 1025.85V638.174Z" fill="#C411C6"/>
<path opacity="0.3" d="M-0.662109 689.127C-0.662109 689.127 360.57 655.063 390.295 660.842C420.02 666.621 518.545 727.565 554.795 729.914C591.045 732.263 665.344 729.514 781.811 754.098C898.278 778.682 1006.11 830.516 1006.11 830.516C1006.11 830.516 1411.31 978.666 1455.6 989.875C1499.89 1001.08 1563.23 1001.33 1612.18 989.875C1661.12 978.424 1917.44 873.676 1917.44 873.676V1076.32L-0.0957031 1080.05L-0.662109 689.127Z" fill="#C411C6"/>
<path d="M1458.97 435.027C1501.14 435.027 1541.57 451.776 1571.38 481.59C1601.2 511.403 1617.95 551.838 1617.95 594H1300C1300 551.838 1316.75 511.402 1346.56 481.589C1376.38 451.776 1416.81 435.027 1458.97 435.027V435.027Z" fill="url(#paint0_linear_530_316)"/>
<path opacity="0.1" d="M3.00007 594.092V643.179C3.00007 643.179 72.5001 612.979 117.39 612.979C152.061 612.979 273.265 650.37 326.653 667.395C361.153 665.321 386.325 664.487 393.295 665.843C423.019 671.622 521.545 732.565 557.795 734.915C594.045 737.265 668.344 734.515 784.811 759.099C901.278 783.683 1009.11 835.516 1009.11 835.516C1009.11 835.516 1414.31 983.667 1458.6 994.875C1502.89 1006.08 1566.24 1006.33 1615.18 994.875C1664.12 983.423 1920.44 878.675 1920.44 878.675V594.092C1920.44 594.092 2.56307 594.133 3.00007 594.092Z" fill="#C411C6"/>
<path style="mix-blend-mode:overlay" opacity="0.5" d="M1920 0H0V540H1920V0Z" fill="url(#paint1_linear_530_316)"/>
<g style="mix-blend-mode:multiply" opacity="0.66">
<g style="mix-blend-mode:multiply" opacity="0.66">
<path d="M681.317 737.154C622.003 730.927 541.869 728.59 541.869 728.59L475.241 699.414H475.498L475.241 699.406L410.012 667.625V639.252C404.823 639.481 396.326 639.212 389.332 635.931C378.432 630.822 376.832 625.771 371.168 618.412C369.499 616.143 368.306 613.557 367.664 610.814C367.023 608.071 366.944 605.227 367.434 602.453C367.434 602.453 370.586 608.951 381.94 611.111C392.04 613.041 402.118 611.537 410.01 611.183V580.254C404.821 580.483 396.326 580.212 389.334 576.933C378.434 571.824 376.834 566.773 371.17 559.412C369.5 557.143 368.308 554.559 367.666 551.816C367.025 549.073 366.946 546.229 367.436 543.455C367.436 543.455 370.588 549.945 381.942 552.113C392.042 554.043 402.118 552.539 410.008 552.183V515.252C404.819 515.481 396.328 515.21 389.336 511.931C378.436 506.822 376.836 501.771 371.172 494.41C369.502 492.141 368.31 489.557 367.668 486.814C367.026 484.071 366.948 481.227 367.438 478.453C367.438 478.453 370.59 484.951 381.944 487.111C392.038 489.039 402.115 487.537 410.006 487.181V455.838H402.772C402.772 455.838 388.241 458.037 377.336 452.937C366.431 447.837 364.836 442.777 359.174 435.416C357.503 433.148 356.31 430.563 355.668 427.82C355.026 425.077 354.948 422.233 355.44 419.459C355.44 419.459 358.596 425.951 369.94 428.119C377.727 429.605 385.499 429.051 392.266 428.556C386.758 423.413 379.293 413.609 380.991 399.22C392.872 418.491 412.553 411.127 412.553 411.127C412.553 411.127 419.285 410.252 423.375 407.277C425.981 405.202 427.906 402.397 428.907 399.22C428.907 399.22 428.42 390.028 433.797 385.381C432.776 394.947 437.619 399.22 437.619 399.22H467.057C485.784 394.204 493.256 368.814 493.256 368.814H499.83L505.391 320.873L508.713 315.533L508.744 316.154V315.533L512.061 320.873L517.627 368.814H524.2C524.2 368.814 531.681 394.205 550.401 399.22H579.836C579.836 399.22 584.681 394.948 583.659 385.381C589.036 390.027 588.541 399.22 588.541 399.22C589.547 402.397 591.476 405.201 594.082 407.277C598.17 410.252 604.903 411.127 604.903 411.127C604.903 411.127 624.588 418.491 636.463 399.22C638.195 413.902 630.389 423.808 624.856 428.863C630.802 429.353 636.786 429.104 642.67 428.119C654.024 425.951 657.182 419.459 657.182 419.459C657.672 422.233 657.595 425.077 656.953 427.82C656.312 430.563 655.118 433.147 653.448 435.416C647.78 442.777 646.177 447.828 635.272 452.937C629.42 455.681 622.516 456.316 617.381 456.316C614.858 456.33 612.338 456.171 609.836 455.842H601.971L601.871 487.156C609.861 487.443 620.256 489.103 630.666 487.115C642.021 484.953 645.178 478.455 645.178 478.455C645.67 481.229 645.593 484.075 644.95 486.818C644.307 489.561 643.111 492.145 641.438 494.412C635.776 501.773 634.178 506.826 623.274 511.935C617.417 514.681 610.513 515.314 605.375 515.314C604.043 515.314 602.831 515.272 601.786 515.215L601.668 552.152C609.686 552.42 620.168 554.125 630.668 552.119C642.023 549.951 645.18 543.459 645.18 543.459C645.672 546.233 645.595 549.079 644.952 551.822C644.309 554.565 643.113 557.149 641.44 559.416C635.778 566.777 634.18 571.83 623.276 576.939C617.419 579.685 610.513 580.318 605.375 580.318C603.953 580.318 602.67 580.271 601.58 580.205L601.481 611.146C609.52 611.39 620.085 613.14 630.668 611.117C642.023 608.957 645.18 602.457 645.18 602.457C645.672 605.231 645.595 608.078 644.952 610.822C644.309 613.566 643.113 616.149 641.44 618.416C635.778 625.775 634.18 630.828 623.276 635.937C617.419 638.683 610.515 639.318 605.377 639.318C603.877 639.318 602.523 639.263 601.395 639.191L601.202 700.054L751.821 700.814C751.821 700.814 760.232 700.882 763.758 702.564C767.284 704.246 767.91 705.043 772.272 709.918C789.905 726.25 796.731 718.812 796.731 718.812C796.731 718.812 794.279 727.822 785.461 728.437C784.815 728.468 779.024 728.519 779.024 728.519L779.125 753.478C779.125 753.478 740.629 743.373 681.317 737.154Z" fill="#2D052E"/>
</g>
</g>
</g>
<defs>
<linearGradient id="paint0_linear_530_316" x1="1458.97" y1="435.027" x2="1458.97" y2="594" gradientUnits="userSpaceOnUse">
<stop stop-color="#D14FC5"/>
<stop offset="1" stop-color="#8121EB"/>
</linearGradient>
<linearGradient id="paint1_linear_530_316" x1="960" y1="0" x2="960" y2="540" gradientUnits="userSpaceOnUse">
<stop stop-color="#D14FC5"/>
<stop offset="1" stop-color="#8121EB"/>
</linearGradient>
<clipPath id="clip0_530_316">
<rect width="1920" height="1080" fill="white"/>
</clipPath>
</defs>
</svg>
