<svg width="1920" height="1080" viewBox="0 0 1920 1080" fill="none" xmlns="http://www.w3.org/2000/svg">
<g clip-path="url(#clip0_530_121)">
<path d="M1920 0H0V1080H1920V0Z" fill="#7E0CF5"/>
<path opacity="0.7" d="M384 0H0V1080H384V0Z" fill="#C411C6"/>
<path opacity="0.414" d="M767 0H383V1080H767V0Z" fill="#C411C6"/>
<path opacity="0.7" d="M1150 0H766V1080H1150V0Z" fill="#C411C6"/>
<path opacity="0.45" d="M1533 0H1149V1080H1533V0Z" fill="#C411C6"/>
<path opacity="0.7" d="M1916 0H1532V1080H1916V0Z" fill="#C411C6"/>
<g style="mix-blend-mode:multiply">
<g style="mix-blend-mode:multiply">
<g style="mix-blend-mode:multiply">
<path d="M1263.22 1316.45C1267.11 1315.46 1270.71 1313.55 1273.71 1310.9C1276.72 1308.24 1279.05 1304.91 1280.51 1301.18C1281.92 1297.49 1282.4 1293.51 1281.9 1289.6C1281.39 1285.69 1279.93 1281.96 1277.64 1278.75C1260.76 1261.06 1246.57 1241 1235.5 1219.2C1233.65 1220.86 1231.69 1222.4 1229.63 1223.8L1256.2 953.956C1259.65 952.138 1263.15 950.395 1266.7 948.729C1265.37 947.357 1264.11 945.918 1262.94 944.416L1448.36 943.061C1456.69 943.052 1464.88 940.941 1472.18 936.925C1479.48 932.909 1485.64 927.116 1490.11 920.084C1495.89 910.824 1498.19 899.814 1496.61 889.014C1495.03 878.215 1489.67 868.326 1481.48 861.111L1344.75 738.322L1356.24 677.932L1356.73 677.61L1362.37 652.41L1484.17 590.018L1523.04 554.84C1527.24 551.105 1529.81 545.867 1530.19 540.256C1530.56 534.646 1528.72 529.112 1525.05 524.85C1522.48 521.879 1519.19 519.608 1515.51 518.247C1511.82 516.887 1507.85 516.481 1503.96 517.069C1500.1 517.605 1496.44 519.129 1493.34 521.492C1490.24 523.855 1487.8 526.977 1486.25 530.559L1472.62 563.003C1441.88 578.934 1409.09 589.816 1374.78 596.986L1380.25 572.539C1401.26 522.282 1392.49 474.453 1342.71 429.956C1345.2 430.535 1348.17 431.187 1351.49 431.838C1360.52 433.615 1373.97 435.725 1386.79 435.725C1397.3 435.725 1405.89 434.325 1412.33 431.555C1403.96 424.809 1401.88 402.106 1400.37 385.529C1400.17 383.356 1399.96 381.103 1399.76 379.072C1398.57 366.735 1396.74 354.468 1394.28 342.321C1391.4 327.97 1387.22 313.912 1381.79 300.321C1376.01 285.778 1368.17 272.139 1358.51 259.821C1348.14 246.719 1335.3 235.779 1320.71 227.621C1314.37 223.197 1307.33 219.869 1299.89 217.775C1291.58 215.38 1282.98 214.182 1274.34 214.216C1263.59 214.164 1252.91 216 1242.8 219.641C1233.18 223.207 1225.28 228.311 1219.95 234.408C1217.02 237.679 1214.8 241.528 1213.44 245.708C1212.14 249.937 1211.87 254.42 1212.67 258.774C1203.7 266.874 1196.48 276.72 1191.45 287.709C1186.93 297.964 1184.41 308.99 1184.02 320.193C1183.17 340.835 1188.58 364.293 1200.11 389.912C1200.11 389.922 1200.14 389.991 1200.58 390.204C1187.65 392.367 1174.4 397.125 1160.87 404.071L1161.33 411.899L1051.07 484.783C1044.78 488.83 1040.06 494.902 1037.69 501.995C1035.31 509.088 1035.43 516.779 1038.01 523.798C1039.87 528.644 1042.79 533.006 1046.58 536.556C1050.36 540.105 1054.9 542.748 1059.85 544.286L1208.71 591.616L1210.35 618.608C1210.37 618.933 1210.4 619.257 1210.44 619.58C1107.98 724.984 1144.34 973.539 1182.19 1223.62C1181.95 1223.48 1181.7 1223.34 1181.45 1223.2C1177.79 1229.98 1175.87 1237.57 1175.85 1245.27C1175.89 1253.39 1177.99 1261.37 1181.97 1268.45C1185.94 1275.53 1191.66 1281.48 1198.58 1285.74L1242.51 1313.32C1245.57 1315.22 1248.98 1316.48 1252.54 1317.02C1256.11 1317.56 1259.74 1317.36 1263.22 1316.45ZM1334.07 874.516L1262.01 894.937L1268.09 833.192L1271.99 828.607L1334.07 874.516ZM1205.63 494.525C1212.51 518.382 1217.78 541.267 1220.69 562.738L1117.98 504.196L1165.34 480.238L1165.82 488.302C1178.95 484.093 1190.94 479.453 1202.46 476.302C1202.83 482.475 1203.89 488.587 1205.63 494.525ZM1296.29 362.493L1296.3 362.487L1296.29 362.493ZM1296.39 362.461L1296.44 362.443L1296.39 362.461ZM1296.48 362.429L1296.54 362.408L1296.48 362.429ZM1296.55 362.404C1302.09 360.514 1307.26 356.85 1311.89 351.954C1311.55 352.314 1311.21 352.667 1310.87 353.012C1308.92 354.974 1306.8 356.754 1304.54 358.33C1302.07 360.046 1299.38 361.417 1296.55 362.405L1296.55 362.404ZM1333.73 281.931C1335.63 296.831 1332.64 314.764 1325.72 330.413C1332.43 315.219 1335.68 297.256 1333.73 281.927C1333.61 280.99 1333.47 280.059 1333.31 279.138C1333.47 280.064 1333.61 280.995 1333.72 281.932L1333.73 281.931ZM1333.3 279.047V279.038V279.047Z" fill="#500752"/>
</g>
</g>
</g>
<g style="mix-blend-mode:multiply">
<g style="mix-blend-mode:multiply">
<g style="mix-blend-mode:multiply">
<path d="M631.35 1234.12L631.603 1174.44C631.603 1174.44 632.622 1156.83 616.209 1139.77L610.698 1116.52C613.717 1114.88 616.575 1112.95 619.236 1110.78C624.294 1106.43 625.649 1101.57 625.102 1097.01C624.256 1089.9 618.798 1083.54 615.583 1081.03C612.945 1078.96 611.58 1077.54 611.267 1075C610.954 1072.45 611.695 1068.78 613.275 1062.23C614.967 1055.23 614.192 1021.28 613.107 991.196L619.085 994.754C619.085 994.754 634.38 1042.6 644.401 1041.34C654.423 1040.09 650.09 962.332 650.09 962.332L612.428 921.321L652.229 916.434L653.541 902.904C653.541 902.904 631.669 898.526 614.253 895.685L621.488 794.163L625.436 769.969C631.644 765.496 637.222 760.208 642.02 754.248C672.601 715.622 647.034 665.44 647.034 665.44L648.742 660.007C680.137 658.671 711.478 653.939 714.243 642.885C715.663 637.218 717.601 627.561 719.678 616.425C723.412 600.505 730.013 562.363 733.969 538.875C734.264 538.809 734.555 538.723 734.839 538.618C740.915 536.276 764.445 418.398 741.006 407.504C725.892 400.479 712.846 405.451 705.49 409.868L693.209 398.746C693.575 398.359 693.944 397.965 694.309 397.575C695.215 397.469 696.124 397.362 697.045 397.249C735.899 392.478 767.672 366.642 762.904 327.814C761.946 319.346 759.365 311.143 755.303 303.652C756.722 303.478 758.189 303.298 759.702 303.112C792.792 299.052 830.238 263.058 826.178 229.997C824.596 217.182 818.947 205.213 810.061 195.845C801.175 186.478 789.519 180.207 776.805 177.953C764.092 175.699 750.991 177.581 739.426 183.322C727.86 189.063 718.441 198.361 712.55 209.85C700.723 236.608 700.902 257.706 705.005 272.591C699.819 272.183 694.604 272.304 689.443 272.954C688.976 273.011 688.509 273.068 688.046 273.131C687.688 273.175 687.326 273.214 686.966 273.258C681.717 273.903 676.525 274.947 671.435 276.381C666.667 277.644 662.019 279.322 657.543 281.396C657.424 281.45 657.307 281.508 657.19 281.563C631.491 293.202 612.552 315.345 616.054 343.865C616.866 349.7 618.637 355.361 621.295 360.619C627.416 391.256 647.611 426.426 659.951 424.283C662.643 423.816 666.967 421.44 672.127 417.676C673.835 421.663 676.004 427.002 677.958 432.634C677.747 432.695 677.534 432.754 677.32 432.813C671.736 434.522 666.687 435.887 665.313 437.646C664.67 438.46 653.293 449.868 640.443 463.469C626.572 478.15 597.199 484.709 600.759 521.699C598.649 536.226 571.708 581.314 558.868 601.243C546.357 605.278 537.591 610.445 536.127 617.064C532.099 635.31 529.781 645.113 528.665 649.694L528.657 649.701C524.002 654.32 523.243 667.08 523.243 667.08L515.998 686.299C491.464 698.077 467.888 711.757 445.488 727.213C395.078 762.125 338.329 812.307 350.999 832.142C372.659 866.046 468.596 915.413 468.596 915.413C468.596 915.413 476.563 941.456 489.705 931.895C492.798 929.453 495.629 926.697 498.155 923.671L515.477 934.09L509.733 944.345L533.717 949.976L533.982 962.284C533.982 962.284 550.778 1058.14 554.09 1085.12C554.421 1087.29 554.605 1089.49 554.641 1091.69C554.44 1097.36 554.739 1103.04 555.533 1108.67C556.284 1115.09 557.463 1121.45 559.064 1127.71C559.471 1129.21 560.686 1130.18 562.51 1130.71L559.365 1169.01L537.148 1208.29C537.148 1208.29 476.6 1248.14 517.687 1244.06C566.628 1239.88 576.264 1228.92 576.264 1228.92L607.082 1194.93L618.833 1235.66L631.35 1234.12ZM532.631 899.898L520.065 893.273C526.165 883.238 530.11 874.818 528.606 873.072C524.897 868.762 512.58 859.142 508.076 861.286C503.572 863.43 451.443 834.116 451.443 834.116L530.551 803.706L532.631 899.898Z" fill="#500752"/>
</g>
</g>
</g>
<g style="mix-blend-mode:multiply">
<g style="mix-blend-mode:multiply">
<g style="mix-blend-mode:multiply">
<path d="M448.863 2058.53L465.027 1956.14L475.805 1900.46C477.688 1904.45 480.074 1908.19 482.905 1911.58C504.032 1693.68 585.377 1510.66 585.377 1510.66C585.377 1418.16 615.25 1299.91 629.752 1247.96C621.037 1245.83 615.708 1244.56 615.708 1244.56C615.708 1244.56 630.282 1146.01 655.43 1093.92C655.616 1093.54 655.83 1093.1 656.071 1092.61C643.224 1088.05 630.627 1082.81 618.334 1076.91C614.954 1075.24 612.01 1072.8 609.734 1069.79C577.863 1044.76 526.497 1009.9 497.136 963.933C474.769 928.91 544.455 802.368 587.813 734.702C603.747 709.833 600.413 702.709 619.522 689.818C624.406 679.244 727.733 665.573 728.385 665.487C732.313 663.566 736.763 661.453 741.653 659.231C753.163 653.998 761.663 631.092 766.763 612.875C763.337 610.025 760.119 606.934 757.135 603.624L757.108 603.613L757.124 603.631C749.971 600.693 743.09 597.13 736.563 592.983C732.008 590.118 727.974 587.252 724.474 584.663C722.785 583.414 721.221 582.231 719.784 581.143C718.684 580.307 717.653 579.527 716.7 578.817C713.694 576.582 711.431 575.045 709.938 574.647C612.082 555.726 629.364 489.029 631.585 465.109C631.894 461.762 631.911 459.244 631.271 457.82L631.261 457.799L631.253 457.782V457.772C631.17 457.591 631.067 457.42 630.946 457.262C629.567 455.131 625.931 453.583 621.065 450.448C618.377 448.731 615.826 446.808 613.434 444.697C606.449 438.527 598.381 428.565 591.023 411.024C588.821 405.518 587.095 399.833 585.863 394.033V394.017L585.85 393.955C581.671 373.89 584.785 355.228 595.162 338.286C597.691 333.929 600.987 330.064 604.891 326.88C615.412 318.407 627.419 317.941 634.703 314.816C637.745 313.504 639.979 311.722 640.915 308.701V308.686L640.93 308.637C641.062 308.196 641.164 307.747 641.236 307.293L641.241 307.259C641.247 307.219 641.254 307.18 641.26 307.14V307.121V307.104C641.323 306.682 641.377 306.199 641.425 305.659V305.637V305.617C641.477 305.017 641.525 304.351 641.564 303.617V303.607C641.664 301.907 641.735 299.855 641.834 297.507C642.245 287.596 643.065 272.777 647.49 256.647C653.654 234.129 666.813 209.219 695.61 192.493C707.558 186.368 720.616 185.26 733.442 186.78H733.462L733.641 186.801C735.459 187.019 737.309 187.296 739.191 187.63L739.329 187.654L739.374 187.662C752.396 189.991 764.962 194.687 775.633 199.185C779.183 200.68 782.513 202.148 785.557 203.485L785.581 203.493C793.581 207.028 799.881 209.811 803.406 210.098H803.44C804.159 210.119 804.873 209.983 805.533 209.698C808.38 208.586 812.248 205.298 817.227 201.068L817.301 201.003C821.208 197.678 825.645 193.903 830.863 190.085C838.312 184.503 846.438 179.888 855.047 176.35C865.218 172.225 876.088 170.1 887.063 170.092C899.407 170.239 911.624 172.614 923.123 177.104C925.533 178.014 927.963 179.014 930.413 180.104C939.148 184.045 947.54 188.706 955.502 194.039C959.149 196.449 962.816 199.035 966.502 201.799C969.517 204.059 972.4 206.489 975.137 209.078C990.977 224.063 999.822 242.817 1002.38 263.978L1002.39 264.025V264.064C1002.56 265.545 1002.71 267.04 1002.83 268.549C1002.91 269.596 1002.98 270.65 1003.03 271.712C1003.76 286.629 1001.55 302.596 996.655 319.183C992.793 332.005 987.778 344.452 981.671 356.371L981.582 356.547L981.556 356.598C981.41 356.887 981.276 357.17 981.156 357.446L981.15 357.459L981.129 357.508C978.91 362.608 980.915 365.517 984.829 368.42C986.137 369.385 987.66 370.353 989.319 371.407C995.426 375.299 1003.03 380.138 1008.23 390.063C1009.38 392.257 1010.34 394.543 1011.1 396.897L1011.13 396.997C1011.56 398.317 1011.95 399.703 1012.3 401.165C1012.92 403.815 1013.37 406.502 1013.65 409.21C1013.82 410.936 1013.95 412.723 1014.01 414.571C1014.19 421.186 1013.81 427.806 1012.85 434.355C1012.65 435.828 1012.43 437.324 1012.18 438.843C1010.14 453.03 1003.2 466.056 992.563 475.665C983.206 484.292 972.278 489.904 962.647 494.865C954.428 499.09 947.32 502.75 943.574 507.18C943.446 507.307 943.324 507.44 943.209 507.58L943.196 507.596C942.192 508.971 941.384 510.48 940.796 512.078L940.789 512.096L940.774 512.134C939.974 514.093 939.152 516.472 938.274 519.141V519.149V519.154C937.404 521.791 936.474 524.72 935.448 527.816C934.679 530.135 933.856 532.55 932.96 535.016L932.923 535.116L932.916 535.136L932.884 535.225L932.875 535.25C927.168 550.887 918.592 568.285 903.058 574.65C894.978 577.962 875.558 590.467 850.921 599.977L850.787 600.029L850.764 600.038C846.585 601.649 842.258 603.172 837.813 604.549V604.544L837.797 604.549C835.222 607.286 832.493 609.875 829.625 612.304C833.605 628.927 838.845 649.636 841.882 656.891C844.256 662.562 851.625 667.191 859.107 670.582L859.451 670.291C861.017 670.075 862.596 669.973 864.176 669.985C876.796 669.985 896.625 675.267 913.439 680.604C916.874 681.255 920.233 682.256 923.463 683.592C926.723 684.949 929.612 686.002 932.221 686.957C939.75 689.648 944.632 691.565 944.632 691.565C944.632 691.565 944.622 691.946 944.603 692.665C945.448 693.25 946.258 693.885 947.029 694.565C954.175 700.876 960.252 712.037 973.08 725.484C1035 790.384 1133.73 915.027 1116.68 958.162C1094.3 1014.78 1045.45 1063.91 1015.85 1098.12C1014 1101.91 1011.3 1105.2 1007.95 1107.76C992.165 1119.37 971.772 1133.15 953.146 1141.87C966.367 1170.85 976.801 1194.25 978.046 1198.59C978.817 1201.29 973.669 1206.19 964.981 1212.31C969.503 1246.81 968.875 1322.41 941.049 1487.31C941.049 1487.31 961.632 1604.5 942.584 1865.81C944.669 1864.43 946.568 1862.79 948.233 1860.93C948.233 1860.93 946.433 1916.62 953.622 1941.77C960.811 1966.91 976.973 2038.77 939.252 2042.36C928.892 2043.62 918.402 2041.5 909.34 2036.32C900.278 2031.14 893.128 2023.18 888.952 2013.62V1855.55C890.567 1858.58 892.485 1861.45 894.676 1864.1L858.413 1586.11C858.413 1586.11 810.226 1337.65 811.742 1276.41C808.644 1275.05 805.633 1273.49 802.725 1271.76C798.448 1269.2 794.986 1274.78 790.981 1280.36C787.927 1284.61 784.556 1288.87 780.268 1289.51C767.504 1360.28 642.863 1622.03 642.863 1622.03L537.527 1915.21C538.498 1915.01 539.482 1914.88 540.471 1914.83C540.471 1914.83 524.304 1997.46 529.694 2036.97C535.084 2076.49 526.101 2101.64 490.176 2101.64C454.251 2101.64 448.863 2058.53 448.863 2058.53ZM925.778 1082.42C927.596 1086.34 929.432 1090.31 931.285 1094.32C944.02 1082.91 958.865 1072.3 970.223 1064.71C970.215 1064.66 970.207 1064.61 970.2 1064.56C977.665 1057.87 1044.13 946.262 1037.51 937.262C1031.43 929.01 964.516 861.711 933.845 843.431C920.687 901.641 886.576 1016.11 886.576 1016.11C898.324 1029.45 908.103 1044.4 915.615 1060.5L914.692 1060.62C918.485 1067.5 922.263 1074.84 925.778 1082.42ZM675.94 1047.69C681.723 1036.74 687.803 1026.7 687.803 1026.7C687.803 1026.7 649.03 873.164 639.463 830.776C616.018 850.792 567.193 923.592 563.195 932.019C558.906 941.064 636.443 1027.86 644.153 1032.47C644.153 1032.51 644.153 1032.56 644.153 1032.6C653.332 1036.45 664.877 1041.66 675.94 1047.69Z" fill="#500752"/>
</g>
</g>
</g>
<g style="mix-blend-mode:multiply">
<g style="mix-blend-mode:multiply">
<g style="mix-blend-mode:multiply">
<path d="M58.0509 1504.93C55.4344 1501.67 53.6458 1497.83 52.8355 1493.72C52.0252 1489.62 52.2168 1485.39 53.3968 1481.38L67.4354 1447.84L68.1038 1447.71L73.0557 1317.67L74.4198 1281.82C72.4013 1280.85 70.4356 1279.78 68.5318 1278.6C68.5318 1278.6 68.557 1268.79 68.5688 1264.62C68.9052 1155.73 69.9746 1049.3 78.3526 960.158C73.6216 961.62 68.5948 961.848 63.7509 960.822C58.907 959.795 54.405 957.548 50.6734 954.294C46.9418 951.039 44.105 946.885 42.4296 942.226C40.7542 937.566 40.2968 932.555 41.1014 927.669L46.483 894.885L45.881 769.789L45.1685 604.353C42.7618 601.223 41.4706 599.096 41.4706 599.096L42.4368 543.745C42.6196 533.286 45.9305 523.121 51.9417 514.559C57.953 505.997 66.3892 499.43 76.1651 495.706C83.5715 492.193 92.0524 489.226 99.6476 485.499L116.614 478.821C116.302 444.674 127.448 346.457 127.448 346.457C135.973 316.101 150.533 299.24 165.259 289.985C160.186 288.396 155.814 283.581 153.032 272.115C146.916 247.268 161.718 234.343 178.791 231.335C195.864 228.328 207.785 235.635 212.055 255.679C214.359 267.953 213.069 275.157 209.879 279.487C212.007 279.7 213.207 279.945 213.207 279.945C280.386 272.424 294.121 351.986 294.121 351.986L288.31 354.312C289.824 359.334 290.771 364.509 291.135 369.741C292.974 396.156 285.036 430.162 274.683 447.032L276.397 485.947C302.898 494.927 327.081 507.399 330.305 534.766C331.875 552.637 331.876 570.612 330.305 588.483L323.315 590.662C332.349 613.924 329.259 643.817 312.862 680.994L316.899 767.118L426.343 1285.72C426.343 1285.72 424.984 1287.32 420.331 1289.91L449.254 1439.61L493.024 1475.58L508.401 1480.06C512.468 1481.24 515.972 1483.85 518.269 1487.41C520.565 1490.97 521.5 1495.24 520.903 1499.43C520.305 1503.63 518.214 1507.46 515.014 1510.24C511.815 1513.02 507.722 1514.55 503.486 1514.55L413.408 1514.51C409.004 1514.51 404.666 1513.44 400.764 1511.4C396.861 1509.36 393.509 1506.4 390.996 1502.79C388.484 1499.17 386.885 1495 386.335 1490.63C385.785 1486.26 386.299 1481.82 387.836 1477.69L405.057 1443.47L405.229 1443.45C397.548 1421.03 371.783 1345.83 357.647 1304.54C356.127 1304.38 354.622 1304.11 353.147 1303.71C311.426 1181.69 264.913 1079.41 213.074 1000.78L186.573 996.244C163.458 1085.8 146.394 1181.44 134.056 1280.9C134.056 1280.9 131.791 1281.99 128.132 1283.36C121.889 1333.7 109.302 1426.09 107.387 1440.12L107.416 1440.11L152.842 1472.42L167.686 1475.63C171.609 1476.49 175.092 1478.73 177.496 1481.95C179.899 1485.17 181.064 1489.14 180.775 1493.15C180.487 1497.15 178.765 1500.92 175.925 1503.76C173.085 1506.6 169.317 1508.32 165.312 1508.61L80.035 1514.54C79.2799 1514.59 78.527 1514.61 77.7758 1514.6C73.9805 1514.53 70.2461 1513.63 66.8378 1511.96C63.4295 1510.29 60.4299 1507.89 58.0509 1504.93ZM81.4908 879.857L86.5849 893.761C96.0027 835.01 110.41 787.988 132.512 758.805L97.69 649.687L81.4908 879.857ZM119.152 477.826L122.619 476.459C122.488 476.278 122.355 476.099 122.228 475.919C121.05 476.6 120.008 477.259 119.152 477.826Z" fill="#500752"/>
</g>
</g>
</g>
<g style="mix-blend-mode:multiply">
<g style="mix-blend-mode:multiply">
<g style="mix-blend-mode:multiply">
<path d="M1823.54 1372.18C1778.39 1368.96 1777.32 1303.39 1777.32 1303.39L1770.76 1260.77C1768.97 1260.32 1767.22 1259.84 1765.49 1259.32C1730.02 1248.57 1759.04 829.363 1759.04 829.363C1759.04 829.363 1654.78 1257.17 1601.04 1259.32C1592.6 1259.65 1584.15 1259.05 1575.84 1257.53L1568.79 1303.39C1568.79 1303.39 1567.71 1368.96 1522.57 1372.18C1477.42 1375.41 1526.87 1268.99 1526.87 1268.99L1530.76 1240.22C1523.15 1235.77 1516.03 1230.52 1509.53 1224.56L1634.36 786.368C1633.59 773.883 1633.6 761.361 1634.39 748.877C1634.02 748.447 1633.82 748.211 1633.82 748.211L1633.76 748.041L1610.71 717.577L1570.56 665.894L1566.64 668.131L1531.17 599.339L1515.05 583.217C1510.75 578.917 1559.12 472.503 1565.56 441.331C1571.96 410.389 1578.6 419.94 1578.7 420.083C1584.11 414.204 1592.07 409.35 1601.04 405.445C1599.89 400.211 1599.16 394.895 1598.84 389.545C1598.45 383.417 1598.4 377.271 1598.67 371.136V371.017V370.978C1598.82 367.598 1599.05 364.134 1599.36 360.584C1600.09 352.495 1601.25 344.054 1602.83 335.476C1604.3 327.499 1606.11 319.494 1608.25 311.54V311.527L1608.29 311.377C1609 308.732 1609.74 306.093 1610.52 303.459L1610.55 303.39C1614.55 289.744 1619.62 276.436 1625.72 263.59C1627.82 259.222 1630.05 255.038 1632.43 251.038C1635.98 245.006 1639.99 239.249 1644.41 233.817C1647.03 230.611 1649.76 227.588 1652.59 224.746C1653.68 223.662 1654.78 222.603 1655.89 221.571C1660.6 217.201 1665.69 213.257 1671.09 209.787C1674.31 207.723 1677.64 205.842 1681.07 204.152C1690.5 199.452 1700.66 196.383 1711.12 195.077C1713.75 194.731 1716.4 194.583 1719.05 194.632C1729.76 198.503 1740.12 203.275 1750.02 208.898C1752.04 210.025 1754.11 211.222 1756.21 212.488C1767.52 219.223 1778.11 227.1 1787.81 235.996C1790.59 238.574 1793.23 241.208 1795.73 243.896C1802.04 250.615 1807.63 257.984 1812.39 265.88C1813.26 267.347 1814.1 268.821 1814.9 270.302C1818.27 278.543 1820.54 287.194 1821.63 296.029C1822.27 301.393 1822.37 306.807 1821.93 312.191C1819.29 344.957 1797.65 367.256 1797.16 396.378C1797.12 398.74 1797.22 401.101 1797.46 403.45C1797.71 408.06 1797.96 412.804 1798.23 417.681C1803.01 419.421 1807.39 421.122 1810.47 422.34C1811.73 422.53 1812.93 423.012 1813.98 423.746C1814.6 423.998 1814.94 424.138 1814.94 424.138L1814.98 424.523C1818.91 427.917 1823.03 435.882 1825.68 453.161C1828.59 472.049 1826.69 485.482 1823.73 494.541L1824.61 501.53C1829.98 520.878 1818.16 546.676 1810.64 559.575C1804.99 569.246 1807.81 588.587 1809.58 597.659L1840.73 626.219L1835.55 629.15L1847.72 640.717C1847.72 640.717 1913.29 682.637 1887.49 701.985C1886.63 702.632 1885.73 703.223 1884.79 703.754L1851.48 1264.69C1840.63 1265.69 1829.73 1266.14 1818.83 1266.02L1819.23 1268.99C1819.23 1268.99 1867.21 1372.24 1825.49 1372.25C1824.86 1372.25 1824.21 1372.23 1823.54 1372.18ZM1635.43 691.779L1643.94 699.869C1652.5 676.286 1663.38 668.131 1663.38 668.131L1663.36 668.003C1657.63 663.324 1652.25 658.241 1647.24 652.794L1647.17 652.719L1647.13 652.671C1646.09 651.538 1645.07 650.389 1644.07 649.224C1643.71 648.81 1643.36 648.393 1643.01 647.972L1642.99 647.958L1642.88 647.823C1635.16 638.378 1628.78 627.913 1623.93 616.723C1611.3 635.155 1591.36 618.687 1591.36 618.687L1604.26 646.634L1601.53 648.194L1635.43 691.779Z" fill="#500752"/>
</g>
</g>
</g>
<path opacity="0.6" d="M768.045 301.452C798.58 293.239 829.908 260.377 826.177 229.989C824.38 215.486 817.386 202.126 806.492 192.386C795.598 182.645 781.542 177.184 766.929 177.014L768.045 301.452Z" fill="#790B7A"/>
<path d="M1531.44 534.519C1521.3 560.068 1513.17 581.341 1515.05 583.219L1531.17 599.342C1531.17 599.342 1532.99 530.603 1531.44 534.519Z" fill="#790B7A"/>
<path opacity="0.605" d="M1150.24 487.878L1117.98 504.196L1149.88 522.378L1150.41 573.078L1059.86 544.281C1054.9 542.744 1050.36 540.1 1046.58 536.551C1042.8 533.002 1039.87 528.639 1038.02 523.793C1035.43 516.774 1035.32 509.084 1037.69 501.99C1040.06 494.897 1044.79 488.826 1051.08 484.778L1149.76 419.537L1150.24 487.878Z" fill="#790B7A"/>
<path opacity="0.6" d="M383.976 776.145C359.604 798.998 343.667 820.657 351.003 832.14C357.24 841.903 369.639 852.951 384.31 863.862L383.976 776.145Z" fill="#790B7A"/>
</g>
<defs>
<clipPath id="clip0_530_121">
<rect width="1920" height="1080" fill="white"/>
</clipPath>
</defs>
</svg>
