<svg width="1920" height="1080" viewBox="0 0 1920 1080" fill="none" xmlns="http://www.w3.org/2000/svg">
<g clip-path="url(#clip0_530_169)">
<path d="M1920 0H0V1080H1920V0Z" fill="#7E0CF5"/>
<path opacity="0.15" d="M0 467.451L740.344 408.111L1809.53 747.775L1918.86 781.717V1090.56H-8.44043L0 467.451Z" fill="#F0F0F0"/>
<path d="M155.028 347.318L178.166 363.881V349.354L174.31 343.898L162.326 329.281L155.532 337.662L155.028 347.318Z" fill="#6415C3"/>
<path d="M229.842 363.688L234.18 360.348L244.907 356.803L252.432 343.102L258.59 337.607L260.045 338.154V343.102L256.602 350.184L257.184 352.838L255.014 356.803L249.987 362.934L232.546 373.184L229.842 363.688Z" fill="#6415C3"/>
<path d="M157.943 444.389L152.765 436.141V401.508L143.22 364.641L154.105 351.141V342.746L176.814 357.826V345.488L180.714 348.283L195.388 354.045L206.913 361.244L216.954 360.674L220.054 362.719L234.007 359.719L236.089 361.246V380.746L226.468 382.008L214.868 389.047H208.778L206.915 406.039L197.854 419.131L157.943 444.389Z" fill="#6415C3"/>
<path d="M237.472 490.195C237.472 490.195 244.596 493.78 248.612 498.432C252.628 503.084 250.198 507.272 253.535 508.811C256.872 510.35 265.035 505.178 265.035 505.178L270.021 504.326C272.695 504.381 275.368 504.242 278.021 503.912C282.408 503.365 287.564 502.135 287.564 502.135C287.564 502.135 288.864 498.765 284.702 498.436C280.54 498.107 276.582 497.698 265.649 492.936C254.716 488.174 243.158 479.982 243.158 479.982L237.472 490.195Z" fill="#6415C3"/>
<path d="M137.757 508.08L131.628 516.795C131.628 516.795 118.998 529.047 118.998 534.883C118.998 537.844 121.957 538.449 124.843 539.139C127.387 539.75 129.826 540.5 132.243 539.512C137.136 537.512 133.643 535.926 138.292 529.867C142.941 523.808 152.982 506.006 152.982 506.006" fill="#6415C3"/>
<path d="M143.533 520.152L135.473 506.812L153.257 480.025L153.844 444.854L154.862 436.602L168.842 430.092L198.736 423.148L212.799 435.697L228.646 454.021L249.226 480.141L233.597 495.174L228.646 495.791L225.467 489.299L186.811 456.975L179.311 484.92L157.759 516.791L152.597 521.232" fill="#6415C3"/>
<path opacity="0.1" d="M186.812 456.975L225.467 489.299L228.648 495.793L233.595 495.174L249.224 480.141L228.648 454.021L212.797 435.697L198.736 423.148L190.927 425.537L186.812 456.975Z" fill="#6415C3"/>
<path d="M194.131 428.99L196.543 432.818L202.995 472.453L212.29 469.691L200.99 430.592L196.541 426.205L194.131 428.99Z" fill="#6415C3"/>
<path d="M189.141 420.5L187.37 427.334L178.399 429.502L150.6 450.857L144.856 446.709L176.37 421.377L182.153 420.004L189.141 420.5Z" fill="#6415C3"/>
<path d="M153.77 419.574L173.596 425.039L186.375 426.705C186.375 426.705 188.77 431.039 191.936 430.805C195.102 430.571 197.143 429.205 199.041 425.764C200.939 422.323 199.041 417.705 199.041 417.705C199.041 417.705 195.102 415.963 191.936 416.586C188.77 417.209 183.602 418.274 180.225 417.705C170.682 416.617 153.77 412.242 153.77 412.242V419.574Z" fill="#6415C3"/>
<path d="M196.73 364.634C194.466 364.982 188.22 368.543 188.22 368.543C187.957 368.056 187.526 367.682 187.007 367.49C186.488 367.298 185.917 367.303 185.4 367.502C183.265 368.153 181.446 369.572 180.294 371.484C179.351 373.173 178.974 375.118 179.218 377.037L175.485 383.08L179.218 388.98L187.28 379.703C189.511 378.707 191.473 377.196 193.005 375.295C194.794 372.791 196.229 370.053 197.271 367.158C197.271 367.158 198.992 364.288 196.73 364.634Z" fill="#6415C3"/>
<g filter="url(#filter0_d_530_169)">
<path d="M153.138 356.344C158.982 354.561 165.412 361.596 165.412 361.596C166.619 365.648 167.265 369.846 167.334 374.073C167.215 378.606 166.57 383.11 165.412 387.495L168.406 386.241L167.334 383.383L176.519 379.543L181.581 393.135L176.52 397.895V401.86L168.408 410.09L154.35 411.94L143.583 400.612C143.583 400.612 139.647 379.801 142.036 368.735C143.641 361.923 147.293 358.129 153.138 356.344Z" fill="#6415C3"/>
</g>
<path d="M168.179 301.33C180.453 301.33 187.837 309.508 187.837 321.782C187.837 328.655 186.083 342.061 181.832 347.825C179.086 351.549 173.192 346.84 166.776 343.652C163.433 341.991 160.176 342.167 158.924 341.382C155.758 339.382 153.151 336.611 151.347 333.329C149.543 330.047 148.602 326.36 148.61 322.615C148.61 310.341 155.91 301.33 168.179 301.33Z" fill="#6415C3"/>
<path opacity="0.1" d="M208.668 388.812L191.813 385.912L188.574 383.939H203.902L208.668 388.812Z" fill="#6415C3"/>
<path d="M321.156 347.283L355.343 371.758V350.293L349.643 342.232L331.936 320.631L321.896 333.014L321.156 347.283Z" fill="#4A0D90"/>
<path d="M431.701 371.463L438.111 366.527L453.959 361.291L465.078 341.045L474.179 332.928L476.33 333.736V341.045L471.24 351.51L472.102 355.432L468.893 361.291L461.465 370.35L435.694 385.496L431.701 371.463Z" fill="#4A0D90"/>
<path d="M325.462 490.705L317.814 478.518V427.342L303.714 372.869L319.796 352.914V340.514L353.352 362.793V344.562L359.119 348.691L380.802 357.209L397.83 367.852L412.666 367.004L417.242 370.023L437.859 365.59L440.938 367.85V396.66L426.721 398.52L409.581 408.92H400.581L397.827 434.029L384.44 453.373L325.462 490.705Z" fill="#4A0D90"/>
<path d="M442.975 558.395C442.975 558.395 453.502 563.694 459.436 570.566C465.37 577.438 461.78 583.627 466.709 585.898C471.638 588.169 483.709 580.535 483.709 580.535L491.076 579.273C495.025 579.356 498.974 579.152 502.894 578.664C509.374 577.855 516.994 576.037 516.994 576.037C516.994 576.037 518.922 571.055 512.764 570.566C506.606 570.077 500.764 569.473 484.612 562.432C468.46 555.391 451.38 543.293 451.38 543.293L442.975 558.395Z" fill="#4A0D90"/>
<path d="M295.639 584.818L286.583 597.695C286.583 597.695 267.922 615.795 267.922 624.424C267.922 628.799 272.293 629.692 276.557 630.709C280.317 631.609 283.921 632.721 287.486 631.264C294.715 628.311 289.549 625.964 296.424 617.012C303.299 608.06 318.13 581.754 318.13 581.754" fill="#4A0D90"/>
<path d="M304.172 602.658L292.264 582.947L318.541 543.365L319.408 491.396L320.908 479.203L341.564 469.584L385.736 459.326L406.513 477.867L429.931 504.943L460.337 543.537L437.243 565.748L429.931 566.664L425.231 557.064L368.114 509.301L357.03 550.594L325.184 597.693L317.557 604.256" fill="#4A0D90"/>
<path opacity="0.1" d="M368.12 509.305L425.237 557.068L429.938 566.668L437.247 565.752L460.343 543.541L429.942 504.947L406.522 477.871L385.744 459.33L374.21 462.857L368.12 509.305Z" fill="#4A0D90"/>
<path d="M378.935 467.959L382.498 473.615L392.031 532.18L405.766 528.1L389.072 470.328L382.498 463.848L378.935 467.959Z" fill="#4A0D90"/>
<path d="M371.56 455.404L368.942 465.504L355.688 468.705L314.61 500.258L306.124 494.129L352.688 456.699L361.232 454.67L371.56 455.404Z" fill="#4A0D90"/>
<path d="M319.297 454.041L348.592 462.117L367.475 464.578C367.475 464.578 371.012 470.984 375.692 470.637C380.372 470.29 383.385 468.277 386.192 463.189C388.999 458.101 386.192 451.281 386.192 451.281C386.192 451.281 380.372 448.707 375.692 449.629C371.012 450.551 363.378 452.121 358.392 451.281C344.292 449.676 319.302 443.209 319.302 443.209L319.297 454.041Z" fill="#4A0D90"/>
<path d="M382.776 372.865C379.432 373.379 370.2 378.64 370.2 378.64C369.812 377.92 369.175 377.367 368.408 377.083C367.641 376.8 366.797 376.806 366.034 377.101C362.879 378.062 360.191 380.158 358.489 382.984C356.204 386.505 356.897 391.191 356.897 391.191L351.382 400.117L356.897 408.835L368.81 395.128C372.105 393.657 375.004 391.424 377.269 388.613C380.96 383.98 383.568 376.589 383.568 376.589C383.568 376.589 386.118 372.356 382.776 372.865Z" fill="#4A0D90"/>
<g filter="url(#filter1_d_530_169)">
<path d="M318.369 360.612C327.004 357.975 336.506 368.37 336.506 368.37C338.289 374.358 339.244 380.563 339.346 386.809C339.17 393.507 338.217 400.162 336.506 406.639L340.932 404.786L339.346 400.561L352.916 394.889L360.395 414.97L352.916 422.003V427.862L340.932 440.022L320.156 442.755L304.251 426.018C304.251 426.018 298.435 395.267 301.966 378.917C304.338 368.854 309.733 363.248 318.369 360.612Z" fill="#4A0D90"/>
</g>
<path d="M340.588 279.328C358.723 279.328 369.635 291.412 369.635 309.547C369.635 319.703 367.043 339.511 360.762 348.028C356.704 353.528 347.996 346.573 338.515 341.861C333.575 339.407 328.762 339.666 326.915 338.506C322.237 335.551 318.384 331.457 315.719 326.608C313.053 321.759 311.662 316.313 311.674 310.779C311.674 292.643 322.453 279.328 340.588 279.328Z" fill="#4A0D90"/>
<path opacity="0.1" d="M400.415 408.592L375.516 404.301L370.727 401.385H393.378L400.415 408.592Z" fill="#4A0D90"/>
<path d="M565.125 352.59L617.508 390.09V357.195L608.778 344.842L581.645 311.748L566.262 330.721L565.125 352.59Z" fill="#410B70"/>
<path d="M734.514 389.652L744.336 382.09L768.62 374.068L785.657 343.045L799.599 330.605L802.898 331.844V343.043L795.099 359.078L796.419 365.086L791.501 374.068L780.119 387.945L740.632 411.152L734.514 389.652Z" fill="#410B70"/>
<path d="M571.723 572.375L560.003 553.699V475.281L538.39 391.811L563.034 361.232V342.232L614.452 376.373V348.439L623.289 354.766L656.512 367.814L682.612 384.123L705.346 382.822L712.358 387.455L743.949 380.66L748.667 384.123V428.268L726.883 431.119L700.619 447.053H686.832L682.612 485.531L662.099 515.174L571.723 572.375Z" fill="#410B70"/>
<path d="M751.789 676.09C751.789 676.09 767.921 684.203 777.013 694.74C786.105 705.277 780.605 714.754 788.157 718.234C795.709 721.714 814.209 710.012 814.209 710.012L825.497 708.078C831.548 708.205 837.601 707.894 843.607 707.146C853.536 705.908 865.216 703.121 865.216 703.121C865.216 703.121 868.169 695.488 858.731 694.738C849.293 693.988 840.348 693.062 815.594 682.273C790.84 671.484 764.67 652.945 764.67 652.945L751.789 676.09Z" fill="#410B70"/>
<path d="M526.022 716.578L512.146 736.311C512.146 736.311 483.551 764.049 483.551 777.27C483.551 783.97 490.251 785.339 496.782 786.9C502.544 788.283 508.065 789.98 513.527 787.748C524.606 783.223 516.69 779.627 527.228 765.91C537.766 752.193 560.489 711.883 560.489 711.883" fill="#410B70"/>
<path d="M539.099 743.918L520.851 713.713L561.117 653.061L562.445 573.428L564.752 554.742L596.404 540.004L664.088 524.283L695.926 552.695L731.812 594.186L778.405 653.324L743.016 687.357L731.815 688.756L724.616 674.051L637.093 600.863L620.109 664.139L571.309 736.307L559.62 746.359" fill="#410B70"/>
<path opacity="0.1" d="M637.088 600.867L724.611 674.057L731.812 688.76L743.012 687.361L778.4 653.328L731.811 594.189L695.923 552.699L664.083 524.287L646.408 529.688L637.088 600.867Z" fill="#410B70"/>
<path d="M653.659 537.512L659.121 546.178L673.729 635.92L694.773 629.668L669.192 541.143L659.121 531.211L653.659 537.512Z" fill="#410B70"/>
<path d="M642.36 518.283L638.348 533.76L618.038 538.67L555.096 587.021L542.089 577.627L613.439 520.273L626.533 517.164L642.36 518.283Z" fill="#410B70"/>
<path d="M562.274 516.188L607.164 528.562L636.1 532.332C636.1 532.332 641.519 542.15 648.69 541.617C655.861 541.084 660.478 538.002 664.776 530.205C669.074 522.408 664.776 511.959 664.776 511.959C664.776 511.959 655.859 508.014 648.69 509.426C641.521 510.838 629.823 513.246 622.174 511.959C600.574 509.498 562.273 499.588 562.273 499.588L562.274 516.188Z" fill="#410B70"/>
<path d="M659.546 391.796C654.423 392.581 640.275 400.644 640.275 400.644C639.681 399.54 638.704 398.693 637.528 398.259C636.353 397.825 635.059 397.834 633.891 398.286C629.056 399.761 624.938 402.973 622.329 407.302C618.829 412.702 619.892 419.88 619.892 419.88L611.439 433.556L619.892 446.917L638.145 425.909C643.195 423.657 647.638 420.238 651.106 415.931C656.762 408.831 660.765 397.507 660.765 397.507C660.765 397.507 664.669 391.013 659.546 391.796Z" fill="#410B70"/>
<g filter="url(#filter2_d_530_169)">
<path d="M560.856 373.027C574.088 368.988 588.649 384.914 588.649 384.914C591.381 394.089 592.845 403.594 593 413.166C593 427.826 588.649 443.555 588.649 443.555L595.429 440.715L592.999 434.242L613.793 425.551L625.257 456.322L613.793 467.098V476.078L595.429 494.713L563.596 498.9L539.22 473.252C539.22 473.252 530.31 426.133 535.72 401.078C539.357 385.657 547.627 377.068 560.856 373.027Z" fill="#410B70"/>
</g>
<path d="M594.899 248.467C622.688 248.467 639.408 266.983 639.408 294.773C639.408 310.335 635.436 340.687 625.808 353.738C619.593 362.169 606.25 351.504 591.722 344.289C584.152 340.528 576.777 340.926 573.944 339.149C566.775 334.62 560.873 328.346 556.789 320.916C552.705 313.485 550.573 305.139 550.593 296.66C550.593 268.871 567.11 248.467 594.899 248.467Z" fill="#410B70"/>
<path opacity="0.1" d="M686.575 446.539L648.413 439.965L641.075 435.498H675.784L686.575 446.539Z" fill="#410B70"/>
<path d="M894.671 367.16L962.608 415.801V373.141L951.285 357.121L916.094 314.199L896.145 338.805L894.671 367.16Z" fill="#28034F"/>
<path d="M1114.36 415.229L1127.1 405.422L1158.6 395.021L1180.7 354.783L1198.78 338.648L1203.06 340.256V354.781L1192.94 375.576L1194.65 383.369L1188.27 395.02L1173.51 413.02L1122.3 443.119L1114.36 415.229Z" fill="#28034F"/>
<path d="M903.228 652.211L888.027 627.99V526.291L859.997 418.033L891.957 378.377V353.73L958.645 398.008V361.781L970.106 369.98L1013.19 386.908L1047.04 408.057L1076.52 406.373L1085.62 412.379L1126.59 403.564L1132.71 408.057V465.311L1104.46 469.012L1070.39 489.676H1052.51L1047.04 539.576L1020.44 578.016L903.228 652.211Z" fill="#28034F"/>
<path d="M1136.76 786.725C1136.76 786.725 1157.68 797.245 1169.48 810.912C1181.27 824.579 1174.13 836.871 1183.93 841.381C1193.72 845.891 1217.72 830.723 1217.72 830.723L1232.36 828.215C1240.21 828.379 1248.06 827.974 1255.85 827.004C1268.72 825.397 1283.87 821.783 1283.87 821.783C1283.87 821.783 1287.7 811.883 1275.46 810.912C1263.22 809.941 1251.62 808.738 1219.51 794.746C1187.41 780.754 1153.47 756.709 1153.47 756.709L1136.76 786.725Z" fill="#28034F"/>
<path d="M843.958 839.231L825.958 864.823C825.958 864.823 788.872 900.8 788.872 917.946C788.872 926.637 797.56 928.414 806.032 930.435C813.505 932.23 820.667 934.428 827.751 931.534C842.122 925.665 831.851 920.999 845.517 903.208C859.183 885.417 888.654 833.144 888.654 833.144" fill="#28034F"/>
<path d="M860.917 874.691L837.249 835.516L889.474 756.854L891.196 653.574L894.188 629.34L935.24 610.227L1023.02 589.836L1064.31 626.684L1110.86 680.498L1171.28 757.197L1125.38 801.336L1110.85 803.158L1101.51 784.088L988 689.166L965.973 771.229L902.688 864.83L887.525 877.871" fill="#28034F"/>
<path opacity="0.1" d="M988.003 689.164L1101.52 784.086L1110.86 803.156L1125.38 801.334L1171.28 757.195L1110.86 680.496L1064.31 626.684L1023.02 589.836L1000.1 596.846L988.003 689.164Z" fill="#28034F"/>
<path d="M1009.5 606.994L1016.58 618.236L1035.52 734.627L1062.82 726.518L1029.64 611.707L1016.58 598.824L1009.5 606.994Z" fill="#28034F"/>
<path d="M994.838 582.057L989.639 602.129L963.297 608.498L881.666 671.205L864.799 659.021L957.334 584.635L974.316 580.604L994.838 582.057Z" fill="#28034F"/>
<path d="M890.974 579.336L949.194 595.385L986.72 600.275C986.72 600.275 993.749 613.007 1003.05 612.316C1012.35 611.625 1018.34 607.631 1023.91 597.518C1029.49 587.405 1023.91 573.855 1023.91 573.855C1023.91 573.855 1012.35 568.736 1003.05 570.57C993.75 572.404 978.578 575.523 968.657 573.855C940.639 570.662 890.973 557.809 890.973 557.809L890.974 579.336Z" fill="#28034F"/>
<path d="M1017.13 418.009C1010.48 419.025 992.136 429.478 992.136 429.478C991.365 428.047 990.098 426.948 988.573 426.386C987.049 425.824 985.371 425.838 983.856 426.425C977.587 428.338 972.246 432.502 968.862 438.116C964.323 445.116 965.701 454.425 965.701 454.425L954.737 472.163L965.701 489.491L989.375 462.251C995.925 459.328 1001.69 454.89 1006.18 449.302C1013.52 440.097 1018.71 425.411 1018.71 425.411C1018.71 425.411 1023.77 416.992 1017.13 418.009Z" fill="#28034F"/>
<g filter="url(#filter3_d_530_169)">
<path d="M889.14 393.662C906.302 388.422 925.185 409.076 925.185 409.076C925.185 409.076 930.829 426.703 930.829 445.721C930.829 464.739 925.185 485.133 925.185 485.133L933.98 481.449L930.829 473.049L957.797 461.777L972.666 501.684L957.797 515.662V527.309L933.981 551.477L892.696 556.91L861.081 523.643C861.081 523.643 849.525 462.532 856.54 430.041C861.257 410.045 871.979 398.903 889.14 393.662Z" fill="#28034F"/>
</g>
<path d="M933.287 232.119C969.328 232.119 991.013 256.134 991.013 292.175C991.013 312.358 985.861 351.723 973.379 368.65C965.315 379.585 948.009 365.758 929.166 356.395C919.349 351.517 909.783 352.034 906.109 349.728C896.812 343.854 889.158 335.718 883.861 326.081C878.564 316.444 875.799 305.62 875.824 294.623C875.824 258.581 897.246 232.119 933.287 232.119Z" fill="#28034F"/>
<path opacity="0.1" d="M1052.18 489.01L1002.69 480.482L993.173 474.689H1038.19L1052.18 489.01Z" fill="#28034F"/>
<path d="M1383.8 495.912L1492.83 573.971V505.51L1474.65 479.803L1418.18 410.924L1386.16 450.408L1383.8 495.912Z" fill="#28034F"/>
<path d="M1736.35 573.055L1756.79 557.316L1807.33 540.617L1842.79 476.047L1871.81 450.152L1878.68 452.734V476.047L1862.44 509.418L1865.19 521.918L1854.96 540.617L1831.27 569.496L1749.08 617.807L1736.35 573.055Z" fill="#28034F"/>
<path d="M1397.54 953.344L1373.15 914.473V751.266L1328.16 577.539L1379.45 513.896V474.35L1486.47 545.406V487.268L1504.86 500.428L1574.01 527.592L1628.32 561.533L1675.64 558.834L1690.23 568.471L1755.98 554.326L1765.8 561.537V653.416L1720.46 659.35L1665.8 692.514H1637.1L1628.32 772.596L1585.63 834.287L1397.54 953.344Z" fill="#28034F"/>
<path d="M1329.64 1310.38L1291.66 1247.52L1375.46 1121.28L1378.22 955.543L1383.02 916.65L1448.9 885.979L1589.77 853.256L1656.03 912.389L1730.72 998.744L1827.69 1121.83L1754.04 1192.66L1730.72 1195.58L1715.74 1164.98L1533.58 1012.66L1498.22 1144.35L1396.67 1294.55L1372.33 1315.48" fill="#28034F"/>
<path opacity="0.1" d="M1533.58 1012.65L1715.74 1164.98L1730.73 1195.58L1754.04 1192.66L1827.69 1121.83L1730.72 998.742L1656.04 912.387L1589.77 853.254L1552.98 864.504L1533.58 1012.65Z" fill="#28034F"/>
<path d="M1568.07 880.788L1579.43 898.827L1609.83 1085.61L1653.63 1072.59L1600.39 888.347L1579.43 867.675L1568.07 880.788Z" fill="#28034F"/>
<path d="M1544.55 840.768L1536.2 872.979L1493.93 883.201L1362.93 983.83L1335.86 964.279L1484.36 844.904L1511.61 838.436L1544.55 840.768Z" fill="#28034F"/>
<path d="M1377.87 836.408L1471.3 862.162L1531.52 870.01C1531.52 870.01 1542.8 890.444 1557.73 889.334C1572.65 888.224 1582.26 881.811 1591.21 865.58C1600.15 849.349 1591.21 827.611 1591.21 827.611C1591.21 827.611 1572.65 819.396 1557.73 822.338C1542.81 825.28 1518.46 830.287 1502.54 827.611C1457.58 822.486 1377.87 801.857 1377.87 801.857L1377.87 836.408Z" fill="#28034F"/>
<path d="M1580.32 577.52C1569.66 579.149 1540.21 595.921 1540.21 595.921C1540.21 595.921 1536.05 587.826 1526.93 591.02C1517.81 594.2 1510.15 598.547 1502.87 609.782C1495.58 621.017 1497.79 635.954 1497.79 635.954L1480.2 664.419L1497.79 692.227L1535.78 648.513C1546.29 643.821 1555.54 636.7 1562.76 627.733C1574.53 612.963 1582.86 589.397 1582.86 589.397C1582.86 589.397 1590.98 575.883 1580.32 577.52Z" fill="#28034F"/>
<g filter="url(#filter4_d_530_169)">
<path d="M1374.93 538.45C1402.47 530.042 1432.78 563.187 1432.78 563.187C1432.78 563.187 1441.83 591.473 1441.83 621.993C1441.83 652.513 1432.78 685.239 1432.78 685.239L1446.89 679.329L1441.83 665.855L1485.11 647.767L1508.97 711.806L1485.11 734.237V752.925L1446.89 791.708L1380.64 800.429L1329.9 747.042C1329.9 747.042 1311.36 648.976 1322.61 596.831C1330.19 564.739 1347.39 546.86 1374.93 538.45Z" fill="#28034F"/>
</g>
<path d="M1445.77 279.205C1503.61 279.205 1538.41 317.743 1538.41 375.58C1538.41 407.969 1530.14 471.14 1510.11 498.303C1497.17 515.85 1469.4 493.662 1439.16 478.636C1423.4 470.808 1408.05 471.636 1402.16 467.936C1387.24 458.51 1374.96 445.454 1366.46 429.989C1357.96 414.524 1353.52 397.155 1353.56 379.508C1353.56 321.671 1387.94 279.205 1445.77 279.205Z" fill="#28034F"/>
<path opacity="0.1" d="M1636.58 691.453L1557.15 677.77L1541.88 668.469H1614.12L1636.58 691.453Z" fill="#28034F"/>
<path d="M-40.3223 625.842L51.0566 691.27V633.887L35.8271 612.34L-11.5068 554.607L-38.3418 587.709L-40.3223 625.842Z" fill="#410B70"/>
<path d="M255.171 690.5L272.305 677.309L314.668 663.316L344.389 609.195L368.71 587.49L374.467 589.654V609.195L360.858 637.166L363.158 647.646L354.579 663.316L334.727 687.521L265.838 728.012L255.171 690.5Z" fill="#410B70"/>
<path d="M-28.8125 1009.25L-49.2578 976.67V839.875L-86.958 694.262L-43.9697 640.92V607.773L45.7305 667.332V618.602L61.1465 629.631L119.102 652.4L164.622 680.848L204.282 678.582L216.515 686.66L271.623 674.805L279.854 680.848V757.859L241.854 762.834L196.033 790.633H171.984L164.621 857.756L128.841 909.463L-28.8125 1009.25Z" fill="#410B70"/>
<path d="M-85.7246 1308.51L-117.559 1255.81L-47.3164 1150.01L-44.998 1011.09L-40.9756 978.488L14.2441 952.781L132.312 925.354L187.854 974.916L250.455 1047.3L331.729 1150.46L269.996 1209.83L250.455 1212.28L237.894 1186.63L85.21 1058.96L55.5791 1169.34L-29.542 1295.23L-49.9375 1312.77" fill="#410B70"/>
<path opacity="0.1" d="M85.2148 1058.96L237.896 1186.64L250.458 1212.29L269.999 1209.84L331.733 1150.47L250.458 1047.3L187.858 974.92L132.315 925.357L101.481 934.787L85.2148 1058.96Z" fill="#410B70"/>
<path d="M114.123 948.436L123.649 963.555L149.132 1120.11L185.843 1109.2L141.217 954.77L123.649 937.443L114.123 948.436Z" fill="#410B70"/>
<path d="M94.4111 914.893L87.4111 941.893L51.9805 950.461L-57.8193 1034.81L-80.5078 1018.42L43.96 918.361L66.8018 912.939L94.4111 914.893Z" fill="#410B70"/>
<path d="M-45.2939 911.236L33.0166 932.824L83.4912 939.4C83.4912 939.4 92.9461 956.527 105.455 955.6C117.964 954.673 126.022 949.299 133.519 935.689C141.016 922.079 133.519 903.865 133.519 903.865C133.519 903.865 117.962 896.98 105.456 899.445C92.9501 901.91 72.5432 906.109 59.1982 903.865C21.5122 899.57 -45.292 882.279 -45.292 882.279L-45.2939 911.236Z" fill="#410B70"/>
<path d="M124.393 694.24C115.455 695.605 90.7744 709.664 90.7744 709.664C90.7744 709.664 87.2797 702.882 79.6377 705.56C71.9957 708.238 65.5747 711.869 59.4697 721.287C53.3647 730.705 55.2168 743.222 55.2168 743.222L40.4697 767.082L55.2168 790.388L87.0596 753.748C95.8703 749.816 103.619 743.846 109.668 736.33C119.536 723.951 126.521 704.199 126.521 704.199C126.521 704.199 133.33 692.87 124.393 694.24Z" fill="#410B70"/>
<g filter="url(#filter5_d_530_169)">
<path d="M-47.7606 661.503C-24.6766 654.456 0.721802 682.235 0.721802 682.235C0.721802 682.235 8.3136 705.946 8.3136 731.526C8.3136 757.106 0.721802 784.536 0.721802 784.536L12.5509 779.583L8.3136 768.29L44.5841 753.128L64.5841 806.803L44.5841 825.604V841.264L12.5509 873.774L-42.9813 881.083L-85.5048 836.337C-85.5048 836.337 -101.047 754.136 -91.6112 710.436C-85.2662 683.538 -70.8426 668.552 -47.7606 661.503Z" fill="#410B70"/>
</g>
<path d="M11.6184 444.205C60.0964 444.205 89.2634 476.505 89.2634 524.984C89.2634 552.132 82.3344 605.084 65.5444 627.847C54.6984 642.555 31.4204 623.957 6.07538 611.363C-7.12462 604.802 -19.9966 605.497 -24.9386 602.396C-37.4434 594.495 -47.7395 583.552 -54.8635 570.589C-61.9875 557.626 -65.7066 543.068 -65.6726 528.276C-65.6726 479.799 -36.8586 444.205 11.6184 444.205Z" fill="#410B70"/>
<path opacity="0.1" d="M171.544 789.738L104.972 778.27L92.1719 770.477H152.72L171.544 789.738Z" fill="#410B70"/>
<path d="M694.159 425.713C694.159 425.713 692.259 431.613 689.689 440.781C687.124 449.922 683.889 462.29 681.21 475.262C678.537 488.187 676.41 501.707 676.021 513.254C675.634 524.764 676.976 534.326 681.234 539.416C683.599 542.242 680.173 555.116 673.245 572.458C664.906 592.841 655.296 612.68 644.471 631.858C633.001 652.258 620.343 671.586 608.659 684.548C597.019 697.454 586.307 704.098 578.607 699.224C572.674 695.466 569.689 680.135 568.546 659.147C567.398 638.03 568.107 611.113 569.579 584.479C571.061 557.635 573.314 531.079 575.206 511.148C577.106 491.106 578.638 477.848 578.638 477.848L642.397 401.113L694.159 425.713Z" fill="#5EB359"/>
<path d="M675.706 161.963C689.466 161.928 703.134 164.21 716.136 168.713C728.109 172.833 739.258 179.042 749.063 187.054C758.177 194.465 765.673 203.667 771.089 214.09C776.33 224.202 779.036 235.437 778.972 246.826C778.909 258.216 776.079 269.42 770.725 279.473C765.272 289.662 757.798 298.632 748.76 305.835C739.1 313.568 728.159 319.547 716.434 323.501C703.719 327.814 690.378 329.995 676.951 329.957C663.494 329.99 650.123 327.809 637.374 323.502C625.572 319.539 614.546 313.562 604.784 305.836C595.641 298.635 588.039 289.67 582.429 279.474C576.966 269.477 573.973 258.318 573.699 246.929C573.47 235.545 576.009 224.276 581.099 214.091C586.353 203.676 593.716 194.469 602.721 187.055C612.42 179.036 623.48 172.823 635.374 168.713C648.341 164.204 661.978 161.922 675.706 161.963Z" fill="#C411C6"/>
<path d="M667.115 144.992C682.91 145.075 698.468 148.842 712.553 155.992C727.049 163.35 739.956 173.488 750.538 185.829C761.702 198.768 770.448 213.608 776.36 229.642C782.632 246.584 785.768 264.527 785.614 282.592C785.472 301.192 782.927 321.347 778.74 341.047C774.752 359.968 769.191 378.523 762.115 396.519C755.474 413.178 747.95 427.475 740.261 437.498C732.593 447.493 724.742 453.262 717.406 452.898C710.07 452.534 696.521 446.39 680.283 436.253C661.304 424.193 643.398 410.522 626.763 395.392C608.469 378.838 590.975 359.974 577.918 340.616C564.79 321.154 556.144 301.187 555.696 282.592C555.215 264.637 557.798 246.732 563.334 229.646C568.453 213.75 576.397 198.907 586.784 185.831C596.531 173.508 608.733 163.347 622.617 155.992C636.343 148.783 651.611 145.009 667.115 144.992V144.992Z" fill="#75E371"/>
<path d="M643.081 335.564C646.367 335.586 649.585 336.498 652.394 338.203C655.41 340.048 658.014 342.494 660.043 345.39C662.337 348.632 664.093 352.223 665.243 356.024C666.534 360.23 667.204 364.602 667.232 369.002C667.278 373.417 666.689 377.817 665.481 382.064C664.406 385.91 662.727 389.56 660.508 392.88C658.565 395.825 656.03 398.334 653.066 400.248C650.328 402.003 647.15 402.947 643.898 402.972C639.935 403.319 635.963 402.399 632.556 400.345C629.175 398.206 626.336 395.312 624.263 391.89C621.916 388.089 620.112 383.978 618.905 379.677C617.597 375.141 616.752 370.484 616.382 365.777C615.993 361.497 616.565 357.183 618.055 353.152C619.406 349.579 621.505 346.337 624.212 343.642C626.773 341.09 629.801 339.055 633.132 337.648C636.277 336.299 639.659 335.591 643.081 335.564V335.564Z" fill="#75E371"/>
<path d="M1084.25 601.133L1114.65 581.689L1186.39 563.715L1247.39 477.636L1292.75 443.988L1301.71 448.318L1296.81 481.156L1267.66 526.069L1268.89 543.6L1251.21 568.269L1213.48 605.308L1094.08 662.416L1084.25 601.133Z" fill="#5EB359"/>
<path d="M528.529 1061.33L499.281 1013.06L507.199 811.384L454.634 578.265L528.364 495.391L545.154 443.335L673.612 549.421C673.612 549.421 673.728 547.221 673.926 543.705C674.124 540.189 674.404 535.344 674.732 530.066C675.06 524.788 675.432 519.055 675.826 513.783C676.22 508.511 676.619 503.683 677 500.214C677.381 496.745 677.83 493.514 678.287 490.621C678.744 487.728 679.211 485.167 679.63 483.042C680.049 480.917 680.421 479.225 680.687 478.065C680.953 476.905 681.115 476.277 681.115 476.277L702.904 488.83L795.487 533.308L865.854 585.057L998.864 581.166L1017.26 595.659L1155.46 553.484L1167.55 564.313L1151.17 687.878L1044.08 719.591L899.255 769.651L822.955 743.984L846.055 865.711L779.029 933.791L528.529 1061.33Z" fill="#7E0CF5"/>
<path d="M360.327 1747.34L325.298 1689.27L478.775 1438.46L503.84 1062.33L511.857 1016.49L598.257 985.124L782.507 957.36L1006.27 1314.18L1102.1 1634.5L1008.03 1698.25L981.028 1699.49L967.551 1668.95L870.151 1378.39L696.546 1141.59C696.546 1141.59 694.965 1158.97 691.854 1186.06C688.769 1212.92 684.199 1249.17 678.2 1287.36C672.273 1325.08 664.959 1364.63 656.277 1399.05C647.691 1433.08 637.741 1462.2 626.377 1479.84C615.077 1497.37 597.239 1522.68 576.97 1550.61C556.888 1578.27 534.456 1608.45 513.59 1636.25C492.919 1663.78 473.753 1689.01 459.813 1707.28C445.96 1725.44 437.202 1736.81 437.202 1736.81L408.855 1754.95" fill="#7E1EF5"/>
<path d="M751.897 988.923L764.761 1011.59L785.061 1230.52L840.578 1219.35L792.637 1000.76L767.764 974.014L751.897 988.923Z" fill="black"/>
<path d="M725.233 938.22L711.612 976.779L656.383 985.579L483.116 1094.3L449.533 1069.13L646.924 938.131L682.756 932.531L725.233 938.22Z" fill="black"/>
<path d="M503.555 918.421L628.769 958.121L705.849 972.783C705.849 972.783 706.649 974.392 708.149 976.803C710.076 979.911 712.247 982.861 714.642 985.624C717.545 989.039 720.945 991.999 724.726 994.405C728.636 996.924 733.175 998.292 737.826 998.352C742.315 998.379 746.792 997.904 751.175 996.934C755.233 996.013 759.136 994.511 762.765 992.475C766.586 990.29 770.098 987.604 773.208 984.489C776.881 980.802 780.201 976.78 783.126 972.475C786.231 967.892 788.327 962.702 789.275 957.248C790.154 952.28 790.389 947.219 789.975 942.19C789.679 938.307 789.086 934.453 788.2 930.661C787.527 927.783 786.94 926.061 786.94 926.061C786.94 926.061 785.488 925.33 783.002 924.269C780.516 923.208 776.994 921.816 772.858 920.498C768.336 919.035 763.708 917.92 759.016 917.161C754.058 916.325 749.009 916.164 744.008 916.682C739.094 917.267 733.408 917.961 727.316 918.599C721.224 919.237 714.741 919.82 708.23 920.183C701.719 920.546 695.184 920.691 688.998 920.452C683.234 920.299 677.496 919.62 671.856 918.422C657.347 915.872 639.724 911.928 621.433 907.442C603.117 902.95 584.127 897.913 566.933 893.189C549.715 888.458 534.3 884.043 523.184 880.805C512.068 877.567 505.243 875.518 505.243 875.518L503.555 918.421Z" fill="black"/>
<path d="M879.558 610.826C875.887 610.742 870.397 611.645 864.229 613.046C858.061 614.447 851.223 616.346 844.844 618.246C838.465 620.146 832.555 622.066 828.237 623.505C823.919 624.944 821.196 625.905 821.196 625.905C820.992 625.286 820.74 624.685 820.443 624.105C819.752 622.719 818.866 621.439 817.811 620.305C816.408 618.789 814.671 617.621 812.738 616.893C810.15 615.981 807.366 615.767 804.669 616.274C801.472 616.77 798.306 617.452 795.189 618.317C792.055 619.195 789.003 620.346 786.07 621.757C782.892 623.301 779.871 625.15 777.05 627.278C773.761 629.771 770.69 632.541 767.872 635.557C764.901 638.751 762.438 642.384 760.572 646.327C758.916 649.802 757.609 653.432 756.669 657.165C755.965 659.914 755.439 662.705 755.094 665.521C754.841 667.611 754.801 668.868 754.801 668.868L724.745 701.968L741.481 741.879L802.131 694.027C802.131 694.027 803.481 693.757 805.807 693.094C809.041 692.161 812.225 691.059 815.344 689.794C819.877 687.967 824.277 685.825 828.511 683.385C833.678 680.415 838.557 676.972 843.086 673.099C848.071 668.733 852.72 663.998 856.993 658.933C861.343 653.856 865.324 648.647 868.7 643.953C872.076 639.259 874.854 635.072 876.784 632.065C878.714 629.058 879.799 627.222 879.799 627.222C879.799 627.222 880.699 626.222 881.822 624.711C883.138 622.986 884.263 621.123 885.177 619.155C886.065 617.125 886.495 615.083 885.786 613.528C885.077 611.973 883.228 610.909 879.558 610.826Z" fill="#75E371"/>
<g filter="url(#filter6_d_530_169)">
<path d="M520.749 529.066C530.355 526.823 540.049 528.191 549.186 531.503C558.165 534.948 566.591 539.687 574.198 545.571C580.495 550.342 586.421 555.583 591.926 561.249C596.203 565.639 598.652 568.654 598.652 568.654C598.652 568.654 599.303 571.125 600.246 575.478C601.189 579.831 602.419 586.047 603.581 593.553C604.74 601.042 605.83 609.804 606.493 619.253C607.218 629.149 607.338 639.08 606.853 648.991C606.269 659.096 605.1 669.158 603.353 679.128C601.699 688.783 599.698 697.849 597.767 705.638C595.84 713.409 593.982 719.915 592.607 724.475C591.232 729.035 590.34 731.647 590.34 731.647L667.889 721.9L662.208 703.77L721.898 683.907L757.739 763.485L714.039 796.4L601.888 868.969L514.575 874.083L450.136 802.128C450.136 802.128 448.836 794.186 447.154 781.206C445.462 768.176 443.373 750.031 441.806 729.695C440.23 709.239 439.18 686.537 439.598 664.612C440.017 642.546 441.922 621.278 446.268 603.942C448.858 594.048 452.591 584.489 457.39 575.458C461.648 567.493 467.057 560.199 473.443 553.812C479.657 547.676 486.768 542.52 494.533 538.523C502.842 534.288 511.65 531.111 520.749 529.066Z" fill="#7E0CF5"/>
</g>
<path style="mix-blend-mode:overlay" opacity="0.32" d="M1920 1080V0L0 0V1080L1920 1080Z" fill="url(#paint0_linear_530_169)"/>
</g>
<defs>
<filter id="filter0_d_530_169" x="141.267" y="356.055" width="43.3145" height="58.8853" filterUnits="userSpaceOnUse" color-interpolation-filters="sRGB">
<feFlood flood-opacity="0" result="BackgroundImageFix"/>
<feColorMatrix in="SourceAlpha" type="matrix" values="0 0 0 0 0 0 0 0 0 0 0 0 0 0 0 0 0 0 127 0" result="hardAlpha"/>
<feOffset dx="2" dy="2"/>
<feGaussianBlur stdDeviation="0.5"/>
<feColorMatrix type="matrix" values="0 0 0 0 0 0 0 0 0 0 0 0 0 0 0 0 0 0 0.102 0"/>
<feBlend mode="normal" in2="BackgroundImageFix" result="effect1_dropShadow_530_169"/>
<feBlend mode="normal" in="SourceGraphic" in2="effect1_dropShadow_530_169" result="shape"/>
</filter>
<filter id="filter1_d_530_169" x="300.828" y="360.184" width="62.5673" height="85.571" filterUnits="userSpaceOnUse" color-interpolation-filters="sRGB">
<feFlood flood-opacity="0" result="BackgroundImageFix"/>
<feColorMatrix in="SourceAlpha" type="matrix" values="0 0 0 0 0 0 0 0 0 0 0 0 0 0 0 0 0 0 127 0" result="hardAlpha"/>
<feOffset dx="2" dy="2"/>
<feGaussianBlur stdDeviation="0.5"/>
<feColorMatrix type="matrix" values="0 0 0 0 0 0 0 0 0 0 0 0 0 0 0 0 0 0 0.102 0"/>
<feBlend mode="normal" in2="BackgroundImageFix" result="effect1_dropShadow_530_169"/>
<feBlend mode="normal" in="SourceGraphic" in2="effect1_dropShadow_530_169" result="shape"/>
</filter>
<filter id="filter2_d_530_169" x="533.977" y="372.371" width="94.2803" height="129.529" filterUnits="userSpaceOnUse" color-interpolation-filters="sRGB">
<feFlood flood-opacity="0" result="BackgroundImageFix"/>
<feColorMatrix in="SourceAlpha" type="matrix" values="0 0 0 0 0 0 0 0 0 0 0 0 0 0 0 0 0 0 127 0" result="hardAlpha"/>
<feOffset dx="2" dy="2"/>
<feGaussianBlur stdDeviation="0.5"/>
<feColorMatrix type="matrix" values="0 0 0 0 0 0 0 0 0 0 0 0 0 0 0 0 0 0 0.102 0"/>
<feBlend mode="normal" in2="BackgroundImageFix" result="effect1_dropShadow_530_169"/>
<feBlend mode="normal" in="SourceGraphic" in2="effect1_dropShadow_530_169" result="shape"/>
</filter>
<filter id="filter3_d_530_169" x="854.28" y="392.811" width="121.386" height="167.1" filterUnits="userSpaceOnUse" color-interpolation-filters="sRGB">
<feFlood flood-opacity="0" result="BackgroundImageFix"/>
<feColorMatrix in="SourceAlpha" type="matrix" values="0 0 0 0 0 0 0 0 0 0 0 0 0 0 0 0 0 0 127 0" result="hardAlpha"/>
<feOffset dx="2" dy="2"/>
<feGaussianBlur stdDeviation="0.5"/>
<feColorMatrix type="matrix" values="0 0 0 0 0 0 0 0 0 0 0 0 0 0 0 0 0 0 0.102 0"/>
<feBlend mode="normal" in2="BackgroundImageFix" result="effect1_dropShadow_530_169"/>
<feBlend mode="normal" in="SourceGraphic" in2="effect1_dropShadow_530_169" result="shape"/>
</filter>
<filter id="filter4_d_530_169" x="1318.99" y="537.084" width="192.981" height="266.345" filterUnits="userSpaceOnUse" color-interpolation-filters="sRGB">
<feFlood flood-opacity="0" result="BackgroundImageFix"/>
<feColorMatrix in="SourceAlpha" type="matrix" values="0 0 0 0 0 0 0 0 0 0 0 0 0 0 0 0 0 0 127 0" result="hardAlpha"/>
<feOffset dx="2" dy="2"/>
<feGaussianBlur stdDeviation="0.5"/>
<feColorMatrix type="matrix" values="0 0 0 0 0 0 0 0 0 0 0 0 0 0 0 0 0 0 0.102 0"/>
<feBlend mode="normal" in2="BackgroundImageFix" result="effect1_dropShadow_530_169"/>
<feBlend mode="normal" in="SourceGraphic" in2="effect1_dropShadow_530_169" result="shape"/>
</filter>
<filter id="filter5_d_530_169" x="-94.6514" y="660.357" width="162.235" height="223.725" filterUnits="userSpaceOnUse" color-interpolation-filters="sRGB">
<feFlood flood-opacity="0" result="BackgroundImageFix"/>
<feColorMatrix in="SourceAlpha" type="matrix" values="0 0 0 0 0 0 0 0 0 0 0 0 0 0 0 0 0 0 127 0" result="hardAlpha"/>
<feOffset dx="2" dy="2"/>
<feGaussianBlur stdDeviation="0.5"/>
<feColorMatrix type="matrix" values="0 0 0 0 0 0 0 0 0 0 0 0 0 0 0 0 0 0 0.102 0"/>
<feBlend mode="normal" in2="BackgroundImageFix" result="effect1_dropShadow_530_169"/>
<feBlend mode="normal" in="SourceGraphic" in2="effect1_dropShadow_530_169" result="shape"/>
</filter>
<filter id="filter6_d_530_169" x="439.506" y="527.965" width="321.233" height="349.118" filterUnits="userSpaceOnUse" color-interpolation-filters="sRGB">
<feFlood flood-opacity="0" result="BackgroundImageFix"/>
<feColorMatrix in="SourceAlpha" type="matrix" values="0 0 0 0 0 0 0 0 0 0 0 0 0 0 0 0 0 0 127 0" result="hardAlpha"/>
<feOffset dx="2" dy="2"/>
<feGaussianBlur stdDeviation="0.5"/>
<feColorMatrix type="matrix" values="0 0 0 0 0 0 0 0 0 0 0 0 0 0 0 0 0 0 0.102 0"/>
<feBlend mode="normal" in2="BackgroundImageFix" result="effect1_dropShadow_530_169"/>
<feBlend mode="normal" in="SourceGraphic" in2="effect1_dropShadow_530_169" result="shape"/>
</filter>
<linearGradient id="paint0_linear_530_169" x1="1920" y1="540" x2="0" y2="540" gradientUnits="userSpaceOnUse">
<stop stop-color="#D14FC5"/>
<stop offset="1" stop-color="#8121EB"/>
</linearGradient>
<clipPath id="clip0_530_169">
<rect width="1920" height="1080" fill="white"/>
</clipPath>
</defs>
</svg>
