<svg width="1920" height="1080" viewBox="0 0 1920 1080" fill="none" xmlns="http://www.w3.org/2000/svg">
<g clip-path="url(#clip0_530_327)">
<path d="M1920 0H0V1080H1920V0Z" fill="#7E0CF5"/>
<path d="M493.735 291.008L253.024 64.923L255.982 60.0747L497.271 285.99L493.735 291.008Z" fill="white"/>
<path d="M720.712 676.986L514.239 311.41L518.768 307.586L725.924 673.509L720.712 676.986Z" fill="white"/>
<path d="M495.039 279.296C496.02 278.123 497.104 277.04 498.278 276.059C499.402 275.12 500.612 274.289 501.892 273.578C503.126 272.893 504.426 272.336 505.773 271.917C507.087 271.508 508.442 271.247 509.814 271.139C512.21 270.934 514.622 271.247 516.886 272.059C519.098 272.867 521.119 274.125 522.82 275.753C524.609 277.469 526.063 279.504 527.105 281.753C528.253 284.233 528.976 286.889 529.242 289.609C529.278 289.948 529.307 290.288 529.33 290.63C529.353 290.972 529.369 291.315 529.378 291.66C529.387 292.005 529.39 292.35 529.387 292.697C529.384 293.044 529.373 293.391 529.356 293.739C529.349 293.973 529.342 294.206 529.332 294.439C529.322 294.672 529.31 294.905 529.292 295.139C529.274 295.373 529.25 295.603 529.218 295.839C529.186 296.075 529.146 296.3 529.094 296.529C528.896 297.896 528.602 299.248 528.215 300.574C527.831 301.892 527.356 303.183 526.794 304.436C526.237 305.68 525.593 306.882 524.868 308.036C524.151 309.177 523.351 310.265 522.475 311.29C521.548 312.413 520.526 313.455 519.42 314.403C518.363 315.311 517.225 316.12 516.02 316.821C514.86 317.496 513.636 318.055 512.367 318.491C511.133 318.915 509.858 319.206 508.562 319.36L507.596 319.442C506.265 319.528 504.928 319.458 503.613 319.231C502.326 319.008 501.07 318.633 499.871 318.113C498.665 317.589 497.523 316.926 496.471 316.137C495.383 315.322 494.389 314.386 493.51 313.349C493.095 312.855 492.703 312.338 492.332 311.798C491.961 311.258 491.615 310.698 491.292 310.117C490.969 309.536 490.669 308.936 490.392 308.317C490.115 307.698 489.866 307.061 489.644 306.407C489.471 305.894 489.316 305.372 489.177 304.841C489.038 304.31 488.919 303.773 488.82 303.228C488.716 302.683 488.629 302.132 488.56 301.575C488.491 301.018 488.438 300.455 488.401 299.888C488.391 299.631 488.385 299.374 488.384 299.116C488.383 298.858 488.386 298.6 488.393 298.341C488.4 298.082 488.412 297.823 488.429 297.563C488.446 297.303 488.467 297.043 488.492 296.784C488.547 295.194 488.733 293.612 489.047 292.053C489.36 290.495 489.797 288.964 490.354 287.476C490.908 285.991 491.582 284.553 492.367 283.176C493.147 281.808 494.041 280.508 495.039 279.29V279.296ZM495.325 303.814C495.475 304.214 495.642 304.604 495.825 304.985C496.008 305.366 496.204 305.732 496.411 306.085C496.621 306.44 496.845 306.781 497.083 307.11C497.321 307.439 497.573 307.753 497.838 308.053C498.716 309.085 499.753 309.971 500.91 310.675C502.023 311.349 503.239 311.835 504.51 312.112C505.795 312.39 507.116 312.457 508.422 312.312C509.807 312.156 511.16 311.79 512.434 311.225C513.779 310.629 515.037 309.851 516.17 308.913C517.342 307.944 518.39 306.836 519.293 305.613C520.228 304.35 521.016 302.983 521.641 301.541C522.286 300.056 522.76 298.502 523.053 296.909C523.1 296.681 523.143 296.452 523.182 296.223C523.221 295.994 523.254 295.764 523.282 295.535C523.311 295.306 523.336 295.076 523.355 294.846C523.374 294.616 523.389 294.386 523.4 294.157C523.418 293.808 523.427 293.46 523.427 293.113C523.427 292.766 523.417 292.421 523.397 292.078C523.378 291.735 523.349 291.394 523.311 291.055C523.273 290.716 523.226 290.38 523.169 290.047C522.879 288.242 522.298 286.495 521.447 284.877C520.67 283.399 519.632 282.074 518.385 280.964C517.193 279.907 515.804 279.096 514.298 278.578C512.755 278.055 511.122 277.853 509.498 277.984L508.82 278.059C506.858 278.327 504.973 279.002 503.287 280.04C501.539 281.114 499.989 282.483 498.708 284.086C497.36 285.762 496.282 287.639 495.514 289.649C494.709 291.742 494.243 293.949 494.134 296.189L494.126 296.451L494.118 296.719L494.11 296.987L494.102 297.249C494.097 297.83 494.12 298.405 494.17 298.974C494.22 299.543 494.296 300.103 494.398 300.653C494.5 301.199 494.628 301.739 494.784 302.272C494.937 302.795 495.118 303.31 495.325 303.814Z" fill="#C400C6"/>
<path d="M243.528 76.7221C241.67 77.0945 239.746 76.9527 237.963 76.3121C236.236 75.663 234.704 74.5843 233.511 73.1781C232.189 71.6153 231.2 69.7992 230.605 67.8411C229.906 65.566 229.593 63.1903 229.678 60.8121C229.751 58.2703 230.195 55.7528 230.995 53.3391C231.755 51.0177 232.841 48.8158 234.22 46.7991C235.495 44.9119 237.072 43.2474 238.888 41.8721C240.557 40.5989 242.485 39.7083 244.537 39.2631C246.397 38.8624 248.331 38.9768 250.131 39.5941C251.875 40.2226 253.429 41.2903 254.641 42.6941C255.986 44.2567 256.995 46.081 257.602 48.0521C258.316 50.3484 258.636 52.7488 258.551 55.1521C258.476 57.7221 258.022 60.2671 257.206 62.7051C256.431 65.0436 255.325 67.2591 253.922 69.2841C252.629 71.168 251.032 72.8239 249.197 74.1841C247.518 75.4389 245.582 76.3057 243.528 76.7221Z" fill="#C400C6"/>
<path d="M732.926 721.649C729.466 721.466 726.085 720.542 723.011 718.941C719.985 717.357 717.296 715.198 715.096 712.585C712.836 709.907 711.087 706.836 709.936 703.526C708.724 700.042 708.166 696.364 708.289 692.677C708.398 689.004 709.19 685.383 710.625 682C711.98 678.804 713.923 675.89 716.352 673.41C718.717 670.992 721.541 669.07 724.657 667.756C727.841 666.423 731.276 665.796 734.725 665.918C738.2 666.038 741.608 666.906 744.716 668.463C747.795 670.011 750.538 672.152 752.787 674.763C755.109 677.452 756.909 680.551 758.094 683.9C759.346 687.435 759.923 691.174 759.794 694.922C759.682 698.655 758.864 702.333 757.382 705.762C755.99 708.991 753.995 711.925 751.504 714.408C749.09 716.816 746.216 718.712 743.052 719.983C739.838 721.266 736.383 721.835 732.926 721.649Z" fill="#C400C6"/>
<path d="M976.418 1065.12C989.929 1068.04 990.033 1074.88 1013.36 1055.12C1036.69 1035.37 1047.39 997.702 1047.39 997.702L944.694 833.457L861.049 867.098L936.276 1036.61C936.276 1036.61 962.906 1062.19 976.418 1065.12Z" fill="#75E371"/>
<path d="M1181.8 872.257C1207.27 850.949 1213.57 779.256 1218.17 726.91C1218.78 720.052 1219.42 712.935 1220.03 706.529C1224.17 664.029 1229.61 626.067 1236.7 590.478C1246.26 542.383 1259.05 497.769 1274.71 457.853C1293.75 409.353 1317.57 366.342 1345.53 329.983C1377.84 287.943 1416.56 253.72 1460.54 228.306C1478.46 215.006 1499.76 204.557 1523.89 197.205C1549.11 189.647 1575.32 185.854 1601.65 185.946C1635.26 185.946 1668.43 191.869 1697.62 203.084C1726.87 214.349 1750.9 230.464 1767.12 249.713C1776.09 260.127 1782.83 272.275 1786.92 285.404C1790.89 298.785 1791.69 312.909 1789.26 326.654C1817.57 353.712 1839.31 384.436 1853.82 418.022C1867.35 449.313 1874.95 483.811 1876.42 520.596C1879.02 585.775 1862.57 659.848 1827.49 740.742C1827.46 740.842 1826.32 743.232 1775.2 759.278C1728.14 774.041 1627.93 803.634 1417.67 860.878C1417.5 860.93 1396.75 867.056 1366.91 873.135C1339.43 878.748 1298.5 885.41 1259.51 885.41C1227.5 885.417 1201.37 880.991 1181.8 872.257ZM1436.94 406.357C1430.86 455.857 1435.76 521.419 1459.22 572.572C1470.84 597.923 1474.8 607.887 1490.51 624.24C1507.64 642.002 1525.87 652.989 1544.76 656.882C1549.22 657.784 1553.76 658.236 1558.31 658.232C1576.74 658.232 1596.69 651.261 1617.64 637.542C1636.89 624.898 1656.49 606.669 1674.3 584.758C1691.92 563.038 1706.86 539.273 1718.79 513.978C1730.92 488.19 1738.8 462.278 1741.65 439.143C1741.76 438.203 1741.87 437.26 1741.97 436.314C1613.48 385.985 1520.6 333.537 1454.18 347.156C1446.14 365.572 1439.48 385.743 1436.94 406.359V406.357Z" fill="url(#paint0_linear_530_327)"/>
<path d="M1392.97 1014.45C1399.6 994.018 1405.73 972.491 1411.17 950.468C1416.47 929.046 1421.28 906.52 1425.47 883.515C1429.54 861.19 1433.15 837.752 1436.2 813.84C1439.14 790.709 1441.66 766.435 1443.67 741.69C1454.28 757.59 1465.74 770.636 1477.76 780.452C1490.65 790.99 1504.13 797.76 1517.82 800.576C1522.28 801.483 1526.81 801.936 1531.36 801.928H1531.37C1543.26 801.928 1555.97 798.956 1569.15 793.101C1581.63 787.558 1594.45 779.474 1607.25 769.074C1606.68 785.206 1606.95 801.357 1608.07 817.46C1609.18 833.253 1611.21 848.966 1614.17 864.519C1617.12 879.965 1621.06 895.205 1625.97 910.144C1630.95 925.227 1636.94 939.956 1643.9 954.229L1392.97 1014.45Z" fill="#5EB359"/>
<path d="M1331.76 659.595C1362.09 664.495 1349.99 707.552 1349.99 707.552C1349.99 707.552 1323.37 823.161 1278.45 920.679C1233.54 1018.2 1166.39 1141.87 1095.93 1175.51C1037.18 1196.58 968.504 1088.34 968.504 1088.34L912.178 999.741L1034.03 939.728L1037.65 970.695L1161.75 796.62C1161.75 796.62 1206.49 732.205 1248.99 697.949C1291.49 663.693 1307.02 655.552 1331.76 659.595Z" fill="#2F2E41"/>
<path d="M991.298 897.648L949.465 826.673C949.465 826.673 947.187 759.454 923.21 721.291C899.234 683.127 853.565 674.023 853.565 674.023C853.565 674.023 833.013 655.064 814.134 660.937C795.255 666.809 778.042 697.509 778.042 697.509C778.042 697.509 738.675 770.736 758.472 818.478C825.814 865.476 873.679 950.999 902.445 963.848L939.952 958.705L991.298 897.648Z" fill="#75E371"/>
<path d="M1189.41 687.562L1254.67 622.078L1367.27 599.07H1393.51L1552.42 610.839L1657.96 623.945C1657.96 623.945 1756.37 676.445 1810.72 715.203C1865.07 753.961 1875.37 778.968 1875.37 778.968L1881.83 793.05L1855.9 908.443L1818.99 1074.4H1344.85C1328.15 1059.12 1313.77 1041.48 1302.18 1022.03C1282.89 989.721 1267.72 945.138 1267.72 945.138L1264.71 932.501L1189.41 687.562Z" fill="#2F2E41"/>
<path d="M812.468 392.269L889.651 989.226L1092.7 939.688L1302.98 906.575L1264.84 369.147C1264.84 369.147 1164.92 386.494 1051.82 392.269C938.721 398.044 812.468 392.269 812.468 392.269Z" fill="#F0F0F0"/>
<path opacity="0.05" d="M812.468 392.269L889.651 989.226L1092.7 939.688L1302.98 906.575L1264.84 369.147C1264.84 369.147 1164.92 386.494 1051.82 392.269C938.721 398.044 812.468 392.269 812.468 392.269Z" fill="#C411C6"/>
<path d="M790.264 830.151C814.894 852.923 866.426 844.743 888.789 826.588C911.151 808.433 895.984 694.316 878.439 687.902C862.144 681.943 847.935 678.24 847.935 678.24C847.935 678.24 826.707 660.941 808.63 669.787C790.554 678.632 775.621 713.617 775.621 713.617C775.621 713.617 765.633 807.382 790.264 830.151Z" fill="#75E371"/>
<path d="M1175.69 542.33L1128.34 546.466L1132.62 595.379L1107.95 597.533L1097.5 477.841L1175.43 471.033L1177.17 491.009L1123.9 495.663L1126.6 526.572L1173.96 522.436L1175.69 542.33Z" fill="#C90000"/>
<path d="M996.784 598.58C991.097 579.17 993.258 558.115 1001.09 537.744C1019.55 489.633 1069.84 445.845 1122 439.045C1160.03 434.088 1205.3 438.811 1226.96 496.473C1290.86 666.573 1117.03 654.36 1083.82 641.057C1050.6 627.754 976.517 569.248 1077.08 496.473" stroke="#C9000F" stroke-width="13" stroke-linecap="round"/>
<path d="M1482.79 563.037C1482.79 563.037 1449.99 633.101 1451.9 666.062C1453.82 699.023 1463.97 741.195 1517.8 758.31C1562.71 769.886 1578.39 714.232 1578.39 714.232L1589.41 654.691L1482.79 563.037Z" fill="#54A150"/>
<path d="M1646.32 242.643C1732.5 265.751 1774.01 372.373 1747.4 471.646C1720.78 570.919 1607.93 683.731 1532.39 656.788C1456.85 629.845 1415.45 479.826 1442.07 380.552C1468.68 281.278 1560.13 219.535 1646.32 242.643Z" fill="#75E371"/>
<path d="M1182.23 872.148C1207.7 850.84 1214 779.147 1218.6 726.801C1219.21 719.943 1219.85 712.827 1220.46 706.421C1224.6 663.921 1230.04 625.958 1237.14 590.369C1246.69 542.274 1259.48 497.66 1275.14 457.744C1294.18 409.244 1318 366.233 1345.96 329.874C1378.28 287.834 1416.99 253.611 1460.97 228.197C1478.89 214.897 1500.19 204.448 1524.32 197.096C1549.55 189.538 1575.75 185.745 1602.08 185.838C1635.69 185.838 1668.86 191.76 1698.05 202.975C1727.31 214.24 1751.33 230.355 1767.55 249.604C1776.52 260.018 1783.26 272.166 1787.35 285.295C1791.32 298.677 1792.12 312.8 1789.69 326.546C1818 353.604 1839.74 384.327 1854.26 417.913C1867.78 449.204 1875.38 483.702 1876.86 520.487C1879.45 585.666 1863 659.74 1827.92 740.633C1827.89 740.733 1826.75 743.123 1775.63 759.169C1728.57 773.932 1628.36 803.525 1418.1 860.769C1417.93 860.821 1397.18 866.947 1367.34 873.026C1339.86 878.639 1298.93 885.301 1259.94 885.301C1227.93 885.308 1201.8 880.882 1182.23 872.148ZM1437.08 406.268C1431.01 455.768 1436.19 521.312 1459.65 572.467C1471.27 597.819 1475.23 607.783 1490.94 624.136C1508.07 641.898 1526.3 652.885 1545.19 656.778C1549.65 657.68 1554.19 658.132 1558.74 658.128C1577.17 658.128 1597.12 651.157 1618.07 637.438C1637.32 624.794 1656.92 606.565 1674.73 584.654C1692.35 562.934 1707.29 539.169 1719.22 513.874C1731.35 488.086 1739.23 462.174 1742.08 439.039C1742.19 438.099 1742.3 437.156 1742.4 436.21C1613.91 385.881 1519.54 333.748 1453.12 347.368C1444.97 366.126 1439.56 385.965 1437.08 406.27V406.268Z" fill="url(#paint1_linear_530_327)"/>
<g filter="url(#filter0_d_530_327)">
<path d="M1516.63 715.77C1508.01 734.987 1505.96 736.813 1504.83 790.581C1504.39 811.341 1503.62 836.718 1502.83 860.198C1501.59 897.182 1612.33 852.507 1612.3 825.659C1612.26 792.259 1613.15 752.404 1617.44 743.469C1625.12 727.434 1671.08 698.242 1708.28 649.737C1745.48 601.232 1753.16 546.762 1753.16 546.762C1753.16 546.762 1757.73 516.95 1757.34 491.559C1756.95 466.168 1757.44 438.991 1728.07 460.184C1698.7 481.377 1676.57 480.69 1653.43 532.94C1630.28 585.19 1644.36 588.385 1624.78 620.833C1605.21 653.281 1528.17 684.691 1516.63 715.77Z" fill="#75E371"/>
</g>
<g filter="url(#filter1_d_530_327)">
<path d="M1858.94 765.162C1891.09 770.355 1878.26 815.996 1878.26 815.996C1878.26 815.996 1875.75 896.796 1828.13 1000.18C1780.52 1103.56 1709.33 1234.64 1634.65 1270.31C1559.96 1305.97 1520.01 1147.25 1520.01 1147.25L1490.56 857.225L1620.67 822.506L1634.65 1000.18C1634.65 1000.18 1726.15 842.124 1771.21 805.814C1816.26 769.504 1832.71 760.875 1858.94 765.162Z" fill="#2F2E41"/>
</g>
<path style="mix-blend-mode:overlay" opacity="0.32" d="M1920 1080V0L0 0V1080L1920 1080Z" fill="url(#paint2_linear_530_327)"/>
<path style="mix-blend-mode:overlay" opacity="0.2" d="M1920 0H0V685H1920V0Z" fill="url(#paint3_linear_530_327)"/>
<g opacity="0.569">
<path opacity="0.569" d="M476.266 593.746L591.45 596.998V1045.75L476.266 1115.75V593.746Z" fill="#C400C6"/>
<path opacity="0.569" d="M590.896 1045.11V597.959L477.013 594.901V1114.16L590.896 1045.11ZM591.45 1045.75L476.265 1115.75V593.746L591.45 596.998V1045.75Z" fill="#707070"/>
</g>
<g opacity="0.569">
<path opacity="0.569" d="M263.294 336.121L417.22 365.603V1029.4L263.294 1077.79V336.121Z" fill="#C400C6"/>
<path opacity="0.569" d="M416.45 1028.71V366.395L264.255 337.353V1076.44L416.45 1028.71ZM417.22 1029.4L263.294 1077.79V336.121L417.22 365.603V1029.4Z" fill="#707070"/>
</g>
<g opacity="0.569">
<path opacity="0.569" d="M696.482 873.604L751.749 829.064V1061.88L696.482 1155.3V873.604Z" fill="#C400C6"/>
<path opacity="0.569" d="M751.494 1061.29V830.282L696.857 874.527V1153.44L751.494 1061.29ZM751.749 1061.88L696.483 1155.3V873.603L751.749 829.062V1061.88Z" fill="#707070"/>
</g>
<g opacity="0.569">
<path opacity="0.569" d="M65.5654 45.5908L235.837 86.7738V1012.02L65.5654 1042.71V45.5908Z" fill="#C400C6"/>
<path opacity="0.569" d="M234.955 1011.28V87.4598L66.5906 46.8076V1041.56L234.955 1011.28ZM235.838 1012.02L65.5654 1042.71V45.5908L235.838 86.7737V1012.02Z" fill="#707070"/>
</g>
<path opacity="0.2" d="M95.1475 111.308L150.19 15.6909V1065L95.1475 993.737V111.308Z" fill="white"/>
<path opacity="0.2" d="M282.533 379.019L355.533 326.236V1106.55L282.533 1017.64V379.019Z" fill="white"/>
<path opacity="0.2" d="M457.255 602.618L570.598 599.166V1142.08L457.255 1040V602.618Z" fill="white"/>
<path opacity="0.2" d="M643.175 833.505L762.967 894.38V1186.87L643.175 1061.82V833.505Z" fill="white"/>
</g>
<defs>
<filter id="filter0_d_530_327" x="1476.82" y="432.575" width="294.542" height="461.68" filterUnits="userSpaceOnUse" color-interpolation-filters="sRGB">
<feFlood flood-opacity="0" result="BackgroundImageFix"/>
<feColorMatrix in="SourceAlpha" type="matrix" values="0 0 0 0 0 0 0 0 0 0 0 0 0 0 0 0 0 0 127 0" result="hardAlpha"/>
<feOffset dx="-6"/>
<feGaussianBlur stdDeviation="10"/>
<feColorMatrix type="matrix" values="0 0 0 0 0 0 0 0 0 0 0 0 0 0 0 0 0 0 0.161 0"/>
<feBlend mode="normal" in2="BackgroundImageFix" result="effect1_dropShadow_530_327"/>
<feBlend mode="normal" in="SourceGraphic" in2="effect1_dropShadow_530_327" result="shape"/>
</filter>
<filter id="filter1_d_530_327" x="1484.56" y="752.154" width="402.228" height="523.373" filterUnits="userSpaceOnUse" color-interpolation-filters="sRGB">
<feFlood flood-opacity="0" result="BackgroundImageFix"/>
<feColorMatrix in="SourceAlpha" type="matrix" values="0 0 0 0 0 0 0 0 0 0 0 0 0 0 0 0 0 0 127 0" result="hardAlpha"/>
<feOffset dy="-6"/>
<feGaussianBlur stdDeviation="3"/>
<feColorMatrix type="matrix" values="0 0 0 0 0 0 0 0 0 0 0 0 0 0 0 0 0 0 0.129 0"/>
<feBlend mode="normal" in2="BackgroundImageFix" result="effect1_dropShadow_530_327"/>
<feBlend mode="normal" in="SourceGraphic" in2="effect1_dropShadow_530_327" result="shape"/>
</filter>
<linearGradient id="paint0_linear_530_327" x1="1529.24" y1="185.945" x2="1529.24" y2="885.41" gradientUnits="userSpaceOnUse">
<stop stop-color="#D14FC5"/>
<stop offset="1" stop-color="#8121EB"/>
</linearGradient>
<linearGradient id="paint1_linear_530_327" x1="1529.67" y1="185.836" x2="1529.67" y2="885.301" gradientUnits="userSpaceOnUse">
<stop stop-color="#D14FC5"/>
<stop offset="1" stop-color="#8121EB"/>
</linearGradient>
<linearGradient id="paint2_linear_530_327" x1="1920" y1="540" x2="0" y2="540" gradientUnits="userSpaceOnUse">
<stop stop-color="#D14FC5"/>
<stop offset="1" stop-color="#8121EB"/>
</linearGradient>
<linearGradient id="paint3_linear_530_327" x1="960" y1="0" x2="960" y2="685" gradientUnits="userSpaceOnUse">
<stop stop-color="#D14FC5"/>
<stop offset="1" stop-color="#8121EB"/>
</linearGradient>
<clipPath id="clip0_530_327">
<rect width="1920" height="1080" fill="white"/>
</clipPath>
</defs>
</svg>
