<svg width="1920" height="1080" viewBox="0 0 1920 1080" fill="none" xmlns="http://www.w3.org/2000/svg">
<g clip-path="url(#clip0_530_3)">
<path d="M1920 0H0V1080H1920V0Z" fill="#7E0CF5"/>
<path d="M300.3 397.543C300.3 397.543 590.3 450.243 849.835 540.789C1001.15 593.582 1179.63 600.262 1322.56 601.461C1709.91 604.711 1696.96 404.643 1919.76 366.752V358.053C1698.93 368.77 1734.1 493.476 1335.49 503.9C936.867 514.324 868.568 434.773 257.567 402.754L300.3 397.543Z" fill="#983DF5"/>
<path d="M0.728027 360.207C915 436.635 688.611 664.44 1169.32 807.217C1650.04 949.994 1922.6 890.59 1922.6 890.59V1080.3L951.91 1077.97C457.359 779.016 1036.43 572.109 0.728027 371.119V360.207Z" fill="#983DF5"/>
<g opacity="0.1">
<path opacity="0.1" d="M1107.63 889.043C1124.22 889.015 1140.8 889.879 1157.3 891.631C1171.36 893.074 1185.31 895.476 1199.04 898.821C1211.32 901.916 1221.6 905.648 1229.12 909.853C1236.77 914.124 1241.6 918.898 1242.79 923.999C1243.99 929.199 1241.3 934.234 1235.31 938.899C1229.23 943.639 1219.75 947.974 1207.56 951.666C1193.02 955.868 1178.15 958.856 1163.12 960.598C1144.46 962.87 1125.68 963.987 1106.89 963.943C1088.12 963.989 1069.37 962.872 1050.73 960.599C1035.76 958.861 1020.95 955.874 1006.47 951.667C994.349 947.975 984.958 943.64 978.966 938.9C973.066 934.237 970.477 929.2 971.785 924C973.069 918.9 977.995 914.126 985.725 909.854C993.336 905.649 1003.69 901.917 1016.02 898.822C1029.81 895.48 1043.8 893.078 1057.91 891.632C1074.42 889.881 1091.02 889.016 1107.63 889.043Z" fill="black"/>
<path opacity="0.1" d="M1106.9 963.283C1111.77 963.283 1116.61 963.213 1121.4 963.073C1126.19 962.933 1130.93 962.723 1135.62 962.445C1140.29 962.166 1144.91 961.819 1149.46 961.404C1154 960.99 1158.46 960.508 1162.85 959.959C1164.95 959.696 1167.03 959.418 1169.09 959.124C1171.14 958.831 1173.17 958.523 1175.16 958.201C1177.16 957.88 1179.13 957.544 1181.06 957.195C1182.99 956.847 1184.88 956.485 1186.74 956.11C1188.58 955.74 1190.39 955.356 1192.16 954.96C1193.93 954.565 1195.66 954.157 1197.35 953.738C1199.04 953.319 1200.7 952.889 1202.31 952.448C1203.92 952.007 1205.49 951.556 1207.01 951.095C1208.53 950.636 1210.01 950.166 1211.44 949.686C1212.87 949.207 1214.26 948.718 1215.6 948.221C1216.95 947.724 1218.24 947.219 1219.49 946.706C1220.73 946.193 1221.93 945.673 1223.08 945.146C1224.23 944.617 1225.33 944.08 1226.38 943.536C1227.44 942.992 1228.44 942.442 1229.39 941.886C1230.34 941.331 1231.24 940.771 1232.08 940.205C1232.93 939.641 1233.72 939.071 1234.45 938.498C1235.2 937.919 1235.89 937.334 1236.53 936.745C1237.17 936.158 1237.75 935.566 1238.28 934.971C1238.8 934.377 1239.28 933.781 1239.69 933.182C1240.11 932.584 1240.47 931.985 1240.78 931.384C1241.09 930.773 1241.34 930.159 1241.54 929.543C1241.73 928.928 1241.87 928.311 1241.96 927.693C1242.04 927.077 1242.07 926.46 1242.04 925.844C1242.01 925.228 1241.92 924.613 1241.78 924C1241.64 923.387 1241.45 922.776 1241.19 922.168C1240.94 921.561 1240.64 920.956 1240.28 920.354C1239.92 919.754 1239.51 919.157 1239.04 918.564C1238.57 917.973 1238.06 917.386 1237.49 916.805C1236.93 916.236 1236.32 915.67 1235.66 915.109C1235.01 914.549 1234.3 913.993 1233.55 913.442C1232.79 912.892 1231.99 912.347 1231.14 911.809C1230.3 911.271 1229.4 910.739 1228.47 910.215C1227.54 909.698 1226.57 909.186 1225.56 908.681C1224.54 908.176 1223.49 907.678 1222.39 907.187C1221.29 906.696 1220.16 906.213 1218.98 905.738C1217.8 905.263 1216.59 904.796 1215.33 904.338C1214.09 903.883 1212.81 903.436 1211.49 902.996C1210.17 902.558 1208.81 902.128 1207.42 901.706C1206.03 901.286 1204.61 900.874 1203.15 900.471C1201.7 900.069 1200.22 899.676 1198.7 899.294C1197.18 898.911 1195.63 898.538 1194.06 898.175C1192.48 897.812 1190.87 897.459 1189.24 897.116C1187.6 896.774 1185.94 896.442 1184.26 896.121C1182.57 895.8 1180.87 895.49 1179.14 895.192C1177.39 894.891 1175.62 894.6 1173.82 894.321C1172.03 894.043 1170.21 893.775 1168.38 893.52C1166.54 893.264 1164.69 893.021 1162.81 892.789C1160.94 892.558 1159.05 892.338 1157.15 892.132C1153.19 891.701 1149.19 891.325 1145.14 891.002C1141.09 890.679 1136.99 890.41 1132.86 890.195C1128.73 889.98 1124.56 889.818 1120.35 889.71C1116.14 889.602 1111.9 889.548 1107.62 889.548C1103.35 889.548 1099.1 889.602 1094.89 889.71C1090.68 889.818 1086.5 889.98 1082.37 890.195C1078.23 890.41 1074.13 890.679 1070.08 891.002C1066.02 891.325 1062.01 891.701 1058.04 892.132C1056.14 892.338 1054.24 892.558 1052.37 892.789C1050.49 893.021 1048.63 893.264 1046.79 893.52C1044.95 893.775 1043.13 894.043 1041.33 894.321C1039.53 894.6 1037.75 894.891 1036 895.192C1034.26 895.49 1032.55 895.8 1030.86 896.121C1029.17 896.442 1027.5 896.774 1025.86 897.116C1024.22 897.459 1022.6 897.812 1021.02 898.175C1019.43 898.538 1017.88 898.911 1016.35 899.294C1014.83 899.676 1013.34 900.069 1011.87 900.471C1010.41 900.874 1008.98 901.286 1007.58 901.706C1006.18 902.128 1004.82 902.558 1003.49 902.996C1002.16 903.436 1000.87 903.883 999.62 904.338C998.358 904.796 997.133 905.263 995.948 905.738C994.761 906.213 993.613 906.696 992.507 907.187C991.399 907.678 990.333 908.176 989.31 908.681C988.286 909.186 987.306 909.698 986.371 910.215C985.423 910.739 984.519 911.271 983.662 911.809C982.804 912.347 981.992 912.892 981.227 913.442C980.462 913.993 979.744 914.549 979.077 915.109C978.407 915.67 977.788 916.236 977.22 916.805C976.639 917.386 976.11 917.973 975.634 918.564C975.157 919.157 974.732 919.754 974.361 920.354C973.99 920.956 973.672 921.561 973.409 922.168C973.145 922.776 972.936 923.387 972.783 924C972.63 924.613 972.533 925.228 972.491 925.844C972.45 926.46 972.465 927.077 972.536 927.693C972.607 928.311 972.735 928.928 972.92 929.543C973.105 930.159 973.347 930.773 973.646 931.384C973.939 931.985 974.289 932.584 974.693 933.182C975.098 933.781 975.559 934.377 976.074 934.971C976.59 935.566 977.161 936.158 977.786 936.745C978.413 937.334 979.093 937.919 979.827 938.498C980.553 939.071 981.334 939.641 982.166 940.205C983.001 940.771 983.888 941.331 984.826 941.886C985.766 942.442 986.757 942.992 987.799 943.536C988.842 944.08 989.935 944.617 991.076 945.146C992.213 945.673 993.399 946.193 994.634 946.706C995.871 947.219 997.156 947.724 998.486 948.221C999.819 948.718 1001.2 949.207 1002.62 949.686C1004.05 950.166 1005.51 950.636 1007.02 951.095C1008.54 951.556 1010.1 952.007 1011.7 952.448C1013.3 952.889 1014.95 953.319 1016.63 953.738C1018.32 954.157 1020.04 954.565 1021.8 954.96C1023.56 955.356 1025.36 955.74 1027.19 956.11C1029.04 956.485 1030.93 956.847 1032.86 957.195C1034.78 957.544 1036.74 957.88 1038.73 958.201C1040.72 958.523 1042.74 958.831 1044.79 959.124C1046.84 959.418 1048.92 959.696 1051.01 959.959C1055.39 960.508 1059.85 960.99 1064.38 961.404C1068.91 961.819 1073.52 962.166 1078.2 962.445C1082.87 962.723 1087.61 962.933 1092.39 963.073C1097.18 963.213 1102.02 963.283 1106.9 963.283ZM1106.89 963.94C1086.85 963.94 1067.84 962.746 1050.74 960.597C1033.75 958.463 1018.74 955.403 1006.47 951.664C994.35 947.973 984.959 943.637 978.965 938.898C973.068 934.235 970.476 929.195 971.783 924C973.067 918.899 977.994 914.125 985.723 909.854C993.334 905.649 1003.69 901.917 1016.02 898.822C1028.22 895.763 1042.41 893.312 1057.91 891.632C1073.31 889.962 1090.09 889.044 1107.63 889.044C1125.17 889.044 1141.93 889.962 1157.3 891.632C1172.76 893.312 1186.9 895.763 1199.04 898.822C1211.31 901.917 1221.59 905.649 1229.12 909.854C1236.77 914.125 1241.6 918.899 1242.78 924C1243.99 929.195 1241.3 934.235 1235.31 938.898C1229.22 943.637 1219.75 947.973 1207.56 951.664C1195.21 955.403 1180.14 958.463 1163.11 960.597C1145.96 962.746 1126.93 963.94 1106.89 963.94Z" fill="#707070"/>
</g>
<path d="M0.150879 367.551C0.150879 367.551 420.378 424.438 457.109 700.108C475.282 863.051 312.676 1079.31 312.676 1079.31H0.150879V863.266C97.0129 851.176 195.657 808.984 232.983 715.329C314.4 408.281 0.150879 367.551 0.150879 367.551Z" fill="#983DF5"/>
<path d="M649 52C765.532 52 860 146.468 860 263H438C438 146.468 532.468 52 649 52Z" fill="url(#paint0_linear_530_3)"/>
<path d="M1120.48 280.84C1120.48 280.84 1120.39 281.573 1120.2 282.84C1120.01 284.107 1119.71 285.895 1119.32 288.018C1118.92 290.141 1118.42 292.591 1117.79 295.169C1117.16 297.747 1116.43 300.449 1115.57 303.082C1115.39 303.634 1115.16 304.573 1114.82 305.742C1114.43 307.109 1113.98 308.455 1113.45 309.775C1112.83 311.329 1112.07 312.82 1111.16 314.227C1110.21 315.712 1109.03 317.035 1107.66 318.147C1105.55 319.78 1103.27 321.178 1100.85 322.316C1098.57 323.412 1096.21 324.368 1093.81 325.179C1091.62 325.926 1089.68 326.472 1088.29 326.83C1086.9 327.188 1086.06 327.36 1086.06 327.36L1080.84 345.337L1078.55 398.423L1133.87 421.067L1193.72 394.167C1193.72 394.167 1193.07 390.967 1191.93 385.848C1190.8 380.729 1189.18 373.661 1187.25 365.957C1185.31 358.233 1183.06 349.857 1180.67 342.14C1178.69 335.338 1176.21 328.688 1173.27 322.24C1171.35 323.166 1169.25 323.637 1167.12 323.618C1165.27 323.566 1163.47 323.069 1161.85 322.169C1160.21 321.24 1158.75 320.027 1157.53 318.585C1156.22 317.043 1155.09 315.348 1154.18 313.537C1153.22 310.983 1152.39 308.379 1151.69 305.737C1150.74 302.337 1149.72 298.391 1148.77 294.637C1147.83 290.883 1146.97 287.304 1146.34 284.673C1145.71 282.042 1145.33 280.345 1145.33 280.345L1120.48 280.84Z" fill="#75E371"/>
<path d="M1076.13 745.758C1075.55 746.198 1074.99 746.673 1074.47 747.181C1073.95 747.684 1073.46 748.218 1073.01 748.781C1072.56 749.342 1072.14 749.93 1071.76 750.542C1071.39 751.153 1071.05 751.788 1070.75 752.442C1070.05 754.309 1069.84 756.323 1070.13 758.295C1070.43 760.333 1070.96 762.332 1071.7 764.257C1072.41 766.257 1073.22 768.277 1073.88 770.307C1074.57 772.28 1074.99 774.339 1075.13 776.425C1075.18 778.03 1075.01 779.634 1074.63 781.193C1074.24 782.763 1073.73 784.301 1073.11 785.793C1072.49 787.307 1071.79 788.808 1071.11 790.31C1070.42 791.812 1069.74 793.31 1069.16 794.83C1066.5 802.349 1066.29 810.516 1068.55 818.164C1069.67 821.953 1071.35 825.552 1073.55 828.838C1075.82 832.241 1078.59 835.286 1081.76 837.872C1082.09 838.169 1082.45 838.448 1082.81 838.706C1083.18 838.965 1083.57 839.203 1083.96 839.42C1084.36 839.638 1084.77 839.834 1085.19 840.008C1085.61 840.183 1086.04 840.335 1086.48 840.464C1087.94 840.707 1089.43 840.669 1090.87 840.351C1091.58 840.194 1092.28 839.969 1092.94 839.679C1093.61 839.389 1094.25 839.033 1094.84 838.616C1095.75 838.065 1096.61 837.449 1097.43 836.772C1098.23 836.105 1098.99 835.379 1099.68 834.6C1100.38 833.828 1101.01 833.004 1101.58 832.137C1102.15 831.271 1102.65 830.363 1103.08 829.42C1103.44 828.487 1103.77 827.545 1104.06 826.595C1104.35 825.645 1104.61 824.684 1104.83 823.711C1105.05 822.74 1105.23 821.763 1105.38 820.778C1105.52 819.793 1105.63 818.803 1105.7 817.807L1107.58 802.438C1108.08 798.413 1108.56 794.349 1108.97 790.263C1109.37 786.177 1109.69 782.058 1109.84 777.938C1110.01 773.812 1109.96 769.681 1109.71 765.559C1109.46 761.415 1108.92 757.294 1108.1 753.226C1107.82 751.883 1107.5 750.105 1107.06 748.176C1106.62 746.156 1106.05 744.165 1105.37 742.216C1104.74 740.367 1103.83 738.625 1102.68 737.054C1101.72 735.694 1100.28 734.749 1098.65 734.41C1096.74 734.213 1094.82 734.485 1093.05 735.201C1090.82 736.02 1088.68 737.049 1086.65 738.273C1084.51 739.524 1082.44 740.925 1080.62 742.249C1078.81 743.573 1077.25 744.817 1076.13 745.758Z" fill="black"/>
<path d="M1162.52 772.208C1161.28 773.609 1159.72 774.7 1157.98 775.396C1156.19 776.102 1154.29 776.529 1152.37 776.66C1150.33 776.809 1148.29 776.782 1146.26 776.579C1144.2 776.392 1142.15 776.079 1140.2 775.729C1139.27 775.633 1138.34 775.437 1137.45 775.143C1137.01 774.997 1136.58 774.827 1136.15 774.634C1135.73 774.441 1135.31 774.225 1134.91 773.986C1134.23 773.489 1133.65 772.864 1133.2 772.146C1132.75 771.43 1132.41 770.656 1132.18 769.846C1131.94 769.01 1131.77 768.155 1131.67 767.291C1131.56 766.42 1131.51 765.541 1131.46 764.691C1130.81 752.109 1130.27 739.466 1129.84 726.763C1129.4 714 1129.08 701.176 1128.86 688.291C1128.65 675.345 1128.55 662.336 1128.56 649.264C1128.58 636.131 1128.71 622.931 1128.96 609.664C1128.96 609.155 1133.39 607.783 1140.12 606.097C1146.85 604.411 1155.89 602.409 1165.11 600.647C1174.33 598.885 1183.74 597.363 1191.18 596.632C1198.62 595.901 1204.1 595.965 1205.47 597.378C1205.88 597.809 1206.03 599.527 1206.02 601.925C1206 604.323 1205.83 607.393 1205.61 610.534C1205.38 613.675 1205.11 616.88 1204.89 619.554C1204.66 622.228 1204.5 624.365 1204.5 625.372C1204.5 626.262 1204.28 629.013 1203.8 633.172C1203.32 637.331 1202.58 642.872 1201.54 649.372C1200.5 655.852 1199.16 663.266 1197.48 671.164C1195.8 679.039 1193.78 687.392 1191.38 695.778C1188.71 705.091 1185.65 714.453 1182.53 723.271C1179.43 732.06 1176.28 740.312 1173.42 747.443C1170.58 754.555 1168.02 760.559 1166.09 764.876C1165.06 767.393 1163.86 769.842 1162.52 772.208Z" fill="#5EB359"/>
<path d="M1052.22 598.064L1054.8 614.201C1054.8 614.201 1055.28 615.666 1056.17 618.275C1057.07 620.884 1058.36 624.628 1059.99 629.192C1061.62 633.756 1063.57 639.12 1065.77 644.983C1067.98 650.846 1070.42 657.174 1073.05 663.683C1075.67 670.192 1078.02 675.929 1080.18 681.126C1082.34 686.323 1084.31 690.951 1086.17 695.235C1088.04 699.519 1089.79 703.435 1091.51 707.198C1093.24 710.961 1094.93 714.552 1096.67 718.178C1096.99 720.322 1097.28 722.468 1097.53 724.617C1097.77 726.766 1097.98 728.914 1098.15 731.062C1098.32 733.21 1098.44 735.358 1098.53 737.507C1098.62 739.656 1098.67 741.802 1098.68 743.946C1098.75 745.787 1098.77 747.626 1098.73 749.463C1098.69 751.3 1098.59 753.131 1098.44 754.955C1098.29 756.78 1098.09 758.598 1097.83 760.409C1097.57 762.22 1097.26 764.02 1096.89 765.809C1096.58 767.137 1096.22 768.452 1095.84 769.761C1095.46 771.07 1095.05 772.372 1094.66 773.675C1094.26 774.978 1093.87 776.281 1093.51 777.591C1093.15 778.901 1092.83 780.217 1092.57 781.548C1091.6 786.753 1091.46 792.079 1092.16 797.327C1092.87 802.609 1094.1 807.81 1095.82 812.855C1097.51 817.985 1099.56 823.079 1101.67 828.137C1103.78 833.195 1105.94 838.199 1107.85 843.177C1109.5 847.444 1110.97 851.753 1112.26 856.105C1113.56 860.445 1114.68 864.816 1115.62 869.219C1116.56 873.611 1117.32 878.025 1117.9 882.46C1118.48 886.885 1118.88 891.321 1119.11 895.77C1119.2 897.662 1119.27 899.579 1119.39 901.492C1119.51 903.405 1119.68 905.31 1119.97 907.181C1120.24 909.039 1120.68 910.87 1121.28 912.651C1121.88 914.44 1122.71 916.143 1123.75 917.718C1125.89 917.243 1128.02 916.788 1130.15 916.393C1132.28 915.998 1134.4 915.664 1136.53 915.432C1138.66 915.193 1140.8 915.077 1142.94 915.085C1145.12 915.095 1147.29 915.268 1149.44 915.602C1149.98 912.683 1150.02 909.695 1149.56 906.762C1149.1 903.777 1148.38 900.836 1147.41 897.972C1146.47 895.039 1145.39 892.102 1144.39 889.147C1143.37 886.224 1142.54 883.236 1141.91 880.202C1140.93 874.749 1140.66 869.19 1141.12 863.668C1141.51 858.151 1142.4 852.634 1143.34 847.099C1144.28 841.564 1145.26 835.989 1145.83 830.39C1146.48 824.756 1146.48 819.067 1145.84 813.433C1145.45 810.34 1144.91 807.233 1144.35 804.115C1143.79 800.997 1143.21 797.863 1142.71 794.728C1142.21 791.593 1141.81 788.446 1141.61 785.304C1141.39 782.163 1141.43 779.009 1141.74 775.876C1142.34 770.145 1143.17 764.398 1144.01 758.64C1144.85 752.882 1145.72 747.089 1146.41 741.3C1147.1 735.511 1147.61 729.692 1147.74 723.882C1147.9 718.043 1147.58 712.2 1146.78 706.413C1146.39 703.671 1146.07 700.559 1145.75 697.18C1145.44 693.801 1145.13 690.146 1144.76 686.331C1144.4 682.516 1143.97 678.531 1143.43 674.481C1142.88 670.431 1142.21 666.319 1141.36 662.253C1140.21 656.805 1138.88 651.443 1137.52 646.428C1136.17 641.413 1134.77 636.735 1133.53 632.672C1132.29 628.609 1131.18 625.141 1130.39 622.559C1129.83 620.98 1129.4 619.358 1129.11 617.71C1129.09 616.725 1129.09 615.704 1129.08 614.654C1129.08 613.604 1129.08 612.524 1129.07 611.422C1129.07 610.32 1129.07 609.196 1129.07 608.056C1129.07 606.916 1129.07 605.761 1129.06 604.599C1129.06 604.476 1129.06 604.353 1129.06 604.222C1129.06 604.091 1129.06 603.953 1129.06 603.8C1129.06 603.647 1129.06 603.479 1129.05 603.29C1129.04 603.101 1129.04 602.89 1129.04 602.646C1129 599.553 1128.84 596.392 1128.53 593.211C1128.21 589.999 1127.72 586.806 1127.05 583.65C1126.37 580.459 1125.45 577.323 1124.32 574.265C1123.16 571.175 1121.74 568.197 1120.05 565.365C1113.46 564.661 1106.81 564.941 1100.31 566.195C1087.21 568.718 1074.99 574.649 1064.9 583.393C1059.99 587.645 1055.72 592.586 1052.22 598.064Z" fill="#75E371"/>
<path d="M1123 951.411C1122.35 951.398 1121.68 951.373 1121.01 951.311C1120.35 951.257 1119.7 951.152 1119.05 950.999C1118.44 950.856 1117.85 950.631 1117.3 950.331C1116.76 950.04 1116.3 949.641 1115.92 949.161C1115.75 948.881 1115.59 948.588 1115.45 948.286C1115.31 947.987 1115.2 947.68 1115.11 947.365C1115.01 947.052 1114.94 946.734 1114.9 946.411C1114.85 946.088 1114.83 945.762 1114.83 945.436C1114.64 943.353 1114.48 941.267 1114.37 939.178C1114.25 937.089 1114.17 934.995 1114.14 932.897C1114.1 930.8 1114.11 928.7 1114.15 926.597C1114.19 924.494 1114.27 922.392 1114.4 920.29C1114.44 919.522 1114.49 918.742 1114.57 917.966C1114.65 917.192 1114.78 916.424 1114.95 915.666C1115.12 914.916 1115.37 914.185 1115.68 913.482C1115.99 912.775 1116.4 912.112 1116.89 911.511C1117.25 911.141 1117.62 910.782 1118.01 910.433C1118.39 910.084 1118.79 909.746 1119.19 909.418C1119.6 909.09 1120.02 908.773 1120.44 908.468C1120.87 908.163 1121.31 907.869 1121.75 907.587C1122.79 906.767 1123.79 905.892 1124.74 904.967C1125.7 904.047 1126.65 903.107 1127.64 902.226C1128.6 901.342 1129.64 900.544 1130.74 899.839C1131.84 899.135 1133.06 898.61 1134.33 898.283C1136.62 897.793 1139 897.888 1141.25 898.561C1142.35 898.889 1143.4 899.356 1144.37 899.949C1145.35 900.542 1146.25 901.264 1147.03 902.096C1147.79 902.93 1148.47 903.826 1149.07 904.774C1149.67 905.705 1150.18 906.685 1150.6 907.703C1151.02 908.712 1151.36 909.756 1151.6 910.823C1151.84 911.889 1151.98 912.974 1152.03 914.066C1152.14 915.366 1152.16 916.689 1152.17 918.015C1152.18 919.341 1152.18 920.668 1152.26 921.978C1152.32 923.272 1152.49 924.559 1152.77 925.823C1153.05 927.091 1153.52 928.31 1154.17 929.439C1154.44 929.885 1154.73 930.316 1155.04 930.731C1155.35 931.148 1155.68 931.555 1156.02 931.959C1156.35 932.363 1156.69 932.759 1157.02 933.17C1157.36 933.581 1157.68 933.987 1157.98 934.41C1159.1 935.981 1160.03 937.68 1160.75 939.47C1161.5 941.271 1161.96 943.183 1162.1 945.131C1162.25 946.85 1161.84 948.573 1160.91 950.031C1160.34 950.798 1159.61 951.442 1158.78 951.923C1157.95 952.404 1157.04 952.713 1156.09 952.831C1153.47 953.277 1150.82 953.471 1148.16 953.412C1145.39 953.383 1142.52 953.17 1139.63 952.893C1136.75 952.616 1133.86 952.275 1131.06 951.993C1128.25 951.711 1125.54 951.469 1123 951.411Z" fill="black"/>
<path d="M1037.08 509.421C1035.97 507.938 1034.85 506.248 1033.72 504.415C1032.58 502.582 1031.44 500.606 1030.3 498.559C1029.15 496.512 1028 494.389 1026.84 492.259C1025.69 490.129 1024.53 487.997 1023.37 485.931C1021.82 483.154 1020.3 480.436 1018.91 477.878C1017.52 475.32 1016.26 472.914 1015.21 470.765C1014.3 468.952 1013.49 467.089 1012.79 465.185C1012.31 464.1 1012.09 462.917 1012.16 461.733L1026.33 392.849C1026.75 390.749 1027.18 388.643 1027.65 386.541C1028.11 384.439 1028.61 382.33 1029.17 380.253C1029.73 378.176 1030.35 376.11 1031.05 374.089C1031.74 372.075 1032.54 370.097 1033.43 368.164C1033.88 366.629 1034.36 365.109 1034.9 363.61C1035.43 362.111 1036.01 360.638 1036.65 359.191C1037.29 357.744 1037.99 356.327 1038.75 354.948C1039.52 353.564 1040.36 352.22 1041.26 350.923C1043.26 348.077 1045.61 345.489 1048.24 343.215C1050.85 340.967 1053.68 338.994 1056.69 337.325C1059.72 335.647 1062.88 334.222 1066.14 333.064C1069.41 331.901 1072.74 330.954 1076.13 330.23C1077.98 329.795 1079.88 329.653 1081.77 329.811C1083.03 329.909 1084.25 330.301 1085.33 330.954C1086.1 331.427 1086.71 332.11 1087.1 332.923C1087.41 333.563 1087.52 334.283 1087.42 334.986C1087.11 336.831 1086.73 338.577 1086.35 340.279C1085.98 341.981 1085.59 343.644 1085.25 345.319C1084.92 346.994 1084.63 348.688 1084.45 350.454C1084.26 352.306 1084.2 354.17 1084.28 356.03L1085.27 380.178C1085.34 381.842 1085.4 383.521 1085.43 385.194C1085.45 386.867 1085.44 388.538 1085.35 390.194C1085.26 391.84 1085.07 393.48 1084.79 395.103C1084.5 396.72 1084.08 398.31 1083.53 399.855C1083.42 400.268 1083.27 400.67 1083.08 401.055C1082.9 401.436 1082.68 401.799 1082.43 402.14C1082.17 402.477 1081.89 402.79 1081.58 403.077C1081.27 403.363 1080.93 403.619 1080.57 403.842C1080.16 404.081 1079.7 404.232 1079.22 404.285C1078.75 404.338 1078.27 404.291 1077.81 404.148C1077.04 403.803 1076.37 403.282 1075.84 402.626C1075.21 401.887 1074.53 401.195 1073.8 400.556C1072.94 399.833 1071.91 399.358 1070.8 399.183C1069.53 398.956 1068.22 399.076 1067 399.532C1065.85 399.983 1064.82 400.69 1063.98 401.601C1063.08 402.568 1062.35 403.675 1061.82 404.878C1061.24 406.14 1060.83 407.472 1060.6 408.839C1059.72 410.683 1057.95 415.227 1055.8 421.005C1053.66 426.768 1051.13 433.754 1048.72 440.494C1046.32 447.234 1044.02 453.701 1042.34 458.494C1040.66 463.287 1039.57 466.394 1039.57 466.394L1054.75 498.964L1037.08 509.421Z" fill="#75E371"/>
<path d="M1246.56 476.813C1245.17 478.83 1243.22 480.395 1240.95 481.313C1234.2 484.636 1226.9 486.679 1219.4 487.338C1211.96 487.992 1204.46 487.244 1197.29 485.133C1196.46 484.84 1195.63 484.56 1194.79 484.291C1193.95 484.022 1193.11 483.765 1192.27 483.52C1191.42 483.275 1190.58 483.041 1189.72 482.82C1188.87 482.599 1188.02 482.39 1187.16 482.193C1185.78 481.959 1184.39 481.809 1183 481.746C1181.6 481.674 1180.2 481.661 1178.79 481.657C1177.38 481.653 1175.97 481.657 1174.57 481.616C1173.17 481.575 1171.76 481.492 1170.37 481.316C1167.57 480.947 1164.84 480.219 1162.23 479.149C1159.61 478.075 1157.11 476.735 1154.77 475.149C1152.39 473.537 1150.14 471.741 1148.03 469.778C1145.92 467.809 1143.93 465.717 1142.06 463.513C1140.89 462.165 1139.84 460.711 1138.94 459.169C1138.02 457.625 1137.29 455.971 1136.78 454.247C1136.3 452.659 1136.15 450.988 1136.36 449.34C1136.58 447.728 1137.29 446.225 1138.41 445.04C1140.37 443.216 1142.96 442.212 1145.64 442.231C1146.53 442.238 1147.42 442.359 1148.28 442.591C1149.13 442.83 1149.98 443.097 1150.81 443.391C1151.64 443.685 1152.47 444.01 1153.28 444.367C1154.09 444.72 1154.88 445.102 1155.67 445.511C1156.45 445.92 1157.22 446.356 1157.98 446.819C1160.63 448.236 1163.34 449.537 1166.1 450.724C1168.86 451.911 1171.66 452.98 1174.5 453.931C1177.34 454.882 1180.22 455.716 1183.13 456.431C1186.04 457.146 1188.98 457.737 1191.95 458.204C1194.05 458.54 1196.18 458.703 1198.31 458.691C1200.45 458.69 1202.59 458.44 1204.67 457.945C1206.63 457.492 1208.48 456.672 1210.14 455.528C1211.76 454.383 1213.03 452.817 1213.83 450.999C1214.23 450.079 1214.5 449.112 1214.65 448.122C1214.8 447.129 1214.86 446.125 1214.82 445.122C1214.79 444.1 1214.7 443.08 1214.56 442.067C1214.42 441.049 1214.25 440.035 1214.07 439.038L1212.63 430.838L1211.19 422.608L1209.74 414.353L1208.29 406.073C1208.26 405.832 1208.22 405.594 1208.17 405.357C1208.12 405.12 1208.07 404.887 1208 404.657C1207.93 404.426 1207.86 404.197 1207.77 403.972C1207.68 403.747 1207.59 403.525 1207.48 403.307C1207.45 403.248 1207.42 403.19 1207.39 403.133C1207.36 403.076 1207.32 403.02 1207.29 402.965C1207.25 402.91 1207.21 402.856 1207.17 402.803C1207.13 402.75 1207.09 402.699 1207.05 402.648C1206.06 401.707 1204.83 401.063 1203.49 400.787C1201.98 400.323 1200.48 399.799 1199 399.199C1197.53 398.605 1196.09 397.921 1194.7 397.153C1193.32 396.392 1192.01 395.523 1190.76 394.553C1189.52 393.581 1188.38 392.488 1187.36 391.29C1186.69 390.435 1186.05 389.552 1185.46 388.641C1184.86 387.73 1184.31 386.79 1183.79 385.819C1183.28 384.859 1182.81 383.876 1182.38 382.871C1181.95 381.866 1181.57 380.841 1181.23 379.797C1181.13 379.534 1181.03 379.271 1180.94 379.007C1180.84 378.743 1180.74 378.478 1180.65 378.213C1180.56 377.946 1180.46 377.68 1180.37 377.413C1180.27 377.146 1180.18 376.88 1180.08 376.613C1179.36 374.557 1178.62 372.487 1177.89 370.403C1177.16 368.319 1176.43 366.218 1175.72 364.103C1175.01 361.988 1174.32 359.861 1173.67 357.722C1173.01 355.583 1172.39 353.427 1171.83 351.262C1171.43 349.795 1171.06 348.321 1170.73 346.839C1170.39 345.357 1170.09 343.865 1169.82 342.364C1169.55 340.864 1169.31 339.357 1169.11 337.844C1168.9 336.331 1168.73 334.812 1168.59 333.287C1168.48 331.967 1168.39 330.824 1168.35 329.819C1168.29 328.937 1168.33 328.051 1168.45 327.175C1168.55 326.445 1168.8 325.743 1169.18 325.112C1169.62 324.436 1170.18 323.851 1170.84 323.387C1171.03 323.254 1171.23 323.122 1171.44 322.993C1171.64 322.864 1171.84 322.741 1172.05 322.625C1172.25 322.507 1172.46 322.393 1172.67 322.284C1172.89 322.175 1173.1 322.07 1173.31 321.97C1173.65 321.811 1173.99 321.653 1174.34 321.495C1174.69 321.337 1175.05 321.181 1175.42 321.027C1175.78 320.872 1176.16 320.719 1176.54 320.567C1176.92 320.415 1177.31 320.266 1177.7 320.119L1179.23 319.562C1180.4 319.153 1181.57 318.765 1182.75 318.399C1183.93 318.033 1185.12 317.689 1186.31 317.366C1187.51 317.043 1188.71 316.743 1189.91 316.466C1191.12 316.189 1192.33 315.933 1193.54 315.698C1196.44 315.172 1199.41 315.138 1202.33 315.598C1205.25 316.063 1208.08 316.941 1210.75 318.207C1213.46 319.491 1216.01 321.103 1218.33 323.007C1220.67 324.913 1222.78 327.082 1224.62 329.47C1226.44 331.841 1228.03 334.372 1229.39 337.031C1230.75 339.698 1231.92 342.46 1232.89 345.294C1233.87 348.152 1234.69 351.06 1235.35 354.005C1236.03 356.953 1236.57 359.936 1237.02 362.91C1237.47 365.884 1237.83 368.864 1238.17 371.847C1238.51 374.83 1238.81 377.81 1239.14 380.784C1239.47 383.758 1239.82 386.719 1240.23 389.666C1240.65 392.613 1241.14 395.537 1241.76 398.439C1241.99 399.575 1242.25 400.707 1242.51 401.839C1242.78 402.971 1243.05 404.096 1243.31 405.223C1243.58 406.35 1243.84 407.475 1244.08 408.602C1244.32 409.729 1244.54 410.855 1244.73 411.983C1244.93 413.324 1245.1 414.667 1245.26 416.012C1245.41 417.357 1245.54 418.704 1245.65 420.052C1245.76 421.4 1245.85 422.749 1245.92 424.1C1245.98 425.451 1246.03 426.801 1246.05 428.152C1246.19 431.597 1246.33 435.037 1246.47 438.474C1246.6 441.911 1246.74 445.339 1246.87 448.76C1247.01 452.181 1247.14 455.597 1247.27 459.009C1247.41 462.421 1247.54 465.825 1247.67 469.222C1247.86 470.505 1247.86 471.808 1247.67 473.091C1247.48 474.379 1247.11 475.633 1246.57 476.815L1246.56 476.813Z" fill="#75E371"/>
<path d="M1087.78 486.879C1087.78 486.879 1086.64 488.135 1084.85 490.179C1083.05 492.223 1080.61 495.044 1078 498.185C1075.39 501.326 1072.62 504.773 1070.16 508.073C1067.97 510.921 1065.98 513.919 1064.21 517.045C1065.47 518.081 1066.68 519.181 1067.82 520.339C1069.01 521.512 1070.2 522.726 1071.42 523.876C1072.61 525.018 1073.88 526.071 1075.21 527.025C1076.5 527.944 1077.92 528.664 1079.41 529.162C1089.41 532.328 1099.63 535.013 1110.01 537.224C1120.39 539.435 1130.9 541.173 1141.48 542.447C1152.06 543.721 1162.69 544.53 1173.29 544.881C1183.89 545.232 1194.46 545.127 1204.91 544.569C1205.63 541.21 1205.85 537.764 1205.57 534.341C1205.44 532.64 1205.18 530.95 1204.8 529.285C1204.42 527.603 1203.93 525.948 1203.32 524.332C1202.95 523.321 1202.02 521.408 1200.85 519.106C1199.68 516.804 1198.25 514.106 1196.87 511.538C1195.5 508.97 1194.16 506.519 1193.17 504.714C1192.19 502.909 1191.54 501.746 1191.54 501.746C1191.85 501.353 1192.07 500.899 1192.18 500.415C1192.93 498.075 1193.5 495.683 1193.89 493.257C1194.6 489.367 1195.44 483.703 1196.35 475.457C1197.26 467.191 1198.25 456.317 1199.26 442.001L1202.97 430.001C1198.13 427.469 1192.87 425.813 1187.45 425.111C1181.94 424.413 1176.38 424.25 1170.84 424.625C1165.2 424.925 1159.46 425.562 1153.74 426.125C1148.02 426.688 1142.32 427.192 1136.72 427.217C1133.82 427.231 1130.91 427.117 1128.01 426.954C1125.11 426.791 1122.2 426.59 1119.3 426.431C1116.4 426.272 1113.5 426.157 1110.61 426.173C1107.72 426.175 1104.83 426.353 1101.96 426.705C1100.46 426.896 1098.17 427.163 1095.52 427.55C1092.88 427.937 1089.88 428.444 1086.97 429.115C1084.23 429.703 1081.55 430.556 1078.97 431.663C1076.69 432.705 1074.95 433.954 1074.18 435.454C1073.42 436.954 1073.9 440.941 1075.04 446.071C1076.18 451.201 1077.98 457.45 1079.87 463.508C1081.76 469.566 1083.74 475.402 1085.24 479.734C1086.75 484.066 1087.78 486.879 1087.78 486.879Z" fill="#75E371"/>
<path d="M1070.31 508.439C1069.48 508.311 1068.64 508.364 1067.84 508.594C1067.57 508.671 1067.31 508.767 1067.06 508.881C1065.94 509.714 1065.17 510.925 1064.88 512.289C1064.17 514.289 1063.3 516.227 1062.27 518.081C1061.23 520.007 1060.07 521.933 1058.92 523.861C1057.76 525.789 1056.64 527.718 1055.66 529.656C1054.69 531.517 1053.91 533.472 1053.33 535.49C1052.49 538.607 1051.65 541.721 1050.84 544.839C1050.04 547.957 1049.27 551.074 1048.56 554.206C1047.86 557.338 1047.23 560.476 1046.7 563.638C1046.18 566.8 1045.75 569.976 1045.47 573.184C1045.37 574.231 1045.3 575.56 1045.26 577.075C1045.23 578.59 1045.23 580.29 1045.31 582.081C1045.39 583.872 1045.54 585.752 1045.79 587.629C1046.02 589.49 1046.38 591.334 1046.85 593.149C1047.22 594.53 1047.71 595.876 1048.31 597.173C1048.82 598.281 1049.42 599.346 1050.1 600.357C1050.58 601.099 1051.15 601.782 1051.8 602.392C1052.3 602.844 1052.72 603.053 1052.99 602.967C1053.33 602.93 1053.65 602.786 1053.91 602.557C1054.27 602.252 1054.62 601.926 1054.95 601.58C1055.34 601.19 1055.78 600.751 1056.29 600.308C1056.85 599.822 1057.46 599.389 1058.1 599.016C1058.52 598.778 1059.02 598.483 1059.65 598.137C1060.28 597.791 1061.05 597.393 1061.99 596.948C1062.93 596.503 1064.06 596.01 1065.42 595.473C1066.77 594.936 1068.36 594.357 1070.23 593.738C1072.09 593.119 1073.68 592.602 1075.13 592.171C1076.57 591.74 1077.89 591.393 1079.21 591.114C1080.57 590.828 1081.94 590.613 1083.32 590.468C1084.8 590.31 1086.42 590.203 1088.34 590.132C1090.25 590.061 1092.2 590.051 1094.15 590.132C1096.1 590.207 1098.05 590.386 1099.99 590.667C1101.91 590.947 1103.82 591.359 1105.69 591.902C1107.55 592.443 1109.36 593.146 1111.1 594.002C1116.12 596.584 1120.47 600.305 1123.8 604.867C1125.44 607.103 1126.77 609.547 1127.77 612.133C1128.75 614.665 1129.31 617.337 1129.45 620.048C1147.93 621.587 1162.14 621.317 1173.07 619.982C1184 618.647 1191.68 616.241 1197.05 613.513C1202.43 610.785 1205.52 607.725 1207.29 605.091C1208.52 603.344 1209.32 601.325 1209.61 599.204C1210.01 595.419 1210.33 591.581 1210.57 587.691C1210.81 583.801 1210.98 579.872 1211.07 575.903C1211.16 571.934 1211.17 567.939 1211.1 563.92C1211.04 559.901 1210.89 555.867 1210.66 551.82C1210.56 550.134 1210.33 547.996 1210 545.725C1209.67 543.454 1209.23 541.047 1208.73 538.825C1208.31 536.86 1207.75 534.928 1207.04 533.047C1206.43 531.522 1205.79 530.508 1205.14 530.325C1204.06 529.777 1201.78 529.586 1198.54 529.54C1195.29 529.494 1191.08 529.596 1186.16 529.633C1181.23 529.67 1175.58 529.646 1169.46 529.348C1162.9 529.047 1156.37 528.407 1149.88 527.428C1140.7 526.016 1131.14 524.128 1121.97 522.082C1112.79 520.036 1103.99 517.842 1096.34 515.821C1088.69 513.8 1082.18 511.959 1077.59 510.618C1072.99 509.277 1070.31 508.439 1070.31 508.439Z" fill="#7E0CF5"/>
<path d="M1199.02 444.01C1195.63 444.681 1189.41 444.779 1181.98 444.548C1174.55 444.317 1165.91 443.759 1157.7 443.116C1149.48 442.473 1141.68 441.747 1135.94 441.181C1130.2 440.615 1126.51 440.21 1126.51 440.21C1122.93 440.146 1119.33 440.081 1115.74 440.059C1112.15 440.037 1108.55 440.059 1104.97 440.159C1101.38 440.259 1097.81 440.459 1094.24 440.776C1090.68 441.093 1087.13 441.543 1083.61 442.162C1083.11 442.249 1082.64 442.343 1082.17 442.446C1081.71 442.549 1081.25 442.66 1080.79 442.781C1080.33 442.902 1079.86 443.032 1079.38 443.172C1078.9 443.312 1078.4 443.462 1077.87 443.624C1077.56 443.717 1077.23 443.839 1076.89 443.958C1076.54 444.083 1076.18 444.19 1075.82 444.277C1075.47 444.364 1075.11 444.401 1074.75 444.389C1074.39 444.376 1074.04 444.278 1073.73 444.103C1073.42 443.916 1073.14 443.665 1072.93 443.365C1072.69 443.033 1072.5 442.674 1072.35 442.296C1072.18 441.896 1072.04 441.447 1071.89 440.97C1071.75 440.493 1071.61 439.985 1071.46 439.459C1070.58 436.451 1069.59 433.644 1068.62 430.913C1067.66 428.182 1066.71 425.519 1065.92 422.806C1065.09 420.049 1064.5 417.226 1064.16 414.369C1063.79 411.198 1063.79 407.996 1064.15 404.825C1064.26 403.772 1064.41 402.724 1064.58 401.679C1064.75 400.634 1064.95 399.595 1065.17 398.56C1065.39 397.525 1065.64 396.497 1065.92 395.474C1066.2 394.451 1066.5 393.436 1066.83 392.427C1067.54 390.252 1068.54 387.655 1069.67 384.846C1070.8 382.037 1072.07 379.01 1073.35 375.986C1074.62 372.962 1075.9 369.931 1077.04 367.118C1078.18 364.305 1079.18 361.699 1079.9 359.527C1080.19 358.681 1080.46 357.826 1080.69 356.962C1080.92 356.098 1081.13 355.227 1081.31 354.348C1081.48 353.469 1081.63 352.585 1081.75 351.694C1081.87 350.803 1081.96 349.908 1082.02 349.009C1082.01 348.109 1082.02 347.294 1082.03 346.504C1082.04 345.714 1082.05 344.946 1082.05 344.137C1082.04 343.328 1082.03 342.477 1081.98 341.519C1081.94 340.561 1081.87 339.495 1081.75 338.258C1081.64 337.021 1081.51 336.026 1081.37 335.184C1081.24 334.342 1081.1 333.652 1080.96 333.021C1080.81 332.39 1080.67 331.821 1080.54 331.214C1080.41 330.607 1080.29 329.969 1080.18 329.209C1080.18 329.209 1080.26 329.143 1080.4 329.035C1080.54 328.927 1080.74 328.777 1081 328.609C1081.25 328.441 1081.55 328.254 1081.88 328.072C1082.23 327.882 1082.58 327.715 1082.95 327.572C1083.33 327.428 1083.71 327.308 1084.11 327.213C1084.49 327.119 1084.85 327.048 1085.17 326.996C1085.48 326.944 1085.75 326.91 1085.94 326.89C1086.13 326.87 1086.24 326.862 1086.24 326.862C1086.24 326.862 1086.28 327.015 1086.34 327.256C1086.39 327.497 1086.47 327.827 1086.55 328.181C1086.63 328.535 1086.71 328.915 1086.78 329.255C1086.84 329.595 1086.9 329.896 1086.92 330.094C1086.97 330.503 1087.02 330.914 1087.06 331.327C1087.1 331.74 1087.14 332.153 1087.17 332.568C1087.21 332.983 1087.24 333.398 1087.27 333.813C1087.29 334.228 1087.32 334.644 1087.34 335.06C1087.38 336.089 1087.41 337.118 1087.42 338.147C1087.43 339.176 1087.43 340.204 1087.42 341.231C1087.4 342.258 1087.36 343.284 1087.32 344.309C1087.27 345.334 1087.2 346.358 1087.13 347.38C1086.98 349.423 1086.78 351.519 1086.63 353.619C1086.47 355.7 1086.42 357.789 1086.47 359.876C1086.52 361.893 1086.79 363.897 1087.29 365.852C1087.79 367.784 1088.63 369.612 1089.76 371.252C1091.22 373.296 1093.15 374.954 1095.39 376.083C1097.65 377.2 1100.09 377.93 1102.6 378.242C1105.24 378.583 1107.92 378.673 1110.58 378.511C1113.28 378.372 1115.98 378.048 1118.54 377.668L1145.38 373.659C1147.5 373.348 1149.95 372.904 1152.52 372.3C1155.16 371.685 1157.77 370.906 1160.32 369.969C1162.81 369.073 1165.2 367.914 1167.44 366.512C1169.45 365.291 1171.18 363.67 1172.53 361.751C1174.62 358.181 1175.85 354.171 1176.12 350.042L1176.16 349.227C1176.4 346.976 1176.55 344.72 1176.62 342.459C1176.7 340.198 1176.69 337.936 1176.61 335.673C1176.52 333.41 1176.36 331.15 1176.12 328.895C1175.87 326.64 1175.55 324.392 1175.14 322.151C1175.08 321.839 1175.1 321.518 1175.19 321.213C1175.28 320.909 1175.44 320.63 1175.66 320.401C1176.15 319.908 1176.76 319.541 1177.42 319.332C1178.14 319.087 1178.88 318.939 1179.63 318.891C1180.26 318.835 1180.89 318.88 1181.5 319.025C1182.22 323.206 1182.68 327.426 1182.9 331.662C1183.14 335.688 1183.2 339.555 1183.33 343.319C1183.45 347.083 1183.63 350.737 1184.07 354.353C1184.49 358.009 1185.27 361.614 1186.4 365.114C1187.63 368.923 1189.24 372.6 1191.2 376.091C1192.74 378.732 1194.42 381.284 1196.24 383.737C1197.96 386.044 1199.55 388.448 1201.01 390.937C1202.7 393.973 1204.04 397.199 1204.99 400.547C1205.74 403.446 1206.14 406.426 1206.16 409.422C1206.24 412.887 1206.08 416.352 1205.68 419.795C1205.32 423.094 1204.75 426.367 1203.98 429.595C1203.43 432.078 1202.6 434.492 1201.51 436.788C1201.26 437.57 1201.06 438.365 1200.9 439.169C1200.73 439.94 1200.6 440.676 1200.45 441.333C1200.33 441.918 1200.15 442.488 1199.91 443.033C1199.74 443.452 1199.42 443.797 1199.02 444.01Z" fill="#2F2E41"/>
<path d="M1237.01 363.014C1237.46 365.985 1237.83 368.967 1238.17 371.951C1238.5 374.935 1238.81 377.914 1239.14 380.888C1239.46 383.862 1239.81 386.823 1240.23 389.77C1240.65 392.717 1241.14 395.641 1241.75 398.542C1241.99 399.682 1242.25 400.816 1242.51 401.947C1242.77 403.078 1243.04 404.205 1243.31 405.33C1243.57 406.455 1243.83 407.579 1244.08 408.705C1244.32 409.831 1244.54 410.955 1244.73 412.084C1244.93 413.423 1245.1 414.765 1245.25 416.109C1245.41 417.453 1245.54 418.798 1245.65 420.145C1245.76 421.492 1245.85 422.839 1245.92 424.188C1245.99 425.537 1246.03 426.886 1246.06 428.236L1247.68 469.304C1247.85 470.566 1247.84 471.845 1247.65 473.104C1247.47 474.369 1247.1 475.601 1246.57 476.764C1245.18 478.777 1243.23 480.341 1240.96 481.264C1234.21 484.579 1226.9 486.617 1219.41 487.275C1211.97 487.931 1204.47 487.188 1197.29 485.086C1196.47 484.79 1195.63 484.507 1194.79 484.236C1193.95 483.965 1193.11 483.707 1192.27 483.462C1191.43 483.217 1190.58 482.984 1189.73 482.762C1188.88 482.54 1188.02 482.334 1187.16 482.143C1185.78 481.905 1184.39 481.753 1183 481.689C1181.6 481.616 1180.2 481.604 1178.79 481.601C1177.38 481.598 1175.98 481.601 1174.57 481.564C1173.17 481.534 1171.76 481.434 1170.37 481.264C1167.57 480.895 1164.84 480.168 1162.23 479.1C1159.61 478.028 1157.11 476.69 1154.77 475.108C1152.39 473.503 1150.14 471.716 1148.03 469.762C1145.92 467.805 1143.93 465.727 1142.06 463.537C1140.88 462.188 1139.84 460.733 1138.93 459.19C1138.01 457.644 1137.29 455.989 1136.78 454.263C1136.3 452.676 1136.15 451.005 1136.35 449.358C1136.57 447.746 1137.29 446.243 1138.4 445.058C1140.37 443.234 1142.96 442.23 1145.64 442.249C1146.53 442.256 1147.42 442.377 1148.28 442.609C1149.13 442.85 1149.97 443.119 1150.81 443.418C1151.64 443.717 1152.46 444.043 1153.27 444.398C1154.08 444.753 1154.88 445.136 1155.67 445.546C1156.45 445.956 1157.22 446.393 1157.97 446.858C1160.63 448.271 1163.34 449.571 1166.1 450.758C1168.86 451.945 1171.66 453.011 1174.49 453.958C1177.33 454.908 1180.21 455.739 1183.12 456.452C1186.04 457.165 1188.98 457.756 1191.94 458.225C1194.05 458.566 1196.17 458.734 1198.3 458.725C1200.44 458.727 1202.58 458.477 1204.66 457.982C1206.62 457.529 1208.48 456.708 1210.13 455.562C1211.75 454.414 1213.03 452.845 1213.82 451.024C1214.22 450.105 1214.49 449.138 1214.64 448.147C1214.79 447.154 1214.85 446.15 1214.82 445.147C1214.78 444.125 1214.69 443.105 1214.55 442.092C1214.41 441.074 1214.24 440.06 1214.07 439.063L1208.28 406.082C1208.22 405.794 1209.86 402.246 1212.38 397.26C1214.9 392.274 1218.32 385.823 1221.82 379.772C1224.74 374.488 1228.04 369.424 1231.69 364.621C1234.51 361.2 1236.56 360.044 1237.01 363.014Z" fill="#75E371"/>
<g filter="url(#filter0_d_530_3)">
<path d="M1196.36 484.482C1195.83 484.309 1195.16 484.114 1194.41 483.91C1193.66 483.706 1192.82 483.493 1191.97 483.283C1191.12 483.073 1190.25 482.865 1189.43 482.673C1188.61 482.481 1187.83 482.303 1187.16 482.153C1185.78 481.915 1184.39 481.763 1183 481.699C1181.6 481.626 1180.2 481.614 1178.79 481.61C1177.38 481.606 1175.98 481.61 1174.57 481.573C1173.17 481.543 1171.77 481.443 1170.37 481.273C1167.57 480.904 1164.84 480.177 1162.23 479.109C1159.61 478.037 1157.11 476.699 1154.77 475.117C1152.39 473.513 1150.14 471.726 1148.03 469.773C1145.92 467.816 1143.93 465.738 1142.06 463.548C1140.88 462.199 1139.84 460.744 1138.93 459.201C1138.01 457.655 1137.29 455.999 1136.78 454.273C1136.3 452.683 1136.15 451.01 1136.35 449.36C1136.57 447.748 1137.29 446.245 1138.4 445.06C1140.37 443.236 1142.96 442.232 1145.64 442.251C1146.53 442.258 1147.42 442.379 1148.28 442.611C1149.13 442.852 1149.97 443.121 1150.81 443.42C1151.64 443.719 1152.46 444.045 1153.27 444.4C1154.08 444.755 1154.88 445.138 1155.67 445.548C1156.45 445.958 1157.22 446.395 1157.97 446.86C1160.63 448.273 1163.34 449.573 1166.1 450.76C1168.86 451.947 1171.66 453.013 1174.5 453.96C1177.34 454.91 1180.21 455.741 1183.13 456.454C1186.04 457.167 1188.98 457.758 1191.95 458.227C1192.35 458.292 1192.8 458.355 1193.27 458.414C1193.75 458.473 1194.26 458.529 1194.78 458.578C1195.31 458.627 1195.85 458.67 1196.41 458.705C1196.96 458.74 1197.52 458.766 1198.08 458.781L1196.36 484.482Z" fill="#75E371"/>
</g>
<path d="M1121.99 281.054C1121.99 281.054 1121.3 283.687 1120.41 287.604C1119.52 291.521 1118.44 296.704 1117.63 301.831C1116.81 306.392 1116.44 311.025 1116.54 315.659C1116.78 319.318 1117.77 321.585 1120 321.147C1122.06 320.59 1124.03 319.761 1125.87 318.684C1128.82 317.064 1131.62 315.186 1134.24 313.072C1137.28 310.648 1140.03 307.863 1142.4 304.778C1144.84 301.661 1146.62 298.087 1147.65 294.268C1148.35 291.443 1149.01 288.668 1149.59 286.09C1150.17 283.512 1150.68 281.133 1151.11 279.109C1151.53 277.085 1151.87 275.409 1152.1 274.244C1152.33 273.079 1152.45 272.418 1152.45 272.418L1121.99 281.054Z" fill="#5EB359"/>
<path d="M1131.93 194.275C1137.12 194.175 1142.26 195.319 1146.91 197.612C1151.63 199.955 1155.82 203.244 1159.22 207.275C1162.85 211.566 1165.68 216.471 1167.58 221.76C1169.64 227.467 1170.71 233.483 1170.75 239.55C1170.69 246.385 1169.55 253.167 1167.39 259.65C1165.2 266.486 1162.17 273.023 1158.37 279.111C1155.06 284.612 1150.82 289.504 1145.85 293.575C1141.33 297.084 1136.56 299.052 1131.89 298.755C1127.22 298.458 1122.6 296.286 1118.29 292.804C1113.63 288.875 1109.64 284.203 1106.5 278.975C1102.95 273.221 1100.12 267.053 1098.07 260.608C1096.01 254.303 1094.84 247.738 1094.62 241.108C1094.47 235.04 1095.35 228.99 1097.22 223.216C1098.94 217.851 1101.61 212.836 1105.09 208.403C1108.35 204.235 1112.43 200.776 1117.07 198.236C1121.64 195.753 1126.73 194.395 1131.93 194.275Z" fill="#75E371"/>
<path d="M1167.98 249.967C1168.98 250.484 1169.83 251.26 1170.42 252.214C1171.07 253.246 1171.49 254.398 1171.68 255.6C1171.89 256.948 1171.89 258.322 1171.67 259.67C1171.44 261.161 1170.98 262.609 1170.33 263.97C1169.68 265.337 1168.84 266.604 1167.83 267.731C1166.92 268.752 1165.86 269.621 1164.68 270.305C1163.64 270.916 1162.48 271.301 1161.28 271.434C1160.17 271.552 1159.06 271.353 1158.06 270.86C1156.79 270.35 1155.71 269.45 1154.98 268.289C1154.27 267.102 1153.84 265.768 1153.72 264.389C1153.58 262.853 1153.65 261.305 1153.93 259.789C1154.22 258.188 1154.67 256.621 1155.27 255.11C1155.8 253.737 1156.62 252.5 1157.69 251.489C1158.64 250.602 1159.77 249.932 1161.01 249.524C1162.18 249.138 1163.41 248.983 1164.63 249.067C1165.8 249.141 1166.94 249.447 1167.98 249.967Z" fill="#75E371"/>
<path d="M1097.68 251.393C1096.7 251.95 1095.88 252.759 1095.31 253.736C1094.71 254.791 1094.32 255.958 1094.17 257.167C1094 258.52 1094.05 259.892 1094.31 261.23C1094.89 264.201 1096.31 266.944 1098.4 269.13C1099.34 270.113 1100.43 270.938 1101.63 271.574C1102.69 272.143 1103.85 272.481 1105.05 272.566C1106.16 272.642 1107.27 272.399 1108.25 271.866C1109.51 271.304 1110.56 270.359 1111.25 269.166C1111.92 267.954 1112.31 266.604 1112.38 265.219C1112.47 263.68 1112.35 262.136 1112.02 260.63C1111.68 259.046 1111.18 257.5 1110.54 256.016C1109.97 254.668 1109.1 253.465 1108 252.498C1107.02 251.651 1105.87 251.027 1104.63 250.67C1103.45 250.331 1102.21 250.226 1100.99 250.36C1099.83 250.481 1098.7 250.832 1097.68 251.393Z" fill="#75E371"/>
<path d="M1033.12 503.416C1033.12 503.416 1033.36 503.783 1033.75 504.368C1034.13 504.953 1034.66 505.756 1035.24 506.627C1035.82 507.498 1036.44 508.438 1037.03 509.298C1037.62 510.158 1038.16 510.932 1038.56 511.487C1039.31 512.625 1039.92 513.849 1040.38 515.132C1040.85 516.394 1041.22 517.693 1041.57 518.996C1041.93 520.299 1042.27 521.606 1042.72 522.886C1043.14 524.184 1043.71 525.433 1044.41 526.611C1045.86 529.005 1047.61 531.205 1049.62 533.159C1051.64 535.116 1053.84 536.865 1056.21 538.38C1058.6 539.917 1061.11 541.269 1063.71 542.425C1066.3 543.583 1068.96 544.59 1071.68 545.443C1073.35 545.988 1075.07 546.378 1076.82 546.608C1078.56 546.851 1080.33 546.875 1082.09 546.681C1083.7 546.518 1085.26 546.019 1086.66 545.216C1088.02 544.416 1089.09 543.208 1089.72 541.764C1090.29 540.134 1090.44 538.383 1090.15 536.679C1089.86 534.964 1089.14 533.351 1088.05 531.99C1087.5 531.313 1086.93 530.657 1086.34 530.02C1085.74 529.383 1085.13 528.768 1084.5 528.173C1083.86 527.578 1083.2 527.004 1082.53 526.452C1081.85 525.9 1081.15 525.371 1080.44 524.865C1078.71 523.474 1077.03 522.031 1075.38 520.534C1073.74 519.037 1072.14 517.482 1070.57 515.868C1069.01 514.254 1067.48 512.579 1065.99 510.842C1064.5 509.105 1063.04 507.302 1061.62 505.432C1061.19 504.89 1060.72 504.384 1060.2 503.919C1059.66 503.409 1059.06 502.89 1058.45 502.353C1057.85 501.816 1057.24 501.262 1056.68 500.682C1056.13 500.123 1055.63 499.51 1055.2 498.853C1054.98 498.509 1054.74 498.127 1054.5 497.715C1054.25 497.303 1054 496.863 1053.75 496.402C1053.49 495.941 1053.23 495.461 1052.98 494.97C1052.73 494.479 1052.48 493.977 1052.24 493.47L1033.12 503.416Z" fill="#75E371"/>
<path style="mix-blend-mode:overlay" opacity="0.76" d="M1920 0H0V368H1920V0Z" fill="url(#paint1_linear_530_3)"/>
<path style="mix-blend-mode:overlay" opacity="0.32" d="M1920 1080V0L0 0V1080L1920 1080Z" fill="url(#paint2_linear_530_3)"/>
<g style="mix-blend-mode:hue">
<path d="M1214.57 1014.98L1308.2 995.149L1151.47 896.517L1215.8 886.836L1393.95 976.993L1472.77 960.299L1470.19 1052.07L1214.57 1014.98Z" fill="#C400C6"/>
</g>
<path opacity="0.566" d="M975.306 791.029L994.826 789.198L1033.16 814.568L1078.11 809.779L1032.9 785.629L1051.46 783.887L1001.01 779.705L975.306 791.029Z" fill="white"/>
<path opacity="0.566" d="M656.12 915.465L662.193 905.437L933.358 871.278L924.92 857.455L672.987 887.616L677.804 879.662L546.799 911.033L656.12 915.465Z" fill="white"/>
<path opacity="0.566" d="M1479.73 808.834L1460.93 804.82L1301.1 824.954L1272.82 815.803L1426.33 797.43L1410.37 794.021L1499.08 794.162L1479.73 808.834Z" fill="white"/>
</g>
<defs>
<filter id="filter0_d_530_3" x="1131.26" y="441.251" width="67.8164" height="48.2312" filterUnits="userSpaceOnUse" color-interpolation-filters="sRGB">
<feFlood flood-opacity="0" result="BackgroundImageFix"/>
<feColorMatrix in="SourceAlpha" type="matrix" values="0 0 0 0 0 0 0 0 0 0 0 0 0 0 0 0 0 0 127 0" result="hardAlpha"/>
<feOffset dx="-2" dy="2"/>
<feGaussianBlur stdDeviation="1.5"/>
<feColorMatrix type="matrix" values="0 0 0 0 0 0 0 0 0 0 0 0 0 0 0 0 0 0 0.161 0"/>
<feBlend mode="normal" in2="BackgroundImageFix" result="effect1_dropShadow_530_3"/>
<feBlend mode="normal" in="SourceGraphic" in2="effect1_dropShadow_530_3" result="shape"/>
</filter>
<linearGradient id="paint0_linear_530_3" x1="649" y1="52" x2="649" y2="263" gradientUnits="userSpaceOnUse">
<stop stop-color="#D14FC5"/>
<stop offset="1" stop-color="#8121EB"/>
</linearGradient>
<linearGradient id="paint1_linear_530_3" x1="960" y1="0" x2="960" y2="368" gradientUnits="userSpaceOnUse">
<stop stop-color="#D14FC5"/>
<stop offset="1" stop-color="#8121EB"/>
</linearGradient>
<linearGradient id="paint2_linear_530_3" x1="1920" y1="540" x2="0" y2="540" gradientUnits="userSpaceOnUse">
<stop stop-color="#D14FC5"/>
<stop offset="1" stop-color="#8121EB"/>
</linearGradient>
<clipPath id="clip0_530_3">
<rect width="1920" height="1080" fill="white"/>
</clipPath>
</defs>
</svg>
