<svg xmlns="http://www.w3.org/2000/svg" width="72" height="72" viewBox="0 0 72 72">
    <defs>
        <style>
            .cls-1{fill:#7e0cf5}
        </style>
    </defs>
    <g id="ic-matematica" transform="translate(-1039 -170)">
        <g id="ic" transform="translate(1047 178)">
            <path id="Path_6471" d="M78.718 4.166a1.491 1.491 0 0 1 1.488 1.489v18.274a1.49 1.49 0 0 1-1.488 1.488H60.444a1.49 1.49 0 0 1-1.488-1.488V5.655a1.49 1.49 0 0 1 1.488-1.489h18.274m0-2.166H60.444a3.655 3.655 0 0 0-3.655 3.655v18.274a3.655 3.655 0 0 0 3.655 3.655h18.274a3.654 3.654 0 0 0 3.655-3.655V5.655A3.655 3.655 0 0 0 78.718 2" class="cls-1" transform="translate(-27.174 -2)"/>
            <path id="Path_6472" d="M80.311 18.227h-4.859v-4.858a1.219 1.219 0 0 0-2.437 0v4.858h-4.858a1.218 1.218 0 0 0 0 2.437h4.858v4.859a1.219 1.219 0 0 0 2.437 0v-4.86h4.858a1.218 1.218 0 1 0 0-2.437" class="cls-1" transform="translate(-31.768 -6.653)"/>
            <path id="Path_6473" d="M23.982 4.166a1.49 1.49 0 0 1 1.489 1.489v18.274a1.49 1.49 0 0 1-1.489 1.488H5.708a1.49 1.49 0 0 1-1.488-1.488V5.655a1.49 1.49 0 0 1 1.488-1.489h18.274m0-2.166H5.708a3.655 3.655 0 0 0-3.655 3.655v18.274a3.655 3.655 0 0 0 3.655 3.655h18.274a3.655 3.655 0 0 0 3.655-3.655V5.655A3.655 3.655 0 0 0 23.982 2" class="cls-1" transform="translate(-2.023 -2)"/>
            <path id="Path_6474" d="M14.518 23.37h10.964a1.218 1.218 0 1 1 0 2.437H14.518a1.218 1.218 0 1 1 0-2.437" class="cls-1" transform="translate(-7.18 -11.796)"/>
            <path id="Path_6475" d="M74.736 83.428a1.827 1.827 0 1 1 1.828-1.828 1.827 1.827 0 0 1-1.827 1.827m0-13.4a1.828 1.828 0 1 1-1.827 1.828 1.827 1.827 0 0 1 1.827-1.828m-5.483 5.635h10.964a1.219 1.219 0 0 1 0 2.437H69.254a1.219 1.219 0 0 1 0-2.437" class="cls-1" transform="translate(-32.27 -33.184)"/>
            <path id="Path_6476" d="M78.718 59.244a1.49 1.49 0 0 1 1.488 1.489v18.274a1.49 1.49 0 0 1-1.488 1.493H60.444a1.49 1.49 0 0 1-1.488-1.488V60.733a1.49 1.49 0 0 1 1.488-1.489h18.274m0-2.166H60.444a3.655 3.655 0 0 0-3.655 3.655v18.274a3.656 3.656 0 0 0 3.655 3.655h18.274a3.654 3.654 0 0 0 3.655-3.655V60.733a3.654 3.654 0 0 0-3.655-3.655" class="cls-1" transform="translate(-27.174 -27.248)"/>
            <path id="Path_6477" d="M23.929 59.111a1.49 1.49 0 0 1 1.489 1.489v18.274a1.49 1.49 0 0 1-1.489 1.488H5.655a1.49 1.49 0 0 1-1.488-1.488V60.6a1.49 1.49 0 0 1 1.488-1.489h18.274m0-2.166H5.655A3.655 3.655 0 0 0 2 60.6v18.274a3.655 3.655 0 0 0 3.655 3.655h18.274a3.655 3.655 0 0 0 3.655-3.655V60.6a3.655 3.655 0 0 0-3.655-3.655" class="cls-1" transform="translate(-2 -27.187)"/>
            <path id="Path_6478" d="M26.11 79.332L22.675 75.9l3.435-3.435a1.219 1.219 0 1 0-1.723-1.723l-3.435 3.436-3.436-3.436a1.218 1.218 0 0 0-1.723 1.723l3.435 3.435-3.435 3.435a1.218 1.218 0 0 0 1.723 1.723l3.436-3.435 3.435 3.435a1.218 1.218 0 1 0 1.723-1.723" class="cls-1" transform="translate(-8.16 -33.346)"/>
        </g>
        <path id="area" fill="none" d="M0 0H72V72H0z" transform="translate(1039 170)"/>
    </g>
</svg>
