<svg xmlns="http://www.w3.org/2000/svg" xmlns:xlink="http://www.w3.org/1999/xlink" width="340.067" height="338.393">
    <defs>
        <linearGradient id="linear-gradient" x1=".5" x2=".584" y2="1.487" gradientUnits="objectBoundingBox">
            <stop offset="0" stop-color="#d14fc5"/>
            <stop offset="1" stop-color="#8121eb"/>
        </linearGradient>
        <linearGradient id="linear-gradient-2" x2=".5" y2="1" xlink:href="#linear-gradient"/>
        <clipPath id="clip-path">
            <rect id="Rectangle_1095" data-name="Rectangle 1095" width="231" height="290" rx="26" transform="translate(0 .384)" style="stroke:#f50c0c;fill:none"/>
        </clipPath>
        <style>
            .cls-3{fill:none}.cls-16,.cls-4{fill:#7e0cf5}.cls-4{opacity:.2}.cls-8{fill:#5eb359}.cls-10{fill:#2f2e41}.cls-11{fill:#75e371}.cls-15,.cls-16{stroke:none}
        </style>
    </defs>
    <g id="ilust" transform="translate(35.054 -480.944)">
        <g id="Group_854" data-name="Group 854" transform="rotate(142 32.197 614.588)" style="opacity:.3">
            <g id="Union_26" data-name="Union 26" class="cls-3">
                <path class="cls-15" d="M13.448 120.276a116.351 116.351 0 0 1 6.9-39.593H0L31 25.4l10.6 18.909A116.71 116.71 0 0 1 166.5 9.57L171.824 0l7.476 13.447h-2.656a116.572 116.572 0 0 1 37.459 187.5l16 27.654h-44.085l5.339-9.23a116.565 116.565 0 0 1-177.909-99.095z" transform="translate(-150 404.999)"/>
                <path class="cls-16" d="M129.989 235.817c10.938 0 21.76-1.526 32.167-4.537a114.962 114.962 0 0 0 28.674-12.76l1.393 1.35-4.471 7.73h40.61l-15.13-26.154-.376-.651.52-.542a116.343 116.343 0 0 0 13.426-16.89 115.508 115.508 0 0 0 10.12-19.245 114.973 114.973 0 0 0 6.384-21.17 116.443 116.443 0 0 0 2.224-22.672c0-22.91-6.69-45.052-19.348-64.03a116.077 116.077 0 0 0-21.908-24.47 115.491 115.491 0 0 0-28.035-17.413l.4-1.916h.957l-5.772-10.388-4.443 7.997-.401.723-.786-.259C154.55 6.681 142.37 4.735 129.99 4.735c-8.602 0-17.18.95-25.494 2.822a114.92 114.92 0 0 0-23.51 8.055 115.744 115.744 0 0 0-20.916 12.674 116.44 116.44 0 0 0-17.704 16.676l-.932 1.083-.698-1.246-9.733-17.354L1.707 79.683H21.77l-.484 1.34c-4.537 12.565-6.838 25.772-6.838 39.253 0 7.84.79 15.675 2.347 23.287a114.953 114.953 0 0 0 6.732 21.686 115.55 115.55 0 0 0 10.653 19.626 116.376 116.376 0 0 0 14.11 17.1 116.375 116.375 0 0 0 17.1 14.11 115.55 115.55 0 0 0 19.625 10.653 114.952 114.952 0 0 0 21.687 6.732 116.398 116.398 0 0 0 23.287 2.347m0 1c-64.364 0-116.541-52.178-116.541-116.541 0-13.899 2.434-27.233 6.898-39.593H0l31.002-55.282L41.607 44.31C62.979 19.469 94.649 3.735 129.989 3.735c12.755 0 25.03 2.048 36.518 5.836L171.824 0l7.471 13.447h-2.656c41.145 17.99 69.89 59.052 69.89 106.829 0 31.306-12.344 59.73-32.43 80.669l15.996 27.654h-44.077l5.34-9.23c-17.823 11.06-38.851 17.448-61.37 17.448z" transform="translate(-150 404.999)"/>
            </g>
            <path id="Polygon_21" data-name="Polygon 21" class="cls-4" d="m9.712 0 9.712 17.929H0z" transform="translate(16.594 405)"/>
            <path id="Polygon_22" data-name="Polygon 22" class="cls-4" d="m24.653 0 24.653 44.076H0z" transform="translate(39.753 597.741)"/>
            <g id="Polygon_24" data-name="Polygon 24" class="cls-3">
                <path class="cls-15" d="m22.038 0 22.038 38.1H0z" transform="translate(36.017 595.5)"/>
                <path class="cls-16" d="M22.038 3.994 3.468 36.1h37.141L22.04 3.994m0-3.994 22.037 38.1H0L22.038 0z" transform="translate(36.017 595.5)"/>
            </g>
            <g id="Polygon_25" data-name="Polygon 25" class="cls-3">
                <path class="cls-15" d="m7.471 0 7.471 13.447H0z" transform="translate(14.353 405)"/>
                <path class="cls-16" d="M7.47 4.118 3.4 11.447h8.143L7.471 4.118M7.47 0l7.47 13.447H0L7.47 0z" transform="translate(14.353 405)"/>
            </g>
            <path id="Polygon_23" data-name="Polygon 23" class="cls-4" d="m31 0 31 55.282H0z" transform="translate(-145.518 418.447)"/>
            <g id="Polygon_26" data-name="Polygon 26" class="cls-3">
                <path class="cls-15" d="m31 0 31 55.282H0z" transform="translate(-150 430.4)"/>
                <path class="cls-16" d="M31.003 4.089 3.415 53.282H58.59L31.003 4.09m0-4.089 31.003 55.282H0L31.003 0z" transform="translate(-150 430.4)"/>
            </g>
        </g>
        <g id="Mask_Group_7" data-name="Mask Group 7" transform="translate(-32 489.615)" style="clip-path:url(#clip-path)">
            <g id="Group_685" data-name="Group 685" transform="rotate(1 -913.163 -4818.529)">
                <path id="Path_6815" data-name="Path 6815" d="m1.4 86.024 22-.41-4.765-79.173L0 0z" transform="rotate(-16.05 189.17 -589.95)" style="fill:#790b7a"/>
                <ellipse id="Ellipse_171" data-name="Ellipse 171" cx="178.457" cy="32.707" rx="178.457" ry="32.707" transform="rotate(-179.908 178.686 284.653)" style="fill:#e6e6e6"/>
                <path id="Path_6803" data-name="Path 6803" class="cls-8" d="M2.767 121.875.86 135.037a11.638 11.638 0 0 0 13.082 13.225 11.623 11.623 0 0 0 9.2-15.716l-6.522-16.921L22.19 8.1 0 0l1.614 71.792z" transform="rotate(10.02 -804.795 774.319)"/>
                <path id="Path_6804" data-name="Path 6804" d="m9.857 59.873 49.856 33.472C53.976 62.894 48.855 28.091 51.223 0L0 9.87c1.824 26.497 18.446 15.264 9.857 50.003z" transform="rotate(19 -113.781 486.927)" style="fill:#50994d"/>
                <path id="Union_11" data-name="Union 11" class="cls-10" d="M38.417 119.164 20.573 66.223a39.942 39.942 0 0 1-11.04-4.066A31.848 31.848 0 0 1 0 52.878v-22.17a20.974 20.974 0 0 1 13.113-19.472C16.044 9.777 19.4 8.53 22.4 6.984l10.012-4.16C42.147 14.051 58.566 9.97 75.5 0c22.238 6 28.81 14.051 29.417 23.559l.928 14.479c10.246 9.944 11.636 24.955 2.937 45.744l2.747 42.863z" transform="translate(119.85 101.786)"/>
                <path id="Path_6806" data-name="Path 6806" class="cls-11" d="m63 81.815 21.306 11.227a9.165 9.165 0 0 0 11.17-2.08 9.234 9.234 0 0 0-5.048-15.134l-18.354-2.415L20.7 51.212 25.293 0 0 6.011l1.02 60.565z" transform="rotate(-8 1225.257 -1417.486)"/>
                <path id="Path_6808" data-name="Path 6808" class="cls-11" d="m0 276.449 14.9-3.412s5.72-42.308 7.991-63.918C27.509 165.171 36.6 123.737 46.5 84.891c24.719 32.9 47.806 76.182 67.363 130.462a289561.3 289561.3 0 0 0 21.454 59.485l17.135-1.864L139 209.057 94.292 1.4 20.867 0C-2.854 32.625.044 119.684 1.375 209.117z" transform="translate(136.494 223.096)"/>
                <path id="Path_6898" data-name="Path 6898" class="cls-8" d="m0 276.323 15.526-2.6s5.092-42.993 7.363-64.6C27.507 165.171 36.6 123.737 46.5 84.891 71.22 117.792 20.865 0 20.865 0-2.856 32.625.043 119.684 1.373 209.117z" transform="translate(136.495 223.096)"/>
                <path id="Path_6814" data-name="Path 6814" d="M26.659 209.057c4.22-39.911 10.355-78.331 18.946-114.35l10.6 1.632c21.219 31.127 40.48 71.756 57.966 120.327 0 0 5.712 1.669 16.312-1.707s12.746-6.005 12.746-6.005L95.817 1.4 22.391 0C-.837 31.948-.829 115.517.432 202.991l.082 5.6a29.678 29.678 0 0 0 3.752 1.873 24.5 24.5 0 0 0 8.815 2.027c6.537.116 13.578-3.434 13.578-3.434z" transform="translate(134.898 219.004)" style="fill:#7e1ef5"/>
                <path id="Path_6809" data-name="Path 6809" d="m12.4 32.13 35.573-4.987a7.033 7.033 0 0 0 5.788-8.827A7.036 7.036 0 0 0 48 13.194l-6.322-.921L21.678 0 5.147 4.418.253 18.946A10.928 10.928 0 0 0 12.4 32.13z" transform="rotate(7 -3875.478 2421.71)"/>
                <path id="Path_6810" data-name="Path 6810" d="m11.768 30.5 33.759-4.743a6.68 6.68 0 0 0 5.495-8.379 6.672 6.672 0 0 0-5.472-4.86l-6-.872L20.578 0 4.889 4.2.241 17.988a10.415 10.415 0 0 0 2.511 9.279 10.311 10.311 0 0 0 9.016 3.233z" transform="rotate(3 -9386.147 2759.678)"/>
                <path id="Path_6811" data-name="Path 6811" class="cls-10" d="m.929 53.225 30.018-9.974a123.354 123.354 0 0 0-.375-21.509C28.692 7.826 13.457 3.8 0 0z" transform="translate(204.085 110.266)"/>
                <path id="Path_6897" data-name="Path 6897" d="M13.02 0c6.918-.012 11.094 3.69 11.367 11.886.115 12.425-6.3 10.959-11.407 10.73S.749 25.731.045 14.3C-.617 4.089 6.1.012 13.02 0z" transform="rotate(-27 89.517 -271.28)" style="fill:url(#linear-gradient)"/>
                <path id="Path_7147" data-name="Path 7147" class="cls-11" d="M22.97 0c12.666-.018 23.878 11.832 23.857 26.471s-7.885 34.546-14 34.251S-.021 41.177 0 26.538 10.305.018 22.97 0z" transform="rotate(-21 175.192 -386.909)"/>
                <path id="Path_6812" data-name="Path 6812" d="M69.994 28.507S64-3.241 37.253.271c0 0-25.4-4.652-33.772 27.264 0 0-3.864 40.015-3.45 53.382a21.722 21.722 0 0 1 2.21-1.517c11.422 15.582 48.566 24.624 48.566 24.624s-1.47-43.766-1.829-69.774l5.265.45z" transform="rotate(-16.05 169.661 -437.704)" style="fill:url(#linear-gradient-2)"/>
            </g>
        </g>
    </g>
</svg>
